solid 221r
  facet normal 0.000000 1.000000 -0.000000
    outer loop
      vertex -10.000000 0.000000 15.000000
      vertex -15.000000 0.000000 10.000000
      vertex -15.000000 0.000000 15.000000
    endloop
  endfacet
  facet normal -0.000000 1.000000 -0.000000
    outer loop
      vertex -15.000000 0.000000 10.000000
      vertex -10.000000 0.000000 15.000000
      vertex -10.000000 0.000000 10.000000
    endloop
  endfacet
  facet normal -0.000000 1.000000 -0.000000
    outer loop
      vertex 4.000000 0.000000 -11.000000
      vertex 11.000000 0.000000 -4.000000
      vertex 11.000000 0.000000 -11.000000
    endloop
  endfacet
  facet normal 0.000000 1.000000 -0.000000
    outer loop
      vertex 11.000000 0.000000 -4.000000
      vertex 4.000000 0.000000 -11.000000
      vertex 4.000000 0.000000 -4.000000
    endloop
  endfacet
  facet normal -0.000000 1.000000 -0.000000
    outer loop
      vertex 0.000000 0.000000 -15.000000
      vertex 11.000000 0.000000 -11.000000
      vertex 15.000000 0.000000 -15.000000
    endloop
  endfacet
  facet normal 0.000000 1.000000 -0.000000
    outer loop
      vertex 11.000000 0.000000 -11.000000
      vertex 0.000000 0.000000 -15.000000
      vertex 4.000000 0.000000 -11.000000
    endloop
  endfacet
  facet normal -0.000000 1.000000 -0.000000
    outer loop
      vertex 4.000000 0.000000 -11.000000
      vertex 0.000000 0.000000 -15.000000
      vertex 4.000000 0.000000 -4.000000
    endloop
  endfacet
  facet normal -0.000000 1.000000 0.000000
    outer loop
      vertex 4.000000 0.000000 -4.000000
      vertex 0.000000 0.000000 -15.000000
      vertex 0.000000 0.000000 0.000000
    endloop
  endfacet
  facet normal -0.000000 1.000000 0.000000
    outer loop
      vertex 15.000000 0.000000 0.000000
      vertex 11.000000 0.000000 -4.000000
      vertex 0.000000 0.000000 0.000000
    endloop
  endfacet
  facet normal 0.000000 1.000000 -0.000000
    outer loop
      vertex 11.000000 0.000000 -4.000000
      vertex 15.000000 0.000000 0.000000
      vertex 15.000000 0.000000 -15.000000
    endloop
  endfacet
  facet normal 0.000000 1.000000 0.000000
    outer loop
      vertex 11.000000 0.000000 -4.000000
      vertex 15.000000 0.000000 -15.000000
      vertex 11.000000 0.000000 -11.000000
    endloop
  endfacet
  facet normal 0.000000 1.000000 0.000000
    outer loop
      vertex 0.000000 0.000000 0.000000
      vertex 11.000000 0.000000 -4.000000
      vertex 4.000000 0.000000 -4.000000
    endloop
  endfacet
  facet normal 0.000000 0.970143 0.242536
    outer loop
      vertex 0.000000 7.500000 -15.000000
      vertex 11.000000 6.500000 -11.000000
      vertex 15.000000 7.500000 -15.000000
    endloop
  endfacet
  facet normal 0.000000 0.970143 0.242536
    outer loop
      vertex 11.000000 6.500000 -11.000000
      vertex 0.000000 7.500000 -15.000000
      vertex 6.000000 6.500000 -11.000000
    endloop
  endfacet
  facet normal 0.000000 0.970143 0.242536
    outer loop
      vertex 6.000000 6.500000 -11.000000
      vertex 0.000000 7.500000 -15.000000
      vertex 4.000000 6.500000 -11.000000
    endloop
  endfacet
  facet normal 0.000000 -0.000000 1.000000
    outer loop
      vertex 11.000000 6.500000 -11.000000
      vertex 4.000000 0.000000 -11.000000
      vertex 11.000000 0.000000 -11.000000
    endloop
  endfacet
  facet normal 0.000000 0.000000 1.000000
    outer loop
      vertex 4.000000 0.000000 -11.000000
      vertex 11.000000 6.500000 -11.000000
      vertex 4.000000 6.500000 -11.000000
    endloop
  endfacet
  facet normal 0.000000 1.000000 -0.000000
    outer loop
      vertex 4.000000 6.500000 -11.000000
      vertex 11.000000 6.500000 -11.000000
      vertex 6.000000 6.500000 -11.000000
    endloop
  endfacet
  facet normal 0.000000 0.000000 -1.000000
    outer loop
      vertex 0.000000 7.500000 -15.000000
      vertex 15.000000 0.000000 -15.000000
      vertex 0.000000 0.000000 -15.000000
    endloop
  endfacet
  facet normal 0.000000 -0.000000 -1.000000
    outer loop
      vertex 15.000000 0.000000 -15.000000
      vertex 0.000000 7.500000 -15.000000
      vertex 15.000000 6.500000 -15.000000
    endloop
  endfacet
  facet normal 0.000000 -0.000000 -1.000000
    outer loop
      vertex 15.000000 6.500000 -15.000000
      vertex 0.000000 7.500000 -15.000000
      vertex 15.000000 7.500000 -15.000000
    endloop
  endfacet
  facet normal -0.242536 0.970143 -0.000000
    outer loop
      vertex 11.000000 6.500000 -11.000000
      vertex 15.000000 7.500000 0.000000
      vertex 15.000000 7.500000 -15.000000
    endloop
  endfacet
  facet normal -0.242536 0.970143 -0.000000
    outer loop
      vertex 15.000000 7.500000 0.000000
      vertex 11.000000 6.500000 -11.000000
      vertex 11.000000 6.500000 -4.000000
    endloop
  endfacet
  facet normal 0.000000 0.000000 -1.000000
    outer loop
      vertex 4.000000 6.500000 -4.000000
      vertex 11.000000 0.000000 -4.000000
      vertex 4.000000 0.000000 -4.000000
    endloop
  endfacet
  facet normal 0.000000 -0.000000 -1.000000
    outer loop
      vertex 11.000000 0.000000 -4.000000
      vertex 4.000000 6.500000 -4.000000
      vertex 11.000000 6.500000 -4.000000
    endloop
  endfacet
  facet normal -1.000000 0.000000 -0.000000
    outer loop
      vertex 11.000000 0.000000 -4.000000
      vertex 11.000000 6.500000 -11.000000
      vertex 11.000000 0.000000 -11.000000
    endloop
  endfacet
  facet normal -1.000000 0.000000 -0.000000
    outer loop
      vertex 11.000000 6.500000 -11.000000
      vertex 11.000000 0.000000 -4.000000
      vertex 11.000000 6.500000 -4.000000
    endloop
  endfacet
  facet normal 1.000000 0.000000 -0.000000
    outer loop
      vertex 15.000000 7.500000 0.000000
      vertex 15.000000 6.500000 -15.000000
      vertex 15.000000 7.500000 -15.000000
    endloop
  endfacet
  facet normal 1.000000 0.000000 -0.000000
    outer loop
      vertex 15.000000 6.500000 -15.000000
      vertex 15.000000 7.500000 0.000000
      vertex 15.000000 0.000000 -15.000000
    endloop
  endfacet
  facet normal 1.000000 0.000000 -0.000000
    outer loop
      vertex 15.000000 0.000000 -15.000000
      vertex 15.000000 7.500000 0.000000
      vertex 15.000000 0.000000 0.000000
    endloop
  endfacet
  facet normal -0.000000 0.970143 -0.242536
    outer loop
      vertex 11.000000 6.500000 -4.000000
      vertex 0.000000 7.500000 0.000000
      vertex 15.000000 7.500000 0.000000
    endloop
  endfacet
  facet normal 0.000000 0.970143 -0.242536
    outer loop
      vertex 0.000000 7.500000 0.000000
      vertex 11.000000 6.500000 -4.000000
      vertex 4.000000 6.500000 -4.000000
    endloop
  endfacet
  facet normal -0.000000 0.000000 1.000000
    outer loop
      vertex 15.000000 0.000000 0.000000
      vertex 0.000000 6.500000 0.000000
      vertex 0.000000 0.000000 0.000000
    endloop
  endfacet
  facet normal 0.000000 0.000000 1.000000
    outer loop
      vertex 0.000000 6.500000 0.000000
      vertex 15.000000 0.000000 0.000000
      vertex 15.000000 7.500000 0.000000
    endloop
  endfacet
  facet normal 0.000000 0.000000 1.000000
    outer loop
      vertex 0.000000 6.500000 0.000000
      vertex 15.000000 7.500000 0.000000
      vertex 0.000000 7.500000 0.000000
    endloop
  endfacet
  facet normal -1.000000 0.000000 0.000000
    outer loop
      vertex 0.000000 0.000000 0.000000
      vertex 0.000000 7.500000 -15.000000
      vertex 0.000000 0.000000 -15.000000
    endloop
  endfacet
  facet normal -1.000000 0.000000 0.000000
    outer loop
      vertex 0.000000 7.500000 -15.000000
      vertex 0.000000 0.000000 0.000000
      vertex 0.000000 7.500000 0.000000
    endloop
  endfacet
  facet normal 0.000000 1.000000 -0.000000
    outer loop
      vertex 0.000000 7.500000 0.000000
      vertex 0.000000 0.000000 0.000000
      vertex 0.000000 6.500000 0.000000
    endloop
  endfacet
  facet normal 0.000000 1.000000 -0.000000
    outer loop
      vertex 4.000000 6.500000 -11.000000
      vertex 4.000000 6.500000 -4.000000
      vertex 4.000000 6.500000 -9.000000
    endloop
  endfacet
  facet normal 0.242536 0.970143 0.000000
    outer loop
      vertex 4.000000 6.500000 -4.000000
      vertex 4.000000 6.500000 -11.000000
      vertex 0.000000 7.500000 -15.000000
    endloop
  endfacet
  facet normal 0.242536 0.970143 -0.000000
    outer loop
      vertex 4.000000 6.500000 -4.000000
      vertex 0.000000 7.500000 -15.000000
      vertex 0.000000 7.500000 0.000000
    endloop
  endfacet
  facet normal 1.000000 0.000000 -0.000000
    outer loop
      vertex 4.000000 6.500000 -9.000000
      vertex 4.000000 0.000000 -11.000000
      vertex 4.000000 6.500000 -11.000000
    endloop
  endfacet
  facet normal 1.000000 -0.000000 -0.000000
    outer loop
      vertex 4.000000 0.000000 -11.000000
      vertex 4.000000 6.500000 -9.000000
      vertex 4.000000 0.000000 -4.000000
    endloop
  endfacet
  facet normal 1.000000 0.000000 0.000000
    outer loop
      vertex 4.000000 0.000000 -4.000000
      vertex 4.000000 6.500000 -9.000000
      vertex 4.000000 6.500000 -4.000000
    endloop
  endfacet
  facet normal 0.000000 1.000000 -0.000000
    outer loop
      vertex 0.000000 0.000000 -4.000000
      vertex -6.000000 0.000000 -11.000000
      vertex -6.000000 0.000000 -4.000000
    endloop
  endfacet
  facet normal -0.000000 1.000000 -0.000000
    outer loop
      vertex -6.000000 0.000000 -11.000000
      vertex 0.000000 0.000000 -4.000000
      vertex 0.000000 0.000000 -11.000000
    endloop
  endfacet
  facet normal 0.000000 1.000000 0.000000
    outer loop
      vertex -4.012238 0.000000 10.000000
      vertex -5.212238 0.000000 9.700000
      vertex -5.212238 0.000000 10.000000
    endloop
  endfacet
  facet normal 0.000000 1.000000 0.000000
    outer loop
      vertex -5.212238 0.000000 9.700000
      vertex -4.012238 0.000000 10.000000
      vertex -4.012238 0.000000 9.700000
    endloop
  endfacet
  facet normal -0.000000 0.997459 -0.071247
    outer loop
      vertex 0.000000 7.500000 10.000000
      vertex -6.000000 6.500000 -4.000000
      vertex -15.000000 7.500000 10.000000
    endloop
  endfacet
  facet normal -0.000000 0.997459 -0.071247
    outer loop
      vertex -6.000000 6.500000 -4.000000
      vertex 0.000000 7.500000 10.000000
      vertex 0.000000 6.500000 -4.000000
    endloop
  endfacet
  facet normal 0.000000 0.000000 -1.000000
    outer loop
      vertex -6.000000 6.500000 -4.000000
      vertex 0.000000 0.000000 -4.000000
      vertex -6.000000 0.000000 -4.000000
    endloop
  endfacet
  facet normal 0.000000 -0.000000 -1.000000
    outer loop
      vertex 0.000000 0.000000 -4.000000
      vertex -6.000000 6.500000 -4.000000
      vertex 0.000000 6.500000 -4.000000
    endloop
  endfacet
  facet normal 0.110432 0.993884 -0.000000
    outer loop
      vertex -15.000000 7.500000 10.000000
      vertex -6.000000 6.500000 -11.000000
      vertex -15.000000 7.500000 -15.000000
    endloop
  endfacet
  facet normal 0.110432 0.993884 -0.000000
    outer loop
      vertex -6.000000 6.500000 -11.000000
      vertex -15.000000 7.500000 10.000000
      vertex -6.000000 6.500000 -4.000000
    endloop
  endfacet
  facet normal 0.000000 -0.000000 1.000000
    outer loop
      vertex 0.000000 6.500000 -11.000000
      vertex -6.000000 0.000000 -11.000000
      vertex 0.000000 0.000000 -11.000000
    endloop
  endfacet
  facet normal 0.000000 0.000000 1.000000
    outer loop
      vertex -6.000000 0.000000 -11.000000
      vertex 0.000000 6.500000 -11.000000
      vertex -6.000000 6.500000 -11.000000
    endloop
  endfacet
  facet normal 1.000000 0.000000 0.000000
    outer loop
      vertex -6.000000 0.000000 -11.000000
      vertex -6.000000 6.500000 -4.000000
      vertex -6.000000 0.000000 -4.000000
    endloop
  endfacet
  facet normal 1.000000 0.000000 0.000000
    outer loop
      vertex -6.000000 6.500000 -4.000000
      vertex -6.000000 0.000000 -11.000000
      vertex -6.000000 6.500000 -11.000000
    endloop
  endfacet
  facet normal -1.000000 0.000000 0.000000
    outer loop
      vertex -15.000000 7.500000 -15.000000
      vertex -15.000000 6.500000 10.000000
      vertex -15.000000 7.500000 10.000000
    endloop
  endfacet
  facet normal -1.000000 -0.000000 0.000000
    outer loop
      vertex -15.000000 6.500000 10.000000
      vertex -15.000000 7.500000 -15.000000
      vertex -15.000000 0.000000 10.000000
    endloop
  endfacet
  facet normal -1.000000 0.000000 0.000000
    outer loop
      vertex -15.000000 0.000000 10.000000
      vertex -15.000000 7.500000 -15.000000
      vertex -15.000000 0.000000 -15.000000
    endloop
  endfacet
  facet normal 0.000000 0.970143 0.242536
    outer loop
      vertex -6.000000 6.500000 -11.000000
      vertex 0.000000 7.500000 -15.000000
      vertex -15.000000 7.500000 -15.000000
    endloop
  endfacet
  facet normal 0.000000 0.970143 0.242536
    outer loop
      vertex 0.000000 7.500000 -15.000000
      vertex -6.000000 6.500000 -11.000000
      vertex 0.000000 6.500000 -11.000000
    endloop
  endfacet
  facet normal -0.000000 0.000000 -1.000000
    outer loop
      vertex -15.000000 0.000000 -15.000000
      vertex 0.000000 6.500000 -15.000000
      vertex 0.000000 0.000000 -15.000000
    endloop
  endfacet
  facet normal 0.000000 0.000000 -1.000000
    outer loop
      vertex 0.000000 6.500000 -15.000000
      vertex -15.000000 0.000000 -15.000000
      vertex -15.000000 7.500000 -15.000000
    endloop
  endfacet
  facet normal 0.000000 -0.000000 -1.000000
    outer loop
      vertex 0.000000 6.500000 -15.000000
      vertex -15.000000 7.500000 -15.000000
      vertex 0.000000 7.500000 -15.000000
    endloop
  endfacet
  facet normal 1.000000 0.000000 -0.000000
    outer loop
      vertex 0.000000 0.000000 -15.000000
      vertex 0.000000 6.500000 -11.000000
      vertex 0.000000 0.000000 -11.000000
    endloop
  endfacet
  facet normal 1.000000 0.000000 -0.000000
    outer loop
      vertex 0.000000 6.500000 -11.000000
      vertex 0.000000 0.000000 -15.000000
      vertex 0.000000 7.500000 -15.000000
    endloop
  endfacet
  facet normal 0.000000 1.000000 -0.000000
    outer loop
      vertex 0.000000 7.500000 -15.000000
      vertex 0.000000 0.000000 -15.000000
      vertex 0.000000 6.500000 -15.000000
    endloop
  endfacet
  facet normal 0.000000 -0.000000 1.000000
    outer loop
      vertex -4.012238 2.000000 9.700000
      vertex -5.212238 0.000000 9.700000
      vertex -4.012238 0.000000 9.700000
    endloop
  endfacet
  facet normal 0.000000 0.000000 1.000000
    outer loop
      vertex -5.212238 0.000000 9.700000
      vertex -4.012238 2.000000 9.700000
      vertex -5.212238 2.000000 9.700000
    endloop
  endfacet
  facet normal 1.000000 0.000000 -0.000000
    outer loop
      vertex -5.212238 0.000000 9.700000
      vertex -5.212238 2.000000 10.000000
      vertex -5.212238 0.000000 10.000000
    endloop
  endfacet
  facet normal 1.000000 0.000000 0.000000
    outer loop
      vertex -5.212238 2.000000 10.000000
      vertex -5.212238 0.000000 9.700000
      vertex -5.212238 2.000000 9.700000
    endloop
  endfacet
  facet normal -0.000000 -1.000000 -0.000000
    outer loop
      vertex -4.012238 2.000000 9.700000
      vertex -5.212238 2.000000 10.000000
      vertex -5.212238 2.000000 9.700000
    endloop
  endfacet
  facet normal 0.000000 -1.000000 -0.000000
    outer loop
      vertex -5.212238 2.000000 10.000000
      vertex -4.012238 2.000000 9.700000
      vertex -4.012238 2.000000 10.000000
    endloop
  endfacet
  facet normal -1.000000 0.000000 0.000000
    outer loop
      vertex -4.012238 2.000000 9.700000
      vertex -4.012238 0.000000 10.000000
      vertex -4.012238 2.000000 10.000000
    endloop
  endfacet
  facet normal -1.000000 0.000000 -0.000000
    outer loop
      vertex -4.012238 0.000000 10.000000
      vertex -4.012238 2.000000 9.700000
      vertex -4.012238 0.000000 9.700000
    endloop
  endfacet
  facet normal 0.000000 1.000000 0.000000
    outer loop
      vertex -7.012238 0.000000 10.000000
      vertex -8.212238 0.000000 9.700000
      vertex -8.212238 0.000000 10.000000
    endloop
  endfacet
  facet normal 0.000000 1.000000 0.000000
    outer loop
      vertex -8.212238 0.000000 9.700000
      vertex -7.012238 0.000000 10.000000
      vertex -7.012238 0.000000 9.700000
    endloop
  endfacet
  facet normal 0.000000 -0.000000 1.000000
    outer loop
      vertex -7.012238 2.000000 9.700000
      vertex -8.212238 0.000000 9.700000
      vertex -7.012238 0.000000 9.700000
    endloop
  endfacet
  facet normal 0.000000 0.000000 1.000000
    outer loop
      vertex -8.212238 0.000000 9.700000
      vertex -7.012238 2.000000 9.700000
      vertex -8.212238 2.000000 9.700000
    endloop
  endfacet
  facet normal 1.000000 0.000000 -0.000000
    outer loop
      vertex -8.212238 0.000000 9.700000
      vertex -8.212238 2.000000 10.000000
      vertex -8.212238 0.000000 10.000000
    endloop
  endfacet
  facet normal 1.000000 0.000000 0.000000
    outer loop
      vertex -8.212238 2.000000 10.000000
      vertex -8.212238 0.000000 9.700000
      vertex -8.212238 2.000000 9.700000
    endloop
  endfacet
  facet normal -0.000000 -1.000000 -0.000000
    outer loop
      vertex -7.012238 2.000000 9.700000
      vertex -8.212238 2.000000 10.000000
      vertex -8.212238 2.000000 9.700000
    endloop
  endfacet
  facet normal 0.000000 -1.000000 -0.000000
    outer loop
      vertex -8.212238 2.000000 10.000000
      vertex -7.012238 2.000000 9.700000
      vertex -7.012238 2.000000 10.000000
    endloop
  endfacet
  facet normal -1.000000 0.000000 0.000000
    outer loop
      vertex -7.012238 2.000000 9.700000
      vertex -7.012238 0.000000 10.000000
      vertex -7.012238 2.000000 10.000000
    endloop
  endfacet
  facet normal -1.000000 0.000000 -0.000000
    outer loop
      vertex -7.012238 0.000000 10.000000
      vertex -7.012238 2.000000 9.700000
      vertex -7.012238 0.000000 9.700000
    endloop
  endfacet
  facet normal 0.000000 1.000000 0.000000
    outer loop
      vertex -10.012238 0.000000 10.000000
      vertex -11.212238 0.000000 9.700000
      vertex -11.212238 0.000000 10.000000
    endloop
  endfacet
  facet normal 0.000000 1.000000 0.000000
    outer loop
      vertex -11.212238 0.000000 9.700000
      vertex -10.012238 0.000000 10.000000
      vertex -10.012238 0.000000 9.700000
    endloop
  endfacet
  facet normal 0.000000 -0.000000 1.000000
    outer loop
      vertex -10.012238 2.000000 9.700000
      vertex -11.212238 0.000000 9.700000
      vertex -10.012238 0.000000 9.700000
    endloop
  endfacet
  facet normal 0.000000 0.000000 1.000000
    outer loop
      vertex -11.212238 0.000000 9.700000
      vertex -10.012238 2.000000 9.700000
      vertex -11.212238 2.000000 9.700000
    endloop
  endfacet
  facet normal 1.000000 0.000000 -0.000000
    outer loop
      vertex -11.212238 0.000000 9.700000
      vertex -11.212238 2.000000 10.000000
      vertex -11.212238 0.000000 10.000000
    endloop
  endfacet
  facet normal 1.000000 0.000000 0.000000
    outer loop
      vertex -11.212238 2.000000 10.000000
      vertex -11.212238 0.000000 9.700000
      vertex -11.212238 2.000000 9.700000
    endloop
  endfacet
  facet normal -0.000000 -1.000000 -0.000000
    outer loop
      vertex -10.012238 2.000000 9.700000
      vertex -11.212238 2.000000 10.000000
      vertex -11.212238 2.000000 9.700000
    endloop
  endfacet
  facet normal 0.000000 -1.000000 -0.000000
    outer loop
      vertex -11.212238 2.000000 10.000000
      vertex -10.012238 2.000000 9.700000
      vertex -10.012238 2.000000 10.000000
    endloop
  endfacet
  facet normal -1.000000 0.000000 0.000000
    outer loop
      vertex -10.012238 2.000000 9.700000
      vertex -10.012238 0.000000 10.000000
      vertex -10.012238 2.000000 10.000000
    endloop
  endfacet
  facet normal -1.000000 0.000000 -0.000000
    outer loop
      vertex -10.012238 0.000000 10.000000
      vertex -10.012238 2.000000 9.700000
      vertex -10.012238 0.000000 9.700000
    endloop
  endfacet
  facet normal 0.000000 1.000000 0.000000
    outer loop
      vertex -13.012238 0.000000 10.000000
      vertex -14.212238 0.000000 9.700000
      vertex -14.212238 0.000000 10.000000
    endloop
  endfacet
  facet normal 0.000000 1.000000 0.000000
    outer loop
      vertex -14.212238 0.000000 9.700000
      vertex -13.012238 0.000000 10.000000
      vertex -13.012238 0.000000 9.700000
    endloop
  endfacet
  facet normal 0.000000 -0.000000 1.000000
    outer loop
      vertex -13.012238 2.000000 9.700000
      vertex -14.212238 0.000000 9.700000
      vertex -13.012238 0.000000 9.700000
    endloop
  endfacet
  facet normal 0.000000 0.000000 1.000000
    outer loop
      vertex -14.212238 0.000000 9.700000
      vertex -13.012238 2.000000 9.700000
      vertex -14.212238 2.000000 9.700000
    endloop
  endfacet
  facet normal 1.000000 0.000000 -0.000000
    outer loop
      vertex -14.212238 0.000000 9.700000
      vertex -14.212238 2.000000 10.000000
      vertex -14.212238 0.000000 10.000000
    endloop
  endfacet
  facet normal 1.000000 0.000000 0.000000
    outer loop
      vertex -14.212238 2.000000 10.000000
      vertex -14.212238 0.000000 9.700000
      vertex -14.212238 2.000000 9.700000
    endloop
  endfacet
  facet normal -0.000000 -1.000000 -0.000000
    outer loop
      vertex -13.012238 2.000000 9.700000
      vertex -14.212238 2.000000 10.000000
      vertex -14.212238 2.000000 9.700000
    endloop
  endfacet
  facet normal 0.000000 -1.000000 -0.000000
    outer loop
      vertex -14.212238 2.000000 10.000000
      vertex -13.012238 2.000000 9.700000
      vertex -13.012238 2.000000 10.000000
    endloop
  endfacet
  facet normal -1.000000 0.000000 0.000000
    outer loop
      vertex -13.012238 2.000000 9.700000
      vertex -13.012238 0.000000 10.000000
      vertex -13.012238 2.000000 10.000000
    endloop
  endfacet
  facet normal -1.000000 0.000000 -0.000000
    outer loop
      vertex -13.012238 0.000000 10.000000
      vertex -13.012238 2.000000 9.700000
      vertex -13.012238 0.000000 9.700000
    endloop
  endfacet
  facet normal 0.000000 1.000000 0.000000
    outer loop
      vertex -11.212238 0.000000 10.000000
      vertex -13.012238 0.000000 9.700000
      vertex -13.012238 0.000000 10.000000
    endloop
  endfacet
  facet normal 0.000000 1.000000 0.000000
    outer loop
      vertex -8.212238 0.000000 10.000000
      vertex -10.012238 0.000000 9.700000
      vertex -10.012238 0.000000 10.000000
    endloop
  endfacet
  facet normal 0.000000 1.000000 0.000000
    outer loop
      vertex -0.700000 0.000000 10.000000
      vertex -4.012238 0.000000 9.700000
      vertex -4.012238 0.000000 10.000000
    endloop
  endfacet
  facet normal 0.000000 1.000000 0.000000
    outer loop
      vertex -5.212238 0.000000 10.000000
      vertex -7.012238 0.000000 9.700000
      vertex -7.012238 0.000000 10.000000
    endloop
  endfacet
  facet normal 0.000000 1.000000 0.000000
    outer loop
      vertex -7.012238 0.000000 9.700000
      vertex -5.212238 0.000000 10.000000
      vertex -6.000000 0.000000 -4.000000
    endloop
  endfacet
  facet normal 0.000000 1.000000 0.000000
    outer loop
      vertex -6.000000 0.000000 -4.000000
      vertex -5.212238 0.000000 10.000000
      vertex -5.212238 0.000000 9.700000
    endloop
  endfacet
  facet normal 0.000000 1.000000 0.000000
    outer loop
      vertex -6.000000 0.000000 -4.000000
      vertex -5.212238 0.000000 9.700000
      vertex 0.000000 0.000000 -4.000000
    endloop
  endfacet
  facet normal 0.000000 1.000000 0.000000
    outer loop
      vertex 0.000000 0.000000 -4.000000
      vertex -5.212238 0.000000 9.700000
      vertex -4.012238 0.000000 9.700000
    endloop
  endfacet
  facet normal 0.000000 1.000000 0.000000
    outer loop
      vertex 0.000000 0.000000 -4.000000
      vertex -4.012238 0.000000 9.700000
      vertex -0.700000 0.000000 9.700000
    endloop
  endfacet
  facet normal 0.000000 1.000000 -0.000000
    outer loop
      vertex -0.700000 0.000000 9.700000
      vertex -4.012238 0.000000 9.700000
      vertex -0.700000 0.000000 10.000000
    endloop
  endfacet
  facet normal 0.000000 1.000000 0.000000
    outer loop
      vertex 0.000000 0.000000 -4.000000
      vertex -0.700000 0.000000 9.700000
      vertex 0.000000 0.000000 9.700000
    endloop
  endfacet
  facet normal 0.000000 1.000000 -0.000000
    outer loop
      vertex -15.000000 0.000000 -15.000000
      vertex -6.000000 0.000000 -11.000000
      vertex 0.000000 0.000000 -15.000000
    endloop
  endfacet
  facet normal -0.000000 1.000000 0.000000
    outer loop
      vertex -6.000000 0.000000 -11.000000
      vertex -15.000000 0.000000 -15.000000
      vertex -15.000000 0.000000 10.000000
    endloop
  endfacet
  facet normal -0.000000 1.000000 -0.000000
    outer loop
      vertex -6.000000 0.000000 -11.000000
      vertex -15.000000 0.000000 10.000000
      vertex -14.212238 0.000000 9.700000
    endloop
  endfacet
  facet normal -0.000000 1.000000 0.000000
    outer loop
      vertex -14.212238 0.000000 9.700000
      vertex -15.000000 0.000000 10.000000
      vertex -14.212238 0.000000 10.000000
    endloop
  endfacet
  facet normal 0.000000 1.000000 -0.000000
    outer loop
      vertex -6.000000 0.000000 -11.000000
      vertex -14.212238 0.000000 9.700000
      vertex -13.012238 0.000000 9.700000
    endloop
  endfacet
  facet normal 0.000000 1.000000 0.000000
    outer loop
      vertex -6.000000 0.000000 -11.000000
      vertex -13.012238 0.000000 9.700000
      vertex -11.212238 0.000000 9.700000
    endloop
  endfacet
  facet normal 0.000000 1.000000 0.000000
    outer loop
      vertex -11.212238 0.000000 9.700000
      vertex -13.012238 0.000000 9.700000
      vertex -11.212238 0.000000 10.000000
    endloop
  endfacet
  facet normal 0.000000 1.000000 -0.000000
    outer loop
      vertex -6.000000 0.000000 -11.000000
      vertex -11.212238 0.000000 9.700000
      vertex -10.012238 0.000000 9.700000
    endloop
  endfacet
  facet normal 0.000000 1.000000 0.000000
    outer loop
      vertex -6.000000 0.000000 -11.000000
      vertex -10.012238 0.000000 9.700000
      vertex -8.212238 0.000000 9.700000
    endloop
  endfacet
  facet normal 0.000000 1.000000 0.000000
    outer loop
      vertex -8.212238 0.000000 9.700000
      vertex -10.012238 0.000000 9.700000
      vertex -8.212238 0.000000 10.000000
    endloop
  endfacet
  facet normal 0.000000 1.000000 0.000000
    outer loop
      vertex -6.000000 0.000000 -11.000000
      vertex -8.212238 0.000000 9.700000
      vertex -7.012238 0.000000 9.700000
    endloop
  endfacet
  facet normal -0.000000 1.000000 -0.000000
    outer loop
      vertex -6.000000 0.000000 -11.000000
      vertex -7.012238 0.000000 9.700000
      vertex -6.000000 0.000000 -4.000000
    endloop
  endfacet
  facet normal 0.000000 1.000000 -0.000000
    outer loop
      vertex 0.000000 0.000000 -15.000000
      vertex -6.000000 0.000000 -11.000000
      vertex 0.000000 0.000000 -11.000000
    endloop
  endfacet
  facet normal 1.000000 -0.000000 -0.000000
    outer loop
      vertex 0.000000 0.000000 9.700000
      vertex 0.000000 7.500000 10.000000
      vertex 0.000000 0.000000 10.000000
    endloop
  endfacet
  facet normal 1.000000 -0.000000 -0.000000
    outer loop
      vertex 0.000000 7.500000 10.000000
      vertex 0.000000 0.000000 9.700000
      vertex 0.000000 6.500000 -4.000000
    endloop
  endfacet
  facet normal 1.000000 0.000000 0.000000
    outer loop
      vertex 0.000000 6.500000 -4.000000
      vertex 0.000000 0.000000 9.700000
      vertex 0.000000 0.000000 -4.000000
    endloop
  endfacet
  facet normal -0.000000 0.000000 1.000000
    outer loop
      vertex 0.000000 0.000000 10.000000
      vertex -4.012238 0.000000 10.000000
      vertex -0.700000 0.000000 10.000000
    endloop
  endfacet
  facet normal 0.000000 0.000000 1.000000
    outer loop
      vertex -4.012238 0.000000 10.000000
      vertex 0.000000 0.000000 10.000000
      vertex 0.000000 7.500000 10.000000
    endloop
  endfacet
  facet normal 0.000000 0.000000 1.000000
    outer loop
      vertex -4.012238 0.000000 10.000000
      vertex 0.000000 7.500000 10.000000
      vertex -4.012238 2.000000 10.000000
    endloop
  endfacet
  facet normal 0.000000 0.000000 1.000000
    outer loop
      vertex -4.012238 2.000000 10.000000
      vertex 0.000000 7.500000 10.000000
      vertex -5.212238 2.000000 10.000000
    endloop
  endfacet
  facet normal 0.000000 0.000000 1.000000
    outer loop
      vertex -5.212238 2.000000 10.000000
      vertex 0.000000 7.500000 10.000000
      vertex -4.012238 4.100000 10.000000
    endloop
  endfacet
  facet normal 0.000000 0.000000 1.000000
    outer loop
      vertex -5.212238 2.000000 10.000000
      vertex -4.012238 4.100000 10.000000
      vertex -7.012238 2.000000 10.000000
    endloop
  endfacet
  facet normal 0.000000 0.000000 1.000000
    outer loop
      vertex -7.012238 2.000000 10.000000
      vertex -4.012238 4.100000 10.000000
      vertex -8.212238 2.000000 10.000000
    endloop
  endfacet
  facet normal 0.000000 0.000000 1.000000
    outer loop
      vertex -8.212238 2.000000 10.000000
      vertex -4.012238 4.100000 10.000000
      vertex -10.012238 2.000000 10.000000
    endloop
  endfacet
  facet normal 0.000000 0.000000 1.000000
    outer loop
      vertex -10.012238 2.000000 10.000000
      vertex -4.012238 4.100000 10.000000
      vertex -11.212238 2.000000 10.000000
    endloop
  endfacet
  facet normal 0.000000 0.000000 1.000000
    outer loop
      vertex -11.212238 2.000000 10.000000
      vertex -4.012238 4.100000 10.000000
      vertex -13.012238 2.000000 10.000000
    endloop
  endfacet
  facet normal 0.000000 0.000000 1.000000
    outer loop
      vertex -13.012238 2.000000 10.000000
      vertex -4.012238 4.100000 10.000000
      vertex -14.212238 2.000000 10.000000
    endloop
  endfacet
  facet normal 0.000000 0.000000 1.000000
    outer loop
      vertex -4.012238 4.100000 10.000000
      vertex 0.000000 7.500000 10.000000
      vertex -4.012238 5.000000 10.000000
    endloop
  endfacet
  facet normal 0.000000 0.000000 1.000000
    outer loop
      vertex -4.012238 5.000000 10.000000
      vertex 0.000000 7.500000 10.000000
      vertex -5.212238 5.000000 10.000000
    endloop
  endfacet
  facet normal 0.000000 0.000000 1.000000
    outer loop
      vertex -5.212238 5.000000 10.000000
      vertex 0.000000 7.500000 10.000000
      vertex -10.012238 5.000000 10.000000
    endloop
  endfacet
  facet normal 0.000000 0.000000 1.000000
    outer loop
      vertex -10.012238 5.000000 10.000000
      vertex 0.000000 7.500000 10.000000
      vertex -11.212238 5.000000 10.000000
    endloop
  endfacet
  facet normal 0.000000 0.000000 1.000000
    outer loop
      vertex -11.212238 5.000000 10.000000
      vertex 0.000000 7.500000 10.000000
      vertex -15.000000 6.500000 10.000000
    endloop
  endfacet
  facet normal 0.000000 0.000000 1.000000
    outer loop
      vertex -15.000000 6.500000 10.000000
      vertex 0.000000 7.500000 10.000000
      vertex -15.000000 7.500000 10.000000
    endloop
  endfacet
  facet normal -0.000000 0.000000 1.000000
    outer loop
      vertex -14.212238 0.000000 10.000000
      vertex -15.000000 6.500000 10.000000
      vertex -15.000000 0.000000 10.000000
    endloop
  endfacet
  facet normal 0.000000 0.000000 1.000000
    outer loop
      vertex -15.000000 6.500000 10.000000
      vertex -14.212238 0.000000 10.000000
      vertex -14.212238 2.000000 10.000000
    endloop
  endfacet
  facet normal 0.000000 0.000000 1.000000
    outer loop
      vertex -15.000000 6.500000 10.000000
      vertex -14.212238 2.000000 10.000000
      vertex -11.212238 4.100000 10.000000
    endloop
  endfacet
  facet normal 0.000000 -0.000000 1.000000
    outer loop
      vertex -11.212238 4.100000 10.000000
      vertex -14.212238 2.000000 10.000000
      vertex -5.212238 4.100000 10.000000
    endloop
  endfacet
  facet normal 0.000000 -0.000000 1.000000
    outer loop
      vertex -5.212238 4.100000 10.000000
      vertex -14.212238 2.000000 10.000000
      vertex -4.012238 4.100000 10.000000
    endloop
  endfacet
  facet normal 0.000000 0.000000 1.000000
    outer loop
      vertex -11.212238 4.100000 10.000000
      vertex -5.212238 4.100000 10.000000
      vertex -10.012238 4.100000 10.000000
    endloop
  endfacet
  facet normal 0.000000 0.000000 1.000000
    outer loop
      vertex -15.000000 6.500000 10.000000
      vertex -11.212238 4.100000 10.000000
      vertex -11.212238 5.000000 10.000000
    endloop
  endfacet
  facet normal 0.000000 -0.000000 1.000000
    outer loop
      vertex -5.212238 5.000000 10.000000
      vertex -10.012238 4.100000 10.000000
      vertex -5.212238 4.100000 10.000000
    endloop
  endfacet
  facet normal 0.000000 0.000000 1.000000
    outer loop
      vertex -10.012238 4.100000 10.000000
      vertex -5.212238 5.000000 10.000000
      vertex -10.012238 5.000000 10.000000
    endloop
  endfacet
  facet normal 0.000000 -0.000000 1.000000
    outer loop
      vertex -11.212238 2.000000 10.000000
      vertex -13.012238 0.000000 10.000000
      vertex -11.212238 0.000000 10.000000
    endloop
  endfacet
  facet normal 0.000000 0.000000 1.000000
    outer loop
      vertex -13.012238 0.000000 10.000000
      vertex -11.212238 2.000000 10.000000
      vertex -13.012238 2.000000 10.000000
    endloop
  endfacet
  facet normal 0.000000 -0.000000 1.000000
    outer loop
      vertex -8.212238 2.000000 10.000000
      vertex -10.012238 0.000000 10.000000
      vertex -8.212238 0.000000 10.000000
    endloop
  endfacet
  facet normal 0.000000 0.000000 1.000000
    outer loop
      vertex -10.012238 0.000000 10.000000
      vertex -8.212238 2.000000 10.000000
      vertex -10.012238 2.000000 10.000000
    endloop
  endfacet
  facet normal 0.000000 -0.000000 1.000000
    outer loop
      vertex -5.212238 2.000000 10.000000
      vertex -7.012238 0.000000 10.000000
      vertex -5.212238 0.000000 10.000000
    endloop
  endfacet
  facet normal 0.000000 0.000000 1.000000
    outer loop
      vertex -7.012238 0.000000 10.000000
      vertex -5.212238 2.000000 10.000000
      vertex -7.012238 2.000000 10.000000
    endloop
  endfacet
  facet normal -1.000000 0.000000 0.000000
    outer loop
      vertex -4.012238 5.000000 9.700000
      vertex -4.012238 4.100000 10.000000
      vertex -4.012238 5.000000 10.000000
    endloop
  endfacet
  facet normal -1.000000 0.000000 -0.000000
    outer loop
      vertex -4.012238 4.100000 10.000000
      vertex -4.012238 5.000000 9.700000
      vertex -4.012238 4.100000 9.700000
    endloop
  endfacet
  facet normal 0.000000 -0.000000 1.000000
    outer loop
      vertex -4.012238 5.000000 9.700000
      vertex -5.212238 4.100000 9.700000
      vertex -4.012238 4.100000 9.700000
    endloop
  endfacet
  facet normal 0.000000 0.000000 1.000000
    outer loop
      vertex -5.212238 4.100000 9.700000
      vertex -4.012238 5.000000 9.700000
      vertex -5.212238 5.000000 9.700000
    endloop
  endfacet
  facet normal -0.000000 -1.000000 0.000000
    outer loop
      vertex -4.012238 5.000000 9.700000
      vertex -5.212238 5.000000 10.000000
      vertex -5.212238 5.000000 9.700000
    endloop
  endfacet
  facet normal 0.000000 -1.000000 0.000000
    outer loop
      vertex -5.212238 5.000000 10.000000
      vertex -4.012238 5.000000 9.700000
      vertex -4.012238 5.000000 10.000000
    endloop
  endfacet
  facet normal 1.000000 0.000000 -0.000000
    outer loop
      vertex -5.212238 4.100000 9.700000
      vertex -5.212238 5.000000 10.000000
      vertex -5.212238 4.100000 10.000000
    endloop
  endfacet
  facet normal 1.000000 0.000000 -0.000000
    outer loop
      vertex -5.212238 5.000000 10.000000
      vertex -5.212238 4.100000 9.700000
      vertex -5.212238 5.000000 9.700000
    endloop
  endfacet
  facet normal 0.000000 1.000000 -0.000000
    outer loop
      vertex -4.012238 4.100000 10.000000
      vertex -5.212238 4.100000 9.700000
      vertex -5.212238 4.100000 10.000000
    endloop
  endfacet
  facet normal -0.000000 1.000000 -0.000000
    outer loop
      vertex -5.212238 4.100000 9.700000
      vertex -4.012238 4.100000 10.000000
      vertex -4.012238 4.100000 9.700000
    endloop
  endfacet
  facet normal 0.000000 -0.000000 1.000000
    outer loop
      vertex -10.012238 5.000000 9.700000
      vertex -11.212238 4.100000 9.700000
      vertex -10.012238 4.100000 9.700000
    endloop
  endfacet
  facet normal 0.000000 0.000000 1.000000
    outer loop
      vertex -11.212238 4.100000 9.700000
      vertex -10.012238 5.000000 9.700000
      vertex -11.212238 5.000000 9.700000
    endloop
  endfacet
  facet normal -1.000000 0.000000 0.000000
    outer loop
      vertex -10.012238 5.000000 9.700000
      vertex -10.012238 4.100000 10.000000
      vertex -10.012238 5.000000 10.000000
    endloop
  endfacet
  facet normal -1.000000 0.000000 -0.000000
    outer loop
      vertex -10.012238 4.100000 10.000000
      vertex -10.012238 5.000000 9.700000
      vertex -10.012238 4.100000 9.700000
    endloop
  endfacet
  facet normal 0.000000 1.000000 -0.000000
    outer loop
      vertex -10.012238 4.100000 10.000000
      vertex -11.212238 4.100000 9.700000
      vertex -11.212238 4.100000 10.000000
    endloop
  endfacet
  facet normal -0.000000 1.000000 -0.000000
    outer loop
      vertex -11.212238 4.100000 9.700000
      vertex -10.012238 4.100000 10.000000
      vertex -10.012238 4.100000 9.700000
    endloop
  endfacet
  facet normal 1.000000 0.000000 -0.000000
    outer loop
      vertex -11.212238 4.100000 9.700000
      vertex -11.212238 5.000000 10.000000
      vertex -11.212238 4.100000 10.000000
    endloop
  endfacet
  facet normal 1.000000 0.000000 -0.000000
    outer loop
      vertex -11.212238 5.000000 10.000000
      vertex -11.212238 4.100000 9.700000
      vertex -11.212238 5.000000 9.700000
    endloop
  endfacet
  facet normal -0.000000 -1.000000 0.000000
    outer loop
      vertex -10.012238 5.000000 9.700000
      vertex -11.212238 5.000000 10.000000
      vertex -11.212238 5.000000 9.700000
    endloop
  endfacet
  facet normal 0.000000 -1.000000 0.000000
    outer loop
      vertex -11.212238 5.000000 10.000000
      vertex -10.012238 5.000000 9.700000
      vertex -10.012238 5.000000 10.000000
    endloop
  endfacet
  facet normal -0.000000 1.000000 -0.000000
    outer loop
      vertex 0.000000 0.000000 10.000000
      vertex -0.700000 0.000000 9.700000
      vertex -0.700000 0.000000 10.000000
    endloop
  endfacet
  facet normal -0.000000 1.000000 -0.000000
    outer loop
      vertex -0.700000 0.000000 9.700000
      vertex 0.000000 0.000000 10.000000
      vertex 0.000000 0.000000 9.700000
    endloop
  endfacet
  facet normal 0.000000 1.000000 -0.000000
    outer loop
      vertex 15.000000 0.000000 15.000000
      vertex -10.000000 0.000000 10.000000
      vertex -10.000000 0.000000 15.000000
    endloop
  endfacet
  facet normal 0.000000 1.000000 -0.000000
    outer loop
      vertex -10.000000 0.000000 10.000000
      vertex -15.000000 0.000000 -15.000000
      vertex -15.000000 0.000000 10.000000
    endloop
  endfacet
  facet normal -0.000000 1.000000 -0.000000
    outer loop
      vertex -15.000000 0.000000 -15.000000
      vertex -10.000000 0.000000 10.000000
      vertex 15.000000 0.000000 -15.000000
    endloop
  endfacet
  facet normal 0.000000 1.000000 -0.000000
    outer loop
      vertex 15.000000 0.000000 -15.000000
      vertex -10.000000 0.000000 10.000000
      vertex 15.000000 0.000000 15.000000
    endloop
  endfacet
endsolid 221r
