solid 2222
  facet normal -1.000000 0.000000 -0.000000
    outer loop
      vertex 15.000000 7.500000 15.000000
      vertex 15.000000 0.000000 -0.000000
      vertex 15.000000 0.000000 15.000000
    endloop
  endfacet
  facet normal -1.000000 0.000000 -0.000000
    outer loop
      vertex 15.000000 0.000000 -0.000000
      vertex 15.000000 7.500000 15.000000
      vertex 15.000000 7.500000 -0.000000
    endloop
  endfacet
  facet normal 0.000000 0.000000 1.000000
    outer loop
      vertex 0.000000 6.500000 11.000000
      vertex 11.000000 0.000000 11.000000
      vertex 11.000000 6.500000 11.000000
    endloop
  endfacet
  facet normal 0.000000 0.000000 1.000000
    outer loop
      vertex 11.000000 0.000000 11.000000
      vertex 0.000000 6.500000 11.000000
      vertex 0.000000 0.000000 11.000000
    endloop
  endfacet
  facet normal -0.000000 0.000000 -1.000000
    outer loop
      vertex 0.000000 0.000000 15.000000
      vertex 15.000000 7.500000 15.000000
      vertex 15.000000 0.000000 15.000000
    endloop
  endfacet
  facet normal -0.000000 0.000000 -1.000000
    outer loop
      vertex 15.000000 7.500000 15.000000
      vertex 0.000000 0.000000 15.000000
      vertex 0.000000 7.500000 15.000000
    endloop
  endfacet
  facet normal 1.000000 0.000000 -0.000000
    outer loop
      vertex 11.000000 6.500000 -0.000000
      vertex 11.000000 0.000000 11.000000
      vertex 11.000000 0.000000 -0.000000
    endloop
  endfacet
  facet normal 1.000000 -0.000000 -0.000000
    outer loop
      vertex 11.000000 0.000000 11.000000
      vertex 11.000000 6.500000 -0.000000
      vertex 11.000000 6.500000 11.000000
    endloop
  endfacet
  facet normal 0.000000 1.000000 -0.000000
    outer loop
      vertex 11.000000 0.000000 11.000000
      vertex 0.000000 0.000000 -0.000000
      vertex 0.000000 0.000000 11.000000
    endloop
  endfacet
  facet normal -0.000000 1.000000 -0.000000
    outer loop
      vertex 0.000000 0.000000 -0.000000
      vertex 11.000000 0.000000 11.000000
      vertex 11.000000 0.000000 -0.000000
    endloop
  endfacet
  facet normal 0.000000 -0.970143 0.242536
    outer loop
      vertex 0.000000 6.500000 11.000000
      vertex 15.000000 7.500000 15.000000
      vertex 0.000000 7.500000 15.000000
    endloop
  endfacet
  facet normal 0.000000 -0.970143 0.242536
    outer loop
      vertex 15.000000 7.500000 15.000000
      vertex 0.000000 6.500000 11.000000
      vertex 11.000000 6.500000 11.000000
    endloop
  endfacet
  facet normal 0.242536 -0.970143 -0.000000
    outer loop
      vertex 11.000000 6.500000 11.000000
      vertex 15.000000 7.500000 -0.000000
      vertex 15.000000 7.500000 15.000000
    endloop
  endfacet
  facet normal 0.242536 -0.970143 -0.000000
    outer loop
      vertex 15.000000 7.500000 -0.000000
      vertex 11.000000 6.500000 11.000000
      vertex 11.000000 6.500000 -0.000000
    endloop
  endfacet
  facet normal -0.242536 0.970143 0.000000
    outer loop
      vertex 7.500000 9.375000 7.500000
      vertex 0.000000 7.500000 -0.000000
      vertex 0.000000 7.500000 15.000000
    endloop
  endfacet
  facet normal -0.000000 0.970143 -0.242536
    outer loop
      vertex 15.000000 7.500000 -0.000000
      vertex 0.000000 7.500000 -0.000000
      vertex 7.500000 9.375000 7.500000
    endloop
  endfacet
  facet normal 0.000000 1.000000 -0.000000
    outer loop
      vertex 9.000000 0.000000 -4.000000
      vertex 4.000000 0.000000 -11.000000
      vertex 4.000000 0.000000 -4.000000
    endloop
  endfacet
  facet normal 0.000000 1.000000 -0.000000
    outer loop
      vertex 4.000000 0.000000 -11.000000
      vertex 9.000000 0.000000 -4.000000
      vertex 9.000000 0.000000 -6.000000
    endloop
  endfacet
  facet normal -0.000000 1.000000 -0.000000
    outer loop
      vertex 4.000000 0.000000 -11.000000
      vertex 9.000000 0.000000 -6.000000
      vertex 11.000000 0.000000 -11.000000
    endloop
  endfacet
  facet normal 0.000000 1.000000 -0.000000
    outer loop
      vertex 11.000000 0.000000 -11.000000
      vertex 9.000000 0.000000 -6.000000
      vertex 11.000000 0.000000 -6.000000
    endloop
  endfacet
  facet normal 0.242536 -0.970143 -0.000000
    outer loop
      vertex 15.000000 7.500000 -0.000000
      vertex 11.000000 6.500000 0.000000
      vertex 11.000000 6.500000 -4.000000
    endloop
  endfacet
  facet normal -0.000000 -0.970143 -0.242536
    outer loop
      vertex 4.000000 6.500000 -11.000000
      vertex 0.000000 6.500000 -11.000000
      vertex 0.000000 7.500000 -15.000000
    endloop
  endfacet
  facet normal 0.000000 0.970143 0.242536
    outer loop
      vertex 4.000000 6.500000 -11.000000
      vertex 15.000000 7.500000 -15.000000
      vertex 0.000000 7.500000 -15.000000
    endloop
  endfacet
  facet normal 0.000000 0.970143 0.242536
    outer loop
      vertex 15.000000 7.500000 -15.000000
      vertex 4.000000 6.500000 -11.000000
      vertex 11.000000 6.500000 -11.000000
    endloop
  endfacet
  facet normal 0.000000 1.000000 -0.000000
    outer loop
      vertex 11.000000 0.000000 0.000000
      vertex 4.000000 0.000000 -4.000000
      vertex 4.000000 0.000000 0.000000
    endloop
  endfacet
  facet normal -0.000000 1.000000 -0.000000
    outer loop
      vertex 4.000000 0.000000 -4.000000
      vertex 11.000000 0.000000 0.000000
      vertex 9.000000 0.000000 -4.000000
    endloop
  endfacet
  facet normal -0.000000 1.000000 -0.000000
    outer loop
      vertex 9.000000 0.000000 -4.000000
      vertex 11.000000 0.000000 0.000000
      vertex 11.000000 0.000000 -4.000000
    endloop
  endfacet
  facet normal -1.000000 0.000000 0.000000
    outer loop
      vertex 9.000000 4.500000 -6.000000
      vertex 9.000000 0.000000 -4.000000
      vertex 9.000000 4.500000 -4.000000
    endloop
  endfacet
  facet normal -1.000000 0.000000 -0.000000
    outer loop
      vertex 9.000000 0.000000 -4.000000
      vertex 9.000000 4.500000 -6.000000
      vertex 9.000000 0.000000 -6.000000
    endloop
  endfacet
  facet normal 0.000000 0.000000 -1.000000
    outer loop
      vertex 9.000000 4.500000 -6.000000
      vertex 11.000000 0.000000 -6.000000
      vertex 9.000000 0.000000 -6.000000
    endloop
  endfacet
  facet normal 0.000000 -0.000000 -1.000000
    outer loop
      vertex 11.000000 0.000000 -6.000000
      vertex 9.000000 4.500000 -6.000000
      vertex 11.000000 4.500000 -6.000000
    endloop
  endfacet
  facet normal 0.000000 0.000000 -1.000000
    outer loop
      vertex 9.000000 4.500000 -4.000000
      vertex 11.000000 0.000000 -4.000000
      vertex 9.000000 0.000000 -4.000000
    endloop
  endfacet
  facet normal 0.000000 -0.000000 -1.000000
    outer loop
      vertex 11.000000 0.000000 -4.000000
      vertex 9.000000 4.500000 -4.000000
      vertex 11.000000 4.500000 -4.000000
    endloop
  endfacet
  facet normal 0.000000 1.000000 -0.000000
    outer loop
      vertex 11.000000 4.500000 -4.000000
      vertex 9.000000 4.500000 -6.000000
      vertex 9.000000 4.500000 -4.000000
    endloop
  endfacet
  facet normal -0.000000 1.000000 -0.000000
    outer loop
      vertex 9.000000 4.500000 -6.000000
      vertex 11.000000 4.500000 -4.000000
      vertex 11.000000 4.500000 -6.000000
    endloop
  endfacet
  facet normal -0.242536 0.970143 -0.000000
    outer loop
      vertex 15.000000 7.500000 -0.000000
      vertex 11.000000 6.500000 -6.000000
      vertex 11.000000 6.500000 -4.000000
    endloop
  endfacet
  facet normal -0.242536 0.970143 -0.000000
    outer loop
      vertex 11.000000 6.500000 -6.000000
      vertex 15.000000 7.500000 -0.000000
      vertex 11.000000 6.500000 -11.000000
    endloop
  endfacet
  facet normal -0.242536 0.970143 0.000000
    outer loop
      vertex 11.000000 6.500000 -11.000000
      vertex 15.000000 7.500000 -0.000000
      vertex 15.000000 7.500000 -15.000000
    endloop
  endfacet
  facet normal 1.000000 0.000000 0.000000
    outer loop
      vertex -9.593614 0.000000 -9.578002
      vertex -9.593614 6.500000 -2.578002
      vertex -9.593614 0.000000 -2.578002
    endloop
  endfacet
  facet normal 1.000000 0.000000 0.000000
    outer loop
      vertex -9.593614 6.500000 -2.578002
      vertex -9.593614 0.000000 -9.578002
      vertex -9.593614 6.500000 -9.578002
    endloop
  endfacet
  facet normal -0.000000 -0.000000 1.000000
    outer loop
      vertex -2.593614 6.500000 -9.578002
      vertex -9.593614 0.000000 -9.578002
      vertex -2.593614 0.000000 -9.578002
    endloop
  endfacet
  facet normal -0.000000 0.000000 1.000000
    outer loop
      vertex -9.593614 0.000000 -9.578002
      vertex -2.593614 6.500000 -9.578002
      vertex -9.593614 6.500000 -9.578002
    endloop
  endfacet
  facet normal -1.000000 0.000000 0.000000
    outer loop
      vertex -2.593614 6.500000 -9.578002
      vertex -2.593614 0.000000 -2.578002
      vertex -2.593614 6.500000 -2.578002
    endloop
  endfacet
  facet normal -1.000000 0.000000 -0.000000
    outer loop
      vertex -2.593614 0.000000 -2.578002
      vertex -2.593614 6.500000 -9.578002
      vertex -2.593614 0.000000 -9.578002
    endloop
  endfacet
  facet normal 0.000000 1.000000 -0.000000
    outer loop
      vertex -2.593614 0.000000 -2.578002
      vertex -9.593614 0.000000 -9.578002
      vertex -9.593614 0.000000 -2.578002
    endloop
  endfacet
  facet normal 0.000000 1.000000 -0.000000
    outer loop
      vertex -9.593614 0.000000 -9.578002
      vertex -2.593614 0.000000 -2.578002
      vertex -2.593614 0.000000 -9.578002
    endloop
  endfacet
  facet normal 0.000000 0.000000 -1.000000
    outer loop
      vertex -9.593614 6.500000 -2.578002
      vertex -2.593614 0.000000 -2.578002
      vertex -9.593614 0.000000 -2.578002
    endloop
  endfacet
  facet normal 0.000000 -0.000000 -1.000000
    outer loop
      vertex -2.593614 0.000000 -2.578002
      vertex -9.593614 6.500000 -2.578002
      vertex -2.593614 6.500000 -2.578002
    endloop
  endfacet
  facet normal -1.000000 0.000000 0.000000
    outer loop
      vertex 11.000000 6.500000 -11.000000
      vertex 11.000000 4.500000 -6.000000
      vertex 11.000000 6.500000 -6.000000
    endloop
  endfacet
  facet normal -1.000000 0.000000 -0.000000
    outer loop
      vertex 11.000000 4.500000 -6.000000
      vertex 11.000000 6.500000 -11.000000
      vertex 11.000000 0.000000 -6.000000
    endloop
  endfacet
  facet normal -1.000000 0.000000 -0.000000
    outer loop
      vertex 11.000000 0.000000 -6.000000
      vertex 11.000000 6.500000 -11.000000
      vertex 11.000000 0.000000 -11.000000
    endloop
  endfacet
  facet normal -1.000000 0.000000 0.000000
    outer loop
      vertex 11.000000 6.500000 -6.000000
      vertex 11.000000 4.500000 -4.000000
      vertex 11.000000 6.500000 -4.000000
    endloop
  endfacet
  facet normal -1.000000 0.000000 -0.000000
    outer loop
      vertex 11.000000 4.500000 -4.000000
      vertex 11.000000 6.500000 -6.000000
      vertex 11.000000 4.500000 -6.000000
    endloop
  endfacet
  facet normal 0.000000 0.000000 -1.000000
    outer loop
      vertex 9.000000 6.500000 -4.000000
      vertex 11.000000 4.500000 -4.000000
      vertex 9.000000 4.500000 -4.000000
    endloop
  endfacet
  facet normal 0.000000 -0.000000 -1.000000
    outer loop
      vertex 11.000000 4.500000 -4.000000
      vertex 9.000000 6.500000 -4.000000
      vertex 11.000000 6.500000 -4.000000
    endloop
  endfacet
  facet normal 0.000000 0.983414 0.181375
    outer loop
      vertex -9.593614 6.500000 -9.578002
      vertex 0.000000 7.500000 -15.000000
      vertex -15.000000 7.500000 -15.000000
    endloop
  endfacet
  facet normal -0.000000 0.983414 0.181375
    outer loop
      vertex 0.000000 7.500000 -15.000000
      vertex -9.593614 6.500000 -9.578002
      vertex -2.593614 6.500000 -9.578002
    endloop
  endfacet
  facet normal 0.242536 0.970143 -0.000000
    outer loop
      vertex 11.000000 8.500000 11.000000
      vertex 15.000000 7.500000 -0.000000
      vertex 7.500000 9.375000 7.500000
    endloop
  endfacet
  facet normal 0.242536 0.970143 -0.000000
    outer loop
      vertex 15.000000 7.500000 -0.000000
      vertex 11.000000 8.500000 11.000000
      vertex 15.000000 7.500000 15.000000
    endloop
  endfacet
  facet normal 0.000000 0.000000 -1.000000
    outer loop
      vertex 4.000000 6.500000 -4.000000
      vertex 9.000000 0.000000 -4.000000
      vertex 4.000000 0.000000 -4.000000
    endloop
  endfacet
  facet normal 0.000000 -0.000000 -1.000000
    outer loop
      vertex 9.000000 0.000000 -4.000000
      vertex 4.000000 6.500000 -4.000000
      vertex 9.000000 4.500000 -4.000000
    endloop
  endfacet
  facet normal 0.000000 -0.000000 -1.000000
    outer loop
      vertex 9.000000 4.500000 -4.000000
      vertex 4.000000 6.500000 -4.000000
      vertex 9.000000 6.500000 -4.000000
    endloop
  endfacet
  facet normal -1.000000 0.000000 0.000000
    outer loop
      vertex 11.000000 6.500000 -4.000000
      vertex 11.000000 0.000000 0.000000
      vertex 11.000000 6.500000 0.000000
    endloop
  endfacet
  facet normal -1.000000 0.000000 -0.000000
    outer loop
      vertex 11.000000 0.000000 0.000000
      vertex 11.000000 6.500000 -4.000000
      vertex 11.000000 0.000000 -4.000000
    endloop
  endfacet
  facet normal 0.000000 1.000000 -0.000000
    outer loop
      vertex 11.000000 0.000000 -4.000000
      vertex 11.000000 6.500000 -4.000000
      vertex 11.000000 4.500000 -4.000000
    endloop
  endfacet
  facet normal 1.000000 -0.000000 -0.000000
    outer loop
      vertex 15.000000 0.000000 -15.000000
      vertex 15.000000 7.500000 -0.000000
      vertex 15.000000 0.000000 0.000000
    endloop
  endfacet
  facet normal 1.000000 -0.000000 -0.000000
    outer loop
      vertex 15.000000 7.500000 -0.000000
      vertex 15.000000 0.000000 -15.000000
      vertex 15.000000 7.500000 -15.000000
    endloop
  endfacet
  facet normal -0.000000 0.000000 -1.000000
    outer loop
      vertex 0.000000 6.500000 -11.000000
      vertex 4.000000 0.000000 -11.000000
      vertex 0.000000 0.000000 -11.000000
    endloop
  endfacet
  facet normal -0.000000 0.000000 -1.000000
    outer loop
      vertex 4.000000 0.000000 -11.000000
      vertex 0.000000 6.500000 -11.000000
      vertex 4.000000 6.500000 -11.000000
    endloop
  endfacet
  facet normal 0.000000 0.000000 -1.000000
    outer loop
      vertex 0.000000 7.500000 -15.000000
      vertex 15.000000 0.000000 -15.000000
      vertex 0.000000 0.000000 -15.000000
    endloop
  endfacet
  facet normal -0.000000 -0.000000 -1.000000
    outer loop
      vertex 15.000000 0.000000 -15.000000
      vertex 0.000000 7.500000 -15.000000
      vertex 15.000000 7.500000 -15.000000
    endloop
  endfacet
  facet normal 1.000000 0.000000 -0.000000
    outer loop
      vertex 4.000000 0.000000 -11.000000
      vertex 4.000000 6.500000 -4.000000
      vertex 4.000000 0.000000 -4.000000
    endloop
  endfacet
  facet normal 1.000000 0.000000 0.000000
    outer loop
      vertex 4.000000 6.500000 -4.000000
      vertex 4.000000 0.000000 -11.000000
      vertex 4.000000 6.500000 -11.000000
    endloop
  endfacet
  facet normal 0.000000 0.000000 1.000000
    outer loop
      vertex 11.000000 6.500000 -11.000000
      vertex 4.000000 0.000000 -11.000000
      vertex 11.000000 0.000000 -11.000000
    endloop
  endfacet
  facet normal 0.000000 0.000000 1.000000
    outer loop
      vertex 4.000000 0.000000 -11.000000
      vertex 11.000000 6.500000 -11.000000
      vertex 4.000000 6.500000 -11.000000
    endloop
  endfacet
  facet normal 0.000000 0.970143 -0.242536
    outer loop
      vertex 0.000000 7.500000 15.000000
      vertex -11.000000 6.500000 11.000000
      vertex -15.000000 7.500000 15.000000
    endloop
  endfacet
  facet normal -0.000000 0.970143 -0.242536
    outer loop
      vertex -11.000000 6.500000 11.000000
      vertex 0.000000 7.500000 15.000000
      vertex -6.000000 6.500000 11.000000
    endloop
  endfacet
  facet normal -0.000000 0.970143 -0.242536
    outer loop
      vertex -6.000000 6.500000 11.000000
      vertex 0.000000 7.500000 15.000000
      vertex -4.000000 6.500000 11.000000
    endloop
  endfacet
  facet normal 0.242536 0.970143 -0.000000
    outer loop
      vertex -11.000000 6.500000 11.000000
      vertex -15.000000 7.500000 -0.000000
      vertex -15.000000 7.500000 15.000000
    endloop
  endfacet
  facet normal 0.242536 0.970143 -0.000000
    outer loop
      vertex -15.000000 7.500000 -0.000000
      vertex -11.000000 6.500000 11.000000
      vertex -11.000000 6.500000 4.000000
    endloop
  endfacet
  facet normal -0.242536 0.970143 -0.000000
    outer loop
      vertex 0.000000 7.500000 15.000000
      vertex -4.000000 6.500000 9.000000
      vertex -4.000000 6.500000 11.000000
    endloop
  endfacet
  facet normal -0.242536 0.970143 -0.000000
    outer loop
      vertex -4.000000 6.500000 9.000000
      vertex 0.000000 7.500000 15.000000
      vertex -4.000000 6.500000 4.000000
    endloop
  endfacet
  facet normal -0.242536 0.970143 0.000000
    outer loop
      vertex -4.000000 6.500000 4.000000
      vertex 0.000000 7.500000 15.000000
      vertex 0.000000 7.500000 -0.000000
    endloop
  endfacet
  facet normal -0.000000 0.970143 0.242536
    outer loop
      vertex -11.000000 6.500000 4.000000
      vertex 0.000000 7.500000 -0.000000
      vertex -15.000000 7.500000 -0.000000
    endloop
  endfacet
  facet normal 0.000000 0.970143 0.242536
    outer loop
      vertex 0.000000 7.500000 -0.000000
      vertex -11.000000 6.500000 4.000000
      vertex -4.000000 6.500000 4.000000
    endloop
  endfacet
  facet normal 0.000000 0.000000 -1.000000
    outer loop
      vertex -11.000000 6.500000 11.000000
      vertex -4.000000 0.000000 11.000000
      vertex -11.000000 0.000000 11.000000
    endloop
  endfacet
  facet normal 0.000000 -0.000000 -1.000000
    outer loop
      vertex -4.000000 0.000000 11.000000
      vertex -11.000000 6.500000 11.000000
      vertex -4.000000 6.500000 11.000000
    endloop
  endfacet
  facet normal 0.000000 1.000000 -0.000000
    outer loop
      vertex -4.000000 6.500000 11.000000
      vertex -11.000000 6.500000 11.000000
      vertex -6.000000 6.500000 11.000000
    endloop
  endfacet
  facet normal -1.000000 0.000000 0.000000
    outer loop
      vertex -4.000000 6.500000 9.000000
      vertex -4.000000 0.000000 11.000000
      vertex -4.000000 6.500000 11.000000
    endloop
  endfacet
  facet normal -1.000000 0.000000 -0.000000
    outer loop
      vertex -4.000000 0.000000 11.000000
      vertex -4.000000 6.500000 9.000000
      vertex -4.000000 0.000000 4.000000
    endloop
  endfacet
  facet normal -1.000000 0.000000 -0.000000
    outer loop
      vertex -4.000000 0.000000 4.000000
      vertex -4.000000 6.500000 9.000000
      vertex -4.000000 6.500000 4.000000
    endloop
  endfacet
  facet normal 1.000000 0.000000 0.000000
    outer loop
      vertex -11.000000 0.000000 4.000000
      vertex -11.000000 6.500000 11.000000
      vertex -11.000000 0.000000 11.000000
    endloop
  endfacet
  facet normal 1.000000 0.000000 0.000000
    outer loop
      vertex -11.000000 6.500000 11.000000
      vertex -11.000000 0.000000 4.000000
      vertex -11.000000 6.500000 4.000000
    endloop
  endfacet
  facet normal 0.000000 1.000000 -0.000000
    outer loop
      vertex -4.000000 0.000000 11.000000
      vertex -11.000000 0.000000 4.000000
      vertex -11.000000 0.000000 11.000000
    endloop
  endfacet
  facet normal 0.000000 1.000000 -0.000000
    outer loop
      vertex -11.000000 0.000000 4.000000
      vertex -4.000000 0.000000 11.000000
      vertex -4.000000 0.000000 4.000000
    endloop
  endfacet
  facet normal -0.000000 0.000000 1.000000
    outer loop
      vertex -4.000000 6.500000 4.000000
      vertex -11.000000 0.000000 4.000000
      vertex -4.000000 0.000000 4.000000
    endloop
  endfacet
  facet normal 0.000000 -0.000000 1.000000
    outer loop
      vertex -11.000000 0.000000 4.000000
      vertex -4.000000 6.500000 4.000000
      vertex -11.000000 6.500000 4.000000
    endloop
  endfacet
  facet normal -0.000000 1.000000 -0.000000
    outer loop
      vertex -15.000000 0.000000 15.000000
      vertex -11.000000 0.000000 11.000000
      vertex -15.000000 0.000000 -15.000000
    endloop
  endfacet
  facet normal 0.000000 1.000000 0.000000
    outer loop
      vertex -11.000000 0.000000 11.000000
      vertex -15.000000 0.000000 15.000000
      vertex 15.000000 0.000000 15.000000
    endloop
  endfacet
  facet normal 0.000000 1.000000 0.000000
    outer loop
      vertex -11.000000 0.000000 11.000000
      vertex 15.000000 0.000000 15.000000
      vertex -4.000000 0.000000 11.000000
    endloop
  endfacet
  facet normal 0.000000 1.000000 0.000000
    outer loop
      vertex -4.000000 0.000000 11.000000
      vertex 15.000000 0.000000 15.000000
      vertex -4.000000 0.000000 4.000000
    endloop
  endfacet
  facet normal 0.000000 1.000000 -0.000000
    outer loop
      vertex -4.000000 0.000000 4.000000
      vertex 15.000000 0.000000 15.000000
      vertex -2.593614 0.000000 -2.578002
    endloop
  endfacet
  facet normal 0.000000 1.000000 -0.000000
    outer loop
      vertex -2.593614 0.000000 -2.578002
      vertex 15.000000 0.000000 15.000000
      vertex 0.000000 0.000000 -0.000000
    endloop
  endfacet
  facet normal -0.000000 1.000000 -0.000000
    outer loop
      vertex -2.593614 0.000000 -2.578002
      vertex 0.000000 0.000000 -0.000000
      vertex -2.593614 0.000000 -9.578002
    endloop
  endfacet
  facet normal 0.000000 1.000000 -0.000000
    outer loop
      vertex 0.000000 0.000000 -0.000000
      vertex 15.000000 0.000000 15.000000
      vertex 3.210000 0.000000 0.000000
    endloop
  endfacet
  facet normal 0.000000 1.000000 -0.000000
    outer loop
      vertex 3.210000 0.000000 0.000000
      vertex 15.000000 0.000000 15.000000
      vertex 4.000000 0.000000 0.000000
    endloop
  endfacet
  facet normal -0.000000 1.000000 -0.000000
    outer loop
      vertex 4.000000 0.000000 0.000000
      vertex 15.000000 0.000000 15.000000
      vertex 11.000000 0.000000 0.000000
    endloop
  endfacet
  facet normal -0.000000 1.000000 -0.000000
    outer loop
      vertex 11.000000 0.000000 0.000000
      vertex 15.000000 0.000000 15.000000
      vertex 11.000000 0.000000 -4.000000
    endloop
  endfacet
  facet normal -0.000000 1.000000 -0.000000
    outer loop
      vertex 11.000000 0.000000 -4.000000
      vertex 15.000000 0.000000 15.000000
      vertex 11.000000 0.000000 -6.000000
    endloop
  endfacet
  facet normal -0.000000 1.000000 -0.000000
    outer loop
      vertex 11.000000 0.000000 -6.000000
      vertex 15.000000 0.000000 15.000000
      vertex 11.000000 0.000000 -11.000000
    endloop
  endfacet
  facet normal -0.000000 1.000000 -0.000000
    outer loop
      vertex -15.000000 0.000000 -15.000000
      vertex -9.593614 0.000000 -9.578002
      vertex 0.000000 0.000000 -15.000000
    endloop
  endfacet
  facet normal 0.000000 1.000000 -0.000000
    outer loop
      vertex -9.593614 0.000000 -9.578002
      vertex -15.000000 0.000000 -15.000000
      vertex -11.000000 0.000000 4.000000
    endloop
  endfacet
  facet normal -0.000000 1.000000 -0.000000
    outer loop
      vertex -11.000000 0.000000 4.000000
      vertex -15.000000 0.000000 -15.000000
      vertex -11.000000 0.000000 11.000000
    endloop
  endfacet
  facet normal 0.000000 1.000000 0.000000
    outer loop
      vertex -9.593614 0.000000 -9.578002
      vertex -11.000000 0.000000 4.000000
      vertex -9.593614 0.000000 -2.578002
    endloop
  endfacet
  facet normal 0.000000 1.000000 -0.000000
    outer loop
      vertex 0.000000 0.000000 -15.000000
      vertex -9.593614 0.000000 -9.578002
      vertex -2.593614 0.000000 -9.578002
    endloop
  endfacet
  facet normal 0.000000 1.000000 -0.000000
    outer loop
      vertex 0.000000 0.000000 -15.000000
      vertex -2.593614 0.000000 -9.578002
      vertex 0.000000 0.000000 -0.000000
    endloop
  endfacet
  facet normal 0.000000 1.000000 -0.000000
    outer loop
      vertex 0.000000 0.000000 -15.000000
      vertex 0.000000 0.000000 -0.000000
      vertex 0.000000 0.000000 -11.000000
    endloop
  endfacet
  facet normal 0.000000 1.000000 -0.000000
    outer loop
      vertex 0.000000 0.000000 -15.000000
      vertex 0.000000 0.000000 -11.000000
      vertex 4.000000 0.000000 -11.000000
    endloop
  endfacet
  facet normal 0.000000 1.000000 -0.000000
    outer loop
      vertex 0.000000 0.000000 -15.000000
      vertex 4.000000 0.000000 -11.000000
      vertex 15.000000 0.000000 -15.000000
    endloop
  endfacet
  facet normal 0.000000 1.000000 -0.000000
    outer loop
      vertex 15.000000 0.000000 -15.000000
      vertex 4.000000 0.000000 -11.000000
      vertex 11.000000 0.000000 -11.000000
    endloop
  endfacet
  facet normal 0.000000 1.000000 -0.000000
    outer loop
      vertex 15.000000 0.000000 -15.000000
      vertex 11.000000 0.000000 -11.000000
      vertex 15.000000 0.000000 15.000000
    endloop
  endfacet
  facet normal 0.000000 1.000000 -0.000000
    outer loop
      vertex 15.000000 0.000000 -15.000000
      vertex 15.000000 0.000000 15.000000
      vertex 15.000000 0.000000 0.000000
    endloop
  endfacet
  facet normal 0.000000 1.000000 -0.000000
    outer loop
      vertex 11.000000 0.000000 -4.000000
      vertex 9.000000 0.000000 -6.000000
      vertex 9.000000 0.000000 -4.000000
    endloop
  endfacet
  facet normal -0.000000 1.000000 -0.000000
    outer loop
      vertex 9.000000 0.000000 -6.000000
      vertex 11.000000 0.000000 -4.000000
      vertex 11.000000 0.000000 -6.000000
    endloop
  endfacet
  facet normal 0.000000 1.000000 -0.000000
    outer loop
      vertex -4.000000 0.000000 4.000000
      vertex -9.593614 0.000000 -2.578002
      vertex -11.000000 0.000000 4.000000
    endloop
  endfacet
  facet normal -0.000000 1.000000 -0.000000
    outer loop
      vertex -9.593614 0.000000 -2.578002
      vertex -4.000000 0.000000 4.000000
      vertex -2.593614 0.000000 -2.578002
    endloop
  endfacet
  facet normal 0.181881 0.983320 -0.000000
    outer loop
      vertex -9.593614 6.500000 -2.578002
      vertex -15.000000 7.500000 -15.000000
      vertex -15.000000 7.500000 -0.000000
    endloop
  endfacet
  facet normal 0.181881 0.983320 0.000000
    outer loop
      vertex -15.000000 7.500000 -15.000000
      vertex -9.593614 6.500000 -2.578002
      vertex -9.593614 6.500000 -9.578002
    endloop
  endfacet
  facet normal -0.000000 0.970143 -0.242536
    outer loop
      vertex 15.000000 7.500000 -0.000000
      vertex 4.000000 6.500000 -4.000000
      vertex 0.000000 7.500000 -0.000000
    endloop
  endfacet
  facet normal -0.000000 0.970143 -0.242536
    outer loop
      vertex 4.000000 6.500000 -4.000000
      vertex 15.000000 7.500000 -0.000000
      vertex 9.000000 6.500000 -4.000000
    endloop
  endfacet
  facet normal -0.000000 0.970143 -0.242536
    outer loop
      vertex 9.000000 6.500000 -4.000000
      vertex 15.000000 7.500000 -0.000000
      vertex 11.000000 6.500000 -4.000000
    endloop
  endfacet
  facet normal 0.242536 0.970143 0.000000
    outer loop
      vertex 4.000000 6.500000 -4.000000
      vertex 0.000000 7.500000 -15.000000
      vertex 0.000000 7.500000 -0.000000
    endloop
  endfacet
  facet normal 0.242536 0.970143 -0.000000
    outer loop
      vertex 0.000000 7.500000 -15.000000
      vertex 4.000000 6.500000 -4.000000
      vertex 4.000000 6.500000 -11.000000
    endloop
  endfacet
  facet normal 0.000000 0.970143 0.242536
    outer loop
      vertex 15.000000 7.500000 15.000000
      vertex 7.500000 9.375000 7.500000
      vertex 0.000000 7.500000 15.000000
    endloop
  endfacet
  facet normal -0.707107 0.000000 0.707107
    outer loop
      vertex 7.500000 9.375000 7.500000
      vertex 15.000000 7.500000 15.000000
      vertex 11.000000 8.500000 11.000000
    endloop
  endfacet
  facet normal 0.000000 -1.000000 0.000000
    outer loop
      vertex 15.000000 7.500000 -0.000000
      vertex 0.000000 7.500000 15.000000
      vertex 0.000000 7.500000 -0.000000
    endloop
  endfacet
  facet normal 0.000000 -1.000000 -0.000000
    outer loop
      vertex 0.000000 7.500000 15.000000
      vertex 15.000000 7.500000 -0.000000
      vertex 15.000000 7.500000 15.000000
    endloop
  endfacet
  facet normal 0.000000 0.932317 -0.361643
    outer loop
      vertex 0.000000 7.500000 -0.000000
      vertex -9.593614 6.500000 -2.578002
      vertex -15.000000 7.500000 -0.000000
    endloop
  endfacet
  facet normal -0.000000 0.932317 -0.361643
    outer loop
      vertex -9.593614 6.500000 -2.578002
      vertex 0.000000 7.500000 -0.000000
      vertex -2.593614 6.500000 -2.578002
    endloop
  endfacet
  facet normal -0.359749 0.933049 -0.000000
    outer loop
      vertex 0.000000 7.500000 -0.000000
      vertex -2.593614 6.500000 -9.578002
      vertex -2.593614 6.500000 -2.578002
    endloop
  endfacet
  facet normal -0.359749 0.933049 0.000000
    outer loop
      vertex -2.593614 6.500000 -9.578002
      vertex 0.000000 7.500000 -0.000000
      vertex 0.000000 7.500000 -15.000000
    endloop
  endfacet
  facet normal 0.000000 1.000000 -0.000000
    outer loop
      vertex 3.210000 0.000000 0.000000
      vertex 0.000000 0.000000 -11.000000
      vertex 0.000000 0.000000 -0.000000
    endloop
  endfacet
  facet normal -0.000000 1.000000 -0.000000
    outer loop
      vertex 0.000000 0.000000 -11.000000
      vertex 3.210000 0.000000 0.000000
      vertex 4.000000 0.000000 -11.000000
    endloop
  endfacet
  facet normal 0.000000 1.000000 -0.000000
    outer loop
      vertex 4.000000 0.000000 -11.000000
      vertex 3.210000 0.000000 0.000000
      vertex 4.000000 0.000000 0.000000
    endloop
  endfacet
  facet normal 0.000000 1.000000 -0.000000
    outer loop
      vertex 4.000000 0.000000 -11.000000
      vertex 4.000000 0.000000 0.000000
      vertex 4.000000 0.000000 -4.000000
    endloop
  endfacet
endsolid 2222
