solid 2c2w
  facet normal -0.993884 0.110432 0.000000
    outer loop
      vertex 1.271356 11.442205 -1.271356
      vertex 1.222222 11.000000 -15.000000
      vertex 1.222222 11.000000 -1.222222
    endloop
  endfacet
  facet normal -0.993884 0.110432 0.000000
    outer loop
      vertex 1.222222 11.000000 -15.000000
      vertex 1.271356 11.442205 -1.271356
      vertex 1.271356 11.442205 -15.000000
    endloop
  endfacet
  facet normal -0.993884 0.110432 -0.000000
    outer loop
      vertex 5.111111 9.000000 -1.000000
      vertex 5.000000 8.000000 -2.000000
      vertex 5.000000 8.000000 -0.888889
    endloop
  endfacet
  facet normal -0.993884 0.110432 -0.000000
    outer loop
      vertex 5.000000 8.000000 -2.000000
      vertex 5.111111 9.000000 -1.000000
      vertex 5.111111 9.000000 -2.000000
    endloop
  endfacet
  facet normal -0.993884 0.110432 -0.000000
    outer loop
      vertex 6.666667 23.000000 -6.666667
      vertex 5.553042 12.977376 -15.000000
      vertex 5.553042 12.977376 -5.553042
    endloop
  endfacet
  facet normal -0.993884 0.110432 0.000000
    outer loop
      vertex 5.553042 12.977376 -15.000000
      vertex 6.666667 23.000000 -6.666667
      vertex 6.666667 23.000000 -15.000000
    endloop
  endfacet
  facet normal -0.337505 0.941324 -0.000000
    outer loop
      vertex 1.271356 11.442205 -1.271356
      vertex 5.553042 12.977376 -15.000000
      vertex 1.271356 11.442205 -15.000000
    endloop
  endfacet
  facet normal -0.337505 0.941324 -0.000000
    outer loop
      vertex 5.553042 12.977376 -15.000000
      vertex 1.271356 11.442205 -1.271356
      vertex 5.553042 12.977376 -5.553042
    endloop
  endfacet
  facet normal 1.000000 -0.000000 0.000000
    outer loop
      vertex 7.666667 24.000000 -8.666667
      vertex 7.666667 25.000000 -7.666667
      vertex 7.666667 24.000000 -7.666667
    endloop
  endfacet
  facet normal 1.000000 -0.000000 -0.000000
    outer loop
      vertex 7.666667 25.000000 -7.666667
      vertex 7.666667 24.000000 -8.666667
      vertex 7.666667 25.000000 -15.000000
    endloop
  endfacet
  facet normal 1.000000 0.000000 -0.000000
    outer loop
      vertex 7.666667 25.000000 -15.000000
      vertex 7.666667 24.000000 -8.666667
      vertex 7.666667 24.000000 -15.000000
    endloop
  endfacet
  facet normal -0.664147 0.747602 -0.000000
    outer loop
      vertex 15.000000 29.626348 -15.000000
      vertex 8.666667 24.000000 -15.000000
      vertex 8.666667 24.000000 -8.666667
    endloop
  endfacet
  facet normal -1.000000 0.000000 0.000000
    outer loop
      vertex 6.666667 25.000000 -15.000000
      vertex 6.666667 23.000000 -6.666667
      vertex 6.666667 25.000000 -6.666667
    endloop
  endfacet
  facet normal -1.000000 0.000000 0.000000
    outer loop
      vertex 6.666667 23.000000 -6.666667
      vertex 6.666667 25.000000 -15.000000
      vertex 6.666667 23.000000 -15.000000
    endloop
  endfacet
  facet normal -0.993884 0.110432 -0.000000
    outer loop
      vertex 5.333333 11.000000 -5.333333
      vertex 5.000000 8.000000 -15.000000
      vertex 5.000000 8.000000 -5.000000
    endloop
  endfacet
  facet normal -0.993884 0.110432 -0.000000
    outer loop
      vertex 5.000000 8.000000 -15.000000
      vertex 5.333333 11.000000 -5.333333
      vertex 5.333333 11.000000 -15.000000
    endloop
  endfacet
  facet normal 0.000000 1.000000 -0.000000
    outer loop
      vertex 1.000000 9.000000 -5.111111
      vertex 2.000000 9.000000 -15.000000
      vertex 1.000000 9.000000 -15.000000
    endloop
  endfacet
  facet normal 0.000000 1.000000 -0.000000
    outer loop
      vertex 2.000000 9.000000 -15.000000
      vertex 1.000000 9.000000 -5.111111
      vertex 2.000000 9.000000 -5.111111
    endloop
  endfacet
  facet normal 1.000000 -0.000000 -0.000000
    outer loop
      vertex 2.000000 8.000000 -15.000000
      vertex 2.000000 9.000000 -5.111111
      vertex 2.000000 8.000000 -5.000000
    endloop
  endfacet
  facet normal 1.000000 0.000000 -0.000000
    outer loop
      vertex 2.000000 9.000000 -5.111111
      vertex 2.000000 8.000000 -15.000000
      vertex 2.000000 9.000000 -15.000000
    endloop
  endfacet
  facet normal 1.000000 0.000000 -0.000000
    outer loop
      vertex 15.000000 11.000000 -5.333333
      vertex 15.000000 11.442205 -1.271356
      vertex 15.000000 11.000000 -1.222222
    endloop
  endfacet
  facet normal 1.000000 0.000000 0.000000
    outer loop
      vertex 15.000000 11.442205 -1.271356
      vertex 15.000000 11.000000 -5.333333
      vertex 15.000000 12.977376 -5.553042
    endloop
  endfacet
  facet normal 1.000000 0.000000 -0.000000
    outer loop
      vertex 15.000000 -3.000000 -15.000000
      vertex 15.000000 0.000000 0.000000
      vertex 15.000000 -3.000000 0.000000
    endloop
  endfacet
  facet normal 1.000000 -0.000000 -0.000000
    outer loop
      vertex 15.000000 0.000000 0.000000
      vertex 15.000000 -3.000000 -15.000000
      vertex 15.000000 8.000000 -2.000000
    endloop
  endfacet
  facet normal 1.000000 0.000000 -0.000000
    outer loop
      vertex 15.000000 0.000000 0.000000
      vertex 15.000000 8.000000 -2.000000
      vertex 15.000000 9.000000 -1.000000
    endloop
  endfacet
  facet normal 1.000000 -0.000000 -0.000000
    outer loop
      vertex 15.000000 8.000000 -2.000000
      vertex 15.000000 -3.000000 -15.000000
      vertex 15.000000 8.000000 -5.000000
    endloop
  endfacet
  facet normal 1.000000 -0.000000 -0.000000
    outer loop
      vertex 15.000000 8.000000 -5.000000
      vertex 15.000000 -3.000000 -15.000000
      vertex 15.000000 11.000000 -5.333333
    endloop
  endfacet
  facet normal 1.000000 -0.000000 -0.000000
    outer loop
      vertex 15.000000 11.000000 -5.333333
      vertex 15.000000 -3.000000 -15.000000
      vertex 15.000000 12.977376 -5.553042
    endloop
  endfacet
  facet normal 1.000000 -0.000000 -0.000000
    outer loop
      vertex 15.000000 12.977376 -5.553042
      vertex 15.000000 -3.000000 -15.000000
      vertex 15.000000 23.000000 -6.666667
    endloop
  endfacet
  facet normal 1.000000 -0.000000 -0.000000
    outer loop
      vertex 15.000000 23.000000 -6.666667
      vertex 15.000000 -3.000000 -15.000000
      vertex 15.000000 25.000000 -6.666667
    endloop
  endfacet
  facet normal 1.000000 -0.000000 0.000000
    outer loop
      vertex 15.000000 25.000000 -6.666667
      vertex 15.000000 -3.000000 -15.000000
      vertex 15.000000 24.000000 -7.666667
    endloop
  endfacet
  facet normal 1.000000 -0.000000 -0.000000
    outer loop
      vertex 15.000000 24.000000 -7.666667
      vertex 15.000000 -3.000000 -15.000000
      vertex 15.000000 24.000000 -8.666667
    endloop
  endfacet
  facet normal 1.000000 0.000000 -0.000000
    outer loop
      vertex 15.000000 24.000000 -8.666667
      vertex 15.000000 -3.000000 -15.000000
      vertex 15.000000 29.626348 -15.000000
    endloop
  endfacet
  facet normal 1.000000 0.000000 -0.000000
    outer loop
      vertex 15.000000 25.000000 -7.666667
      vertex 15.000000 25.000000 -6.666667
      vertex 15.000000 24.000000 -7.666667
    endloop
  endfacet
  facet normal 1.000000 0.000000 -0.000000
    outer loop
      vertex 15.000000 9.000000 -2.000000
      vertex 15.000000 9.000000 -1.000000
      vertex 15.000000 8.000000 -2.000000
    endloop
  endfacet
  facet normal 0.000000 1.000000 -0.000000
    outer loop
      vertex 5.000000 8.000000 -0.888889
      vertex 2.000000 8.000000 -2.000000
      vertex 2.000000 8.000000 -0.888889
    endloop
  endfacet
  facet normal 0.000000 1.000000 -0.000000
    outer loop
      vertex 2.000000 8.000000 -2.000000
      vertex 5.000000 8.000000 -0.888889
      vertex 2.000000 8.000000 -5.000000
    endloop
  endfacet
  facet normal 0.000000 1.000000 -0.000000
    outer loop
      vertex 2.000000 8.000000 -5.000000
      vertex 5.000000 8.000000 -0.888889
      vertex 5.000000 8.000000 -5.000000
    endloop
  endfacet
  facet normal -0.383796 0.923418 -0.000000
    outer loop
      vertex 5.000000 8.000000 -5.000000
      vertex 5.000000 8.000000 -0.888889
      vertex 5.000000 8.000000 -2.000000
    endloop
  endfacet
  facet normal -0.000000 1.000000 -0.000000
    outer loop
      vertex 5.000000 8.000000 -5.000000
      vertex 5.000000 8.000000 -2.000000
      vertex 15.000000 8.000000 -5.000000
    endloop
  endfacet
  facet normal 0.000000 1.000000 -0.000000
    outer loop
      vertex 15.000000 8.000000 -5.000000
      vertex 5.000000 8.000000 -2.000000
      vertex 15.000000 8.000000 -2.000000
    endloop
  endfacet
  facet normal 0.000000 1.000000 -0.000000
    outer loop
      vertex 2.000000 8.000000 -5.000000
      vertex 5.000000 8.000000 -15.000000
      vertex 2.000000 8.000000 -15.000000
    endloop
  endfacet
  facet normal 0.000000 1.000000 -0.000000
    outer loop
      vertex 5.000000 8.000000 -15.000000
      vertex 2.000000 8.000000 -5.000000
      vertex 5.000000 8.000000 -5.000000
    endloop
  endfacet
  facet normal -0.000000 1.000000 -0.000000
    outer loop
      vertex 2.000000 8.000000 -2.000000
      vertex 0.888889 8.000000 -5.000000
      vertex 0.888889 8.000000 -2.000000
    endloop
  endfacet
  facet normal -0.000000 1.000000 -0.000000
    outer loop
      vertex 0.888889 8.000000 -5.000000
      vertex 2.000000 8.000000 -2.000000
      vertex 2.000000 8.000000 -5.000000
    endloop
  endfacet
  facet normal 0.000000 -0.000000 1.000000
    outer loop
      vertex 15.000000 25.000000 -6.666667
      vertex 6.666667 23.000000 -6.666667
      vertex 15.000000 23.000000 -6.666667
    endloop
  endfacet
  facet normal 0.000000 0.000000 1.000000
    outer loop
      vertex 6.666667 23.000000 -6.666667
      vertex 15.000000 25.000000 -6.666667
      vertex 6.666667 25.000000 -6.666667
    endloop
  endfacet
  facet normal 0.000000 0.000000 -1.000000
    outer loop
      vertex 1.000000 9.000000 -15.000000
      vertex 2.000000 8.000000 -15.000000
      vertex 0.000000 -0.000000 -15.000000
    endloop
  endfacet
  facet normal 0.000000 -0.000000 -1.000000
    outer loop
      vertex 2.000000 8.000000 -15.000000
      vertex 1.000000 9.000000 -15.000000
      vertex 2.000000 9.000000 -15.000000
    endloop
  endfacet
  facet normal 0.000000 0.000000 -1.000000
    outer loop
      vertex 1.271356 11.442205 -15.000000
      vertex 5.333333 11.000000 -15.000000
      vertex 1.222222 11.000000 -15.000000
    endloop
  endfacet
  facet normal 0.000000 0.000000 -1.000000
    outer loop
      vertex 6.666667 25.000000 -15.000000
      vertex 7.666667 24.000000 -15.000000
      vertex 6.666667 23.000000 -15.000000
    endloop
  endfacet
  facet normal 0.000000 -0.000000 -1.000000
    outer loop
      vertex 7.666667 24.000000 -15.000000
      vertex 6.666667 25.000000 -15.000000
      vertex 7.666667 25.000000 -15.000000
    endloop
  endfacet
  facet normal 0.000000 0.000000 -1.000000
    outer loop
      vertex 0.000000 -0.000000 -15.000000
      vertex 15.000000 -3.000000 -15.000000
      vertex 0.000000 -3.000000 -15.000000
    endloop
  endfacet
  facet normal 0.000000 0.000000 -1.000000
    outer loop
      vertex 15.000000 -3.000000 -15.000000
      vertex 0.000000 -0.000000 -15.000000
      vertex 5.000000 8.000000 -15.000000
    endloop
  endfacet
  facet normal 0.000000 -0.000000 -1.000000
    outer loop
      vertex 15.000000 -3.000000 -15.000000
      vertex 5.000000 8.000000 -15.000000
      vertex 15.000000 29.626348 -15.000000
    endloop
  endfacet
  facet normal 0.000000 0.000000 -1.000000
    outer loop
      vertex 5.000000 8.000000 -15.000000
      vertex 0.000000 -0.000000 -15.000000
      vertex 2.000000 8.000000 -15.000000
    endloop
  endfacet
  facet normal -0.000000 0.000000 -1.000000
    outer loop
      vertex 15.000000 29.626348 -15.000000
      vertex 5.000000 8.000000 -15.000000
      vertex 5.333333 11.000000 -15.000000
    endloop
  endfacet
  facet normal 0.000000 -0.000000 -1.000000
    outer loop
      vertex 15.000000 29.626348 -15.000000
      vertex 5.333333 11.000000 -15.000000
      vertex 5.553042 12.977376 -15.000000
    endloop
  endfacet
  facet normal -0.000000 -0.000000 -1.000000
    outer loop
      vertex 5.553042 12.977376 -15.000000
      vertex 5.333333 11.000000 -15.000000
      vertex 1.271356 11.442205 -15.000000
    endloop
  endfacet
  facet normal 0.000000 0.000000 -1.000000
    outer loop
      vertex 15.000000 29.626348 -15.000000
      vertex 5.553042 12.977376 -15.000000
      vertex 8.666667 24.000000 -15.000000
    endloop
  endfacet
  facet normal 0.000000 -0.000000 -1.000000
    outer loop
      vertex 8.666667 24.000000 -15.000000
      vertex 5.553042 12.977376 -15.000000
      vertex 6.666667 23.000000 -15.000000
    endloop
  endfacet
  facet normal 0.000000 0.000000 -1.000000
    outer loop
      vertex 8.666667 24.000000 -15.000000
      vertex 6.666667 23.000000 -15.000000
      vertex 7.666667 24.000000 -15.000000
    endloop
  endfacet
  facet normal 0.000000 0.747602 0.664147
    outer loop
      vertex 15.000000 24.000000 -8.666667
      vertex 15.000000 29.626348 -15.000000
      vertex 8.666667 24.000000 -8.666667
    endloop
  endfacet
  facet normal 0.000000 0.000000 -1.000000
    outer loop
      vertex 7.666667 25.000000 -7.666667
      vertex 8.666667 24.000000 -7.666667
      vertex 7.666667 24.000000 -7.666667
    endloop
  endfacet
  facet normal -0.000000 0.000000 -1.000000
    outer loop
      vertex 8.666667 24.000000 -7.666667
      vertex 15.000000 25.000000 -7.666667
      vertex 15.000000 24.000000 -7.666667
    endloop
  endfacet
  facet normal 0.000000 0.000000 -1.000000
    outer loop
      vertex 15.000000 25.000000 -7.666667
      vertex 8.666667 24.000000 -7.666667
      vertex 7.666667 25.000000 -7.666667
    endloop
  endfacet
  facet normal 0.000000 1.000000 0.000000
    outer loop
      vertex 6.666667 25.000000 -6.666667
      vertex 7.666667 25.000000 -15.000000
      vertex 6.666667 25.000000 -15.000000
    endloop
  endfacet
  facet normal 0.000000 1.000000 -0.000000
    outer loop
      vertex 7.666667 25.000000 -15.000000
      vertex 6.666667 25.000000 -6.666667
      vertex 7.666667 25.000000 -7.666667
    endloop
  endfacet
  facet normal 0.000000 1.000000 -0.000000
    outer loop
      vertex 7.666667 25.000000 -7.666667
      vertex 6.666667 25.000000 -6.666667
      vertex 15.000000 25.000000 -6.666667
    endloop
  endfacet
  facet normal -0.000000 1.000000 -0.000000
    outer loop
      vertex 7.666667 25.000000 -7.666667
      vertex 15.000000 25.000000 -6.666667
      vertex 15.000000 25.000000 -7.666667
    endloop
  endfacet
  facet normal -0.000000 0.110432 0.993884
    outer loop
      vertex 15.000000 12.977376 -5.553042
      vertex 6.666667 23.000000 -6.666667
      vertex 5.553042 12.977376 -5.553042
    endloop
  endfacet
  facet normal 0.000000 0.110432 0.993884
    outer loop
      vertex 6.666667 23.000000 -6.666667
      vertex 15.000000 12.977376 -5.553042
      vertex 15.000000 23.000000 -6.666667
    endloop
  endfacet
  facet normal 0.000000 0.110432 0.993884
    outer loop
      vertex 15.000000 11.000000 -5.333333
      vertex 5.000000 8.000000 -5.000000
      vertex 15.000000 8.000000 -5.000000
    endloop
  endfacet
  facet normal 0.000000 0.110432 0.993884
    outer loop
      vertex 5.000000 8.000000 -5.000000
      vertex 15.000000 11.000000 -5.333333
      vertex 5.333333 11.000000 -5.333333
    endloop
  endfacet
  facet normal -0.000000 0.000000 -1.000000
    outer loop
      vertex 5.000000 8.000000 -2.000000
      vertex 15.000000 9.000000 -2.000000
      vertex 15.000000 8.000000 -2.000000
    endloop
  endfacet
  facet normal 0.000000 0.000000 -1.000000
    outer loop
      vertex 15.000000 9.000000 -2.000000
      vertex 5.000000 8.000000 -2.000000
      vertex 5.111111 9.000000 -2.000000
    endloop
  endfacet
  facet normal 0.000000 0.941324 0.337505
    outer loop
      vertex 15.000000 11.442205 -1.271356
      vertex 5.553042 12.977376 -5.553042
      vertex 1.271356 11.442205 -1.271356
    endloop
  endfacet
  facet normal -0.000000 0.941324 0.337505
    outer loop
      vertex 5.553042 12.977376 -5.553042
      vertex 15.000000 11.442205 -1.271356
      vertex 15.000000 12.977376 -5.553042
    endloop
  endfacet
  facet normal 0.000000 1.000000 -0.000000
    outer loop
      vertex 15.000000 9.000000 -1.000000
      vertex 5.111111 9.000000 -2.000000
      vertex 5.111111 9.000000 -1.000000
    endloop
  endfacet
  facet normal -0.000000 1.000000 -0.000000
    outer loop
      vertex 5.111111 9.000000 -2.000000
      vertex 15.000000 9.000000 -1.000000
      vertex 15.000000 9.000000 -2.000000
    endloop
  endfacet
  facet normal -0.000000 -1.000000 -0.000000
    outer loop
      vertex 5.333333 11.000000 -15.000000
      vertex 1.222222 11.000000 -1.222222
      vertex 1.222222 11.000000 -15.000000
    endloop
  endfacet
  facet normal 0.000000 -1.000000 0.000000
    outer loop
      vertex 1.222222 11.000000 -1.222222
      vertex 5.333333 11.000000 -15.000000
      vertex 5.333333 11.000000 -5.333333
    endloop
  endfacet
  facet normal 0.000000 -1.000000 -0.000000
    outer loop
      vertex 1.222222 11.000000 -1.222222
      vertex 5.333333 11.000000 -5.333333
      vertex 15.000000 11.000000 -1.222222
    endloop
  endfacet
  facet normal -0.000000 -1.000000 -0.000000
    outer loop
      vertex 15.000000 11.000000 -1.222222
      vertex 5.333333 11.000000 -5.333333
      vertex 15.000000 11.000000 -5.333333
    endloop
  endfacet
  facet normal 0.000000 0.110432 0.993884
    outer loop
      vertex 15.000000 11.442205 -1.271356
      vertex 1.222222 11.000000 -1.222222
      vertex 15.000000 11.000000 -1.222222
    endloop
  endfacet
  facet normal -0.000000 0.110432 0.993884
    outer loop
      vertex 1.222222 11.000000 -1.222222
      vertex 15.000000 11.442205 -1.271356
      vertex 1.271356 11.442205 -1.271356
    endloop
  endfacet
  facet normal -0.000000 1.000000 -0.000000
    outer loop
      vertex 8.666667 24.000000 -7.666667
      vertex 7.666667 24.000000 -8.666667
      vertex 7.666667 24.000000 -7.666667
    endloop
  endfacet
  facet normal -0.000000 1.000000 -0.000000
    outer loop
      vertex 7.666667 24.000000 -8.666667
      vertex 8.666667 24.000000 -7.666667
      vertex 7.666667 24.000000 -15.000000
    endloop
  endfacet
  facet normal -0.000000 1.000000 0.000000
    outer loop
      vertex 7.666667 24.000000 -15.000000
      vertex 8.666667 24.000000 -7.666667
      vertex 8.666667 24.000000 -8.666667
    endloop
  endfacet
  facet normal 0.000000 1.000000 -0.000000
    outer loop
      vertex 8.666667 24.000000 -8.666667
      vertex 8.666667 24.000000 -7.666667
      vertex 15.000000 24.000000 -8.666667
    endloop
  endfacet
  facet normal 0.000000 1.000000 -0.000000
    outer loop
      vertex 15.000000 24.000000 -8.666667
      vertex 8.666667 24.000000 -7.666667
      vertex 15.000000 24.000000 -7.666667
    endloop
  endfacet
  facet normal 0.000000 1.000000 -0.000000
    outer loop
      vertex 8.666667 24.000000 -15.000000
      vertex 7.666667 24.000000 -15.000000
      vertex 8.666667 24.000000 -8.666667
    endloop
  endfacet
  facet normal -0.993884 0.110432 -0.000000
    outer loop
      vertex 0.888889 8.000000 -2.000000
      vertex 0.000000 -0.000000 -1.000000
      vertex 0.888889 8.000000 -1.000000
    endloop
  endfacet
  facet normal -0.993884 0.110432 -0.000000
    outer loop
      vertex 0.000000 -0.000000 -1.000000
      vertex 0.888889 8.000000 -2.000000
      vertex 0.000000 -0.000000 -15.000000
    endloop
  endfacet
  facet normal -0.993884 0.110432 -0.000000
    outer loop
      vertex 0.000000 -0.000000 -15.000000
      vertex 0.888889 8.000000 -2.000000
      vertex 0.888889 8.000000 -5.000000
    endloop
  endfacet
  facet normal -0.993884 0.110432 -0.000000
    outer loop
      vertex 0.000000 -0.000000 -15.000000
      vertex 0.888889 8.000000 -5.000000
      vertex 1.000000 9.000000 -5.111111
    endloop
  endfacet
  facet normal -0.993884 0.110432 0.000000
    outer loop
      vertex 0.000000 -0.000000 -15.000000
      vertex 1.000000 9.000000 -5.111111
      vertex 1.000000 9.000000 -15.000000
    endloop
  endfacet
  facet normal -0.704934 0.078326 0.704934
    outer loop
      vertex 1.000000 -0.000000 0.000000
      vertex 0.888889 8.000000 -1.000000
      vertex 0.000000 -0.000000 -1.000000
    endloop
  endfacet
  facet normal -0.704934 0.078326 0.704934
    outer loop
      vertex 0.888889 8.000000 -1.000000
      vertex 1.000000 -0.000000 0.000000
      vertex 1.000000 8.000000 -0.888889
    endloop
  endfacet
  facet normal 0.000000 0.992278 0.124035
    outer loop
      vertex 2.000000 8.000000 -0.888889
      vertex 1.000000 8.000000 -0.888889
      vertex 5.000000 8.000000 -0.888889
    endloop
  endfacet
  facet normal -0.000000 0.110432 0.993884
    outer loop
      vertex 15.000000 0.000000 0.000000
      vertex 1.000000 8.000000 -0.888889
      vertex 1.000000 -0.000000 0.000000
    endloop
  endfacet
  facet normal 0.000000 0.110432 0.993884
    outer loop
      vertex 1.000000 8.000000 -0.888889
      vertex 15.000000 0.000000 0.000000
      vertex 5.000000 8.000000 -0.888889
    endloop
  endfacet
  facet normal 0.000000 0.110432 0.993884
    outer loop
      vertex 5.000000 8.000000 -0.888889
      vertex 15.000000 0.000000 0.000000
      vertex 15.000000 9.000000 -1.000000
    endloop
  endfacet
  facet normal 0.000000 0.110432 0.993884
    outer loop
      vertex 5.000000 8.000000 -0.888889
      vertex 15.000000 9.000000 -1.000000
      vertex 5.111111 9.000000 -1.000000
    endloop
  endfacet
  facet normal 0.000000 -1.000000 -0.000000
    outer loop
      vertex 1.464813 9.000000 -14.600451
      vertex 1.664813 9.000000 -14.800451
      vertex 1.664813 9.000000 -14.600451
    endloop
  endfacet
  facet normal -0.000000 -1.000000 -0.000000
    outer loop
      vertex 1.664813 9.000000 -14.800451
      vertex 1.464813 9.000000 -14.600451
      vertex 1.464813 9.000000 -14.800451
    endloop
  endfacet
  facet normal 0.000000 -0.000000 1.000000
    outer loop
      vertex 1.664813 11.000000 -14.600451
      vertex 1.464813 9.000000 -14.600451
      vertex 1.664813 9.000000 -14.600451
    endloop
  endfacet
  facet normal 0.000000 0.000000 1.000000
    outer loop
      vertex 1.464813 9.000000 -14.600451
      vertex 1.664813 11.000000 -14.600451
      vertex 1.464813 11.000000 -14.600451
    endloop
  endfacet
  facet normal 1.000000 0.000000 0.000000
    outer loop
      vertex 1.664813 11.000000 -14.600451
      vertex 1.664813 9.000000 -14.800451
      vertex 1.664813 11.000000 -14.800451
    endloop
  endfacet
  facet normal 1.000000 0.000000 -0.000000
    outer loop
      vertex 1.664813 9.000000 -14.800451
      vertex 1.664813 11.000000 -14.600451
      vertex 1.664813 9.000000 -14.600451
    endloop
  endfacet
  facet normal -0.000000 1.000000 -0.000000
    outer loop
      vertex 1.464813 11.000000 -14.800451
      vertex 1.664813 11.000000 -14.600451
      vertex 1.664813 11.000000 -14.800451
    endloop
  endfacet
  facet normal 0.000000 1.000000 -0.000000
    outer loop
      vertex 1.664813 11.000000 -14.600451
      vertex 1.464813 11.000000 -14.800451
      vertex 1.464813 11.000000 -14.600451
    endloop
  endfacet
  facet normal 0.000000 0.000000 -1.000000
    outer loop
      vertex 1.464813 11.000000 -14.800451
      vertex 1.664813 9.000000 -14.800451
      vertex 1.464813 9.000000 -14.800451
    endloop
  endfacet
  facet normal 0.000000 -0.000000 -1.000000
    outer loop
      vertex 1.664813 9.000000 -14.800451
      vertex 1.464813 11.000000 -14.800451
      vertex 1.664813 11.000000 -14.800451
    endloop
  endfacet
  facet normal -1.000000 0.000000 -0.000000
    outer loop
      vertex 1.464813 9.000000 -14.600451
      vertex 1.464813 11.000000 -14.800451
      vertex 1.464813 9.000000 -14.800451
    endloop
  endfacet
  facet normal -1.000000 0.000000 0.000000
    outer loop
      vertex 1.464813 11.000000 -14.800451
      vertex 1.464813 9.000000 -14.600451
      vertex 1.464813 11.000000 -14.600451
    endloop
  endfacet
  facet normal 0.000000 -1.000000 -0.000000
    outer loop
      vertex 1.464813 9.000000 -5.600451
      vertex 1.664813 9.000000 -5.800451
      vertex 1.664813 9.000000 -5.600451
    endloop
  endfacet
  facet normal -0.000000 -1.000000 -0.000000
    outer loop
      vertex 1.664813 9.000000 -5.800451
      vertex 1.464813 9.000000 -5.600451
      vertex 1.464813 9.000000 -5.800451
    endloop
  endfacet
  facet normal 0.000000 -0.000000 1.000000
    outer loop
      vertex 1.664813 11.000000 -5.600451
      vertex 1.464813 9.000000 -5.600451
      vertex 1.664813 9.000000 -5.600451
    endloop
  endfacet
  facet normal 0.000000 0.000000 1.000000
    outer loop
      vertex 1.464813 9.000000 -5.600451
      vertex 1.664813 11.000000 -5.600451
      vertex 1.464813 11.000000 -5.600451
    endloop
  endfacet
  facet normal 1.000000 0.000000 0.000000
    outer loop
      vertex 1.664813 11.000000 -5.600451
      vertex 1.664813 9.000000 -5.800451
      vertex 1.664813 11.000000 -5.800451
    endloop
  endfacet
  facet normal 1.000000 0.000000 -0.000000
    outer loop
      vertex 1.664813 9.000000 -5.800451
      vertex 1.664813 11.000000 -5.600451
      vertex 1.664813 9.000000 -5.600451
    endloop
  endfacet
  facet normal -0.000000 1.000000 -0.000000
    outer loop
      vertex 1.464813 11.000000 -5.800451
      vertex 1.664813 11.000000 -5.600451
      vertex 1.664813 11.000000 -5.800451
    endloop
  endfacet
  facet normal 0.000000 1.000000 -0.000000
    outer loop
      vertex 1.664813 11.000000 -5.600451
      vertex 1.464813 11.000000 -5.800451
      vertex 1.464813 11.000000 -5.600451
    endloop
  endfacet
  facet normal 0.000000 0.000000 -1.000000
    outer loop
      vertex 1.464813 11.000000 -5.800451
      vertex 1.664813 9.000000 -5.800451
      vertex 1.464813 9.000000 -5.800451
    endloop
  endfacet
  facet normal 0.000000 -0.000000 -1.000000
    outer loop
      vertex 1.664813 9.000000 -5.800451
      vertex 1.464813 11.000000 -5.800451
      vertex 1.664813 11.000000 -5.800451
    endloop
  endfacet
  facet normal -1.000000 0.000000 -0.000000
    outer loop
      vertex 1.464813 9.000000 -5.600451
      vertex 1.464813 11.000000 -5.800451
      vertex 1.464813 9.000000 -5.800451
    endloop
  endfacet
  facet normal -1.000000 0.000000 0.000000
    outer loop
      vertex 1.464813 11.000000 -5.800451
      vertex 1.464813 9.000000 -5.600451
      vertex 1.464813 11.000000 -5.600451
    endloop
  endfacet
  facet normal 0.000000 -1.000000 -0.000000
    outer loop
      vertex 1.464813 9.000000 -8.600451
      vertex 1.664813 9.000000 -8.800451
      vertex 1.664813 9.000000 -8.600451
    endloop
  endfacet
  facet normal -0.000000 -1.000000 -0.000000
    outer loop
      vertex 1.664813 9.000000 -8.800451
      vertex 1.464813 9.000000 -8.600451
      vertex 1.464813 9.000000 -8.800451
    endloop
  endfacet
  facet normal 0.000000 -0.000000 1.000000
    outer loop
      vertex 1.664813 11.000000 -8.600451
      vertex 1.464813 9.000000 -8.600451
      vertex 1.664813 9.000000 -8.600451
    endloop
  endfacet
  facet normal 0.000000 0.000000 1.000000
    outer loop
      vertex 1.464813 9.000000 -8.600451
      vertex 1.664813 11.000000 -8.600451
      vertex 1.464813 11.000000 -8.600451
    endloop
  endfacet
  facet normal 1.000000 0.000000 0.000000
    outer loop
      vertex 1.664813 11.000000 -8.600451
      vertex 1.664813 9.000000 -8.800451
      vertex 1.664813 11.000000 -8.800451
    endloop
  endfacet
  facet normal 1.000000 0.000000 -0.000000
    outer loop
      vertex 1.664813 9.000000 -8.800451
      vertex 1.664813 11.000000 -8.600451
      vertex 1.664813 9.000000 -8.600451
    endloop
  endfacet
  facet normal -0.000000 1.000000 -0.000000
    outer loop
      vertex 1.464813 11.000000 -8.800451
      vertex 1.664813 11.000000 -8.600451
      vertex 1.664813 11.000000 -8.800451
    endloop
  endfacet
  facet normal 0.000000 1.000000 -0.000000
    outer loop
      vertex 1.664813 11.000000 -8.600451
      vertex 1.464813 11.000000 -8.800451
      vertex 1.464813 11.000000 -8.600451
    endloop
  endfacet
  facet normal 0.000000 0.000000 -1.000000
    outer loop
      vertex 1.464813 11.000000 -8.800451
      vertex 1.664813 9.000000 -8.800451
      vertex 1.464813 9.000000 -8.800451
    endloop
  endfacet
  facet normal 0.000000 -0.000000 -1.000000
    outer loop
      vertex 1.664813 9.000000 -8.800451
      vertex 1.464813 11.000000 -8.800451
      vertex 1.664813 11.000000 -8.800451
    endloop
  endfacet
  facet normal -1.000000 0.000000 -0.000000
    outer loop
      vertex 1.464813 9.000000 -8.600451
      vertex 1.464813 11.000000 -8.800451
      vertex 1.464813 9.000000 -8.800451
    endloop
  endfacet
  facet normal -1.000000 0.000000 0.000000
    outer loop
      vertex 1.464813 11.000000 -8.800451
      vertex 1.464813 9.000000 -8.600451
      vertex 1.464813 11.000000 -8.600451
    endloop
  endfacet
  facet normal 0.000000 -1.000000 -0.000000
    outer loop
      vertex 1.464813 9.000000 -11.600451
      vertex 1.664813 9.000000 -11.800451
      vertex 1.664813 9.000000 -11.600451
    endloop
  endfacet
  facet normal -0.000000 -1.000000 -0.000000
    outer loop
      vertex 1.664813 9.000000 -11.800451
      vertex 1.464813 9.000000 -11.600451
      vertex 1.464813 9.000000 -11.800451
    endloop
  endfacet
  facet normal 0.000000 -0.000000 1.000000
    outer loop
      vertex 1.664813 11.000000 -11.600451
      vertex 1.464813 9.000000 -11.600451
      vertex 1.664813 9.000000 -11.600451
    endloop
  endfacet
  facet normal 0.000000 0.000000 1.000000
    outer loop
      vertex 1.464813 9.000000 -11.600451
      vertex 1.664813 11.000000 -11.600451
      vertex 1.464813 11.000000 -11.600451
    endloop
  endfacet
  facet normal 1.000000 0.000000 0.000000
    outer loop
      vertex 1.664813 11.000000 -11.600451
      vertex 1.664813 9.000000 -11.800451
      vertex 1.664813 11.000000 -11.800451
    endloop
  endfacet
  facet normal 1.000000 0.000000 -0.000000
    outer loop
      vertex 1.664813 9.000000 -11.800451
      vertex 1.664813 11.000000 -11.600451
      vertex 1.664813 9.000000 -11.600451
    endloop
  endfacet
  facet normal -0.000000 1.000000 -0.000000
    outer loop
      vertex 1.464813 11.000000 -11.800451
      vertex 1.664813 11.000000 -11.600451
      vertex 1.664813 11.000000 -11.800451
    endloop
  endfacet
  facet normal 0.000000 1.000000 -0.000000
    outer loop
      vertex 1.664813 11.000000 -11.600451
      vertex 1.464813 11.000000 -11.800451
      vertex 1.464813 11.000000 -11.600451
    endloop
  endfacet
  facet normal 0.000000 0.000000 -1.000000
    outer loop
      vertex 1.464813 11.000000 -11.800451
      vertex 1.664813 9.000000 -11.800451
      vertex 1.464813 9.000000 -11.800451
    endloop
  endfacet
  facet normal 0.000000 -0.000000 -1.000000
    outer loop
      vertex 1.664813 9.000000 -11.800451
      vertex 1.464813 11.000000 -11.800451
      vertex 1.664813 11.000000 -11.800451
    endloop
  endfacet
  facet normal -1.000000 0.000000 -0.000000
    outer loop
      vertex 1.464813 9.000000 -11.600451
      vertex 1.464813 11.000000 -11.800451
      vertex 1.464813 9.000000 -11.800451
    endloop
  endfacet
  facet normal -1.000000 0.000000 0.000000
    outer loop
      vertex 1.464813 11.000000 -11.800451
      vertex 1.464813 9.000000 -11.600451
      vertex 1.464813 11.000000 -11.600451
    endloop
  endfacet
  facet normal 0.000000 -1.000000 -0.000000
    outer loop
      vertex 14.548857 9.000000 -1.710237
      vertex 14.748857 9.000000 -1.510237
      vertex 14.548857 9.000000 -1.510237
    endloop
  endfacet
  facet normal 0.000000 -1.000000 -0.000000
    outer loop
      vertex 14.748857 9.000000 -1.510237
      vertex 14.548857 9.000000 -1.710237
      vertex 14.748857 9.000000 -1.710237
    endloop
  endfacet
  facet normal -1.000000 0.000000 -0.000000
    outer loop
      vertex 14.548857 11.000000 -1.510237
      vertex 14.548857 9.000000 -1.710237
      vertex 14.548857 9.000000 -1.510237
    endloop
  endfacet
  facet normal -1.000000 0.000000 -0.000000
    outer loop
      vertex 14.548857 9.000000 -1.710237
      vertex 14.548857 11.000000 -1.510237
      vertex 14.548857 11.000000 -1.710237
    endloop
  endfacet
  facet normal 0.000000 0.000000 1.000000
    outer loop
      vertex 14.548857 11.000000 -1.510237
      vertex 14.748857 9.000000 -1.510237
      vertex 14.748857 11.000000 -1.510237
    endloop
  endfacet
  facet normal 0.000000 0.000000 1.000000
    outer loop
      vertex 14.748857 9.000000 -1.510237
      vertex 14.548857 11.000000 -1.510237
      vertex 14.548857 9.000000 -1.510237
    endloop
  endfacet
  facet normal 0.000000 1.000000 -0.000000
    outer loop
      vertex 14.748857 11.000000 -1.710237
      vertex 14.548857 11.000000 -1.510237
      vertex 14.748857 11.000000 -1.510237
    endloop
  endfacet
  facet normal 0.000000 1.000000 -0.000000
    outer loop
      vertex 14.548857 11.000000 -1.510237
      vertex 14.748857 11.000000 -1.710237
      vertex 14.548857 11.000000 -1.710237
    endloop
  endfacet
  facet normal 1.000000 0.000000 -0.000000
    outer loop
      vertex 14.748857 11.000000 -1.710237
      vertex 14.748857 9.000000 -1.510237
      vertex 14.748857 9.000000 -1.710237
    endloop
  endfacet
  facet normal 1.000000 0.000000 -0.000000
    outer loop
      vertex 14.748857 9.000000 -1.510237
      vertex 14.748857 11.000000 -1.710237
      vertex 14.748857 11.000000 -1.510237
    endloop
  endfacet
  facet normal 0.000000 0.000000 -1.000000
    outer loop
      vertex 14.548857 9.000000 -1.710237
      vertex 14.748857 11.000000 -1.710237
      vertex 14.748857 9.000000 -1.710237
    endloop
  endfacet
  facet normal 0.000000 0.000000 -1.000000
    outer loop
      vertex 14.748857 11.000000 -1.710237
      vertex 14.548857 9.000000 -1.710237
      vertex 14.548857 11.000000 -1.710237
    endloop
  endfacet
  facet normal 0.000000 -1.000000 -0.000000
    outer loop
      vertex 11.548857 9.000000 -1.710237
      vertex 11.748857 9.000000 -1.510237
      vertex 11.548857 9.000000 -1.510237
    endloop
  endfacet
  facet normal 0.000000 -1.000000 -0.000000
    outer loop
      vertex 11.748857 9.000000 -1.510237
      vertex 11.548857 9.000000 -1.710237
      vertex 11.748857 9.000000 -1.710237
    endloop
  endfacet
  facet normal -1.000000 0.000000 -0.000000
    outer loop
      vertex 11.548857 11.000000 -1.510237
      vertex 11.548857 9.000000 -1.710237
      vertex 11.548857 9.000000 -1.510237
    endloop
  endfacet
  facet normal -1.000000 0.000000 -0.000000
    outer loop
      vertex 11.548857 9.000000 -1.710237
      vertex 11.548857 11.000000 -1.510237
      vertex 11.548857 11.000000 -1.710237
    endloop
  endfacet
  facet normal 0.000000 0.000000 1.000000
    outer loop
      vertex 11.548857 11.000000 -1.510237
      vertex 11.748857 9.000000 -1.510237
      vertex 11.748857 11.000000 -1.510237
    endloop
  endfacet
  facet normal 0.000000 0.000000 1.000000
    outer loop
      vertex 11.748857 9.000000 -1.510237
      vertex 11.548857 11.000000 -1.510237
      vertex 11.548857 9.000000 -1.510237
    endloop
  endfacet
  facet normal 0.000000 1.000000 -0.000000
    outer loop
      vertex 11.748857 11.000000 -1.710237
      vertex 11.548857 11.000000 -1.510237
      vertex 11.748857 11.000000 -1.510237
    endloop
  endfacet
  facet normal 0.000000 1.000000 -0.000000
    outer loop
      vertex 11.548857 11.000000 -1.510237
      vertex 11.748857 11.000000 -1.710237
      vertex 11.548857 11.000000 -1.710237
    endloop
  endfacet
  facet normal 1.000000 0.000000 -0.000000
    outer loop
      vertex 11.748857 11.000000 -1.710237
      vertex 11.748857 9.000000 -1.510237
      vertex 11.748857 9.000000 -1.710237
    endloop
  endfacet
  facet normal 1.000000 0.000000 -0.000000
    outer loop
      vertex 11.748857 9.000000 -1.510237
      vertex 11.748857 11.000000 -1.710237
      vertex 11.748857 11.000000 -1.510237
    endloop
  endfacet
  facet normal 0.000000 0.000000 -1.000000
    outer loop
      vertex 11.548857 9.000000 -1.710237
      vertex 11.748857 11.000000 -1.710237
      vertex 11.748857 9.000000 -1.710237
    endloop
  endfacet
  facet normal 0.000000 0.000000 -1.000000
    outer loop
      vertex 11.748857 11.000000 -1.710237
      vertex 11.548857 9.000000 -1.710237
      vertex 11.548857 11.000000 -1.710237
    endloop
  endfacet
  facet normal 0.000000 -1.000000 -0.000000
    outer loop
      vertex 8.548857 9.000000 -1.710237
      vertex 8.748857 9.000000 -1.510237
      vertex 8.548857 9.000000 -1.510237
    endloop
  endfacet
  facet normal 0.000000 -1.000000 -0.000000
    outer loop
      vertex 8.748857 9.000000 -1.510237
      vertex 8.548857 9.000000 -1.710237
      vertex 8.748857 9.000000 -1.710237
    endloop
  endfacet
  facet normal -1.000000 0.000000 -0.000000
    outer loop
      vertex 8.548857 11.000000 -1.510237
      vertex 8.548857 9.000000 -1.710237
      vertex 8.548857 9.000000 -1.510237
    endloop
  endfacet
  facet normal -1.000000 0.000000 -0.000000
    outer loop
      vertex 8.548857 9.000000 -1.710237
      vertex 8.548857 11.000000 -1.510237
      vertex 8.548857 11.000000 -1.710237
    endloop
  endfacet
  facet normal 0.000000 0.000000 1.000000
    outer loop
      vertex 8.548857 11.000000 -1.510237
      vertex 8.748857 9.000000 -1.510237
      vertex 8.748857 11.000000 -1.510237
    endloop
  endfacet
  facet normal 0.000000 0.000000 1.000000
    outer loop
      vertex 8.748857 9.000000 -1.510237
      vertex 8.548857 11.000000 -1.510237
      vertex 8.548857 9.000000 -1.510237
    endloop
  endfacet
  facet normal 0.000000 1.000000 -0.000000
    outer loop
      vertex 8.748857 11.000000 -1.710237
      vertex 8.548857 11.000000 -1.510237
      vertex 8.748857 11.000000 -1.510237
    endloop
  endfacet
  facet normal 0.000000 1.000000 -0.000000
    outer loop
      vertex 8.548857 11.000000 -1.510237
      vertex 8.748857 11.000000 -1.710237
      vertex 8.548857 11.000000 -1.710237
    endloop
  endfacet
  facet normal 1.000000 0.000000 -0.000000
    outer loop
      vertex 8.748857 11.000000 -1.710237
      vertex 8.748857 9.000000 -1.510237
      vertex 8.748857 9.000000 -1.710237
    endloop
  endfacet
  facet normal 1.000000 0.000000 -0.000000
    outer loop
      vertex 8.748857 9.000000 -1.510237
      vertex 8.748857 11.000000 -1.710237
      vertex 8.748857 11.000000 -1.510237
    endloop
  endfacet
  facet normal 0.000000 0.000000 -1.000000
    outer loop
      vertex 8.548857 9.000000 -1.710237
      vertex 8.748857 11.000000 -1.710237
      vertex 8.748857 9.000000 -1.710237
    endloop
  endfacet
  facet normal 0.000000 0.000000 -1.000000
    outer loop
      vertex 8.748857 11.000000 -1.710237
      vertex 8.548857 9.000000 -1.710237
      vertex 8.548857 11.000000 -1.710237
    endloop
  endfacet
  facet normal 0.000000 -1.000000 -0.000000
    outer loop
      vertex 5.548857 9.000000 -1.710237
      vertex 5.748857 9.000000 -1.510237
      vertex 5.548857 9.000000 -1.510237
    endloop
  endfacet
  facet normal 0.000000 -1.000000 -0.000000
    outer loop
      vertex 5.748857 9.000000 -1.510237
      vertex 5.548857 9.000000 -1.710237
      vertex 5.748857 9.000000 -1.710237
    endloop
  endfacet
  facet normal -1.000000 0.000000 -0.000000
    outer loop
      vertex 5.548857 11.000000 -1.510237
      vertex 5.548857 9.000000 -1.710237
      vertex 5.548857 9.000000 -1.510237
    endloop
  endfacet
  facet normal -1.000000 0.000000 -0.000000
    outer loop
      vertex 5.548857 9.000000 -1.710237
      vertex 5.548857 11.000000 -1.510237
      vertex 5.548857 11.000000 -1.710237
    endloop
  endfacet
  facet normal 0.000000 0.000000 1.000000
    outer loop
      vertex 5.548857 11.000000 -1.510237
      vertex 5.748857 9.000000 -1.510237
      vertex 5.748857 11.000000 -1.510237
    endloop
  endfacet
  facet normal 0.000000 0.000000 1.000000
    outer loop
      vertex 5.748857 9.000000 -1.510237
      vertex 5.548857 11.000000 -1.510237
      vertex 5.548857 9.000000 -1.510237
    endloop
  endfacet
  facet normal 0.000000 1.000000 -0.000000
    outer loop
      vertex 5.748857 11.000000 -1.710237
      vertex 5.548857 11.000000 -1.510237
      vertex 5.748857 11.000000 -1.510237
    endloop
  endfacet
  facet normal 0.000000 1.000000 -0.000000
    outer loop
      vertex 5.548857 11.000000 -1.510237
      vertex 5.748857 11.000000 -1.710237
      vertex 5.548857 11.000000 -1.710237
    endloop
  endfacet
  facet normal 1.000000 0.000000 -0.000000
    outer loop
      vertex 5.748857 11.000000 -1.710237
      vertex 5.748857 9.000000 -1.510237
      vertex 5.748857 9.000000 -1.710237
    endloop
  endfacet
  facet normal 1.000000 0.000000 -0.000000
    outer loop
      vertex 5.748857 9.000000 -1.510237
      vertex 5.748857 11.000000 -1.710237
      vertex 5.748857 11.000000 -1.510237
    endloop
  endfacet
  facet normal 0.000000 0.000000 -1.000000
    outer loop
      vertex 5.548857 9.000000 -1.710237
      vertex 5.748857 11.000000 -1.710237
      vertex 5.748857 9.000000 -1.710237
    endloop
  endfacet
  facet normal 0.000000 0.000000 -1.000000
    outer loop
      vertex 5.748857 11.000000 -1.710237
      vertex 5.548857 9.000000 -1.710237
      vertex 5.548857 11.000000 -1.710237
    endloop
  endfacet
  facet normal -0.000000 -1.000000 0.000000
    outer loop
      vertex 15.000000 -3.000000 -15.000000
      vertex 0.000000 -3.000000 -1.000000
      vertex 0.000000 -3.000000 -15.000000
    endloop
  endfacet
  facet normal 0.000000 -1.000000 0.000000
    outer loop
      vertex 0.000000 -3.000000 -1.000000
      vertex 15.000000 -3.000000 -15.000000
      vertex 1.000000 -3.000000 0.000000
    endloop
  endfacet
  facet normal 0.000000 -1.000000 0.000000
    outer loop
      vertex 1.000000 -3.000000 0.000000
      vertex 15.000000 -3.000000 -15.000000
      vertex 15.000000 -3.000000 0.000000
    endloop
  endfacet
  facet normal -0.000000 0.000000 1.000000
    outer loop
      vertex 15.000000 -3.000000 0.000000
      vertex 1.000000 -0.000000 0.000000
      vertex 1.000000 -3.000000 0.000000
    endloop
  endfacet
  facet normal -0.000000 0.000000 1.000000
    outer loop
      vertex 1.000000 -0.000000 0.000000
      vertex 15.000000 -3.000000 0.000000
      vertex 15.000000 0.000000 0.000000
    endloop
  endfacet
  facet normal -0.707107 0.000000 0.707107
    outer loop
      vertex 1.000000 -3.000000 0.000000
      vertex 0.000000 -0.000000 -1.000000
      vertex 0.000000 -3.000000 -1.000000
    endloop
  endfacet
  facet normal -0.707107 0.000000 0.707107
    outer loop
      vertex 0.000000 -0.000000 -1.000000
      vertex 1.000000 -3.000000 0.000000
      vertex 1.000000 -0.000000 0.000000
    endloop
  endfacet
  facet normal -1.000000 0.000000 0.000000
    outer loop
      vertex 0.000000 -0.000000 -15.000000
      vertex 0.000000 -3.000000 -1.000000
      vertex 0.000000 -0.000000 -1.000000
    endloop
  endfacet
  facet normal -1.000000 0.000000 -0.000000
    outer loop
      vertex 0.000000 -3.000000 -1.000000
      vertex 0.000000 -0.000000 -15.000000
      vertex 0.000000 -3.000000 -15.000000
    endloop
  endfacet
  facet normal 0.000000 0.110432 0.993884
    outer loop
      vertex 2.000000 8.000000 -5.000000
      vertex 1.000000 9.000000 -5.111111
      vertex 0.888889 8.000000 -5.000000
    endloop
  endfacet
  facet normal 0.000000 0.110432 0.993884
    outer loop
      vertex 1.000000 9.000000 -5.111111
      vertex 2.000000 8.000000 -5.000000
      vertex 2.000000 9.000000 -5.111111
    endloop
  endfacet
  facet normal -0.000000 1.000000 -0.000000
    outer loop
      vertex 1.000000 9.000000 -0.888889
      vertex 0.888889 9.000000 -2.000000
      vertex 0.888889 9.000000 -1.000000
    endloop
  endfacet
  facet normal -0.000000 1.000000 -0.000000
    outer loop
      vertex 0.888889 9.000000 -2.000000
      vertex 1.000000 9.000000 -0.888889
      vertex 2.000000 9.000000 -2.000000
    endloop
  endfacet
  facet normal -0.000000 1.000000 -0.000000
    outer loop
      vertex 2.000000 9.000000 -2.000000
      vertex 1.000000 9.000000 -0.888889
      vertex 2.000000 9.000000 -0.888889
    endloop
  endfacet
  facet normal 0.000000 0.000000 1.000000
    outer loop
      vertex 2.000000 8.000000 -0.888889
      vertex 1.000000 9.000000 -0.888889
      vertex 1.000000 8.000000 -0.888889
    endloop
  endfacet
  facet normal 0.000000 0.000000 1.000000
    outer loop
      vertex 1.000000 9.000000 -0.888889
      vertex 2.000000 8.000000 -0.888889
      vertex 2.000000 9.000000 -0.888889
    endloop
  endfacet
  facet normal 1.000000 0.000000 -0.000000
    outer loop
      vertex 2.000000 8.000000 -2.000000
      vertex 2.000000 9.000000 -0.888889
      vertex 2.000000 8.000000 -0.888889
    endloop
  endfacet
  facet normal 1.000000 0.000000 -0.000000
    outer loop
      vertex 2.000000 9.000000 -0.888889
      vertex 2.000000 8.000000 -2.000000
      vertex 2.000000 9.000000 -2.000000
    endloop
  endfacet
  facet normal 0.000000 0.000000 -1.000000
    outer loop
      vertex 0.888889 9.000000 -2.000000
      vertex 2.000000 8.000000 -2.000000
      vertex 0.888889 8.000000 -2.000000
    endloop
  endfacet
  facet normal 0.000000 -0.000000 -1.000000
    outer loop
      vertex 2.000000 8.000000 -2.000000
      vertex 0.888889 9.000000 -2.000000
      vertex 2.000000 9.000000 -2.000000
    endloop
  endfacet
  facet normal -1.000000 0.000000 0.000000
    outer loop
      vertex 0.888889 9.000000 -2.000000
      vertex 0.888889 8.000000 -1.000000
      vertex 0.888889 9.000000 -1.000000
    endloop
  endfacet
  facet normal -1.000000 0.000000 -0.000000
    outer loop
      vertex 0.888889 8.000000 -1.000000
      vertex 0.888889 9.000000 -2.000000
      vertex 0.888889 8.000000 -2.000000
    endloop
  endfacet
  facet normal -0.707107 0.000000 0.707107
    outer loop
      vertex 0.888889 9.000000 -1.000000
      vertex 1.000000 8.000000 -0.888889
      vertex 1.000000 9.000000 -0.888889
    endloop
  endfacet
  facet normal -0.707107 0.000000 0.707107
    outer loop
      vertex 1.000000 8.000000 -0.888889
      vertex 0.888889 9.000000 -1.000000
      vertex 0.888889 8.000000 -1.000000
    endloop
  endfacet
  facet normal 0.000000 -1.000000 -0.000000
    outer loop
      vertex 1.280508 9.000000 -1.491464
      vertex 1.480508 9.000000 -1.291464
      vertex 1.280508 9.000000 -1.291464
    endloop
  endfacet
  facet normal 0.000000 -1.000000 -0.000000
    outer loop
      vertex 1.480508 9.000000 -1.291464
      vertex 1.280508 9.000000 -1.491464
      vertex 1.480508 9.000000 -1.491464
    endloop
  endfacet
  facet normal -1.000000 0.000000 -0.000000
    outer loop
      vertex 1.280508 11.000000 -1.291464
      vertex 1.280508 9.000000 -1.491464
      vertex 1.280508 9.000000 -1.291464
    endloop
  endfacet
  facet normal -1.000000 0.000000 -0.000000
    outer loop
      vertex 1.280508 9.000000 -1.491464
      vertex 1.280508 11.000000 -1.291464
      vertex 1.280508 11.000000 -1.491464
    endloop
  endfacet
  facet normal 0.000000 0.000000 1.000000
    outer loop
      vertex 1.280508 11.000000 -1.291464
      vertex 1.480508 9.000000 -1.291464
      vertex 1.480508 11.000000 -1.291464
    endloop
  endfacet
  facet normal 0.000000 0.000000 1.000000
    outer loop
      vertex 1.480508 9.000000 -1.291464
      vertex 1.280508 11.000000 -1.291464
      vertex 1.280508 9.000000 -1.291464
    endloop
  endfacet
  facet normal 0.000000 1.000000 -0.000000
    outer loop
      vertex 1.480508 11.000000 -1.491464
      vertex 1.280508 11.000000 -1.291464
      vertex 1.480508 11.000000 -1.291464
    endloop
  endfacet
  facet normal 0.000000 1.000000 -0.000000
    outer loop
      vertex 1.280508 11.000000 -1.291464
      vertex 1.480508 11.000000 -1.491464
      vertex 1.280508 11.000000 -1.491464
    endloop
  endfacet
  facet normal 1.000000 0.000000 -0.000000
    outer loop
      vertex 1.480508 11.000000 -1.491464
      vertex 1.480508 9.000000 -1.291464
      vertex 1.480508 9.000000 -1.491464
    endloop
  endfacet
  facet normal 1.000000 0.000000 -0.000000
    outer loop
      vertex 1.480508 9.000000 -1.291464
      vertex 1.480508 11.000000 -1.491464
      vertex 1.480508 11.000000 -1.291464
    endloop
  endfacet
  facet normal 0.000000 0.000000 -1.000000
    outer loop
      vertex 1.280508 9.000000 -1.491464
      vertex 1.480508 11.000000 -1.491464
      vertex 1.480508 9.000000 -1.491464
    endloop
  endfacet
  facet normal 0.000000 0.000000 -1.000000
    outer loop
      vertex 1.480508 11.000000 -1.491464
      vertex 1.280508 9.000000 -1.491464
      vertex 1.280508 11.000000 -1.491464
    endloop
  endfacet
  facet normal 1.000000 0.000000 -0.000000
    outer loop
      vertex -5.000000 -3.000000 -15.000000
      vertex -5.000000 0.000000 5.000000
      vertex -5.000000 -3.000000 5.000000
    endloop
  endfacet
  facet normal 1.000000 0.000000 -0.000000
    outer loop
      vertex -5.000000 0.000000 5.000000
      vertex -5.000000 -3.000000 -15.000000
      vertex -5.000000 0.000000 -15.000000
    endloop
  endfacet
  facet normal 0.000000 1.000000 -0.000000
    outer loop
      vertex -15.000000 0.000000 15.000000
      vertex -5.000000 0.000000 5.000000
      vertex -15.000000 0.000000 -15.000000
    endloop
  endfacet
  facet normal 0.000000 1.000000 -0.000000
    outer loop
      vertex -5.000000 0.000000 5.000000
      vertex -15.000000 0.000000 15.000000
      vertex 15.000000 0.000000 15.000000
    endloop
  endfacet
  facet normal 0.000000 1.000000 -0.000000
    outer loop
      vertex -15.000000 0.000000 -15.000000
      vertex -5.000000 0.000000 5.000000
      vertex -5.000000 0.000000 -15.000000
    endloop
  endfacet
  facet normal -0.000000 1.000000 -0.000000
    outer loop
      vertex -5.000000 0.000000 5.000000
      vertex 15.000000 0.000000 15.000000
      vertex 15.000000 0.000000 5.000000
    endloop
  endfacet
  facet normal 0.000000 1.000000 0.000000
    outer loop
      vertex -5.000000 -3.000000 5.000000
      vertex 15.000000 -3.000000 -15.000000
      vertex -5.000000 -3.000000 -15.000000
    endloop
  endfacet
  facet normal 0.000000 1.000000 -0.000000
    outer loop
      vertex 15.000000 -3.000000 -15.000000
      vertex -5.000000 -3.000000 5.000000
      vertex 15.000000 -3.000000 5.000000
    endloop
  endfacet
  facet normal -0.000000 0.000000 -1.000000
    outer loop
      vertex -5.000000 0.000000 5.000000
      vertex 15.000000 -3.000000 5.000000
      vertex -5.000000 -3.000000 5.000000
    endloop
  endfacet
  facet normal -0.000000 0.000000 -1.000000
    outer loop
      vertex 15.000000 -3.000000 5.000000
      vertex -5.000000 0.000000 5.000000
      vertex 15.000000 0.000000 5.000000
    endloop
  endfacet
  facet normal 0.000000 1.000000 -0.000000
    outer loop
      vertex -9.000000 0.000000 -4.000000
      vertex -11.000000 0.000000 -11.000000
      vertex -11.000000 0.000000 -4.000000
    endloop
  endfacet
  facet normal -0.000000 1.000000 -0.000000
    outer loop
      vertex -11.000000 0.000000 -11.000000
      vertex -9.000000 0.000000 -4.000000
      vertex -9.000000 0.000000 -11.000000
    endloop
  endfacet
  facet normal -0.000000 1.000000 0.000000
    outer loop
      vertex -15.000000 0.000000 -0.000000
      vertex -11.000000 0.000000 -4.000000
      vertex -15.000000 0.000000 -15.000000
    endloop
  endfacet
  facet normal 0.000000 1.000000 0.000000
    outer loop
      vertex -11.000000 0.000000 -4.000000
      vertex -15.000000 0.000000 -0.000000
      vertex -5.000000 0.000000 -0.000000
    endloop
  endfacet
  facet normal 0.000000 1.000000 0.000000
    outer loop
      vertex -11.000000 0.000000 -4.000000
      vertex -5.000000 0.000000 -0.000000
      vertex -9.000000 0.000000 -4.000000
    endloop
  endfacet
  facet normal 0.000000 1.000000 0.000000
    outer loop
      vertex -9.000000 0.000000 -4.000000
      vertex -5.000000 0.000000 -0.000000
      vertex -9.000000 0.000000 -11.000000
    endloop
  endfacet
  facet normal -0.000000 1.000000 0.000000
    outer loop
      vertex -9.000000 0.000000 -11.000000
      vertex -5.000000 0.000000 -0.000000
      vertex -8.160292 0.000000 -11.481779
    endloop
  endfacet
  facet normal -0.000000 1.000000 0.000000
    outer loop
      vertex -9.000000 0.000000 -11.000000
      vertex -8.160292 0.000000 -11.481779
      vertex -8.516198 0.000000 -13.925958
    endloop
  endfacet
  facet normal -0.000000 1.000000 0.000000
    outer loop
      vertex -8.160292 0.000000 -11.481779
      vertex -5.000000 0.000000 -0.000000
      vertex -7.183913 0.000000 -9.213000
    endloop
  endfacet
  facet normal -0.000000 1.000000 0.000000
    outer loop
      vertex -7.183913 0.000000 -9.213000
      vertex -5.000000 0.000000 -0.000000
      vertex -5.653600 0.000000 -7.274232
    endloop
  endfacet
  facet normal 0.000000 1.000000 0.000000
    outer loop
      vertex -5.653600 0.000000 -7.274232
      vertex -5.000000 0.000000 -0.000000
      vertex -5.000000 0.000000 -6.786784
    endloop
  endfacet
  facet normal -0.000000 1.000000 0.000000
    outer loop
      vertex -15.000000 0.000000 -15.000000
      vertex -11.000000 0.000000 -11.000000
      vertex -8.389738 0.000000 -15.000000
    endloop
  endfacet
  facet normal -0.000000 1.000000 -0.000000
    outer loop
      vertex -11.000000 0.000000 -11.000000
      vertex -15.000000 0.000000 -15.000000
      vertex -11.000000 0.000000 -4.000000
    endloop
  endfacet
  facet normal 0.000000 1.000000 0.000000
    outer loop
      vertex -8.389738 0.000000 -15.000000
      vertex -11.000000 0.000000 -11.000000
      vertex -9.000000 0.000000 -11.000000
    endloop
  endfacet
  facet normal -0.000000 1.000000 -0.000000
    outer loop
      vertex -8.389738 0.000000 -15.000000
      vertex -9.000000 0.000000 -11.000000
      vertex -8.516198 0.000000 -13.925958
    endloop
  endfacet
  facet normal -0.000000 0.970143 -0.242536
    outer loop
      vertex -5.000000 7.500000 -0.000000
      vertex -11.000000 6.500000 -4.000000
      vertex -15.000000 7.500000 -0.000000
    endloop
  endfacet
  facet normal -0.000000 0.970143 -0.242536
    outer loop
      vertex -11.000000 6.500000 -4.000000
      vertex -5.000000 7.500000 -0.000000
      vertex -9.000000 6.500000 -4.000000
    endloop
  endfacet
  facet normal 0.000000 0.000000 -1.000000
    outer loop
      vertex -11.000000 6.500000 -4.000000
      vertex -9.000000 0.000000 -4.000000
      vertex -11.000000 0.000000 -4.000000
    endloop
  endfacet
  facet normal 0.000000 -0.000000 -1.000000
    outer loop
      vertex -9.000000 0.000000 -4.000000
      vertex -11.000000 6.500000 -4.000000
      vertex -9.000000 6.500000 -4.000000
    endloop
  endfacet
  facet normal 0.000000 -0.000000 1.000000
    outer loop
      vertex -5.000000 7.500000 -0.000000
      vertex -15.000000 0.000000 -0.000000
      vertex -5.000000 0.000000 -0.000000
    endloop
  endfacet
  facet normal 0.000000 0.000000 1.000000
    outer loop
      vertex -15.000000 0.000000 -0.000000
      vertex -5.000000 7.500000 -0.000000
      vertex -15.000000 6.500000 -0.000000
    endloop
  endfacet
  facet normal 0.000000 0.000000 1.000000
    outer loop
      vertex -15.000000 6.500000 -0.000000
      vertex -5.000000 7.500000 -0.000000
      vertex -15.000000 7.500000 -0.000000
    endloop
  endfacet
  facet normal 0.242536 0.970143 0.000000
    outer loop
      vertex -11.000000 6.500000 -4.000000
      vertex -15.000000 7.500000 -15.000000
      vertex -15.000000 7.500000 -0.000000
    endloop
  endfacet
  facet normal 0.242536 0.970143 0.000000
    outer loop
      vertex -15.000000 7.500000 -15.000000
      vertex -11.000000 6.500000 -4.000000
      vertex -11.000000 6.500000 -11.000000
    endloop
  endfacet
  facet normal 0.000000 -0.000000 1.000000
    outer loop
      vertex -9.000000 6.500000 -11.000000
      vertex -11.000000 0.000000 -11.000000
      vertex -9.000000 0.000000 -11.000000
    endloop
  endfacet
  facet normal 0.000000 0.000000 1.000000
    outer loop
      vertex -11.000000 0.000000 -11.000000
      vertex -9.000000 6.500000 -11.000000
      vertex -11.000000 6.500000 -11.000000
    endloop
  endfacet
  facet normal 1.000000 0.000000 0.000000
    outer loop
      vertex -11.000000 0.000000 -11.000000
      vertex -11.000000 6.500000 -4.000000
      vertex -11.000000 0.000000 -4.000000
    endloop
  endfacet
  facet normal 1.000000 0.000000 0.000000
    outer loop
      vertex -11.000000 6.500000 -4.000000
      vertex -11.000000 0.000000 -11.000000
      vertex -11.000000 6.500000 -11.000000
    endloop
  endfacet
  facet normal -1.000000 0.000000 -0.000000
    outer loop
      vertex -15.000000 7.500000 -15.000000
      vertex -15.000000 6.500000 -0.000000
      vertex -15.000000 7.500000 -0.000000
    endloop
  endfacet
  facet normal -1.000000 0.000000 -0.000000
    outer loop
      vertex -15.000000 6.500000 -0.000000
      vertex -15.000000 7.500000 -15.000000
      vertex -15.000000 0.000000 -0.000000
    endloop
  endfacet
  facet normal -1.000000 0.000000 0.000000
    outer loop
      vertex -15.000000 0.000000 -0.000000
      vertex -15.000000 7.500000 -15.000000
      vertex -15.000000 0.000000 -15.000000
    endloop
  endfacet
  facet normal 0.000000 0.000000 -1.000000
    outer loop
      vertex -15.000000 7.500000 -15.000000
      vertex -8.389738 0.000000 -15.000000
      vertex -15.000000 0.000000 -15.000000
    endloop
  endfacet
  facet normal 0.000000 -0.000000 -1.000000
    outer loop
      vertex -8.389738 0.000000 -15.000000
      vertex -15.000000 7.500000 -15.000000
      vertex -8.389738 7.500000 -15.000000
    endloop
  endfacet
  facet normal 1.000000 0.000000 -0.000000
    outer loop
      vertex -5.000000 0.000000 -6.786784
      vertex -5.000000 7.500000 -0.000000
      vertex -5.000000 0.000000 -0.000000
    endloop
  endfacet
  facet normal 1.000000 0.000000 -0.000000
    outer loop
      vertex -5.000000 7.500000 -0.000000
      vertex -5.000000 0.000000 -6.786784
      vertex -5.000000 7.500000 -6.786784
    endloop
  endfacet
  facet normal -1.000000 0.000000 0.000000
    outer loop
      vertex -9.000000 6.500000 -6.000000
      vertex -9.000000 0.000000 -4.000000
      vertex -9.000000 6.500000 -4.000000
    endloop
  endfacet
  facet normal -1.000000 -0.000000 -0.000000
    outer loop
      vertex -9.000000 0.000000 -4.000000
      vertex -9.000000 6.500000 -6.000000
      vertex -9.000000 0.000000 -11.000000
    endloop
  endfacet
  facet normal -1.000000 0.000000 -0.000000
    outer loop
      vertex -9.000000 0.000000 -11.000000
      vertex -9.000000 6.500000 -6.000000
      vertex -9.000000 6.500000 -11.000000
    endloop
  endfacet
  facet normal 0.989564 -0.000000 -0.144094
    outer loop
      vertex -8.160292 0.000000 -11.481779
      vertex -8.205786 6.698553 -11.794214
      vertex -8.160292 6.709927 -11.481779
    endloop
  endfacet
  facet normal 0.989564 -0.000000 -0.144094
    outer loop
      vertex -8.205786 6.698553 -11.794214
      vertex -8.160292 0.000000 -11.481779
      vertex -8.516198 0.000000 -13.925958
    endloop
  endfacet
  facet normal 0.989564 -0.000000 -0.144094
    outer loop
      vertex -8.205786 6.698553 -11.794214
      vertex -8.516198 0.000000 -13.925958
      vertex -8.516198 7.231489 -13.925958
    endloop
  endfacet
  facet normal 0.000000 0.970143 0.242536
    outer loop
      vertex -8.205786 6.698553 -11.794214
      vertex -8.516198 7.231489 -13.925958
      vertex -9.000000 6.500000 -11.000000
    endloop
  endfacet
  facet normal 0.000000 0.970143 0.242536
    outer loop
      vertex -11.000000 6.500000 -11.000000
      vertex -8.389738 7.500000 -15.000000
      vertex -15.000000 7.500000 -15.000000
    endloop
  endfacet
  facet normal 0.000000 0.970143 0.242536
    outer loop
      vertex -8.389738 7.500000 -15.000000
      vertex -11.000000 6.500000 -11.000000
      vertex -9.000000 6.500000 -11.000000
    endloop
  endfacet
  facet normal -0.000000 0.970143 0.242536
    outer loop
      vertex -8.389738 7.500000 -15.000000
      vertex -9.000000 6.500000 -11.000000
      vertex -8.516198 7.231489 -13.925958
    endloop
  endfacet
  facet normal 0.993140 -0.000000 0.116934
    outer loop
      vertex -8.389738 0.000000 -15.000000
      vertex -8.516198 7.231489 -13.925958
      vertex -8.516198 0.000000 -13.925958
    endloop
  endfacet
  facet normal 0.993140 0.000000 0.116934
    outer loop
      vertex -8.516198 7.231489 -13.925958
      vertex -8.389738 0.000000 -15.000000
      vertex -8.389738 7.500000 -15.000000
    endloop
  endfacet
  facet normal 0.597837 0.000000 -0.801617
    outer loop
      vertex -5.653600 0.000000 -7.274232
      vertex -5.000000 7.500000 -6.786784
      vertex -5.000000 0.000000 -6.786784
    endloop
  endfacet
  facet normal 0.597837 -0.000000 -0.801617
    outer loop
      vertex -5.000000 7.500000 -6.786784
      vertex -5.653600 0.000000 -7.274232
      vertex -5.653600 7.336600 -7.274232
    endloop
  endfacet
  facet normal 0.000000 1.000000 0.000000
    outer loop
      vertex -9.000000 6.500000 -4.000000
      vertex -9.000000 6.500000 -11.000000
      vertex -9.000000 6.500000 -6.000000
    endloop
  endfacet
  facet normal -0.242536 0.970143 -0.000000
    outer loop
      vertex -9.000000 6.500000 -11.000000
      vertex -9.000000 6.500000 -4.000000
      vertex -5.000000 7.500000 -0.000000
    endloop
  endfacet
  facet normal -0.242536 0.970143 -0.000000
    outer loop
      vertex -9.000000 6.500000 -11.000000
      vertex -5.000000 7.500000 -0.000000
      vertex -8.160292 6.709927 -11.481779
    endloop
  endfacet
  facet normal -0.242536 0.970143 0.000000
    outer loop
      vertex -9.000000 6.500000 -11.000000
      vertex -8.160292 6.709927 -11.481779
      vertex -8.205786 6.698553 -11.794214
    endloop
  endfacet
  facet normal -0.242536 0.970143 -0.000000
    outer loop
      vertex -8.160292 6.709927 -11.481779
      vertex -5.000000 7.500000 -0.000000
      vertex -7.183913 6.954022 -9.213000
    endloop
  endfacet
  facet normal -0.242536 0.970143 -0.000000
    outer loop
      vertex -7.183913 6.954022 -9.213000
      vertex -5.000000 7.500000 -0.000000
      vertex -5.653600 7.336600 -7.274232
    endloop
  endfacet
  facet normal -0.242536 0.970143 -0.000000
    outer loop
      vertex -5.653600 7.336600 -7.274232
      vertex -5.000000 7.500000 -0.000000
      vertex -5.000000 7.500000 -6.786784
    endloop
  endfacet
  facet normal 0.784940 -0.000000 -0.619571
    outer loop
      vertex -7.183913 0.000000 -9.213000
      vertex -5.653600 7.336600 -7.274232
      vertex -5.653600 0.000000 -7.274232
    endloop
  endfacet
  facet normal 0.784940 -0.000000 -0.619571
    outer loop
      vertex -5.653600 7.336600 -7.274232
      vertex -7.183913 0.000000 -9.213000
      vertex -7.183913 6.954022 -9.213000
    endloop
  endfacet
  facet normal 0.918551 -0.000000 -0.395302
    outer loop
      vertex -8.160292 0.000000 -11.481779
      vertex -7.183913 6.954022 -9.213000
      vertex -7.183913 0.000000 -9.213000
    endloop
  endfacet
  facet normal 0.918551 -0.000000 -0.395302
    outer loop
      vertex -7.183913 6.954022 -9.213000
      vertex -8.160292 0.000000 -11.481779
      vertex -8.160292 6.709927 -11.481779
    endloop
  endfacet
  facet normal 0.000000 1.000000 -0.000000
    outer loop
      vertex 4.000000 0.000000 11.000000
      vertex 11.000000 0.000000 9.000000
      vertex 4.000000 0.000000 9.000000
    endloop
  endfacet
  facet normal 0.000000 1.000000 -0.000000
    outer loop
      vertex 11.000000 0.000000 9.000000
      vertex 4.000000 0.000000 11.000000
      vertex 11.000000 0.000000 11.000000
    endloop
  endfacet
  facet normal -0.000000 1.000000 -0.000000
    outer loop
      vertex 0.000000 0.000000 5.000000
      vertex 4.000000 0.000000 9.000000
      vertex 15.000000 0.000000 5.000000
    endloop
  endfacet
  facet normal -0.000000 1.000000 -0.000000
    outer loop
      vertex 4.000000 0.000000 9.000000
      vertex 0.000000 0.000000 5.000000
      vertex 0.000000 0.000000 15.000000
    endloop
  endfacet
  facet normal -0.000000 1.000000 -0.000000
    outer loop
      vertex 4.000000 0.000000 9.000000
      vertex 0.000000 0.000000 15.000000
      vertex 4.000000 0.000000 11.000000
    endloop
  endfacet
  facet normal -0.000000 1.000000 0.000000
    outer loop
      vertex 4.000000 0.000000 11.000000
      vertex 0.000000 0.000000 15.000000
      vertex 11.000000 0.000000 11.000000
    endloop
  endfacet
  facet normal -0.000000 1.000000 -0.000000
    outer loop
      vertex 11.000000 0.000000 11.000000
      vertex 0.000000 0.000000 15.000000
      vertex 11.481779 0.000000 11.839708
    endloop
  endfacet
  facet normal -0.000000 1.000000 -0.000000
    outer loop
      vertex 11.000000 0.000000 11.000000
      vertex 11.481779 0.000000 11.839708
      vertex 13.925958 0.000000 11.483802
    endloop
  endfacet
  facet normal -0.000000 1.000000 -0.000000
    outer loop
      vertex 11.481779 0.000000 11.839708
      vertex 0.000000 0.000000 15.000000
      vertex 9.213000 0.000000 12.816087
    endloop
  endfacet
  facet normal -0.000000 1.000000 -0.000000
    outer loop
      vertex 9.213000 0.000000 12.816087
      vertex 0.000000 0.000000 15.000000
      vertex 7.274232 0.000000 14.346400
    endloop
  endfacet
  facet normal -0.000000 1.000000 0.000000
    outer loop
      vertex 7.274232 0.000000 14.346400
      vertex 0.000000 0.000000 15.000000
      vertex 6.786784 0.000000 15.000000
    endloop
  endfacet
  facet normal -0.000000 1.000000 -0.000000
    outer loop
      vertex 15.000000 0.000000 5.000000
      vertex 11.000000 0.000000 9.000000
      vertex 15.000000 0.000000 11.610262
    endloop
  endfacet
  facet normal 0.000000 1.000000 -0.000000
    outer loop
      vertex 11.000000 0.000000 9.000000
      vertex 15.000000 0.000000 5.000000
      vertex 4.000000 0.000000 9.000000
    endloop
  endfacet
  facet normal -0.000000 1.000000 -0.000000
    outer loop
      vertex 15.000000 0.000000 11.610262
      vertex 11.000000 0.000000 9.000000
      vertex 11.000000 0.000000 11.000000
    endloop
  endfacet
  facet normal 0.000000 1.000000 -0.000000
    outer loop
      vertex 15.000000 0.000000 11.610262
      vertex 11.000000 0.000000 11.000000
      vertex 13.925958 0.000000 11.483802
    endloop
  endfacet
  facet normal 0.242536 0.970143 -0.000000
    outer loop
      vertex 0.000000 7.500000 15.000000
      vertex 4.000000 6.500000 9.000000
      vertex 0.000000 7.500000 5.000000
    endloop
  endfacet
  facet normal 0.242536 0.970143 -0.000000
    outer loop
      vertex 4.000000 6.500000 9.000000
      vertex 0.000000 7.500000 15.000000
      vertex 4.000000 6.500000 11.000000
    endloop
  endfacet
  facet normal 1.000000 0.000000 -0.000000
    outer loop
      vertex 4.000000 6.500000 9.000000
      vertex 4.000000 0.000000 11.000000
      vertex 4.000000 0.000000 9.000000
    endloop
  endfacet
  facet normal 1.000000 0.000000 -0.000000
    outer loop
      vertex 4.000000 0.000000 11.000000
      vertex 4.000000 6.500000 9.000000
      vertex 4.000000 6.500000 11.000000
    endloop
  endfacet
  facet normal -1.000000 0.000000 -0.000000
    outer loop
      vertex 0.000000 7.500000 15.000000
      vertex 0.000000 0.000000 5.000000
      vertex 0.000000 0.000000 15.000000
    endloop
  endfacet
  facet normal -1.000000 0.000000 -0.000000
    outer loop
      vertex 0.000000 0.000000 5.000000
      vertex 0.000000 7.500000 15.000000
      vertex 0.000000 6.500000 5.000000
    endloop
  endfacet
  facet normal -1.000000 0.000000 -0.000000
    outer loop
      vertex 0.000000 6.500000 5.000000
      vertex 0.000000 7.500000 15.000000
      vertex 0.000000 7.500000 5.000000
    endloop
  endfacet
  facet normal -0.000000 0.970143 0.242536
    outer loop
      vertex 4.000000 6.500000 9.000000
      vertex 15.000000 7.500000 5.000000
      vertex 0.000000 7.500000 5.000000
    endloop
  endfacet
  facet normal -0.000000 0.970143 0.242536
    outer loop
      vertex 15.000000 7.500000 5.000000
      vertex 4.000000 6.500000 9.000000
      vertex 11.000000 6.500000 9.000000
    endloop
  endfacet
  facet normal -1.000000 0.000000 -0.000000
    outer loop
      vertex 11.000000 6.500000 11.000000
      vertex 11.000000 0.000000 9.000000
      vertex 11.000000 0.000000 11.000000
    endloop
  endfacet
  facet normal -1.000000 0.000000 -0.000000
    outer loop
      vertex 11.000000 0.000000 9.000000
      vertex 11.000000 6.500000 11.000000
      vertex 11.000000 6.500000 9.000000
    endloop
  endfacet
  facet normal -0.000000 0.000000 1.000000
    outer loop
      vertex 11.000000 0.000000 9.000000
      vertex 4.000000 6.500000 9.000000
      vertex 4.000000 0.000000 9.000000
    endloop
  endfacet
  facet normal -0.000000 0.000000 1.000000
    outer loop
      vertex 4.000000 6.500000 9.000000
      vertex 11.000000 0.000000 9.000000
      vertex 11.000000 6.500000 9.000000
    endloop
  endfacet
  facet normal 0.000000 0.000000 -1.000000
    outer loop
      vertex 15.000000 7.500000 5.000000
      vertex 0.000000 6.500000 5.000000
      vertex 0.000000 7.500000 5.000000
    endloop
  endfacet
  facet normal 0.000000 0.000000 -1.000000
    outer loop
      vertex 0.000000 6.500000 5.000000
      vertex 15.000000 7.500000 5.000000
      vertex 0.000000 0.000000 5.000000
    endloop
  endfacet
  facet normal -0.000000 0.000000 -1.000000
    outer loop
      vertex 0.000000 0.000000 5.000000
      vertex 15.000000 7.500000 5.000000
      vertex 15.000000 0.000000 5.000000
    endloop
  endfacet
  facet normal 1.000000 0.000000 -0.000000
    outer loop
      vertex 15.000000 7.500000 5.000000
      vertex 15.000000 0.000000 11.610262
      vertex 15.000000 0.000000 5.000000
    endloop
  endfacet
  facet normal 1.000000 0.000000 -0.000000
    outer loop
      vertex 15.000000 0.000000 11.610262
      vertex 15.000000 7.500000 5.000000
      vertex 15.000000 7.500000 11.610262
    endloop
  endfacet
  facet normal 0.000000 0.000000 1.000000
    outer loop
      vertex 6.786784 0.000000 15.000000
      vertex 0.000000 7.500000 15.000000
      vertex 0.000000 0.000000 15.000000
    endloop
  endfacet
  facet normal 0.000000 0.000000 1.000000
    outer loop
      vertex 0.000000 7.500000 15.000000
      vertex 6.786784 0.000000 15.000000
      vertex 6.786784 7.500000 15.000000
    endloop
  endfacet
  facet normal -0.000000 0.000000 -1.000000
    outer loop
      vertex 6.000000 6.500000 11.000000
      vertex 4.000000 0.000000 11.000000
      vertex 4.000000 6.500000 11.000000
    endloop
  endfacet
  facet normal 0.000000 -0.000000 -1.000000
    outer loop
      vertex 4.000000 0.000000 11.000000
      vertex 6.000000 6.500000 11.000000
      vertex 11.000000 0.000000 11.000000
    endloop
  endfacet
  facet normal 0.000000 -0.000000 -1.000000
    outer loop
      vertex 11.000000 0.000000 11.000000
      vertex 6.000000 6.500000 11.000000
      vertex 11.000000 6.500000 11.000000
    endloop
  endfacet
  facet normal 0.144094 -0.000000 0.989564
    outer loop
      vertex 11.481779 0.000000 11.839708
      vertex 11.794214 6.698553 11.794214
      vertex 11.481779 6.709927 11.839708
    endloop
  endfacet
  facet normal 0.144094 -0.000000 0.989564
    outer loop
      vertex 11.794214 6.698553 11.794214
      vertex 11.481779 0.000000 11.839708
      vertex 13.925958 0.000000 11.483802
    endloop
  endfacet
  facet normal 0.144094 -0.000000 0.989564
    outer loop
      vertex 11.794214 6.698553 11.794214
      vertex 13.925958 0.000000 11.483802
      vertex 13.925958 7.231489 11.483802
    endloop
  endfacet
  facet normal -0.242536 0.970143 0.000000
    outer loop
      vertex 11.794214 6.698553 11.794214
      vertex 13.925958 7.231489 11.483802
      vertex 11.000000 6.500000 11.000000
    endloop
  endfacet
  facet normal -0.242536 0.970143 0.000000
    outer loop
      vertex 11.000000 6.500000 9.000000
      vertex 15.000000 7.500000 11.610262
      vertex 15.000000 7.500000 5.000000
    endloop
  endfacet
  facet normal -0.242536 0.970143 -0.000000
    outer loop
      vertex 15.000000 7.500000 11.610262
      vertex 11.000000 6.500000 9.000000
      vertex 11.000000 6.500000 11.000000
    endloop
  endfacet
  facet normal -0.242536 0.970143 -0.000000
    outer loop
      vertex 15.000000 7.500000 11.610262
      vertex 11.000000 6.500000 11.000000
      vertex 13.925958 7.231489 11.483802
    endloop
  endfacet
  facet normal -0.116934 -0.000000 0.993140
    outer loop
      vertex 15.000000 0.000000 11.610262
      vertex 13.925958 7.231489 11.483802
      vertex 13.925958 0.000000 11.483802
    endloop
  endfacet
  facet normal -0.116934 0.000000 0.993140
    outer loop
      vertex 13.925958 7.231489 11.483802
      vertex 15.000000 0.000000 11.610262
      vertex 15.000000 7.500000 11.610262
    endloop
  endfacet
  facet normal 0.801617 0.000000 0.597837
    outer loop
      vertex 7.274232 0.000000 14.346400
      vertex 6.786784 7.500000 15.000000
      vertex 6.786784 0.000000 15.000000
    endloop
  endfacet
  facet normal 0.801617 -0.000000 0.597837
    outer loop
      vertex 6.786784 7.500000 15.000000
      vertex 7.274232 0.000000 14.346400
      vertex 7.274232 7.336600 14.346400
    endloop
  endfacet
  facet normal -0.000000 1.000000 -0.000000
    outer loop
      vertex 4.000000 6.500000 11.000000
      vertex 11.000000 6.500000 11.000000
      vertex 6.000000 6.500000 11.000000
    endloop
  endfacet
  facet normal 0.000000 0.970143 -0.242536
    outer loop
      vertex 11.000000 6.500000 11.000000
      vertex 4.000000 6.500000 11.000000
      vertex 0.000000 7.500000 15.000000
    endloop
  endfacet
  facet normal 0.000000 0.970143 -0.242536
    outer loop
      vertex 11.000000 6.500000 11.000000
      vertex 0.000000 7.500000 15.000000
      vertex 11.481779 6.709927 11.839708
    endloop
  endfacet
  facet normal -0.000000 0.970143 -0.242536
    outer loop
      vertex 11.000000 6.500000 11.000000
      vertex 11.481779 6.709927 11.839708
      vertex 11.794214 6.698553 11.794214
    endloop
  endfacet
  facet normal 0.000000 0.970143 -0.242536
    outer loop
      vertex 11.481779 6.709927 11.839708
      vertex 0.000000 7.500000 15.000000
      vertex 9.213000 6.954022 12.816087
    endloop
  endfacet
  facet normal 0.000000 0.970143 -0.242536
    outer loop
      vertex 9.213000 6.954022 12.816087
      vertex 0.000000 7.500000 15.000000
      vertex 7.274232 7.336600 14.346400
    endloop
  endfacet
  facet normal 0.000000 0.970143 -0.242536
    outer loop
      vertex 7.274232 7.336600 14.346400
      vertex 0.000000 7.500000 15.000000
      vertex 6.786784 7.500000 15.000000
    endloop
  endfacet
  facet normal 0.619571 -0.000000 0.784940
    outer loop
      vertex 9.213000 0.000000 12.816087
      vertex 7.274232 7.336600 14.346400
      vertex 7.274232 0.000000 14.346400
    endloop
  endfacet
  facet normal 0.619571 -0.000000 0.784940
    outer loop
      vertex 7.274232 7.336600 14.346400
      vertex 9.213000 0.000000 12.816087
      vertex 9.213000 6.954022 12.816087
    endloop
  endfacet
  facet normal 0.395302 -0.000000 0.918551
    outer loop
      vertex 11.481779 0.000000 11.839708
      vertex 9.213000 6.954022 12.816087
      vertex 9.213000 0.000000 12.816087
    endloop
  endfacet
  facet normal 0.395302 -0.000000 0.918551
    outer loop
      vertex 9.213000 6.954022 12.816087
      vertex 11.481779 0.000000 11.839708
      vertex 11.481779 6.709927 11.839708
    endloop
  endfacet
  facet normal -0.941071 0.000000 0.338208
    outer loop
      vertex -8.747885 2.521011 10.364485
      vertex -9.032409 2.427182 9.572792
      vertex -8.912335 2.383396 9.906901
    endloop
  endfacet
  facet normal -0.941071 -0.000000 0.338208
    outer loop
      vertex -9.032409 2.427182 9.572792
      vertex -8.747885 2.521011 10.364485
      vertex -9.229235 2.539776 9.025119
    endloop
  endfacet
  facet normal -0.941071 -0.000000 0.338208
    outer loop
      vertex -9.229235 2.539776 9.025119
      vertex -8.747885 2.521011 10.364485
      vertex -8.734833 2.727433 10.400801
    endloop
  endfacet
  facet normal -0.941071 0.000000 0.338208
    outer loop
      vertex -9.229235 2.539776 9.025119
      vertex -8.734833 2.727433 10.400801
      vertex -9.314436 2.539776 8.788047
    endloop
  endfacet
  facet normal -0.941071 0.000000 0.338208
    outer loop
      vertex -9.314436 2.539776 8.788047
      vertex -8.734833 2.727433 10.400801
      vertex -9.400463 2.539776 8.548674
    endloop
  endfacet
  facet normal -0.941071 0.000000 0.338208
    outer loop
      vertex -9.539131 2.431506 8.162827
      vertex -9.948628 2.821262 7.023393
      vertex -9.651053 2.395906 7.851403
    endloop
  endfacet
  facet normal -0.941071 -0.000000 0.338208
    outer loop
      vertex -9.948628 2.821262 7.023393
      vertex -9.539131 2.431506 8.162827
      vertex -9.400463 2.539776 8.548674
    endloop
  endfacet
  facet normal -0.941071 -0.000000 0.338208
    outer loop
      vertex -9.948628 2.821262 7.023393
      vertex -9.400463 2.539776 8.548674
      vertex -8.734833 2.727433 10.400801
    endloop
  endfacet
  facet normal -0.941071 0.000000 0.338208
    outer loop
      vertex -9.948628 2.821262 7.023393
      vertex -8.734833 2.727433 10.400801
      vertex -8.653914 2.996408 10.625962
    endloop
  endfacet
  facet normal -0.941071 0.000000 0.338208
    outer loop
      vertex -9.948628 2.821262 7.023393
      vertex -8.653914 2.996408 10.625962
      vertex -10.021717 2.840027 6.820022
    endloop
  endfacet
  facet normal -0.941071 0.000000 0.338208
    outer loop
      vertex -10.021717 2.840027 6.820022
      vertex -8.653914 2.996408 10.625962
      vertex -10.167895 3.334190 6.413280
    endloop
  endfacet
  facet normal -0.941071 0.000000 0.338208
    outer loop
      vertex -10.167895 3.334190 6.413280
      vertex -8.653914 2.996408 10.625962
      vertex -8.666965 3.265383 10.589646
    endloop
  endfacet
  facet normal -0.941071 -0.000000 0.338208
    outer loop
      vertex -10.167895 3.334190 6.413280
      vertex -8.666965 3.265383 10.589646
      vertex -8.515567 3.584399 11.010914
    endloop
  endfacet
  facet normal -0.941071 -0.000000 0.338208
    outer loop
      vertex -10.167895 3.334190 6.413280
      vertex -8.515567 3.584399 11.010914
      vertex -10.120909 3.696993 6.544019
    endloop
  endfacet
  facet normal -0.941071 0.000000 0.338208
    outer loop
      vertex -10.120909 3.696993 6.544019
      vertex -8.515567 3.584399 11.010914
      vertex -8.450309 3.915926 11.192495
    endloop
  endfacet
  facet normal -0.941071 0.000000 0.338208
    outer loop
      vertex -10.120909 3.696993 6.544019
      vertex -8.450309 3.915926 11.192495
      vertex -10.154843 3.853374 6.449596
    endloop
  endfacet
  facet normal -0.941071 0.000000 0.338208
    outer loop
      vertex -10.154843 3.853374 6.449596
      vertex -10.225322 4.641533 6.253489
      vertex -10.207049 3.822098 6.304332
    endloop
  endfacet
  facet normal -0.941071 -0.000000 0.338208
    outer loop
      vertex -10.225322 4.641533 6.253489
      vertex -10.154843 3.853374 6.449596
      vertex -8.450309 3.915926 11.192495
    endloop
  endfacet
  facet normal -0.941071 -0.000000 0.338208
    outer loop
      vertex -10.225322 4.641533 6.253489
      vertex -8.450309 3.915926 11.192495
      vertex -8.424206 4.341282 11.265128
    endloop
  endfacet
  facet normal -0.941071 0.000000 0.338208
    outer loop
      vertex -10.225322 4.641533 6.253489
      vertex -8.424206 4.341282 11.265128
      vertex -8.455530 4.710340 11.177969
    endloop
  endfacet
  facet normal -0.941071 -0.000000 0.338208
    outer loop
      vertex -10.225322 4.641533 6.253489
      vertex -8.455530 4.710340 11.177969
      vertex -10.252633 5.079221 6.177493
    endloop
  endfacet
  facet normal -0.941071 -0.000000 0.338208
    outer loop
      vertex -10.252633 5.079221 6.177493
      vertex -8.455530 4.710340 11.177969
      vertex -8.372000 4.897997 11.410392
    endloop
  endfacet
  facet normal -0.941071 -0.000000 0.338208
    outer loop
      vertex -10.252633 5.079221 6.177493
      vertex -8.372000 4.897997 11.410392
      vertex -8.343286 5.260800 11.490288
    endloop
  endfacet
  facet normal -0.941071 0.000000 0.338208
    outer loop
      vertex -10.252633 5.079221 6.177493
      vertex -8.343286 5.260800 11.490288
      vertex -10.267087 5.310842 6.137277
    endloop
  endfacet
  facet normal -0.941071 0.000000 0.338208
    outer loop
      vertex -10.267087 5.310842 6.137277
      vertex -8.343286 5.260800 11.490288
      vertex -8.416375 5.880068 11.286917
    endloop
  endfacet
  facet normal -0.941071 0.000000 0.338208
    outer loop
      vertex -10.267087 5.310842 6.137277
      vertex -8.416375 5.880068 11.286917
      vertex -10.133961 5.561051 6.507702
    endloop
  endfacet
  facet normal -0.941071 -0.000000 0.338208
    outer loop
      vertex -10.133961 5.561051 6.507702
      vertex -8.416375 5.880068 11.286917
      vertex -10.141792 5.986407 6.485913
    endloop
  endfacet
  facet normal -0.941071 0.000000 0.338208
    outer loop
      vertex -10.141792 5.986407 6.485913
      vertex -8.416375 5.880068 11.286917
      vertex -8.435563 6.044538 11.233527
    endloop
  endfacet
  facet normal -0.941071 0.000000 0.338208
    outer loop
      vertex -10.141792 5.986407 6.485913
      vertex -8.435563 6.044538 11.233527
      vertex -10.133961 6.305423 6.507702
    endloop
  endfacet
  facet normal -0.941071 0.000000 0.338208
    outer loop
      vertex -10.133961 6.305423 6.507702
      vertex -8.435563 6.044538 11.233527
      vertex -8.484243 6.461804 11.098073
    endloop
  endfacet
  facet normal -0.941071 -0.000000 0.338208
    outer loop
      vertex -10.133961 6.305423 6.507702
      vertex -8.484243 6.461804 11.098073
      vertex -10.186167 6.480570 6.362438
    endloop
  endfacet
  facet normal -0.941071 -0.000000 0.338208
    outer loop
      vertex -10.186167 6.480570 6.362438
      vertex -8.484243 6.461804 11.098073
      vertex -8.512957 7.068561 11.018177
    endloop
  endfacet
  facet normal -0.941071 0.000000 0.338208
    outer loop
      vertex -10.186167 6.480570 6.362438
      vertex -8.512957 7.068561 11.018177
      vertex -10.225322 6.561887 6.253489
    endloop
  endfacet
  facet normal -0.941071 0.000000 0.338208
    outer loop
      vertex -10.225322 6.561887 6.253489
      vertex -8.512957 7.068561 11.018177
      vertex -10.133961 6.874649 6.507702
    endloop
  endfacet
  facet normal -0.941071 0.000000 0.338208
    outer loop
      vertex -10.133961 6.874649 6.507702
      vertex -8.512957 7.068561 11.018177
      vertex -9.987783 8.075652 6.914444
    endloop
  endfacet
  facet normal -0.941071 -0.000000 0.338208
    outer loop
      vertex -9.987783 8.075652 6.914444
      vertex -8.512957 7.068561 11.018177
      vertex -8.541670 7.462640 10.938282
    endloop
  endfacet
  facet normal -0.941071 -0.000000 0.338208
    outer loop
      vertex -9.987783 8.075652 6.914444
      vertex -8.541670 7.462640 10.938282
      vertex -8.734068 8.023047 10.402930
    endloop
  endfacet
  facet normal -0.941071 -0.000000 0.338208
    outer loop
      vertex -9.987783 8.075652 6.914444
      vertex -8.734068 8.023047 10.402930
      vertex -8.860128 8.475987 10.052166
    endloop
  endfacet
  facet normal -0.941071 -0.000000 0.338208
    outer loop
      vertex -9.987783 8.075652 6.914444
      vertex -8.860128 8.475987 10.052166
      vertex -9.974732 8.613602 6.950760
    endloop
  endfacet
  facet normal -0.941071 0.000000 0.338208
    outer loop
      vertex -9.974732 8.613602 6.950760
      vertex -8.860128 8.475987 10.052166
      vertex -8.907114 8.744962 9.921427
    endloop
  endfacet
  facet normal -0.941071 0.000000 0.338208
    outer loop
      vertex -9.974732 8.613602 6.950760
      vertex -8.907114 8.744962 9.921427
      vertex -9.823334 8.682409 7.372029
    endloop
  endfacet
  facet normal -0.941071 0.000000 0.338208
    outer loop
      vertex -9.823334 8.682409 7.372029
      vertex -8.907114 8.744962 9.921427
      vertex -9.698039 8.948148 7.720664
    endloop
  endfacet
  facet normal -0.941071 -0.000000 0.338208
    outer loop
      vertex -9.698039 8.948148 7.720664
      vertex -8.907114 8.744962 9.921427
      vertex -9.011526 9.045213 9.630898
    endloop
  endfacet
  facet normal -0.941071 0.000000 0.338208
    outer loop
      vertex -9.698039 8.948148 7.720664
      vertex -9.011526 9.045213 9.630898
      vertex -9.434397 9.220359 8.454252
    endloop
  endfacet
  facet normal -0.941071 0.000000 0.338208
    outer loop
      vertex -9.434397 9.220359 8.454252
      vertex -9.011526 9.045213 9.630898
      vertex -9.220351 9.295422 9.049838
    endloop
  endfacet
  facet normal -0.941071 0.000000 0.338208
    outer loop
      vertex -9.896422 8.726196 7.168658
      vertex -9.974732 8.613602 6.950760
      vertex -9.823334 8.682409 7.372029
    endloop
  endfacet
  facet normal -0.941071 0.000000 0.338208
    outer loop
      vertex -10.133961 5.561051 6.507702
      vertex -10.259256 5.611093 6.159067
      vertex -10.267087 5.310842 6.137277
    endloop
  endfacet
  facet normal -0.941071 -0.000000 0.338208
    outer loop
      vertex -10.259256 5.611093 6.159067
      vertex -10.133961 5.561051 6.507702
      vertex -10.199218 5.704921 6.326121
    endloop
  endfacet
  facet normal -0.941071 -0.000000 0.338208
    outer loop
      vertex -9.263331 0.899488 8.930245
      vertex -9.314436 0.000000 8.788047
      vertex -9.282969 0.000000 8.875602
    endloop
  endfacet
  facet normal -0.941071 -0.000000 0.338208
    outer loop
      vertex -9.314436 0.000000 8.788047
      vertex -9.263331 0.899488 8.930245
      vertex -9.345902 0.000000 8.700492
    endloop
  endfacet
  facet normal -0.941071 0.000000 0.338208
    outer loop
      vertex -9.345902 0.000000 8.700492
      vertex -9.263331 0.899488 8.930245
      vertex -9.408834 0.000000 8.525381
    endloop
  endfacet
  facet normal -0.941071 -0.000000 0.338208
    outer loop
      vertex -9.408834 0.000000 8.525381
      vertex -9.263331 0.899488 8.930245
      vertex -9.365003 1.134269 8.647341
    endloop
  endfacet
  facet normal -0.941071 0.000000 0.338208
    outer loop
      vertex -9.365003 1.134269 8.647341
      vertex -9.263331 0.899488 8.930245
      vertex -9.282969 1.759125 8.875602
    endloop
  endfacet
  facet normal -0.941071 0.000000 0.338208
    outer loop
      vertex -9.365003 1.134269 8.647341
      vertex -9.282969 1.759125 8.875602
      vertex -9.378440 2.006213 8.609955
    endloop
  endfacet
  facet normal -0.941071 -0.000000 0.338208
    outer loop
      vertex -9.378440 2.006213 8.609955
      vertex -9.282969 1.759125 8.875602
      vertex -9.314436 2.511278 8.788047
    endloop
  endfacet
  facet normal -0.941071 -0.000000 0.338208
    outer loop
      vertex -9.378440 2.006213 8.609955
      vertex -9.314436 2.511278 8.788047
      vertex -9.386661 2.539776 8.587077
    endloop
  endfacet
  facet normal -0.941071 0.000000 0.338208
    outer loop
      vertex -9.386661 2.539776 8.587077
      vertex -9.314436 2.511278 8.788047
      vertex -9.314436 2.539776 8.788047
    endloop
  endfacet
  facet normal -0.941071 -0.000000 0.338208
    outer loop
      vertex -9.380741 2.120711 8.603550
      vertex -9.444005 2.142206 8.427517
      vertex -9.378440 2.006213 8.609955
    endloop
  endfacet
  facet normal -0.941071 -0.000000 0.338208
    outer loop
      vertex -9.444005 2.142206 8.427517
      vertex -9.380741 2.120711 8.603550
      vertex -9.453205 2.245128 8.401918
    endloop
  endfacet
  facet normal -0.941071 0.000000 0.338208
    outer loop
      vertex -9.444005 2.142206 8.427517
      vertex -9.453205 2.245128 8.401918
      vertex -9.503083 2.433077 8.263132
    endloop
  endfacet
  facet normal -0.941071 0.000000 0.338208
    outer loop
      vertex -9.242904 1.277644 8.987085
      vertex -9.282969 0.000000 8.875602
      vertex -9.231320 -0.000000 9.019319
    endloop
  endfacet
  facet normal -0.941071 -0.000000 0.338208
    outer loop
      vertex -9.282969 0.000000 8.875602
      vertex -9.242904 1.277644 8.987085
      vertex -9.263331 0.899488 8.930245
    endloop
  endfacet
  facet normal -0.941071 0.000000 0.338208
    outer loop
      vertex -9.263331 0.899488 8.930245
      vertex -9.242904 1.277644 8.987085
      vertex -9.282969 1.759125 8.875602
    endloop
  endfacet
  facet normal -0.941071 0.000000 0.338208
    outer loop
      vertex -9.282969 1.759125 8.875602
      vertex -9.242904 1.277644 8.987085
      vertex -9.242904 2.539776 8.987085
    endloop
  endfacet
  facet normal -0.941071 -0.000000 0.338208
    outer loop
      vertex -9.282969 1.759125 8.875602
      vertex -9.242904 2.539776 8.987085
      vertex -9.314436 2.511278 8.788047
    endloop
  endfacet
  facet normal -0.941071 0.000000 0.338208
    outer loop
      vertex -9.314436 2.511278 8.788047
      vertex -9.242904 2.539776 8.987085
      vertex -9.314436 2.539776 8.788047
    endloop
  endfacet
endsolid 2c2w
