mtllib materials.mtl
o rr21

v 15.000000 0.000000 -10.000000
v -15.000000 0.000000 -15.000000
v -15.000000 0.000000 -10.000000
v -15.000000 0.000000 -15.000000
v 15.000000 0.000000 -10.000000
v 15.000000 0.000000 -15.000000
v 4.000000 0.000000 4.000000
v 11.000000 0.000000 11.000000
v 11.000000 0.000000 4.000000
v 11.000000 0.000000 11.000000
v 4.000000 0.000000 4.000000
v 4.000000 0.000000 11.000000
v -0.000000 0.000000 0.000000
v 11.000000 0.000000 4.000000
v 15.000000 0.000000 0.000000
v 11.000000 0.000000 4.000000
v -0.000000 0.000000 0.000000
v 4.000000 0.000000 4.000000
v 4.000000 0.000000 4.000000
v -0.000000 0.000000 0.000000
v 4.000000 0.000000 11.000000
v 4.000000 0.000000 11.000000
v -0.000000 0.000000 0.000000
v -0.000000 0.000000 15.000000
v 15.000000 0.000000 15.000000
v 11.000000 0.000000 11.000000
v -0.000000 0.000000 15.000000
v 11.000000 0.000000 11.000000
v 15.000000 0.000000 15.000000
v 15.000000 0.000000 0.000000
v 11.000000 0.000000 11.000000
v 15.000000 0.000000 0.000000
v 11.000000 0.000000 4.000000
v -0.000000 0.000000 15.000000
v 11.000000 0.000000 11.000000
v 4.000000 0.000000 11.000000
v -0.000000 7.500000 0.000000
v 11.000000 6.500000 4.000000
v 15.000000 7.500000 0.000000
v 11.000000 6.500000 4.000000
v -0.000000 7.500000 0.000000
v 6.000000 6.500000 4.000000
v 6.000000 6.500000 4.000000
v -0.000000 7.500000 0.000000
v 4.000000 6.500000 4.000000
v 11.000000 6.500000 4.000000
v 4.000000 0.000000 4.000000
v 11.000000 0.000000 4.000000
v 4.000000 0.000000 4.000000
v 11.000000 6.500000 4.000000
v 4.000000 6.500000 4.000000
v 4.000000 6.500000 4.000000
v 11.000000 6.500000 4.000000
v 6.000000 6.500000 4.000000
v -0.000000 7.500000 0.000000
v 15.000000 0.000000 0.000000
v -0.000000 0.000000 0.000000
v 15.000000 0.000000 0.000000
v -0.000000 7.500000 0.000000
v 15.000000 6.500000 0.000000
v 15.000000 6.500000 0.000000
v -0.000000 7.500000 0.000000
v 15.000000 7.500000 0.000000
v 11.000000 6.500000 4.000000
v 15.000000 7.500000 15.000000
v 15.000000 7.500000 0.000000
v 15.000000 7.500000 15.000000
v 11.000000 6.500000 4.000000
v 11.000000 6.500000 11.000000
v 4.000000 6.500000 11.000000
v 11.000000 0.000000 11.000000
v 4.000000 0.000000 11.000000
v 11.000000 0.000000 11.000000
v 4.000000 6.500000 11.000000
v 11.000000 6.500000 11.000000
v 11.000000 0.000000 11.000000
v 11.000000 6.500000 4.000000
v 11.000000 0.000000 4.000000
v 11.000000 6.500000 4.000000
v 11.000000 0.000000 11.000000
v 11.000000 6.500000 11.000000
v 15.000000 7.500000 15.000000
v 15.000000 6.500000 0.000000
v 15.000000 7.500000 0.000000
v 15.000000 6.500000 0.000000
v 15.000000 7.500000 15.000000
v 15.000000 0.000000 0.000000
v 15.000000 0.000000 0.000000
v 15.000000 7.500000 15.000000
v 15.000000 0.000000 15.000000
v 11.000000 6.500000 11.000000
v -0.000000 7.500000 15.000000
v 15.000000 7.500000 15.000000
v -0.000000 7.500000 15.000000
v 11.000000 6.500000 11.000000
v 4.000000 6.500000 11.000000
v 15.000000 0.000000 15.000000
v -0.000000 6.500000 15.000000
v -0.000000 0.000000 15.000000
v -0.000000 6.500000 15.000000
v 15.000000 0.000000 15.000000
v 15.000000 7.500000 15.000000
v -0.000000 6.500000 15.000000
v 15.000000 7.500000 15.000000
v -0.000000 7.500000 15.000000
v -0.000000 0.000000 15.000000
v -0.000000 7.500000 0.000000
v -0.000000 0.000000 0.000000
v -0.000000 7.500000 0.000000
v -0.000000 0.000000 15.000000
v -0.000000 7.500000 15.000000
v -0.000000 7.500000 15.000000
v -0.000000 0.000000 15.000000
v -0.000000 6.500000 15.000000
v 4.000000 6.500000 4.000000
v 4.000000 6.500000 11.000000
v 4.000000 6.500000 6.000000
v 4.000000 6.500000 11.000000
v 4.000000 6.500000 4.000000
v -0.000000 7.500000 0.000000
v 4.000000 6.500000 11.000000
v -0.000000 7.500000 0.000000
v -0.000000 7.500000 15.000000
v 4.000000 6.500000 6.000000
v 4.000000 0.000000 4.000000
v 4.000000 6.500000 4.000000
v 4.000000 0.000000 4.000000
v 4.000000 6.500000 6.000000
v 4.000000 0.000000 11.000000
v 4.000000 0.000000 11.000000
v 4.000000 6.500000 6.000000
v 4.000000 6.500000 11.000000
v 0.000000 3.000000 -10.000000
v 11.000000 4.500000 -4.000000
v 11.000000 3.000000 -10.000000
v 11.000000 4.500000 -4.000000
v 0.000000 3.000000 -10.000000
v 0.000000 4.500000 -4.000000
v 2.800000 2.000000 -9.700000
v 4.000000 0.000000 -9.700000
v 2.800000 0.000000 -9.700000
v 4.000000 0.000000 -9.700000
v 2.800000 2.000000 -9.700000
v 4.000000 2.000000 -9.700000
v 2.800000 2.000000 -9.700000
v 2.800000 0.000000 -10.000000
v 2.800000 2.000000 -10.000000
v 2.800000 0.000000 -10.000000
v 2.800000 2.000000 -9.700000
v 2.800000 0.000000 -9.700000
v 2.800000 2.000000 -9.700000
v 4.000000 2.000000 -10.000000
v 4.000000 2.000000 -9.700000
v 4.000000 2.000000 -10.000000
v 2.800000 2.000000 -9.700000
v 2.800000 2.000000 -10.000000
v 0.000000 2.000000 -9.700000
v 0.600000 0.000000 -9.700000
v 0.000000 0.000000 -9.700000
v 0.600000 0.000000 -9.700000
v 0.000000 2.000000 -9.700000
v 0.600000 2.000000 -9.700000
v 0.000000 2.000000 -9.700000
v 0.600000 2.000000 -10.000000
v 0.600000 2.000000 -9.700000
v 0.600000 2.000000 -10.000000
v 0.000000 2.000000 -9.700000
v 0.000000 2.000000 -10.000000
v 0.600000 0.000000 -9.700000
v 0.600000 2.000000 -10.000000
v 0.600000 0.000000 -10.000000
v 0.600000 2.000000 -10.000000
v 0.600000 0.000000 -9.700000
v 0.600000 2.000000 -9.700000
v 4.000000 0.000000 -9.700000
v 4.000000 2.000000 -10.000000
v 4.000000 0.000000 -10.000000
v 4.000000 2.000000 -10.000000
v 4.000000 0.000000 -9.700000
v 4.000000 2.000000 -9.700000
v 0.000000 0.000000 -4.000000
v 0.000000 2.000000 -9.700000
v 0.000000 0.000000 -9.700000
v 0.000000 2.000000 -9.700000
v 0.000000 3.000000 -10.000000
v 0.000000 2.000000 -10.000000
v 0.000000 3.000000 -10.000000
v 0.000000 2.000000 -9.700000
v 0.000000 4.500000 -4.000000
v 0.000000 4.500000 -4.000000
v 0.000000 2.000000 -9.700000
v 0.000000 0.000000 -4.000000
v 11.000000 4.500000 -4.000000
v 11.000000 6.500000 -10.000000
v 11.000000 3.000000 -10.000000
v 11.000000 6.500000 -10.000000
v 11.000000 4.500000 -4.000000
v 11.000000 6.500000 -4.000000
v 0.000000 0.000000 0.000000
v 0.000000 4.500000 -4.000000
v 0.000000 0.000000 -4.000000
v 0.000000 4.500000 -4.000000
v 0.000000 0.000000 0.000000
v 0.000000 6.500000 -4.000000
v 0.000000 6.500000 -4.000000
v 0.000000 0.000000 0.000000
v 0.000000 7.500000 0.000000
v 0.000000 3.000000 -10.000000
v 0.600000 2.000000 -10.000000
v 0.000000 2.000000 -10.000000
v 0.600000 2.000000 -10.000000
v 0.000000 3.000000 -10.000000
v 2.800000 2.000000 -10.000000
v 2.800000 2.000000 -10.000000
v 0.000000 3.000000 -10.000000
v 4.000000 2.000000 -10.000000
v 4.000000 2.000000 -10.000000
v 0.000000 3.000000 -10.000000
v 5.800000 2.000000 -10.000000
v 5.800000 2.000000 -10.000000
v 0.000000 3.000000 -10.000000
v 7.000000 2.000000 -10.000000
v 7.000000 2.000000 -10.000000
v 11.000000 0.000000 -10.000000
v 7.000000 0.000000 -10.000000
v 11.000000 0.000000 -10.000000
v 7.000000 2.000000 -10.000000
v 11.000000 3.000000 -10.000000
v 11.000000 3.000000 -10.000000
v 7.000000 2.000000 -10.000000
v 0.000000 3.000000 -10.000000
v 4.000000 0.000000 -10.000000
v 5.800000 2.000000 -10.000000
v 5.800000 0.000000 -10.000000
v 5.800000 2.000000 -10.000000
v 4.000000 0.000000 -10.000000
v 4.000000 2.000000 -10.000000
v 0.600000 2.000000 -10.000000
v 2.800000 0.000000 -10.000000
v 0.600000 0.000000 -10.000000
v 2.800000 0.000000 -10.000000
v 0.600000 2.000000 -10.000000
v 2.800000 2.000000 -10.000000
v 11.000000 6.500000 0.000000
v 11.000000 6.500000 -4.000000
v 11.000000 7.500000 0.000000
v 11.000000 6.500000 -10.000000
v 15.000000 5.500000 0.000000
v 15.000000 5.500000 -10.000000
v 15.000000 5.500000 0.000000
v 11.000000 6.500000 -10.000000
v 11.000000 6.500000 0.000000
v 11.000000 6.500000 0.000000
v 11.000000 6.500000 -10.000000
v 11.000000 6.500000 -4.000000
v 0.000000 6.500000 -4.000000
v 11.000000 7.500000 0.000000
v 11.000000 6.500000 -4.000000
v 11.000000 7.500000 0.000000
v 0.000000 6.500000 -4.000000
v 0.000000 7.500000 0.000000
v 15.000000 5.500000 0.000000
v 15.000000 0.000000 -10.000000
v 15.000000 5.500000 -10.000000
v 15.000000 0.000000 -10.000000
v 15.000000 5.500000 0.000000
v 15.000000 0.000000 0.000000
v 15.000000 5.500000 0.000000
v 0.000000 0.000000 0.000000
v 15.000000 0.000000 0.000000
v 0.000000 0.000000 0.000000
v 15.000000 5.500000 0.000000
v 0.000000 7.500000 0.000000
v 0.000000 7.500000 0.000000
v 15.000000 5.500000 0.000000
v 11.000000 6.500000 0.000000
v 0.000000 7.500000 0.000000
v 11.000000 6.500000 0.000000
v 11.000000 7.500000 0.000000
v 0.000000 6.500000 -4.000000
v 11.000000 4.500000 -4.000000
v 0.000000 4.500000 -4.000000
v 11.000000 4.500000 -4.000000
v 0.000000 6.500000 -4.000000
v 11.000000 6.500000 -4.000000
v 5.800000 2.000000 -9.700000
v 7.000000 2.000000 -10.000000
v 7.000000 2.000000 -9.700000
v 7.000000 2.000000 -10.000000
v 5.800000 2.000000 -9.700000
v 5.800000 2.000000 -10.000000
v 7.000000 0.000000 -9.700000
v 7.000000 2.000000 -10.000000
v 7.000000 0.000000 -10.000000
v 7.000000 2.000000 -10.000000
v 7.000000 0.000000 -9.700000
v 7.000000 2.000000 -9.700000
v 5.800000 2.000000 -9.700000
v 5.800000 0.000000 -10.000000
v 5.800000 2.000000 -10.000000
v 5.800000 0.000000 -10.000000
v 5.800000 2.000000 -9.700000
v 5.800000 0.000000 -9.700000
v 5.800000 2.000000 -9.700000
v 7.000000 0.000000 -9.700000
v 5.800000 0.000000 -9.700000
v 7.000000 0.000000 -9.700000
v 5.800000 2.000000 -9.700000
v 7.000000 2.000000 -9.700000
v 11.000000 3.000000 -10.000000
v 15.000000 0.000000 -10.000000
v 11.000000 0.000000 -10.000000
v 15.000000 0.000000 -10.000000
v 11.000000 3.000000 -10.000000
v 15.000000 5.500000 -10.000000
v 15.000000 5.500000 -10.000000
v 11.000000 3.000000 -10.000000
v 11.000000 6.500000 -10.000000
v 15.000000 0.000000 15.000000
v -15.000000 0.000000 -10.000000
v -15.000000 0.000000 15.000000
v -15.000000 0.000000 -10.000000
v 15.000000 0.000000 15.000000
v 15.000000 0.000000 -10.000000
vn 0.000000 1.000000 -0.000000
vn -0.000000 1.000000 -0.000000
vn -0.000000 1.000000 -0.000000
vn 0.000000 1.000000 -0.000000
vn -0.000000 1.000000 -0.000000
vn 0.000000 1.000000 -0.000000
vn -0.000000 1.000000 -0.000000
vn -0.000000 1.000000 0.000000
vn -0.000000 1.000000 0.000000
vn 0.000000 1.000000 -0.000000
vn 0.000000 1.000000 0.000000
vn 0.000000 1.000000 0.000000
vn 0.000000 0.970143 0.242536
vn 0.000000 0.970143 0.242536
vn 0.000000 0.970143 0.242536
vn 0.000000 -0.000000 1.000000
vn 0.000000 0.000000 1.000000
vn 0.000000 1.000000 -0.000000
vn 0.000000 0.000000 -1.000000
vn 0.000000 -0.000000 -1.000000
vn 0.000000 -0.000000 -1.000000
vn -0.242536 0.970143 -0.000000
vn -0.242536 0.970143 -0.000000
vn 0.000000 0.000000 -1.000000
vn 0.000000 -0.000000 -1.000000
vn -1.000000 0.000000 -0.000000
vn -1.000000 0.000000 -0.000000
vn 1.000000 0.000000 -0.000000
vn 1.000000 0.000000 -0.000000
vn 1.000000 0.000000 -0.000000
vn -0.000000 0.970143 -0.242536
vn 0.000000 0.970143 -0.242536
vn -0.000000 0.000000 1.000000
vn 0.000000 0.000000 1.000000
vn 0.000000 0.000000 1.000000
vn -1.000000 0.000000 0.000000
vn -1.000000 0.000000 0.000000
vn 0.000000 1.000000 -0.000000
vn 0.000000 1.000000 -0.000000
vn 0.242536 0.970143 0.000000
vn 0.242536 0.970143 -0.000000
vn 1.000000 0.000000 -0.000000
vn 1.000000 -0.000000 -0.000000
vn 1.000000 0.000000 0.000000
vn -0.000000 0.970143 -0.242536
vn 0.000000 0.970143 -0.242536
vn 0.000000 0.000000 -1.000000
vn 0.000000 -0.000000 -1.000000
vn 1.000000 0.000000 0.000000
vn 1.000000 0.000000 -0.000000
vn 0.000000 -1.000000 -0.000000
vn -0.000000 -1.000000 -0.000000
vn -0.000000 0.000000 -1.000000
vn -0.000000 0.000000 -1.000000
vn 0.000000 -1.000000 -0.000000
vn 0.000000 -1.000000 -0.000000
vn -1.000000 0.000000 -0.000000
vn -1.000000 0.000000 0.000000
vn -1.000000 0.000000 -0.000000
vn -1.000000 0.000000 0.000000
vn -1.000000 0.000000 -0.000000
vn -1.000000 0.000000 -0.000000
vn -1.000000 -0.000000 -0.000000
vn -1.000000 0.000000 -0.000000
vn -1.000000 0.000000 -0.000000
vn -1.000000 0.000000 -0.000000
vn -1.000000 0.000000 -0.000000
vn -1.000000 0.000000 -0.000000
vn -1.000000 0.000000 -0.000000
vn -0.000000 0.000000 -1.000000
vn 0.000000 0.000000 -1.000000
vn 0.000000 -0.000000 -1.000000
vn 0.000000 -0.000000 -1.000000
vn 0.000000 -0.000000 -1.000000
vn 0.000000 0.000000 -1.000000
vn 0.000000 -0.000000 -1.000000
vn 0.000000 0.000000 -1.000000
vn -0.000000 0.000000 -1.000000
vn 0.000000 0.000000 -1.000000
vn 0.000000 0.000000 -1.000000
vn 0.000000 -0.000000 -1.000000
vn 1.000000 0.000000 0.000000
vn 0.242536 0.970143 0.000000
vn 0.242536 0.970143 0.000000
vn 0.000000 1.000000 -0.000000
vn -0.000000 0.970143 -0.242536
vn 0.000000 0.970143 -0.242536
vn 1.000000 0.000000 0.000000
vn 1.000000 0.000000 0.000000
vn 0.000000 -0.000000 1.000000
vn 0.000000 0.000000 1.000000
vn 0.000000 0.000000 1.000000
vn 0.000000 0.000000 1.000000
vn 0.000000 0.000000 -1.000000
vn 0.000000 -0.000000 -1.000000
vn 0.000000 -1.000000 -0.000000
vn 0.000000 -1.000000 -0.000000
vn -1.000000 0.000000 -0.000000
vn -1.000000 0.000000 -0.000000
vn 1.000000 0.000000 0.000000
vn 1.000000 0.000000 -0.000000
vn 0.000000 0.000000 -1.000000
vn 0.000000 -0.000000 -1.000000
vn -0.000000 0.000000 -1.000000
vn -0.000000 0.000000 -1.000000
vn -0.000000 0.000000 -1.000000
vn 0.000000 1.000000 -0.000000
vn -0.000000 1.000000 -0.000000

usemtl road
f 1//1 2//1 3//1
f 4//2 5//2 6//2
usemtl _default
f 7//3 8//3 9//3
f 10//4 11//4 12//4
f 13//5 14//5 15//5
f 16//6 17//6 18//6
f 19//7 20//7 21//7
f 22//8 23//8 24//8
f 25//9 26//9 27//9
f 28//10 29//10 30//10
f 31//11 32//11 33//11
f 34//12 35//12 36//12
f 37//13 38//13 39//13
f 40//14 41//14 42//14
f 43//15 44//15 45//15
f 46//16 47//16 48//16
f 49//17 50//17 51//17
f 52//18 53//18 54//18
f 55//19 56//19 57//19
f 58//20 59//20 60//20
f 61//21 62//21 63//21
f 64//22 65//22 66//22
f 67//23 68//23 69//23
f 70//24 71//24 72//24
f 73//25 74//25 75//25
f 76//26 77//26 78//26
f 79//27 80//27 81//27
f 82//28 83//28 84//28
f 85//29 86//29 87//29
f 88//30 89//30 90//30
f 91//31 92//31 93//31
f 94//32 95//32 96//32
f 97//33 98//33 99//33
f 100//34 101//34 102//34
f 103//35 104//35 105//35
f 106//36 107//36 108//36
f 109//37 110//37 111//37
f 112//38 113//38 114//38
f 115//39 116//39 117//39
f 118//40 119//40 120//40
f 121//41 122//41 123//41
f 124//42 125//42 126//42
f 127//43 128//43 129//43
f 130//44 131//44 132//44
f 133//45 134//45 135//45
f 136//46 137//46 138//46
f 139//47 140//47 141//47
f 142//48 143//48 144//48
f 145//49 146//49 147//49
f 148//50 149//50 150//50
f 151//51 152//51 153//51
f 154//52 155//52 156//52
f 157//53 158//53 159//53
f 160//54 161//54 162//54
f 163//55 164//55 165//55
f 166//56 167//56 168//56
f 169//57 170//57 171//57
f 172//58 173//58 174//58
f 175//59 176//59 177//59
f 178//60 179//60 180//60
f 181//61 182//61 183//61
f 184//62 185//62 186//62
f 187//63 188//63 189//63
f 190//64 191//64 192//64
f 193//65 194//65 195//65
f 196//66 197//66 198//66
f 199//67 200//67 201//67
f 202//68 203//68 204//68
f 205//69 206//69 207//69
f 208//70 209//70 210//70
f 211//71 212//71 213//71
f 214//72 215//72 216//72
f 217//73 218//73 219//73
f 220//74 221//74 222//74
f 223//75 224//75 225//75
f 226//76 227//76 228//76
f 229//77 230//77 231//77
f 232//78 233//78 234//78
f 235//79 236//79 237//79
f 238//80 239//80 240//80
f 241//81 242//81 243//81
f 244//82 245//82 246//82
f 247//83 248//83 249//83
f 250//84 251//84 252//84
f 253//85 254//85 255//85
f 256//86 257//86 258//86
f 259//87 260//87 261//87
f 262//88 263//88 264//88
f 265//89 266//89 267//89
f 268//90 269//90 270//90
f 271//91 272//91 273//91
f 274//92 275//92 276//92
f 277//93 278//93 279//93
f 280//94 281//94 282//94
f 283//95 284//95 285//95
f 286//96 287//96 288//96
f 289//97 290//97 291//97
f 292//98 293//98 294//98
f 295//99 296//99 297//99
f 298//100 299//100 300//100
f 301//101 302//101 303//101
f 304//102 305//102 306//102
f 307//103 308//103 309//103
f 310//104 311//104 312//104
f 313//105 314//105 315//105
f 316//106 317//106 318//106
f 319//107 320//107 321//107
f 322//108 323//108 324//108
