solid rr22
  facet normal 0.000000 1.000000 -0.000000
    outer loop
      vertex 15.000000 0.000000 -10.000000
      vertex -15.000000 0.000000 -15.000000
      vertex -15.000000 0.000000 -10.000000
    endloop
  endfacet
  facet normal -0.000000 1.000000 -0.000000
    outer loop
      vertex -15.000000 0.000000 -15.000000
      vertex 15.000000 0.000000 -10.000000
      vertex 15.000000 0.000000 -15.000000
    endloop
  endfacet
  facet normal 0.000000 1.000000 -0.000000
    outer loop
      vertex 15.000000 0.000000 15.000000
      vertex -15.000000 0.000000 -10.000000
      vertex -15.000000 0.000000 15.000000
    endloop
  endfacet
  facet normal -0.000000 1.000000 -0.000000
    outer loop
      vertex -15.000000 0.000000 -10.000000
      vertex 15.000000 0.000000 15.000000
      vertex 15.000000 0.000000 -10.000000
    endloop
  endfacet
  facet normal -0.000000 1.000000 -0.000000
    outer loop
      vertex -15.000000 0.000000 4.000000
      vertex -9.000000 0.000000 11.000000
      vertex -9.000000 0.000000 4.000000
    endloop
  endfacet
  facet normal 0.000000 1.000000 -0.000000
    outer loop
      vertex -9.000000 0.000000 11.000000
      vertex -15.000000 0.000000 4.000000
      vertex -15.000000 0.000000 11.000000
    endloop
  endfacet
  facet normal -0.000000 1.000000 -0.000000
    outer loop
      vertex -10.987762 0.000000 -10.000000
      vertex -9.787762 0.000000 -9.700000
      vertex -9.787762 0.000000 -10.000000
    endloop
  endfacet
  facet normal 0.000000 1.000000 -0.000000
    outer loop
      vertex -9.787762 0.000000 -9.700000
      vertex -10.987762 0.000000 -10.000000
      vertex -10.987762 0.000000 -9.700000
    endloop
  endfacet
  facet normal 0.000000 0.997459 0.071247
    outer loop
      vertex -15.000000 7.500000 -10.000000
      vertex -9.000000 6.500000 4.000000
      vertex -0.000000 7.500000 -10.000000
    endloop
  endfacet
  facet normal 0.000000 0.997459 0.071247
    outer loop
      vertex -9.000000 6.500000 4.000000
      vertex -15.000000 7.500000 -10.000000
      vertex -15.000000 6.500000 4.000000
    endloop
  endfacet
  facet normal 0.000000 -0.000000 1.000000
    outer loop
      vertex -9.000000 6.500000 4.000000
      vertex -15.000000 0.000000 4.000000
      vertex -9.000000 0.000000 4.000000
    endloop
  endfacet
  facet normal 0.000000 0.000000 1.000000
    outer loop
      vertex -15.000000 0.000000 4.000000
      vertex -9.000000 6.500000 4.000000
      vertex -15.000000 6.500000 4.000000
    endloop
  endfacet
  facet normal -0.110432 0.993884 0.000000
    outer loop
      vertex -0.000000 7.500000 -10.000000
      vertex -9.000000 6.500000 11.000000
      vertex 0.000000 7.500000 15.000000
    endloop
  endfacet
  facet normal -0.110432 0.993884 -0.000000
    outer loop
      vertex -9.000000 6.500000 11.000000
      vertex -0.000000 7.500000 -10.000000
      vertex -9.000000 6.500000 4.000000
    endloop
  endfacet
  facet normal 0.000000 0.000000 -1.000000
    outer loop
      vertex -15.000000 6.500000 11.000000
      vertex -9.000000 0.000000 11.000000
      vertex -15.000000 0.000000 11.000000
    endloop
  endfacet
  facet normal -0.000000 -0.000000 -1.000000
    outer loop
      vertex -9.000000 0.000000 11.000000
      vertex -15.000000 6.500000 11.000000
      vertex -9.000000 6.500000 11.000000
    endloop
  endfacet
  facet normal -1.000000 0.000000 -0.000000
    outer loop
      vertex -9.000000 0.000000 11.000000
      vertex -9.000000 6.500000 4.000000
      vertex -9.000000 0.000000 4.000000
    endloop
  endfacet
  facet normal -1.000000 0.000000 -0.000000
    outer loop
      vertex -9.000000 6.500000 4.000000
      vertex -9.000000 0.000000 11.000000
      vertex -9.000000 6.500000 11.000000
    endloop
  endfacet
  facet normal 1.000000 0.000000 -0.000000
    outer loop
      vertex 0.000000 7.500000 15.000000
      vertex -0.000000 6.500000 -10.000000
      vertex -0.000000 7.500000 -10.000000
    endloop
  endfacet
  facet normal 1.000000 0.000000 -0.000000
    outer loop
      vertex -0.000000 6.500000 -10.000000
      vertex 0.000000 7.500000 15.000000
      vertex -0.000000 0.000000 -10.000000
    endloop
  endfacet
  facet normal 1.000000 0.000000 -0.000000
    outer loop
      vertex -0.000000 0.000000 -10.000000
      vertex 0.000000 7.500000 15.000000
      vertex 0.000000 0.000000 15.000000
    endloop
  endfacet
  facet normal -0.000000 0.970143 -0.242536
    outer loop
      vertex -9.000000 6.500000 11.000000
      vertex -15.000000 7.500000 15.000000
      vertex 0.000000 7.500000 15.000000
    endloop
  endfacet
  facet normal -0.000000 0.970143 -0.242536
    outer loop
      vertex -15.000000 7.500000 15.000000
      vertex -9.000000 6.500000 11.000000
      vertex -15.000000 6.500000 11.000000
    endloop
  endfacet
  facet normal 0.000000 0.000000 1.000000
    outer loop
      vertex 0.000000 0.000000 15.000000
      vertex -15.000000 6.500000 15.000000
      vertex -15.000000 0.000000 15.000000
    endloop
  endfacet
  facet normal 0.000000 0.000000 1.000000
    outer loop
      vertex -15.000000 6.500000 15.000000
      vertex 0.000000 0.000000 15.000000
      vertex 0.000000 7.500000 15.000000
    endloop
  endfacet
  facet normal 0.000000 0.000000 1.000000
    outer loop
      vertex -15.000000 6.500000 15.000000
      vertex 0.000000 7.500000 15.000000
      vertex -15.000000 7.500000 15.000000
    endloop
  endfacet
  facet normal -1.000000 -0.000000 0.000000
    outer loop
      vertex -15.000000 0.000000 15.000000
      vertex -15.000000 6.500000 11.000000
      vertex -15.000000 0.000000 11.000000
    endloop
  endfacet
  facet normal -1.000000 0.000000 0.000000
    outer loop
      vertex -15.000000 6.500000 11.000000
      vertex -15.000000 0.000000 15.000000
      vertex -15.000000 7.500000 15.000000
    endloop
  endfacet
  facet normal 0.000000 1.000000 -0.000000
    outer loop
      vertex -15.000000 7.500000 15.000000
      vertex -15.000000 0.000000 15.000000
      vertex -15.000000 6.500000 15.000000
    endloop
  endfacet
  facet normal 0.000000 0.000000 -1.000000
    outer loop
      vertex -15.000000 2.000000 -9.700000
      vertex -14.300000 -0.000000 -9.700000
      vertex -15.000000 -0.000000 -9.700000
    endloop
  endfacet
  facet normal 0.000000 -0.000000 -1.000000
    outer loop
      vertex -14.300000 -0.000000 -9.700000
      vertex -15.000000 2.000000 -9.700000
      vertex -14.300000 2.000000 -9.700000
    endloop
  endfacet
  facet normal -1.000000 0.000000 -0.000000
    outer loop
      vertex -14.300000 -0.000000 -9.700000
      vertex -14.300000 2.000000 -10.000000
      vertex -14.300000 -0.000000 -10.000000
    endloop
  endfacet
  facet normal -1.000000 0.000000 0.000000
    outer loop
      vertex -14.300000 2.000000 -10.000000
      vertex -14.300000 -0.000000 -9.700000
      vertex -14.300000 2.000000 -9.700000
    endloop
  endfacet
  facet normal 0.000000 -1.000000 -0.000000
    outer loop
      vertex -15.000000 2.000000 -9.700000
      vertex -14.300000 2.000000 -10.000000
      vertex -14.300000 2.000000 -9.700000
    endloop
  endfacet
  facet normal -0.000000 -1.000000 -0.000000
    outer loop
      vertex -14.300000 2.000000 -10.000000
      vertex -15.000000 2.000000 -9.700000
      vertex -15.000000 2.000000 -10.000000
    endloop
  endfacet
  facet normal 0.000000 0.000000 -1.000000
    outer loop
      vertex -10.987762 2.000000 -9.700000
      vertex -9.787762 0.000000 -9.700000
      vertex -10.987762 0.000000 -9.700000
    endloop
  endfacet
  facet normal 0.000000 -0.000000 -1.000000
    outer loop
      vertex -9.787762 0.000000 -9.700000
      vertex -10.987762 2.000000 -9.700000
      vertex -9.787762 2.000000 -9.700000
    endloop
  endfacet
  facet normal -1.000000 0.000000 -0.000000
    outer loop
      vertex -9.787762 0.000000 -9.700000
      vertex -9.787762 2.000000 -10.000000
      vertex -9.787762 0.000000 -10.000000
    endloop
  endfacet
  facet normal -1.000000 0.000000 0.000000
    outer loop
      vertex -9.787762 2.000000 -10.000000
      vertex -9.787762 0.000000 -9.700000
      vertex -9.787762 2.000000 -9.700000
    endloop
  endfacet
  facet normal 0.000000 -1.000000 -0.000000
    outer loop
      vertex -10.987762 2.000000 -9.700000
      vertex -9.787762 2.000000 -10.000000
      vertex -9.787762 2.000000 -9.700000
    endloop
  endfacet
  facet normal -0.000000 -1.000000 -0.000000
    outer loop
      vertex -9.787762 2.000000 -10.000000
      vertex -10.987762 2.000000 -9.700000
      vertex -10.987762 2.000000 -10.000000
    endloop
  endfacet
  facet normal 1.000000 0.000000 0.000000
    outer loop
      vertex -10.987762 2.000000 -9.700000
      vertex -10.987762 0.000000 -10.000000
      vertex -10.987762 2.000000 -10.000000
    endloop
  endfacet
  facet normal 1.000000 0.000000 -0.000000
    outer loop
      vertex -10.987762 0.000000 -10.000000
      vertex -10.987762 2.000000 -9.700000
      vertex -10.987762 0.000000 -9.700000
    endloop
  endfacet
  facet normal -0.000000 1.000000 -0.000000
    outer loop
      vertex -7.987762 0.000000 -10.000000
      vertex -6.787762 0.000000 -9.700000
      vertex -6.787762 0.000000 -10.000000
    endloop
  endfacet
  facet normal 0.000000 1.000000 -0.000000
    outer loop
      vertex -6.787762 0.000000 -9.700000
      vertex -7.987762 0.000000 -10.000000
      vertex -7.987762 0.000000 -9.700000
    endloop
  endfacet
  facet normal 0.000000 0.000000 -1.000000
    outer loop
      vertex -7.987762 2.000000 -9.700000
      vertex -6.787762 0.000000 -9.700000
      vertex -7.987762 0.000000 -9.700000
    endloop
  endfacet
  facet normal 0.000000 -0.000000 -1.000000
    outer loop
      vertex -6.787762 0.000000 -9.700000
      vertex -7.987762 2.000000 -9.700000
      vertex -6.787762 2.000000 -9.700000
    endloop
  endfacet
  facet normal -1.000000 0.000000 -0.000000
    outer loop
      vertex -6.787762 0.000000 -9.700000
      vertex -6.787762 2.000000 -10.000000
      vertex -6.787762 0.000000 -10.000000
    endloop
  endfacet
  facet normal -1.000000 0.000000 0.000000
    outer loop
      vertex -6.787762 2.000000 -10.000000
      vertex -6.787762 0.000000 -9.700000
      vertex -6.787762 2.000000 -9.700000
    endloop
  endfacet
  facet normal 0.000000 -1.000000 -0.000000
    outer loop
      vertex -7.987762 2.000000 -9.700000
      vertex -6.787762 2.000000 -10.000000
      vertex -6.787762 2.000000 -9.700000
    endloop
  endfacet
  facet normal -0.000000 -1.000000 -0.000000
    outer loop
      vertex -6.787762 2.000000 -10.000000
      vertex -7.987762 2.000000 -9.700000
      vertex -7.987762 2.000000 -10.000000
    endloop
  endfacet
  facet normal 1.000000 0.000000 0.000000
    outer loop
      vertex -7.987762 2.000000 -9.700000
      vertex -7.987762 0.000000 -10.000000
      vertex -7.987762 2.000000 -10.000000
    endloop
  endfacet
  facet normal 1.000000 0.000000 -0.000000
    outer loop
      vertex -7.987762 0.000000 -10.000000
      vertex -7.987762 2.000000 -9.700000
      vertex -7.987762 0.000000 -9.700000
    endloop
  endfacet
  facet normal -0.000000 1.000000 -0.000000
    outer loop
      vertex -4.987762 0.000000 -10.000000
      vertex -3.787762 0.000000 -9.700000
      vertex -3.787762 0.000000 -10.000000
    endloop
  endfacet
  facet normal 0.000000 1.000000 -0.000000
    outer loop
      vertex -3.787762 0.000000 -9.700000
      vertex -4.987762 0.000000 -10.000000
      vertex -4.987762 0.000000 -9.700000
    endloop
  endfacet
  facet normal 0.000000 0.000000 -1.000000
    outer loop
      vertex -4.987762 2.000000 -9.700000
      vertex -3.787762 0.000000 -9.700000
      vertex -4.987762 0.000000 -9.700000
    endloop
  endfacet
  facet normal 0.000000 -0.000000 -1.000000
    outer loop
      vertex -3.787762 0.000000 -9.700000
      vertex -4.987762 2.000000 -9.700000
      vertex -3.787762 2.000000 -9.700000
    endloop
  endfacet
  facet normal -1.000000 0.000000 -0.000000
    outer loop
      vertex -3.787762 0.000000 -9.700000
      vertex -3.787762 2.000000 -10.000000
      vertex -3.787762 0.000000 -10.000000
    endloop
  endfacet
  facet normal -1.000000 0.000000 0.000000
    outer loop
      vertex -3.787762 2.000000 -10.000000
      vertex -3.787762 0.000000 -9.700000
      vertex -3.787762 2.000000 -9.700000
    endloop
  endfacet
  facet normal 0.000000 -1.000000 -0.000000
    outer loop
      vertex -4.987762 2.000000 -9.700000
      vertex -3.787762 2.000000 -10.000000
      vertex -3.787762 2.000000 -9.700000
    endloop
  endfacet
  facet normal -0.000000 -1.000000 -0.000000
    outer loop
      vertex -3.787762 2.000000 -10.000000
      vertex -4.987762 2.000000 -9.700000
      vertex -4.987762 2.000000 -10.000000
    endloop
  endfacet
  facet normal 1.000000 0.000000 0.000000
    outer loop
      vertex -4.987762 2.000000 -9.700000
      vertex -4.987762 0.000000 -10.000000
      vertex -4.987762 2.000000 -10.000000
    endloop
  endfacet
  facet normal 1.000000 0.000000 -0.000000
    outer loop
      vertex -4.987762 0.000000 -10.000000
      vertex -4.987762 2.000000 -9.700000
      vertex -4.987762 0.000000 -9.700000
    endloop
  endfacet
  facet normal -0.000000 1.000000 -0.000000
    outer loop
      vertex -1.987762 0.000000 -10.000000
      vertex -0.787762 0.000000 -9.700000
      vertex -0.787762 0.000000 -10.000000
    endloop
  endfacet
  facet normal 0.000000 1.000000 -0.000000
    outer loop
      vertex -0.787762 0.000000 -9.700000
      vertex -1.987762 0.000000 -10.000000
      vertex -1.987762 0.000000 -9.700000
    endloop
  endfacet
  facet normal 0.000000 0.000000 -1.000000
    outer loop
      vertex -1.987762 2.000000 -9.700000
      vertex -0.787762 0.000000 -9.700000
      vertex -1.987762 0.000000 -9.700000
    endloop
  endfacet
  facet normal 0.000000 -0.000000 -1.000000
    outer loop
      vertex -0.787762 0.000000 -9.700000
      vertex -1.987762 2.000000 -9.700000
      vertex -0.787762 2.000000 -9.700000
    endloop
  endfacet
  facet normal -1.000000 0.000000 -0.000000
    outer loop
      vertex -0.787762 0.000000 -9.700000
      vertex -0.787762 2.000000 -10.000000
      vertex -0.787762 0.000000 -10.000000
    endloop
  endfacet
  facet normal -1.000000 0.000000 0.000000
    outer loop
      vertex -0.787762 2.000000 -10.000000
      vertex -0.787762 0.000000 -9.700000
      vertex -0.787762 2.000000 -9.700000
    endloop
  endfacet
  facet normal 0.000000 -1.000000 -0.000000
    outer loop
      vertex -1.987762 2.000000 -9.700000
      vertex -0.787762 2.000000 -10.000000
      vertex -0.787762 2.000000 -9.700000
    endloop
  endfacet
  facet normal -0.000000 -1.000000 -0.000000
    outer loop
      vertex -0.787762 2.000000 -10.000000
      vertex -1.987762 2.000000 -9.700000
      vertex -1.987762 2.000000 -10.000000
    endloop
  endfacet
  facet normal 1.000000 0.000000 0.000000
    outer loop
      vertex -1.987762 2.000000 -9.700000
      vertex -1.987762 0.000000 -10.000000
      vertex -1.987762 2.000000 -10.000000
    endloop
  endfacet
  facet normal 1.000000 0.000000 -0.000000
    outer loop
      vertex -1.987762 0.000000 -10.000000
      vertex -1.987762 2.000000 -9.700000
      vertex -1.987762 0.000000 -9.700000
    endloop
  endfacet
  facet normal -0.000000 1.000000 -0.000000
    outer loop
      vertex -3.787762 0.000000 -10.000000
      vertex -1.987762 0.000000 -9.700000
      vertex -1.987762 0.000000 -10.000000
    endloop
  endfacet
  facet normal -0.000000 1.000000 -0.000000
    outer loop
      vertex -6.787762 0.000000 -10.000000
      vertex -4.987762 0.000000 -9.700000
      vertex -4.987762 0.000000 -10.000000
    endloop
  endfacet
  facet normal -0.000000 1.000000 -0.000000
    outer loop
      vertex -14.300000 -0.000000 -10.000000
      vertex -10.987762 0.000000 -9.700000
      vertex -10.987762 0.000000 -10.000000
    endloop
  endfacet
  facet normal -0.000000 1.000000 -0.000000
    outer loop
      vertex -9.787762 0.000000 -10.000000
      vertex -7.987762 0.000000 -9.700000
      vertex -7.987762 0.000000 -10.000000
    endloop
  endfacet
  facet normal -0.000000 1.000000 -0.000000
    outer loop
      vertex -7.987762 0.000000 -9.700000
      vertex -9.787762 0.000000 -10.000000
      vertex -9.000000 0.000000 4.000000
    endloop
  endfacet
  facet normal -0.000000 1.000000 -0.000000
    outer loop
      vertex -9.000000 0.000000 4.000000
      vertex -9.787762 0.000000 -10.000000
      vertex -9.787762 0.000000 -9.700000
    endloop
  endfacet
  facet normal 0.000000 1.000000 -0.000000
    outer loop
      vertex -9.000000 0.000000 4.000000
      vertex -9.787762 0.000000 -9.700000
      vertex -15.000000 0.000000 4.000000
    endloop
  endfacet
  facet normal 0.000000 1.000000 -0.000000
    outer loop
      vertex -15.000000 0.000000 4.000000
      vertex -9.787762 0.000000 -9.700000
      vertex -10.987762 0.000000 -9.700000
    endloop
  endfacet
  facet normal -0.000000 1.000000 -0.000000
    outer loop
      vertex -15.000000 0.000000 4.000000
      vertex -10.987762 0.000000 -9.700000
      vertex -14.300000 -0.000000 -9.700000
    endloop
  endfacet
  facet normal -0.000000 1.000000 -0.000000
    outer loop
      vertex -14.300000 -0.000000 -9.700000
      vertex -10.987762 0.000000 -9.700000
      vertex -14.300000 -0.000000 -10.000000
    endloop
  endfacet
  facet normal 0.000000 1.000000 -0.000000
    outer loop
      vertex -15.000000 0.000000 4.000000
      vertex -14.300000 -0.000000 -9.700000
      vertex -15.000000 -0.000000 -9.700000
    endloop
  endfacet
  facet normal -0.000000 1.000000 0.000000
    outer loop
      vertex 0.000000 0.000000 15.000000
      vertex -9.000000 0.000000 11.000000
      vertex -15.000000 0.000000 15.000000
    endloop
  endfacet
  facet normal 0.000000 1.000000 -0.000000
    outer loop
      vertex -9.000000 0.000000 11.000000
      vertex 0.000000 0.000000 15.000000
      vertex -0.000000 0.000000 -10.000000
    endloop
  endfacet
  facet normal 0.000000 1.000000 0.000000
    outer loop
      vertex -9.000000 0.000000 11.000000
      vertex -0.000000 0.000000 -10.000000
      vertex -0.787762 0.000000 -9.700000
    endloop
  endfacet
  facet normal 0.000000 1.000000 -0.000000
    outer loop
      vertex -0.787762 0.000000 -9.700000
      vertex -0.000000 0.000000 -10.000000
      vertex -0.787762 0.000000 -10.000000
    endloop
  endfacet
  facet normal 0.000000 1.000000 0.000000
    outer loop
      vertex -9.000000 0.000000 11.000000
      vertex -0.787762 0.000000 -9.700000
      vertex -1.987762 0.000000 -9.700000
    endloop
  endfacet
  facet normal -0.000000 1.000000 -0.000000
    outer loop
      vertex -9.000000 0.000000 11.000000
      vertex -1.987762 0.000000 -9.700000
      vertex -3.787762 0.000000 -9.700000
    endloop
  endfacet
  facet normal -0.000000 1.000000 -0.000000
    outer loop
      vertex -3.787762 0.000000 -9.700000
      vertex -1.987762 0.000000 -9.700000
      vertex -3.787762 0.000000 -10.000000
    endloop
  endfacet
  facet normal 0.000000 1.000000 0.000000
    outer loop
      vertex -9.000000 0.000000 11.000000
      vertex -3.787762 0.000000 -9.700000
      vertex -4.987762 0.000000 -9.700000
    endloop
  endfacet
  facet normal -0.000000 1.000000 -0.000000
    outer loop
      vertex -9.000000 0.000000 11.000000
      vertex -4.987762 0.000000 -9.700000
      vertex -6.787762 0.000000 -9.700000
    endloop
  endfacet
  facet normal -0.000000 1.000000 -0.000000
    outer loop
      vertex -6.787762 0.000000 -9.700000
      vertex -4.987762 0.000000 -9.700000
      vertex -6.787762 0.000000 -10.000000
    endloop
  endfacet
  facet normal 0.000000 1.000000 -0.000000
    outer loop
      vertex -9.000000 0.000000 11.000000
      vertex -6.787762 0.000000 -9.700000
      vertex -7.987762 0.000000 -9.700000
    endloop
  endfacet
  facet normal 0.000000 1.000000 0.000000
    outer loop
      vertex -9.000000 0.000000 11.000000
      vertex -7.987762 0.000000 -9.700000
      vertex -9.000000 0.000000 4.000000
    endloop
  endfacet
  facet normal -0.000000 1.000000 0.000000
    outer loop
      vertex -15.000000 0.000000 15.000000
      vertex -9.000000 0.000000 11.000000
      vertex -15.000000 0.000000 11.000000
    endloop
  endfacet
  facet normal -1.000000 0.000000 -0.000000
    outer loop
      vertex -15.000000 0.000000 4.000000
      vertex -15.000000 2.000000 -9.700000
      vertex -15.000000 -0.000000 -9.700000
    endloop
  endfacet
  facet normal -1.000000 -0.000000 -0.000000
    outer loop
      vertex -15.000000 2.000000 -9.700000
      vertex -15.000000 7.500000 -10.000000
      vertex -15.000000 2.000000 -10.000000
    endloop
  endfacet
  facet normal -1.000000 -0.000000 0.000000
    outer loop
      vertex -15.000000 7.500000 -10.000000
      vertex -15.000000 2.000000 -9.700000
      vertex -15.000000 6.500000 4.000000
    endloop
  endfacet
  facet normal -1.000000 0.000000 -0.000000
    outer loop
      vertex -15.000000 6.500000 4.000000
      vertex -15.000000 2.000000 -9.700000
      vertex -15.000000 0.000000 4.000000
    endloop
  endfacet
  facet normal 0.000000 0.000000 -1.000000
    outer loop
      vertex -15.000000 7.500000 -10.000000
      vertex -14.300000 2.000000 -10.000000
      vertex -15.000000 2.000000 -10.000000
    endloop
  endfacet
  facet normal 0.000000 -0.000000 -1.000000
    outer loop
      vertex -14.300000 2.000000 -10.000000
      vertex -15.000000 7.500000 -10.000000
      vertex -10.987762 2.000000 -10.000000
    endloop
  endfacet
  facet normal 0.000000 -0.000000 -1.000000
    outer loop
      vertex -10.987762 2.000000 -10.000000
      vertex -15.000000 7.500000 -10.000000
      vertex -9.787762 2.000000 -10.000000
    endloop
  endfacet
  facet normal 0.000000 0.000000 -1.000000
    outer loop
      vertex -9.787762 2.000000 -10.000000
      vertex -15.000000 7.500000 -10.000000
      vertex -10.987762 4.100000 -10.000000
    endloop
  endfacet
  facet normal 0.000000 -0.000000 -1.000000
    outer loop
      vertex -9.787762 2.000000 -10.000000
      vertex -10.987762 4.100000 -10.000000
      vertex -7.987762 2.000000 -10.000000
    endloop
  endfacet
  facet normal 0.000000 -0.000000 -1.000000
    outer loop
      vertex -7.987762 2.000000 -10.000000
      vertex -10.987762 4.100000 -10.000000
      vertex -6.787762 2.000000 -10.000000
    endloop
  endfacet
  facet normal 0.000000 -0.000000 -1.000000
    outer loop
      vertex -6.787762 2.000000 -10.000000
      vertex -10.987762 4.100000 -10.000000
      vertex -4.987762 2.000000 -10.000000
    endloop
  endfacet
  facet normal 0.000000 -0.000000 -1.000000
    outer loop
      vertex -4.987762 2.000000 -10.000000
      vertex -10.987762 4.100000 -10.000000
      vertex -3.787762 2.000000 -10.000000
    endloop
  endfacet
  facet normal 0.000000 -0.000000 -1.000000
    outer loop
      vertex -3.787762 2.000000 -10.000000
      vertex -10.987762 4.100000 -10.000000
      vertex -1.987762 2.000000 -10.000000
    endloop
  endfacet
  facet normal 0.000000 -0.000000 -1.000000
    outer loop
      vertex -1.987762 2.000000 -10.000000
      vertex -10.987762 4.100000 -10.000000
      vertex -0.787762 2.000000 -10.000000
    endloop
  endfacet
  facet normal 0.000000 -0.000000 -1.000000
    outer loop
      vertex -10.987762 4.100000 -10.000000
      vertex -15.000000 7.500000 -10.000000
      vertex -10.987762 5.000000 -10.000000
    endloop
  endfacet
  facet normal 0.000000 -0.000000 -1.000000
    outer loop
      vertex -10.987762 5.000000 -10.000000
      vertex -15.000000 7.500000 -10.000000
      vertex -9.787762 5.000000 -10.000000
    endloop
  endfacet
  facet normal 0.000000 -0.000000 -1.000000
    outer loop
      vertex -9.787762 5.000000 -10.000000
      vertex -15.000000 7.500000 -10.000000
      vertex -4.987762 5.000000 -10.000000
    endloop
  endfacet
  facet normal 0.000000 -0.000000 -1.000000
    outer loop
      vertex -4.987762 5.000000 -10.000000
      vertex -15.000000 7.500000 -10.000000
      vertex -3.787762 5.000000 -10.000000
    endloop
  endfacet
  facet normal -0.000000 -0.000000 -1.000000
    outer loop
      vertex -3.787762 5.000000 -10.000000
      vertex -15.000000 7.500000 -10.000000
      vertex -0.000000 6.500000 -10.000000
    endloop
  endfacet
  facet normal -0.000000 0.000000 -1.000000
    outer loop
      vertex -0.000000 6.500000 -10.000000
      vertex -15.000000 7.500000 -10.000000
      vertex -0.000000 7.500000 -10.000000
    endloop
  endfacet
  facet normal -0.000000 0.000000 -1.000000
    outer loop
      vertex -0.787762 0.000000 -10.000000
      vertex -0.000000 6.500000 -10.000000
      vertex -0.000000 0.000000 -10.000000
    endloop
  endfacet
  facet normal -0.000000 0.000000 -1.000000
    outer loop
      vertex -0.000000 6.500000 -10.000000
      vertex -0.787762 0.000000 -10.000000
      vertex -0.787762 2.000000 -10.000000
    endloop
  endfacet
  facet normal -0.000000 -0.000000 -1.000000
    outer loop
      vertex -0.000000 6.500000 -10.000000
      vertex -0.787762 2.000000 -10.000000
      vertex -3.787762 4.100000 -10.000000
    endloop
  endfacet
  facet normal 0.000000 0.000000 -1.000000
    outer loop
      vertex -3.787762 4.100000 -10.000000
      vertex -0.787762 2.000000 -10.000000
      vertex -9.787762 4.100000 -10.000000
    endloop
  endfacet
  facet normal 0.000000 0.000000 -1.000000
    outer loop
      vertex -9.787762 4.100000 -10.000000
      vertex -0.787762 2.000000 -10.000000
      vertex -10.987762 4.100000 -10.000000
    endloop
  endfacet
  facet normal 0.000000 0.000000 -1.000000
    outer loop
      vertex -3.787762 4.100000 -10.000000
      vertex -9.787762 4.100000 -10.000000
      vertex -4.987762 4.100000 -10.000000
    endloop
  endfacet
  facet normal -0.000000 0.000000 -1.000000
    outer loop
      vertex -0.000000 6.500000 -10.000000
      vertex -3.787762 4.100000 -10.000000
      vertex -3.787762 5.000000 -10.000000
    endloop
  endfacet
  facet normal 0.000000 0.000000 -1.000000
    outer loop
      vertex -9.787762 5.000000 -10.000000
      vertex -4.987762 4.100000 -10.000000
      vertex -9.787762 4.100000 -10.000000
    endloop
  endfacet
  facet normal 0.000000 -0.000000 -1.000000
    outer loop
      vertex -4.987762 4.100000 -10.000000
      vertex -9.787762 5.000000 -10.000000
      vertex -4.987762 5.000000 -10.000000
    endloop
  endfacet
  facet normal 0.000000 0.000000 -1.000000
    outer loop
      vertex -3.787762 2.000000 -10.000000
      vertex -1.987762 0.000000 -10.000000
      vertex -3.787762 0.000000 -10.000000
    endloop
  endfacet
  facet normal 0.000000 -0.000000 -1.000000
    outer loop
      vertex -1.987762 0.000000 -10.000000
      vertex -3.787762 2.000000 -10.000000
      vertex -1.987762 2.000000 -10.000000
    endloop
  endfacet
  facet normal 0.000000 0.000000 -1.000000
    outer loop
      vertex -6.787762 2.000000 -10.000000
      vertex -4.987762 0.000000 -10.000000
      vertex -6.787762 0.000000 -10.000000
    endloop
  endfacet
  facet normal 0.000000 -0.000000 -1.000000
    outer loop
      vertex -4.987762 0.000000 -10.000000
      vertex -6.787762 2.000000 -10.000000
      vertex -4.987762 2.000000 -10.000000
    endloop
  endfacet
  facet normal 0.000000 0.000000 -1.000000
    outer loop
      vertex -9.787762 2.000000 -10.000000
      vertex -7.987762 0.000000 -10.000000
      vertex -9.787762 0.000000 -10.000000
    endloop
  endfacet
  facet normal 0.000000 -0.000000 -1.000000
    outer loop
      vertex -7.987762 0.000000 -10.000000
      vertex -9.787762 2.000000 -10.000000
      vertex -7.987762 2.000000 -10.000000
    endloop
  endfacet
  facet normal 0.000000 0.000000 -1.000000
    outer loop
      vertex -14.300000 2.000000 -10.000000
      vertex -10.987762 0.000000 -10.000000
      vertex -14.300000 -0.000000 -10.000000
    endloop
  endfacet
  facet normal 0.000000 -0.000000 -1.000000
    outer loop
      vertex -10.987762 0.000000 -10.000000
      vertex -14.300000 2.000000 -10.000000
      vertex -10.987762 2.000000 -10.000000
    endloop
  endfacet
  facet normal 1.000000 0.000000 0.000000
    outer loop
      vertex -10.987762 5.000000 -9.700000
      vertex -10.987762 4.100000 -10.000000
      vertex -10.987762 5.000000 -10.000000
    endloop
  endfacet
  facet normal 1.000000 0.000000 -0.000000
    outer loop
      vertex -10.987762 4.100000 -10.000000
      vertex -10.987762 5.000000 -9.700000
      vertex -10.987762 4.100000 -9.700000
    endloop
  endfacet
  facet normal 0.000000 0.000000 -1.000000
    outer loop
      vertex -10.987762 5.000000 -9.700000
      vertex -9.787762 4.100000 -9.700000
      vertex -10.987762 4.100000 -9.700000
    endloop
  endfacet
  facet normal 0.000000 -0.000000 -1.000000
    outer loop
      vertex -9.787762 4.100000 -9.700000
      vertex -10.987762 5.000000 -9.700000
      vertex -9.787762 5.000000 -9.700000
    endloop
  endfacet
  facet normal 0.000000 -1.000000 -0.000000
    outer loop
      vertex -10.987762 5.000000 -9.700000
      vertex -9.787762 5.000000 -10.000000
      vertex -9.787762 5.000000 -9.700000
    endloop
  endfacet
  facet normal 0.000000 -1.000000 -0.000000
    outer loop
      vertex -9.787762 5.000000 -10.000000
      vertex -10.987762 5.000000 -9.700000
      vertex -10.987762 5.000000 -10.000000
    endloop
  endfacet
  facet normal -1.000000 0.000000 -0.000000
    outer loop
      vertex -9.787762 4.100000 -9.700000
      vertex -9.787762 5.000000 -10.000000
      vertex -9.787762 4.100000 -10.000000
    endloop
  endfacet
  facet normal -1.000000 0.000000 -0.000000
    outer loop
      vertex -9.787762 5.000000 -10.000000
      vertex -9.787762 4.100000 -9.700000
      vertex -9.787762 5.000000 -9.700000
    endloop
  endfacet
  facet normal -0.000000 1.000000 -0.000000
    outer loop
      vertex -10.987762 4.100000 -10.000000
      vertex -9.787762 4.100000 -9.700000
      vertex -9.787762 4.100000 -10.000000
    endloop
  endfacet
  facet normal 0.000000 1.000000 -0.000000
    outer loop
      vertex -9.787762 4.100000 -9.700000
      vertex -10.987762 4.100000 -10.000000
      vertex -10.987762 4.100000 -9.700000
    endloop
  endfacet
  facet normal 0.000000 0.000000 -1.000000
    outer loop
      vertex -4.987762 5.000000 -9.700000
      vertex -3.787762 4.100000 -9.700000
      vertex -4.987762 4.100000 -9.700000
    endloop
  endfacet
  facet normal 0.000000 -0.000000 -1.000000
    outer loop
      vertex -3.787762 4.100000 -9.700000
      vertex -4.987762 5.000000 -9.700000
      vertex -3.787762 5.000000 -9.700000
    endloop
  endfacet
  facet normal 1.000000 0.000000 0.000000
    outer loop
      vertex -4.987762 5.000000 -9.700000
      vertex -4.987762 4.100000 -10.000000
      vertex -4.987762 5.000000 -10.000000
    endloop
  endfacet
  facet normal 1.000000 0.000000 -0.000000
    outer loop
      vertex -4.987762 4.100000 -10.000000
      vertex -4.987762 5.000000 -9.700000
      vertex -4.987762 4.100000 -9.700000
    endloop
  endfacet
  facet normal -0.000000 1.000000 -0.000000
    outer loop
      vertex -4.987762 4.100000 -10.000000
      vertex -3.787762 4.100000 -9.700000
      vertex -3.787762 4.100000 -10.000000
    endloop
  endfacet
  facet normal 0.000000 1.000000 -0.000000
    outer loop
      vertex -3.787762 4.100000 -9.700000
      vertex -4.987762 4.100000 -10.000000
      vertex -4.987762 4.100000 -9.700000
    endloop
  endfacet
  facet normal -1.000000 0.000000 -0.000000
    outer loop
      vertex -3.787762 4.100000 -9.700000
      vertex -3.787762 5.000000 -10.000000
      vertex -3.787762 4.100000 -10.000000
    endloop
  endfacet
  facet normal -1.000000 0.000000 -0.000000
    outer loop
      vertex -3.787762 5.000000 -10.000000
      vertex -3.787762 4.100000 -9.700000
      vertex -3.787762 5.000000 -9.700000
    endloop
  endfacet
  facet normal 0.000000 -1.000000 -0.000000
    outer loop
      vertex -4.987762 5.000000 -9.700000
      vertex -3.787762 5.000000 -10.000000
      vertex -3.787762 5.000000 -9.700000
    endloop
  endfacet
  facet normal 0.000000 -1.000000 -0.000000
    outer loop
      vertex -3.787762 5.000000 -10.000000
      vertex -4.987762 5.000000 -9.700000
      vertex -4.987762 5.000000 -10.000000
    endloop
  endfacet
  facet normal -0.000000 -1.000000 -0.000000
    outer loop
      vertex 15.000000 0.000000 4.000000
      vertex 9.000000 0.000000 11.000000
      vertex 9.000000 0.000000 4.000000
    endloop
  endfacet
  facet normal 0.000000 -1.000000 -0.000000
    outer loop
      vertex 9.000000 0.000000 11.000000
      vertex 15.000000 0.000000 4.000000
      vertex 15.000000 0.000000 11.000000
    endloop
  endfacet
  facet normal -0.000000 -1.000000 0.000000
    outer loop
      vertex 10.987762 0.000000 -10.000000
      vertex 9.787762 0.000000 -9.700000
      vertex 9.787762 0.000000 -10.000000
    endloop
  endfacet
  facet normal 0.000000 -1.000000 0.000000
    outer loop
      vertex 9.787762 0.000000 -9.700000
      vertex 10.987762 0.000000 -10.000000
      vertex 10.987762 0.000000 -9.700000
    endloop
  endfacet
  facet normal 0.000000 -0.997459 -0.071247
    outer loop
      vertex 15.000000 7.500000 -10.000000
      vertex 9.000000 6.500000 4.000000
      vertex 0.000000 7.500000 -10.000000
    endloop
  endfacet
  facet normal 0.000000 -0.997459 -0.071247
    outer loop
      vertex 9.000000 6.500000 4.000000
      vertex 15.000000 7.500000 -10.000000
      vertex 15.000000 6.500000 4.000000
    endloop
  endfacet
  facet normal 0.000000 0.000000 -1.000000
    outer loop
      vertex 9.000000 6.500000 4.000000
      vertex 15.000000 0.000000 4.000000
      vertex 9.000000 0.000000 4.000000
    endloop
  endfacet
  facet normal 0.000000 -0.000000 -1.000000
    outer loop
      vertex 15.000000 0.000000 4.000000
      vertex 9.000000 6.500000 4.000000
      vertex 15.000000 6.500000 4.000000
    endloop
  endfacet
  facet normal -0.110432 -0.993884 -0.000000
    outer loop
      vertex 0.000000 7.500000 -10.000000
      vertex 9.000000 6.500000 11.000000
      vertex 0.000000 7.500000 15.000000
    endloop
  endfacet
  facet normal -0.110432 -0.993884 -0.000000
    outer loop
      vertex 9.000000 6.500000 11.000000
      vertex 0.000000 7.500000 -10.000000
      vertex 9.000000 6.500000 4.000000
    endloop
  endfacet
  facet normal 0.000000 -0.000000 1.000000
    outer loop
      vertex 15.000000 6.500000 11.000000
      vertex 9.000000 0.000000 11.000000
      vertex 15.000000 0.000000 11.000000
    endloop
  endfacet
  facet normal -0.000000 0.000000 1.000000
    outer loop
      vertex 9.000000 0.000000 11.000000
      vertex 15.000000 6.500000 11.000000
      vertex 9.000000 6.500000 11.000000
    endloop
  endfacet
  facet normal -1.000000 0.000000 0.000000
    outer loop
      vertex 9.000000 0.000000 11.000000
      vertex 9.000000 6.500000 4.000000
      vertex 9.000000 0.000000 4.000000
    endloop
  endfacet
  facet normal -1.000000 -0.000000 0.000000
    outer loop
      vertex 9.000000 6.500000 4.000000
      vertex 9.000000 0.000000 11.000000
      vertex 9.000000 6.500000 11.000000
    endloop
  endfacet
  facet normal 1.000000 0.000000 0.000000
    outer loop
      vertex 0.000000 7.500000 15.000000
      vertex 0.000000 6.500000 -10.000000
      vertex 0.000000 7.500000 -10.000000
    endloop
  endfacet
  facet normal 1.000000 0.000000 0.000000
    outer loop
      vertex 0.000000 6.500000 -10.000000
      vertex 0.000000 7.500000 15.000000
      vertex 0.000000 0.000000 -10.000000
    endloop
  endfacet
  facet normal 1.000000 -0.000000 0.000000
    outer loop
      vertex 0.000000 0.000000 -10.000000
      vertex 0.000000 7.500000 15.000000
      vertex 0.000000 0.000000 15.000000
    endloop
  endfacet
  facet normal -0.000000 -0.970143 0.242536
    outer loop
      vertex 9.000000 6.500000 11.000000
      vertex 15.000000 7.500000 15.000000
      vertex 0.000000 7.500000 15.000000
    endloop
  endfacet
  facet normal -0.000000 -0.970143 0.242536
    outer loop
      vertex 15.000000 7.500000 15.000000
      vertex 9.000000 6.500000 11.000000
      vertex 15.000000 6.500000 11.000000
    endloop
  endfacet
  facet normal -0.000000 0.000000 -1.000000
    outer loop
      vertex 0.000000 0.000000 15.000000
      vertex 15.000000 6.500000 15.000000
      vertex 15.000000 0.000000 15.000000
    endloop
  endfacet
  facet normal 0.000000 0.000000 -1.000000
    outer loop
      vertex 15.000000 6.500000 15.000000
      vertex 0.000000 0.000000 15.000000
      vertex 0.000000 7.500000 15.000000
    endloop
  endfacet
  facet normal 0.000000 -0.000000 -1.000000
    outer loop
      vertex 15.000000 6.500000 15.000000
      vertex 0.000000 7.500000 15.000000
      vertex 15.000000 7.500000 15.000000
    endloop
  endfacet
  facet normal -1.000000 0.000000 -0.000000
    outer loop
      vertex 15.000000 0.000000 15.000000
      vertex 15.000000 6.500000 11.000000
      vertex 15.000000 0.000000 11.000000
    endloop
  endfacet
  facet normal -1.000000 0.000000 -0.000000
    outer loop
      vertex 15.000000 6.500000 11.000000
      vertex 15.000000 0.000000 15.000000
      vertex 15.000000 7.500000 15.000000
    endloop
  endfacet
  facet normal 0.000000 1.000000 -0.000000
    outer loop
      vertex 15.000000 7.500000 15.000000
      vertex 15.000000 0.000000 15.000000
      vertex 15.000000 6.500000 15.000000
    endloop
  endfacet
  facet normal 0.000000 -0.000000 1.000000
    outer loop
      vertex 15.000000 2.000000 -9.700000
      vertex 14.300000 0.000000 -9.700000
      vertex 15.000000 0.000000 -9.700000
    endloop
  endfacet
  facet normal 0.000000 0.000000 1.000000
    outer loop
      vertex 14.300000 0.000000 -9.700000
      vertex 15.000000 2.000000 -9.700000
      vertex 14.300000 2.000000 -9.700000
    endloop
  endfacet
  facet normal -1.000000 0.000000 -0.000000
    outer loop
      vertex 14.300000 0.000000 -9.700000
      vertex 14.300000 2.000000 -10.000000
      vertex 14.300000 0.000000 -10.000000
    endloop
  endfacet
  facet normal -1.000000 0.000000 0.000000
    outer loop
      vertex 14.300000 2.000000 -10.000000
      vertex 14.300000 0.000000 -9.700000
      vertex 14.300000 2.000000 -9.700000
    endloop
  endfacet
  facet normal 0.000000 1.000000 -0.000000
    outer loop
      vertex 15.000000 2.000000 -9.700000
      vertex 14.300000 2.000000 -10.000000
      vertex 14.300000 2.000000 -9.700000
    endloop
  endfacet
  facet normal -0.000000 1.000000 -0.000000
    outer loop
      vertex 14.300000 2.000000 -10.000000
      vertex 15.000000 2.000000 -9.700000
      vertex 15.000000 2.000000 -10.000000
    endloop
  endfacet
  facet normal 0.000000 -0.000000 1.000000
    outer loop
      vertex 10.987762 2.000000 -9.700000
      vertex 9.787762 0.000000 -9.700000
      vertex 10.987762 0.000000 -9.700000
    endloop
  endfacet
  facet normal 0.000000 0.000000 1.000000
    outer loop
      vertex 9.787762 0.000000 -9.700000
      vertex 10.987762 2.000000 -9.700000
      vertex 9.787762 2.000000 -9.700000
    endloop
  endfacet
  facet normal -1.000000 0.000000 -0.000000
    outer loop
      vertex 9.787762 0.000000 -9.700000
      vertex 9.787762 2.000000 -10.000000
      vertex 9.787762 0.000000 -10.000000
    endloop
  endfacet
  facet normal -1.000000 0.000000 0.000000
    outer loop
      vertex 9.787762 2.000000 -10.000000
      vertex 9.787762 0.000000 -9.700000
      vertex 9.787762 2.000000 -9.700000
    endloop
  endfacet
  facet normal 0.000000 1.000000 -0.000000
    outer loop
      vertex 10.987762 2.000000 -9.700000
      vertex 9.787762 2.000000 -10.000000
      vertex 9.787762 2.000000 -9.700000
    endloop
  endfacet
  facet normal -0.000000 1.000000 -0.000000
    outer loop
      vertex 9.787762 2.000000 -10.000000
      vertex 10.987762 2.000000 -9.700000
      vertex 10.987762 2.000000 -10.000000
    endloop
  endfacet
  facet normal 1.000000 0.000000 0.000000
    outer loop
      vertex 10.987762 2.000000 -9.700000
      vertex 10.987762 0.000000 -10.000000
      vertex 10.987762 2.000000 -10.000000
    endloop
  endfacet
  facet normal 1.000000 0.000000 -0.000000
    outer loop
      vertex 10.987762 0.000000 -10.000000
      vertex 10.987762 2.000000 -9.700000
      vertex 10.987762 0.000000 -9.700000
    endloop
  endfacet
  facet normal -0.000000 -1.000000 0.000000
    outer loop
      vertex 7.987762 0.000000 -10.000000
      vertex 6.787762 0.000000 -9.700000
      vertex 6.787762 0.000000 -10.000000
    endloop
  endfacet
  facet normal 0.000000 -1.000000 0.000000
    outer loop
      vertex 6.787762 0.000000 -9.700000
      vertex 7.987762 0.000000 -10.000000
      vertex 7.987762 0.000000 -9.700000
    endloop
  endfacet
  facet normal 0.000000 -0.000000 1.000000
    outer loop
      vertex 7.987762 2.000000 -9.700000
      vertex 6.787762 0.000000 -9.700000
      vertex 7.987762 0.000000 -9.700000
    endloop
  endfacet
  facet normal 0.000000 0.000000 1.000000
    outer loop
      vertex 6.787762 0.000000 -9.700000
      vertex 7.987762 2.000000 -9.700000
      vertex 6.787762 2.000000 -9.700000
    endloop
  endfacet
  facet normal -1.000000 0.000000 -0.000000
    outer loop
      vertex 6.787762 0.000000 -9.700000
      vertex 6.787762 2.000000 -10.000000
      vertex 6.787762 0.000000 -10.000000
    endloop
  endfacet
  facet normal -1.000000 0.000000 0.000000
    outer loop
      vertex 6.787762 2.000000 -10.000000
      vertex 6.787762 0.000000 -9.700000
      vertex 6.787762 2.000000 -9.700000
    endloop
  endfacet
  facet normal 0.000000 1.000000 -0.000000
    outer loop
      vertex 7.987762 2.000000 -9.700000
      vertex 6.787762 2.000000 -10.000000
      vertex 6.787762 2.000000 -9.700000
    endloop
  endfacet
  facet normal -0.000000 1.000000 -0.000000
    outer loop
      vertex 6.787762 2.000000 -10.000000
      vertex 7.987762 2.000000 -9.700000
      vertex 7.987762 2.000000 -10.000000
    endloop
  endfacet
  facet normal 1.000000 0.000000 0.000000
    outer loop
      vertex 7.987762 2.000000 -9.700000
      vertex 7.987762 0.000000 -10.000000
      vertex 7.987762 2.000000 -10.000000
    endloop
  endfacet
  facet normal 1.000000 0.000000 -0.000000
    outer loop
      vertex 7.987762 0.000000 -10.000000
      vertex 7.987762 2.000000 -9.700000
      vertex 7.987762 0.000000 -9.700000
    endloop
  endfacet
  facet normal -0.000000 -1.000000 0.000000
    outer loop
      vertex 4.987762 0.000000 -10.000000
      vertex 3.787762 0.000000 -9.700000
      vertex 3.787762 0.000000 -10.000000
    endloop
  endfacet
  facet normal 0.000000 -1.000000 0.000000
    outer loop
      vertex 3.787762 0.000000 -9.700000
      vertex 4.987762 0.000000 -10.000000
      vertex 4.987762 0.000000 -9.700000
    endloop
  endfacet
  facet normal 0.000000 -0.000000 1.000000
    outer loop
      vertex 4.987762 2.000000 -9.700000
      vertex 3.787762 0.000000 -9.700000
      vertex 4.987762 0.000000 -9.700000
    endloop
  endfacet
  facet normal 0.000000 0.000000 1.000000
    outer loop
      vertex 3.787762 0.000000 -9.700000
      vertex 4.987762 2.000000 -9.700000
      vertex 3.787762 2.000000 -9.700000
    endloop
  endfacet
  facet normal -1.000000 0.000000 -0.000000
    outer loop
      vertex 3.787762 0.000000 -9.700000
      vertex 3.787762 2.000000 -10.000000
      vertex 3.787762 0.000000 -10.000000
    endloop
  endfacet
  facet normal -1.000000 0.000000 0.000000
    outer loop
      vertex 3.787762 2.000000 -10.000000
      vertex 3.787762 0.000000 -9.700000
      vertex 3.787762 2.000000 -9.700000
    endloop
  endfacet
  facet normal 0.000000 1.000000 -0.000000
    outer loop
      vertex 4.987762 2.000000 -9.700000
      vertex 3.787762 2.000000 -10.000000
      vertex 3.787762 2.000000 -9.700000
    endloop
  endfacet
  facet normal -0.000000 1.000000 -0.000000
    outer loop
      vertex 3.787762 2.000000 -10.000000
      vertex 4.987762 2.000000 -9.700000
      vertex 4.987762 2.000000 -10.000000
    endloop
  endfacet
  facet normal 1.000000 0.000000 0.000000
    outer loop
      vertex 4.987762 2.000000 -9.700000
      vertex 4.987762 0.000000 -10.000000
      vertex 4.987762 2.000000 -10.000000
    endloop
  endfacet
  facet normal 1.000000 0.000000 -0.000000
    outer loop
      vertex 4.987762 0.000000 -10.000000
      vertex 4.987762 2.000000 -9.700000
      vertex 4.987762 0.000000 -9.700000
    endloop
  endfacet
  facet normal -0.000000 -1.000000 0.000000
    outer loop
      vertex 1.987762 0.000000 -10.000000
      vertex 0.787762 0.000000 -9.700000
      vertex 0.787762 0.000000 -10.000000
    endloop
  endfacet
  facet normal 0.000000 -1.000000 0.000000
    outer loop
      vertex 0.787762 0.000000 -9.700000
      vertex 1.987762 0.000000 -10.000000
      vertex 1.987762 0.000000 -9.700000
    endloop
  endfacet
  facet normal 0.000000 -0.000000 1.000000
    outer loop
      vertex 1.987762 2.000000 -9.700000
      vertex 0.787762 0.000000 -9.700000
      vertex 1.987762 0.000000 -9.700000
    endloop
  endfacet
  facet normal 0.000000 0.000000 1.000000
    outer loop
      vertex 0.787762 0.000000 -9.700000
      vertex 1.987762 2.000000 -9.700000
      vertex 0.787762 2.000000 -9.700000
    endloop
  endfacet
  facet normal -1.000000 0.000000 -0.000000
    outer loop
      vertex 0.787762 0.000000 -9.700000
      vertex 0.787762 2.000000 -10.000000
      vertex 0.787762 0.000000 -10.000000
    endloop
  endfacet
  facet normal -1.000000 0.000000 0.000000
    outer loop
      vertex 0.787762 2.000000 -10.000000
      vertex 0.787762 0.000000 -9.700000
      vertex 0.787762 2.000000 -9.700000
    endloop
  endfacet
  facet normal 0.000000 1.000000 -0.000000
    outer loop
      vertex 1.987762 2.000000 -9.700000
      vertex 0.787762 2.000000 -10.000000
      vertex 0.787762 2.000000 -9.700000
    endloop
  endfacet
  facet normal -0.000000 1.000000 -0.000000
    outer loop
      vertex 0.787762 2.000000 -10.000000
      vertex 1.987762 2.000000 -9.700000
      vertex 1.987762 2.000000 -10.000000
    endloop
  endfacet
  facet normal 1.000000 0.000000 0.000000
    outer loop
      vertex 1.987762 2.000000 -9.700000
      vertex 1.987762 0.000000 -10.000000
      vertex 1.987762 2.000000 -10.000000
    endloop
  endfacet
  facet normal 1.000000 0.000000 -0.000000
    outer loop
      vertex 1.987762 0.000000 -10.000000
      vertex 1.987762 2.000000 -9.700000
      vertex 1.987762 0.000000 -9.700000
    endloop
  endfacet
  facet normal -0.000000 -1.000000 0.000000
    outer loop
      vertex 3.787762 0.000000 -10.000000
      vertex 1.987762 0.000000 -9.700000
      vertex 1.987762 0.000000 -10.000000
    endloop
  endfacet
  facet normal -0.000000 -1.000000 0.000000
    outer loop
      vertex 6.787762 0.000000 -10.000000
      vertex 4.987762 0.000000 -9.700000
      vertex 4.987762 0.000000 -10.000000
    endloop
  endfacet
  facet normal -0.000000 -1.000000 0.000000
    outer loop
      vertex 14.300000 0.000000 -10.000000
      vertex 10.987762 0.000000 -9.700000
      vertex 10.987762 0.000000 -10.000000
    endloop
  endfacet
  facet normal -0.000000 -1.000000 0.000000
    outer loop
      vertex 9.787762 0.000000 -10.000000
      vertex 7.987762 0.000000 -9.700000
      vertex 7.987762 0.000000 -10.000000
    endloop
  endfacet
  facet normal -0.000000 -1.000000 0.000000
    outer loop
      vertex 7.987762 0.000000 -9.700000
      vertex 9.787762 0.000000 -10.000000
      vertex 9.000000 0.000000 4.000000
    endloop
  endfacet
  facet normal -0.000000 -1.000000 0.000000
    outer loop
      vertex 9.000000 0.000000 4.000000
      vertex 9.787762 0.000000 -10.000000
      vertex 9.787762 0.000000 -9.700000
    endloop
  endfacet
  facet normal 0.000000 -1.000000 0.000000
    outer loop
      vertex 9.000000 0.000000 4.000000
      vertex 9.787762 0.000000 -9.700000
      vertex 15.000000 0.000000 4.000000
    endloop
  endfacet
  facet normal 0.000000 -1.000000 0.000000
    outer loop
      vertex 15.000000 0.000000 4.000000
      vertex 9.787762 0.000000 -9.700000
      vertex 10.987762 0.000000 -9.700000
    endloop
  endfacet
  facet normal -0.000000 -1.000000 0.000000
    outer loop
      vertex 15.000000 0.000000 4.000000
      vertex 10.987762 0.000000 -9.700000
      vertex 14.300000 0.000000 -9.700000
    endloop
  endfacet
  facet normal -0.000000 -1.000000 -0.000000
    outer loop
      vertex 14.300000 0.000000 -9.700000
      vertex 10.987762 0.000000 -9.700000
      vertex 14.300000 0.000000 -10.000000
    endloop
  endfacet
  facet normal 0.000000 -1.000000 0.000000
    outer loop
      vertex 15.000000 0.000000 4.000000
      vertex 14.300000 0.000000 -9.700000
      vertex 15.000000 0.000000 -9.700000
    endloop
  endfacet
  facet normal -0.000000 -1.000000 -0.000000
    outer loop
      vertex 0.000000 0.000000 15.000000
      vertex 9.000000 0.000000 11.000000
      vertex 15.000000 0.000000 15.000000
    endloop
  endfacet
  facet normal 0.000000 -1.000000 0.000000
    outer loop
      vertex 9.000000 0.000000 11.000000
      vertex 0.000000 0.000000 15.000000
      vertex 0.000000 0.000000 -10.000000
    endloop
  endfacet
  facet normal 0.000000 -1.000000 -0.000000
    outer loop
      vertex 9.000000 0.000000 11.000000
      vertex 0.000000 0.000000 -10.000000
      vertex 0.787762 0.000000 -9.700000
    endloop
  endfacet
  facet normal 0.000000 -1.000000 0.000000
    outer loop
      vertex 0.787762 0.000000 -9.700000
      vertex 0.000000 0.000000 -10.000000
      vertex 0.787762 0.000000 -10.000000
    endloop
  endfacet
  facet normal 0.000000 -1.000000 -0.000000
    outer loop
      vertex 9.000000 0.000000 11.000000
      vertex 0.787762 0.000000 -9.700000
      vertex 1.987762 0.000000 -9.700000
    endloop
  endfacet
  facet normal -0.000000 -1.000000 0.000000
    outer loop
      vertex 9.000000 0.000000 11.000000
      vertex 1.987762 0.000000 -9.700000
      vertex 3.787762 0.000000 -9.700000
    endloop
  endfacet
  facet normal -0.000000 -1.000000 0.000000
    outer loop
      vertex 3.787762 0.000000 -9.700000
      vertex 1.987762 0.000000 -9.700000
      vertex 3.787762 0.000000 -10.000000
    endloop
  endfacet
  facet normal 0.000000 -1.000000 -0.000000
    outer loop
      vertex 9.000000 0.000000 11.000000
      vertex 3.787762 0.000000 -9.700000
      vertex 4.987762 0.000000 -9.700000
    endloop
  endfacet
  facet normal -0.000000 -1.000000 0.000000
    outer loop
      vertex 9.000000 0.000000 11.000000
      vertex 4.987762 0.000000 -9.700000
      vertex 6.787762 0.000000 -9.700000
    endloop
  endfacet
  facet normal -0.000000 -1.000000 0.000000
    outer loop
      vertex 6.787762 0.000000 -9.700000
      vertex 4.987762 0.000000 -9.700000
      vertex 6.787762 0.000000 -10.000000
    endloop
  endfacet
  facet normal 0.000000 -1.000000 0.000000
    outer loop
      vertex 9.000000 0.000000 11.000000
      vertex 6.787762 0.000000 -9.700000
      vertex 7.987762 0.000000 -9.700000
    endloop
  endfacet
  facet normal 0.000000 -1.000000 -0.000000
    outer loop
      vertex 9.000000 0.000000 11.000000
      vertex 7.987762 0.000000 -9.700000
      vertex 9.000000 0.000000 4.000000
    endloop
  endfacet
  facet normal -0.000000 -1.000000 -0.000000
    outer loop
      vertex 15.000000 0.000000 15.000000
      vertex 9.000000 0.000000 11.000000
      vertex 15.000000 0.000000 11.000000
    endloop
  endfacet
  facet normal -1.000000 0.000000 0.000000
    outer loop
      vertex 15.000000 0.000000 4.000000
      vertex 15.000000 2.000000 -9.700000
      vertex 15.000000 0.000000 -9.700000
    endloop
  endfacet
  facet normal -1.000000 0.000000 -0.000000
    outer loop
      vertex 15.000000 2.000000 -9.700000
      vertex 15.000000 7.500000 -10.000000
      vertex 15.000000 2.000000 -10.000000
    endloop
  endfacet
  facet normal -1.000000 0.000000 -0.000000
    outer loop
      vertex 15.000000 7.500000 -10.000000
      vertex 15.000000 2.000000 -9.700000
      vertex 15.000000 6.500000 4.000000
    endloop
  endfacet
  facet normal -1.000000 -0.000000 0.000000
    outer loop
      vertex 15.000000 6.500000 4.000000
      vertex 15.000000 2.000000 -9.700000
      vertex 15.000000 0.000000 4.000000
    endloop
  endfacet
  facet normal 0.000000 0.000000 1.000000
    outer loop
      vertex 15.000000 7.500000 -10.000000
      vertex 14.300000 2.000000 -10.000000
      vertex 15.000000 2.000000 -10.000000
    endloop
  endfacet
  facet normal 0.000000 0.000000 1.000000
    outer loop
      vertex 14.300000 2.000000 -10.000000
      vertex 15.000000 7.500000 -10.000000
      vertex 10.987762 2.000000 -10.000000
    endloop
  endfacet
  facet normal 0.000000 0.000000 1.000000
    outer loop
      vertex 10.987762 2.000000 -10.000000
      vertex 15.000000 7.500000 -10.000000
      vertex 9.787762 2.000000 -10.000000
    endloop
  endfacet
  facet normal 0.000000 0.000000 1.000000
    outer loop
      vertex 9.787762 2.000000 -10.000000
      vertex 15.000000 7.500000 -10.000000
      vertex 10.987762 4.100000 -10.000000
    endloop
  endfacet
  facet normal 0.000000 0.000000 1.000000
    outer loop
      vertex 9.787762 2.000000 -10.000000
      vertex 10.987762 4.100000 -10.000000
      vertex 7.987762 2.000000 -10.000000
    endloop
  endfacet
  facet normal 0.000000 0.000000 1.000000
    outer loop
      vertex 7.987762 2.000000 -10.000000
      vertex 10.987762 4.100000 -10.000000
      vertex 6.787762 2.000000 -10.000000
    endloop
  endfacet
  facet normal 0.000000 0.000000 1.000000
    outer loop
      vertex 6.787762 2.000000 -10.000000
      vertex 10.987762 4.100000 -10.000000
      vertex 4.987762 2.000000 -10.000000
    endloop
  endfacet
  facet normal 0.000000 0.000000 1.000000
    outer loop
      vertex 4.987762 2.000000 -10.000000
      vertex 10.987762 4.100000 -10.000000
      vertex 3.787762 2.000000 -10.000000
    endloop
  endfacet
  facet normal 0.000000 0.000000 1.000000
    outer loop
      vertex 3.787762 2.000000 -10.000000
      vertex 10.987762 4.100000 -10.000000
      vertex 1.987762 2.000000 -10.000000
    endloop
  endfacet
  facet normal 0.000000 0.000000 1.000000
    outer loop
      vertex 1.987762 2.000000 -10.000000
      vertex 10.987762 4.100000 -10.000000
      vertex 0.787762 2.000000 -10.000000
    endloop
  endfacet
  facet normal 0.000000 0.000000 1.000000
    outer loop
      vertex 10.987762 4.100000 -10.000000
      vertex 15.000000 7.500000 -10.000000
      vertex 10.987762 5.000000 -10.000000
    endloop
  endfacet
  facet normal 0.000000 0.000000 1.000000
    outer loop
      vertex 10.987762 5.000000 -10.000000
      vertex 15.000000 7.500000 -10.000000
      vertex 9.787762 5.000000 -10.000000
    endloop
  endfacet
  facet normal 0.000000 0.000000 1.000000
    outer loop
      vertex 9.787762 5.000000 -10.000000
      vertex 15.000000 7.500000 -10.000000
      vertex 4.987762 5.000000 -10.000000
    endloop
  endfacet
  facet normal 0.000000 0.000000 1.000000
    outer loop
      vertex 4.987762 5.000000 -10.000000
      vertex 15.000000 7.500000 -10.000000
      vertex 3.787762 5.000000 -10.000000
    endloop
  endfacet
  facet normal -0.000000 0.000000 1.000000
    outer loop
      vertex 3.787762 5.000000 -10.000000
      vertex 15.000000 7.500000 -10.000000
      vertex 0.000000 6.500000 -10.000000
    endloop
  endfacet
  facet normal -0.000000 0.000000 1.000000
    outer loop
      vertex 0.000000 6.500000 -10.000000
      vertex 15.000000 7.500000 -10.000000
      vertex 0.000000 7.500000 -10.000000
    endloop
  endfacet
  facet normal -0.000000 0.000000 1.000000
    outer loop
      vertex 0.787762 0.000000 -10.000000
      vertex 0.000000 6.500000 -10.000000
      vertex 0.000000 0.000000 -10.000000
    endloop
  endfacet
  facet normal -0.000000 0.000000 1.000000
    outer loop
      vertex 0.000000 6.500000 -10.000000
      vertex 0.787762 0.000000 -10.000000
      vertex 0.787762 2.000000 -10.000000
    endloop
  endfacet
  facet normal -0.000000 0.000000 1.000000
    outer loop
      vertex 0.000000 6.500000 -10.000000
      vertex 0.787762 2.000000 -10.000000
      vertex 3.787762 4.100000 -10.000000
    endloop
  endfacet
  facet normal 0.000000 -0.000000 1.000000
    outer loop
      vertex 3.787762 4.100000 -10.000000
      vertex 0.787762 2.000000 -10.000000
      vertex 9.787762 4.100000 -10.000000
    endloop
  endfacet
  facet normal 0.000000 -0.000000 1.000000
    outer loop
      vertex 9.787762 4.100000 -10.000000
      vertex 0.787762 2.000000 -10.000000
      vertex 10.987762 4.100000 -10.000000
    endloop
  endfacet
  facet normal 0.000000 0.000000 1.000000
    outer loop
      vertex 3.787762 4.100000 -10.000000
      vertex 9.787762 4.100000 -10.000000
      vertex 4.987762 4.100000 -10.000000
    endloop
  endfacet
  facet normal -0.000000 0.000000 1.000000
    outer loop
      vertex 0.000000 6.500000 -10.000000
      vertex 3.787762 4.100000 -10.000000
      vertex 3.787762 5.000000 -10.000000
    endloop
  endfacet
  facet normal 0.000000 -0.000000 1.000000
    outer loop
      vertex 9.787762 5.000000 -10.000000
      vertex 4.987762 4.100000 -10.000000
      vertex 9.787762 4.100000 -10.000000
    endloop
  endfacet
  facet normal 0.000000 0.000000 1.000000
    outer loop
      vertex 4.987762 4.100000 -10.000000
      vertex 9.787762 5.000000 -10.000000
      vertex 4.987762 5.000000 -10.000000
    endloop
  endfacet
  facet normal 0.000000 -0.000000 1.000000
    outer loop
      vertex 3.787762 2.000000 -10.000000
      vertex 1.987762 0.000000 -10.000000
      vertex 3.787762 0.000000 -10.000000
    endloop
  endfacet
  facet normal 0.000000 0.000000 1.000000
    outer loop
      vertex 1.987762 0.000000 -10.000000
      vertex 3.787762 2.000000 -10.000000
      vertex 1.987762 2.000000 -10.000000
    endloop
  endfacet
  facet normal 0.000000 -0.000000 1.000000
    outer loop
      vertex 6.787762 2.000000 -10.000000
      vertex 4.987762 0.000000 -10.000000
      vertex 6.787762 0.000000 -10.000000
    endloop
  endfacet
  facet normal 0.000000 0.000000 1.000000
    outer loop
      vertex 4.987762 0.000000 -10.000000
      vertex 6.787762 2.000000 -10.000000
      vertex 4.987762 2.000000 -10.000000
    endloop
  endfacet
  facet normal 0.000000 -0.000000 1.000000
    outer loop
      vertex 9.787762 2.000000 -10.000000
      vertex 7.987762 0.000000 -10.000000
      vertex 9.787762 0.000000 -10.000000
    endloop
  endfacet
  facet normal 0.000000 0.000000 1.000000
    outer loop
      vertex 7.987762 0.000000 -10.000000
      vertex 9.787762 2.000000 -10.000000
      vertex 7.987762 2.000000 -10.000000
    endloop
  endfacet
  facet normal 0.000000 -0.000000 1.000000
    outer loop
      vertex 14.300000 2.000000 -10.000000
      vertex 10.987762 0.000000 -10.000000
      vertex 14.300000 0.000000 -10.000000
    endloop
  endfacet
  facet normal 0.000000 0.000000 1.000000
    outer loop
      vertex 10.987762 0.000000 -10.000000
      vertex 14.300000 2.000000 -10.000000
      vertex 10.987762 2.000000 -10.000000
    endloop
  endfacet
  facet normal 1.000000 0.000000 0.000000
    outer loop
      vertex 10.987762 5.000000 -9.700000
      vertex 10.987762 4.100000 -10.000000
      vertex 10.987762 5.000000 -10.000000
    endloop
  endfacet
  facet normal 1.000000 0.000000 -0.000000
    outer loop
      vertex 10.987762 4.100000 -10.000000
      vertex 10.987762 5.000000 -9.700000
      vertex 10.987762 4.100000 -9.700000
    endloop
  endfacet
  facet normal 0.000000 -0.000000 1.000000
    outer loop
      vertex 10.987762 5.000000 -9.700000
      vertex 9.787762 4.100000 -9.700000
      vertex 10.987762 4.100000 -9.700000
    endloop
  endfacet
  facet normal 0.000000 0.000000 1.000000
    outer loop
      vertex 9.787762 4.100000 -9.700000
      vertex 10.987762 5.000000 -9.700000
      vertex 9.787762 5.000000 -9.700000
    endloop
  endfacet
  facet normal 0.000000 1.000000 0.000000
    outer loop
      vertex 10.987762 5.000000 -9.700000
      vertex 9.787762 5.000000 -10.000000
      vertex 9.787762 5.000000 -9.700000
    endloop
  endfacet
  facet normal 0.000000 1.000000 0.000000
    outer loop
      vertex 9.787762 5.000000 -10.000000
      vertex 10.987762 5.000000 -9.700000
      vertex 10.987762 5.000000 -10.000000
    endloop
  endfacet
  facet normal -1.000000 0.000000 -0.000000
    outer loop
      vertex 9.787762 4.100000 -9.700000
      vertex 9.787762 5.000000 -10.000000
      vertex 9.787762 4.100000 -10.000000
    endloop
  endfacet
  facet normal -1.000000 0.000000 -0.000000
    outer loop
      vertex 9.787762 5.000000 -10.000000
      vertex 9.787762 4.100000 -9.700000
      vertex 9.787762 5.000000 -9.700000
    endloop
  endfacet
  facet normal -0.000000 -1.000000 -0.000000
    outer loop
      vertex 10.987762 4.100000 -10.000000
      vertex 9.787762 4.100000 -9.700000
      vertex 9.787762 4.100000 -10.000000
    endloop
  endfacet
  facet normal 0.000000 -1.000000 -0.000000
    outer loop
      vertex 9.787762 4.100000 -9.700000
      vertex 10.987762 4.100000 -10.000000
      vertex 10.987762 4.100000 -9.700000
    endloop
  endfacet
  facet normal 0.000000 -0.000000 1.000000
    outer loop
      vertex 4.987762 5.000000 -9.700000
      vertex 3.787762 4.100000 -9.700000
      vertex 4.987762 4.100000 -9.700000
    endloop
  endfacet
  facet normal 0.000000 0.000000 1.000000
    outer loop
      vertex 3.787762 4.100000 -9.700000
      vertex 4.987762 5.000000 -9.700000
      vertex 3.787762 5.000000 -9.700000
    endloop
  endfacet
  facet normal 1.000000 0.000000 0.000000
    outer loop
      vertex 4.987762 5.000000 -9.700000
      vertex 4.987762 4.100000 -10.000000
      vertex 4.987762 5.000000 -10.000000
    endloop
  endfacet
  facet normal 1.000000 0.000000 -0.000000
    outer loop
      vertex 4.987762 4.100000 -10.000000
      vertex 4.987762 5.000000 -9.700000
      vertex 4.987762 4.100000 -9.700000
    endloop
  endfacet
  facet normal -0.000000 -1.000000 -0.000000
    outer loop
      vertex 4.987762 4.100000 -10.000000
      vertex 3.787762 4.100000 -9.700000
      vertex 3.787762 4.100000 -10.000000
    endloop
  endfacet
  facet normal 0.000000 -1.000000 -0.000000
    outer loop
      vertex 3.787762 4.100000 -9.700000
      vertex 4.987762 4.100000 -10.000000
      vertex 4.987762 4.100000 -9.700000
    endloop
  endfacet
  facet normal -1.000000 0.000000 -0.000000
    outer loop
      vertex 3.787762 4.100000 -9.700000
      vertex 3.787762 5.000000 -10.000000
      vertex 3.787762 4.100000 -10.000000
    endloop
  endfacet
  facet normal -1.000000 0.000000 -0.000000
    outer loop
      vertex 3.787762 5.000000 -10.000000
      vertex 3.787762 4.100000 -9.700000
      vertex 3.787762 5.000000 -9.700000
    endloop
  endfacet
  facet normal 0.000000 1.000000 0.000000
    outer loop
      vertex 4.987762 5.000000 -9.700000
      vertex 3.787762 5.000000 -10.000000
      vertex 3.787762 5.000000 -9.700000
    endloop
  endfacet
  facet normal 0.000000 1.000000 0.000000
    outer loop
      vertex 3.787762 5.000000 -10.000000
      vertex 4.987762 5.000000 -9.700000
      vertex 4.987762 5.000000 -10.000000
    endloop
  endfacet
endsolid rr22
