solid w2w2
  facet normal -0.000000 0.970143 -0.242536
    outer loop
      vertex 15.000000 7.500000 -0.000000
      vertex 4.000000 6.500000 -4.000000
      vertex 4.000000 7.500000 0.000000
    endloop
  endfacet
  facet normal -0.000000 0.970143 -0.242536
    outer loop
      vertex 4.000000 6.500000 -4.000000
      vertex 15.000000 7.500000 -0.000000
      vertex 9.000000 6.500000 -4.000000
    endloop
  endfacet
  facet normal 0.000000 0.970143 -0.242536
    outer loop
      vertex 9.000000 6.500000 -4.000000
      vertex 15.000000 7.500000 -0.000000
      vertex 11.000000 6.500000 -4.000000
    endloop
  endfacet
  facet normal 1.000000 -0.000000 -0.000000
    outer loop
      vertex 15.000000 0.000000 -15.000000
      vertex 15.000000 7.500000 -0.000000
      vertex 15.000000 0.000000 -0.000000
    endloop
  endfacet
  facet normal 1.000000 0.000000 -0.000000
    outer loop
      vertex 15.000000 7.500000 -0.000000
      vertex 15.000000 0.000000 -15.000000
      vertex 15.000000 7.500000 -15.000000
    endloop
  endfacet
  facet normal 0.000000 1.000000 -0.000000
    outer loop
      vertex 15.000000 7.500000 -15.000000
      vertex 15.000000 0.000000 -15.000000
      vertex 15.000000 6.500000 -15.000000
    endloop
  endfacet
  facet normal -0.000000 0.000000 1.000000
    outer loop
      vertex 11.000000 6.500000 -11.000000
      vertex 4.000000 0.000000 -11.000000
      vertex 11.000000 0.000000 -11.000000
    endloop
  endfacet
  facet normal 0.000000 -0.000000 1.000000
    outer loop
      vertex 4.000000 0.000000 -11.000000
      vertex 11.000000 6.500000 -11.000000
      vertex 4.000000 6.500000 -11.000000
    endloop
  endfacet
  facet normal 0.000000 0.970143 0.242536
    outer loop
      vertex 4.000000 6.500000 -11.000000
      vertex 15.000000 7.500000 -15.000000
      vertex -0.000000 7.500000 -15.000000
    endloop
  endfacet
  facet normal 0.000000 0.970143 0.242536
    outer loop
      vertex 15.000000 7.500000 -15.000000
      vertex 4.000000 6.500000 -11.000000
      vertex 11.000000 6.500000 -11.000000
    endloop
  endfacet
  facet normal 1.000000 0.000000 0.000000
    outer loop
      vertex 4.000000 0.000000 -11.000000
      vertex 4.000000 6.500000 -4.000000
      vertex 4.000000 0.000000 -4.000000
    endloop
  endfacet
  facet normal 1.000000 0.000000 0.000000
    outer loop
      vertex 4.000000 6.500000 -4.000000
      vertex 4.000000 0.000000 -11.000000
      vertex 4.000000 6.500000 -11.000000
    endloop
  endfacet
  facet normal 0.000000 1.000000 0.000000
    outer loop
      vertex 11.000000 6.500000 -4.000000
      vertex 11.000000 6.500000 -11.000000
      vertex 11.000000 6.500000 -6.000000
    endloop
  endfacet
  facet normal -0.242536 0.970143 -0.000000
    outer loop
      vertex 11.000000 6.500000 -11.000000
      vertex 11.000000 6.500000 -4.000000
      vertex 15.000000 7.500000 -0.000000
    endloop
  endfacet
  facet normal -0.242536 0.970143 0.000000
    outer loop
      vertex 11.000000 6.500000 -11.000000
      vertex 15.000000 7.500000 -0.000000
      vertex 15.000000 7.500000 -15.000000
    endloop
  endfacet
  facet normal 0.000000 0.000000 -1.000000
    outer loop
      vertex 4.000000 6.500000 -4.000000
      vertex 11.000000 0.000000 -4.000000
      vertex 4.000000 0.000000 -4.000000
    endloop
  endfacet
  facet normal 0.000000 -0.000000 -1.000000
    outer loop
      vertex 11.000000 0.000000 -4.000000
      vertex 4.000000 6.500000 -4.000000
      vertex 11.000000 6.500000 -4.000000
    endloop
  endfacet
  facet normal 0.000000 -1.000000 -0.000000
    outer loop
      vertex 11.000000 6.500000 -4.000000
      vertex 4.000000 6.500000 -4.000000
      vertex 9.000000 6.500000 -4.000000
    endloop
  endfacet
  facet normal 0.000000 1.000000 -0.000000
    outer loop
      vertex 11.000000 0.000000 -4.000000
      vertex 4.000000 0.000000 -11.000000
      vertex 4.000000 0.000000 -4.000000
    endloop
  endfacet
  facet normal 0.000000 1.000000 -0.000000
    outer loop
      vertex 4.000000 0.000000 -11.000000
      vertex 11.000000 0.000000 -4.000000
      vertex 11.000000 0.000000 -11.000000
    endloop
  endfacet
  facet normal -1.000000 0.000000 0.000000
    outer loop
      vertex 11.000000 6.500000 -6.000000
      vertex 11.000000 0.000000 -4.000000
      vertex 11.000000 6.500000 -4.000000
    endloop
  endfacet
  facet normal -1.000000 -0.000000 -0.000000
    outer loop
      vertex 11.000000 0.000000 -4.000000
      vertex 11.000000 6.500000 -6.000000
      vertex 11.000000 0.000000 -11.000000
    endloop
  endfacet
  facet normal -1.000000 -0.000000 -0.000000
    outer loop
      vertex 11.000000 0.000000 -11.000000
      vertex 11.000000 6.500000 -6.000000
      vertex 11.000000 6.500000 -11.000000
    endloop
  endfacet
  facet normal -1.000000 0.000000 0.000000
    outer loop
      vertex -0.000000 7.500000 -15.000000
      vertex -0.000000 6.500000 0.000000
      vertex -0.000000 7.500000 0.000000
    endloop
  endfacet
  facet normal -1.000000 0.000000 0.000000
    outer loop
      vertex -0.000000 6.500000 0.000000
      vertex -0.000000 7.500000 -15.000000
      vertex -0.000000 0.000000 0.000000
    endloop
  endfacet
  facet normal -1.000000 0.000000 0.000000
    outer loop
      vertex -0.000000 0.000000 0.000000
      vertex -0.000000 7.500000 -15.000000
      vertex -0.000000 0.000000 -15.000000
    endloop
  endfacet
  facet normal 0.000000 -0.000000 1.000000
    outer loop
      vertex 15.000000 7.500000 -0.000000
      vertex -0.000000 0.000000 0.000000
      vertex 15.000000 0.000000 -0.000000
    endloop
  endfacet
  facet normal 0.000000 -0.000000 1.000000
    outer loop
      vertex -0.000000 0.000000 0.000000
      vertex 15.000000 7.500000 -0.000000
      vertex 4.000000 6.500000 0.000000
    endloop
  endfacet
  facet normal 0.000000 0.000000 1.000000
    outer loop
      vertex 4.000000 6.500000 0.000000
      vertex 15.000000 7.500000 -0.000000
      vertex 4.000000 7.500000 0.000000
    endloop
  endfacet
  facet normal -0.000000 0.000000 1.000000
    outer loop
      vertex 4.000000 6.500000 0.000000
      vertex -0.000000 6.500000 0.000000
      vertex -0.000000 0.000000 0.000000
    endloop
  endfacet
  facet normal -0.000000 0.000000 1.000000
    outer loop
      vertex -0.000000 6.500000 0.000000
      vertex 4.000000 6.500000 0.000000
      vertex -0.000000 7.500000 0.000000
    endloop
  endfacet
  facet normal 0.000000 1.000000 0.000000
    outer loop
      vertex 15.000000 0.000000 -0.000000
      vertex 4.000000 0.000000 -4.000000
      vertex -0.000000 0.000000 0.000000
    endloop
  endfacet
  facet normal 0.000000 1.000000 0.000000
    outer loop
      vertex 4.000000 0.000000 -4.000000
      vertex 15.000000 0.000000 -0.000000
      vertex 11.000000 0.000000 -4.000000
    endloop
  endfacet
  facet normal 0.000000 1.000000 0.000000
    outer loop
      vertex 11.000000 0.000000 -4.000000
      vertex 15.000000 0.000000 -0.000000
      vertex 11.000000 0.000000 -11.000000
    endloop
  endfacet
  facet normal 0.000000 1.000000 -0.000000
    outer loop
      vertex 11.000000 0.000000 -11.000000
      vertex 15.000000 0.000000 -0.000000
      vertex 15.000000 0.000000 -15.000000
    endloop
  endfacet
  facet normal 0.000000 1.000000 -0.000000
    outer loop
      vertex -0.000000 0.000000 -15.000000
      vertex 4.000000 0.000000 -11.000000
      vertex 15.000000 0.000000 -15.000000
    endloop
  endfacet
  facet normal -0.000000 1.000000 0.000000
    outer loop
      vertex 4.000000 0.000000 -11.000000
      vertex -0.000000 0.000000 -15.000000
      vertex -0.000000 0.000000 0.000000
    endloop
  endfacet
  facet normal -0.000000 1.000000 -0.000000
    outer loop
      vertex 4.000000 0.000000 -11.000000
      vertex -0.000000 0.000000 0.000000
      vertex 4.000000 0.000000 -4.000000
    endloop
  endfacet
  facet normal 0.000000 1.000000 -0.000000
    outer loop
      vertex 15.000000 0.000000 -15.000000
      vertex 4.000000 0.000000 -11.000000
      vertex 11.000000 0.000000 -11.000000
    endloop
  endfacet
  facet normal -0.000000 0.000000 -1.000000
    outer loop
      vertex -0.000000 0.000000 -15.000000
      vertex 15.000000 6.500000 -15.000000
      vertex 15.000000 0.000000 -15.000000
    endloop
  endfacet
  facet normal 0.000000 0.000000 -1.000000
    outer loop
      vertex 15.000000 6.500000 -15.000000
      vertex -0.000000 0.000000 -15.000000
      vertex -0.000000 7.500000 -15.000000
    endloop
  endfacet
  facet normal 0.000000 -0.000000 -1.000000
    outer loop
      vertex 15.000000 6.500000 -15.000000
      vertex -0.000000 7.500000 -15.000000
      vertex 15.000000 7.500000 -15.000000
    endloop
  endfacet
  facet normal 0.242536 0.970143 -0.000000
    outer loop
      vertex -0.000000 7.500000 0.000000
      vertex 4.000000 6.500000 -11.000000
      vertex -0.000000 7.500000 -15.000000
    endloop
  endfacet
  facet normal 0.242536 0.970143 0.000000
    outer loop
      vertex 4.000000 6.500000 -11.000000
      vertex -0.000000 7.500000 0.000000
      vertex 4.000000 6.500000 0.000000
    endloop
  endfacet
  facet normal -0.020829 0.999783 -0.000000
    outer loop
      vertex 4.000000 6.500000 -11.000000
      vertex 4.000000 6.500000 0.000000
      vertex 4.000000 6.500000 -4.000000
    endloop
  endfacet
  facet normal -1.000000 0.000000 -0.000000
    outer loop
      vertex 4.000000 6.500000 -4.000000
      vertex 4.000000 6.500000 0.000000
      vertex 4.000000 7.500000 0.000000
    endloop
  endfacet
  facet normal 0.000000 0.970143 0.242536
    outer loop
      vertex -15.000000 7.500000 -0.000000
      vertex -4.000000 6.500000 4.000000
      vertex -4.000000 7.500000 -0.000000
    endloop
  endfacet
  facet normal 0.000000 0.970143 0.242536
    outer loop
      vertex -4.000000 6.500000 4.000000
      vertex -15.000000 7.500000 -0.000000
      vertex -9.000000 6.500000 4.000000
    endloop
  endfacet
  facet normal -0.000000 0.970143 0.242536
    outer loop
      vertex -9.000000 6.500000 4.000000
      vertex -15.000000 7.500000 -0.000000
      vertex -11.000000 6.500000 4.000000
    endloop
  endfacet
  facet normal -1.000000 -0.000000 0.000000
    outer loop
      vertex -15.000000 0.000000 15.000000
      vertex -15.000000 7.500000 -0.000000
      vertex -15.000000 0.000000 -0.000000
    endloop
  endfacet
  facet normal -1.000000 0.000000 0.000000
    outer loop
      vertex -15.000000 7.500000 -0.000000
      vertex -15.000000 0.000000 15.000000
      vertex -15.000000 7.500000 15.000000
    endloop
  endfacet
  facet normal 0.000000 1.000000 -0.000000
    outer loop
      vertex -15.000000 7.500000 15.000000
      vertex -15.000000 0.000000 15.000000
      vertex -15.000000 6.500000 15.000000
    endloop
  endfacet
  facet normal 0.000000 0.000000 -1.000000
    outer loop
      vertex -11.000000 6.500000 11.000000
      vertex -4.000000 0.000000 11.000000
      vertex -11.000000 0.000000 11.000000
    endloop
  endfacet
  facet normal -0.000000 -0.000000 -1.000000
    outer loop
      vertex -4.000000 0.000000 11.000000
      vertex -11.000000 6.500000 11.000000
      vertex -4.000000 6.500000 11.000000
    endloop
  endfacet
  facet normal -0.000000 0.970143 -0.242536
    outer loop
      vertex -4.000000 6.500000 11.000000
      vertex -15.000000 7.500000 15.000000
      vertex 0.000000 7.500000 15.000000
    endloop
  endfacet
  facet normal -0.000000 0.970143 -0.242536
    outer loop
      vertex -15.000000 7.500000 15.000000
      vertex -4.000000 6.500000 11.000000
      vertex -11.000000 6.500000 11.000000
    endloop
  endfacet
  facet normal -1.000000 0.000000 -0.000000
    outer loop
      vertex -4.000000 0.000000 11.000000
      vertex -4.000000 6.500000 4.000000
      vertex -4.000000 0.000000 4.000000
    endloop
  endfacet
  facet normal -1.000000 0.000000 -0.000000
    outer loop
      vertex -4.000000 6.500000 4.000000
      vertex -4.000000 0.000000 11.000000
      vertex -4.000000 6.500000 11.000000
    endloop
  endfacet
  facet normal 0.000000 1.000000 -0.000000
    outer loop
      vertex -11.000000 6.500000 4.000000
      vertex -11.000000 6.500000 11.000000
      vertex -11.000000 6.500000 6.000000
    endloop
  endfacet
  facet normal 0.242536 0.970143 0.000000
    outer loop
      vertex -11.000000 6.500000 11.000000
      vertex -11.000000 6.500000 4.000000
      vertex -15.000000 7.500000 -0.000000
    endloop
  endfacet
  facet normal 0.242536 0.970143 -0.000000
    outer loop
      vertex -11.000000 6.500000 11.000000
      vertex -15.000000 7.500000 -0.000000
      vertex -15.000000 7.500000 15.000000
    endloop
  endfacet
  facet normal 0.000000 -0.000000 1.000000
    outer loop
      vertex -4.000000 6.500000 4.000000
      vertex -11.000000 0.000000 4.000000
      vertex -4.000000 0.000000 4.000000
    endloop
  endfacet
  facet normal 0.000000 0.000000 1.000000
    outer loop
      vertex -11.000000 0.000000 4.000000
      vertex -4.000000 6.500000 4.000000
      vertex -11.000000 6.500000 4.000000
    endloop
  endfacet
  facet normal 0.000000 -1.000000 -0.000000
    outer loop
      vertex -11.000000 6.500000 4.000000
      vertex -4.000000 6.500000 4.000000
      vertex -9.000000 6.500000 4.000000
    endloop
  endfacet
  facet normal -0.000000 1.000000 -0.000000
    outer loop
      vertex -11.000000 0.000000 4.000000
      vertex -4.000000 0.000000 11.000000
      vertex -4.000000 0.000000 4.000000
    endloop
  endfacet
  facet normal 0.000000 1.000000 -0.000000
    outer loop
      vertex -4.000000 0.000000 11.000000
      vertex -11.000000 0.000000 4.000000
      vertex -11.000000 0.000000 11.000000
    endloop
  endfacet
  facet normal 1.000000 0.000000 -0.000000
    outer loop
      vertex -11.000000 6.500000 6.000000
      vertex -11.000000 0.000000 4.000000
      vertex -11.000000 6.500000 4.000000
    endloop
  endfacet
  facet normal 1.000000 -0.000000 -0.000000
    outer loop
      vertex -11.000000 0.000000 4.000000
      vertex -11.000000 6.500000 6.000000
      vertex -11.000000 0.000000 11.000000
    endloop
  endfacet
  facet normal 1.000000 -0.000000 0.000000
    outer loop
      vertex -11.000000 0.000000 11.000000
      vertex -11.000000 6.500000 6.000000
      vertex -11.000000 6.500000 11.000000
    endloop
  endfacet
  facet normal 1.000000 0.000000 -0.000000
    outer loop
      vertex 0.000000 7.500000 15.000000
      vertex 0.000000 6.500000 -0.000000
      vertex 0.000000 7.500000 -0.000000
    endloop
  endfacet
  facet normal 1.000000 0.000000 -0.000000
    outer loop
      vertex 0.000000 6.500000 -0.000000
      vertex 0.000000 7.500000 15.000000
      vertex 0.000000 0.000000 -0.000000
    endloop
  endfacet
  facet normal 1.000000 0.000000 -0.000000
    outer loop
      vertex 0.000000 0.000000 -0.000000
      vertex 0.000000 7.500000 15.000000
      vertex 0.000000 0.000000 15.000000
    endloop
  endfacet
  facet normal -0.000000 -0.000000 -1.000000
    outer loop
      vertex -15.000000 7.500000 -0.000000
      vertex 0.000000 0.000000 -0.000000
      vertex -15.000000 0.000000 -0.000000
    endloop
  endfacet
  facet normal -0.000000 -0.000000 -1.000000
    outer loop
      vertex 0.000000 0.000000 -0.000000
      vertex -15.000000 7.500000 -0.000000
      vertex -4.000000 6.500000 -0.000000
    endloop
  endfacet
  facet normal -0.000000 0.000000 -1.000000
    outer loop
      vertex -4.000000 6.500000 -0.000000
      vertex -15.000000 7.500000 -0.000000
      vertex -4.000000 7.500000 -0.000000
    endloop
  endfacet
  facet normal 0.000000 0.000000 -1.000000
    outer loop
      vertex -4.000000 6.500000 -0.000000
      vertex 0.000000 6.500000 -0.000000
      vertex 0.000000 0.000000 -0.000000
    endloop
  endfacet
  facet normal 0.000000 -0.000000 -1.000000
    outer loop
      vertex 0.000000 6.500000 -0.000000
      vertex -4.000000 6.500000 -0.000000
      vertex 0.000000 7.500000 -0.000000
    endloop
  endfacet
  facet normal -0.000000 1.000000 -0.000000
    outer loop
      vertex -15.000000 0.000000 -0.000000
      vertex -4.000000 0.000000 4.000000
      vertex 0.000000 0.000000 -0.000000
    endloop
  endfacet
  facet normal 0.000000 1.000000 -0.000000
    outer loop
      vertex -4.000000 0.000000 4.000000
      vertex -15.000000 0.000000 -0.000000
      vertex -11.000000 0.000000 4.000000
    endloop
  endfacet
  facet normal -0.000000 1.000000 -0.000000
    outer loop
      vertex -11.000000 0.000000 4.000000
      vertex -15.000000 0.000000 -0.000000
      vertex -11.000000 0.000000 11.000000
    endloop
  endfacet
  facet normal -0.000000 1.000000 0.000000
    outer loop
      vertex -11.000000 0.000000 11.000000
      vertex -15.000000 0.000000 -0.000000
      vertex -15.000000 0.000000 15.000000
    endloop
  endfacet
  facet normal -0.000000 1.000000 0.000000
    outer loop
      vertex 0.000000 0.000000 15.000000
      vertex -4.000000 0.000000 11.000000
      vertex -15.000000 0.000000 15.000000
    endloop
  endfacet
  facet normal 0.000000 1.000000 -0.000000
    outer loop
      vertex -4.000000 0.000000 11.000000
      vertex 0.000000 0.000000 15.000000
      vertex 0.000000 0.000000 -0.000000
    endloop
  endfacet
  facet normal 0.000000 1.000000 0.000000
    outer loop
      vertex -4.000000 0.000000 11.000000
      vertex 0.000000 0.000000 -0.000000
      vertex -4.000000 0.000000 4.000000
    endloop
  endfacet
  facet normal -0.000000 1.000000 0.000000
    outer loop
      vertex -15.000000 0.000000 15.000000
      vertex -4.000000 0.000000 11.000000
      vertex -11.000000 0.000000 11.000000
    endloop
  endfacet
  facet normal -0.000000 0.000000 1.000000
    outer loop
      vertex 0.000000 0.000000 15.000000
      vertex -15.000000 6.500000 15.000000
      vertex -15.000000 0.000000 15.000000
    endloop
  endfacet
  facet normal 0.000000 0.000000 1.000000
    outer loop
      vertex -15.000000 6.500000 15.000000
      vertex 0.000000 0.000000 15.000000
      vertex 0.000000 7.500000 15.000000
    endloop
  endfacet
  facet normal 0.000000 0.000000 1.000000
    outer loop
      vertex -15.000000 6.500000 15.000000
      vertex 0.000000 7.500000 15.000000
      vertex -15.000000 7.500000 15.000000
    endloop
  endfacet
  facet normal -0.242536 0.970143 0.000000
    outer loop
      vertex 0.000000 7.500000 -0.000000
      vertex -4.000000 6.500000 11.000000
      vertex 0.000000 7.500000 15.000000
    endloop
  endfacet
  facet normal -0.242536 0.970143 -0.000000
    outer loop
      vertex -4.000000 6.500000 11.000000
      vertex 0.000000 7.500000 -0.000000
      vertex -4.000000 6.500000 -0.000000
    endloop
  endfacet
  facet normal 0.020829 0.999783 0.000000
    outer loop
      vertex -4.000000 6.500000 11.000000
      vertex -4.000000 6.500000 -0.000000
      vertex -4.000000 6.500000 4.000000
    endloop
  endfacet
  facet normal 1.000000 0.000000 0.000000
    outer loop
      vertex -4.000000 6.500000 4.000000
      vertex -4.000000 6.500000 -0.000000
      vertex -4.000000 7.500000 -0.000000
    endloop
  endfacet
  facet normal 0.000000 0.000000 1.000000
    outer loop
      vertex 11.000000 -0.000000 4.000000
      vertex 10.000000 3.000000 4.000000
      vertex 8.000000 -0.000000 4.000000
    endloop
  endfacet
  facet normal 0.000000 0.000000 1.000000
    outer loop
      vertex 10.000000 3.000000 4.000000
      vertex 11.000000 -0.000000 4.000000
      vertex 11.000000 4.500000 4.000000
    endloop
  endfacet
  facet normal 0.000000 0.000000 1.000000
    outer loop
      vertex 10.000000 3.000000 4.000000
      vertex 11.000000 4.500000 4.000000
      vertex 10.000000 4.500000 4.000000
    endloop
  endfacet
  facet normal 0.000000 0.000000 1.000000
    outer loop
      vertex 8.000000 3.500000 4.000000
      vertex 8.000000 -0.000000 4.000000
      vertex 10.000000 3.000000 4.000000
    endloop
  endfacet
  facet normal 1.000000 0.000000 0.000000
    outer loop
      vertex 4.000000 4.500000 10.000000
      vertex 4.000000 6.500000 11.000000
      vertex 4.000000 4.500000 11.000000
    endloop
  endfacet
  facet normal 1.000000 0.000000 0.000000
    outer loop
      vertex 4.000000 6.500000 11.000000
      vertex 4.000000 4.500000 10.000000
      vertex 4.000000 6.500000 4.000000
    endloop
  endfacet
  facet normal 1.000000 0.000000 -0.000000
    outer loop
      vertex 4.000000 6.500000 4.000000
      vertex 4.000000 4.500000 10.000000
      vertex 4.000000 4.500000 4.000000
    endloop
  endfacet
  facet normal 0.000000 -0.000000 1.000000
    outer loop
      vertex 10.000000 4.500000 4.000000
      vertex 8.000000 3.500000 4.000000
      vertex 10.000000 3.000000 4.000000
    endloop
  endfacet
  facet normal 0.000000 0.000000 1.000000
    outer loop
      vertex 8.000000 3.500000 4.000000
      vertex 10.000000 4.500000 4.000000
      vertex 4.000000 4.500000 4.000000
    endloop
  endfacet
  facet normal 0.000000 0.000000 1.000000
    outer loop
      vertex 4.000000 4.500000 4.000000
      vertex 10.000000 4.500000 4.000000
      vertex 11.000000 4.500000 4.000000
    endloop
  endfacet
  facet normal 0.000000 0.000000 1.000000
    outer loop
      vertex 4.000000 4.500000 4.000000
      vertex 11.000000 4.500000 4.000000
      vertex 11.000000 6.500000 4.000000
    endloop
  endfacet
  facet normal 0.000000 0.000000 1.000000
    outer loop
      vertex 4.000000 4.500000 4.000000
      vertex 11.000000 6.500000 4.000000
      vertex 4.000000 6.500000 4.000000
    endloop
  endfacet
  facet normal -1.000000 0.000000 0.000000
    outer loop
      vertex 4.000000 6.500000 0.000000
      vertex 4.000000 6.500000 4.000000
      vertex 4.000000 7.500000 0.000000
    endloop
  endfacet
  facet normal 0.242536 0.970143 0.000000
    outer loop
      vertex 4.000000 6.500000 11.000000
      vertex -0.000000 7.500000 0.000000
      vertex -0.000000 7.500000 11.000000
    endloop
  endfacet
  facet normal 0.242536 0.970143 0.000000
    outer loop
      vertex -0.000000 7.500000 0.000000
      vertex 4.000000 6.500000 11.000000
      vertex 4.000000 6.500000 0.000000
    endloop
  endfacet
  facet normal 0.000000 1.000000 -0.000000
    outer loop
      vertex 4.000000 6.500000 0.000000
      vertex 4.000000 6.500000 11.000000
      vertex 4.000000 6.500000 4.000000
    endloop
  endfacet
  facet normal 0.000000 0.970143 0.242536
    outer loop
      vertex 4.000000 6.500000 4.000000
      vertex 11.000000 7.500000 0.000000
      vertex 4.000000 7.500000 0.000000
    endloop
  endfacet
  facet normal 0.000000 0.970143 0.242536
    outer loop
      vertex 11.000000 7.500000 0.000000
      vertex 4.000000 6.500000 4.000000
      vertex 11.000000 6.500000 4.000000
    endloop
  endfacet
  facet normal 0.242536 0.970143 -0.000000
    outer loop
      vertex 4.000000 4.500000 10.000000
      vertex 8.000000 3.500000 4.000000
      vertex 4.000000 4.500000 4.000000
    endloop
  endfacet
  facet normal 0.242536 0.970143 -0.000000
    outer loop
      vertex 8.000000 3.500000 4.000000
      vertex 4.000000 4.500000 10.000000
      vertex 8.000000 3.500000 10.000000
    endloop
  endfacet
  facet normal 1.000000 0.000000 -0.000000
    outer loop
      vertex 8.000000 -0.000000 4.000000
      vertex 8.000000 3.500000 10.000000
      vertex 8.000000 -0.000000 10.000000
    endloop
  endfacet
  facet normal 1.000000 0.000000 -0.000000
    outer loop
      vertex 8.000000 3.500000 10.000000
      vertex 8.000000 -0.000000 4.000000
      vertex 8.000000 3.500000 4.000000
    endloop
  endfacet
  facet normal -0.000000 -0.000000 1.000000
    outer loop
      vertex 8.000000 3.500000 10.000000
      vertex 4.000000 -0.000000 10.000000
      vertex 8.000000 -0.000000 10.000000
    endloop
  endfacet
  facet normal -0.000000 0.000000 1.000000
    outer loop
      vertex 4.000000 -0.000000 10.000000
      vertex 8.000000 3.500000 10.000000
      vertex 4.000000 4.500000 10.000000
    endloop
  endfacet
  facet normal 1.000000 0.000000 0.000000
    outer loop
      vertex 4.000000 -0.000000 10.000000
      vertex 4.000000 4.500000 11.000000
      vertex 4.000000 -0.000000 11.000000
    endloop
  endfacet
  facet normal 1.000000 0.000000 0.000000
    outer loop
      vertex 4.000000 4.500000 11.000000
      vertex 4.000000 -0.000000 10.000000
      vertex 4.000000 4.500000 10.000000
    endloop
  endfacet
  facet normal 0.000000 0.000000 1.000000
    outer loop
      vertex 4.000000 4.500000 11.000000
      vertex -0.000000 -0.000000 11.000000
      vertex 4.000000 -0.000000 11.000000
    endloop
  endfacet
  facet normal 0.000000 0.000000 1.000000
    outer loop
      vertex -0.000000 -0.000000 11.000000
      vertex 4.000000 4.500000 11.000000
      vertex -0.000000 7.500000 11.000000
    endloop
  endfacet
  facet normal 0.000000 0.000000 1.000000
    outer loop
      vertex -0.000000 7.500000 11.000000
      vertex 4.000000 4.500000 11.000000
      vertex 4.000000 6.500000 11.000000
    endloop
  endfacet
  facet normal 1.000000 0.000000 -0.000000
    outer loop
      vertex -0.000000 -0.000000 11.000000
      vertex -0.000000 7.500000 15.000000
      vertex -0.000000 -0.000000 15.000000
    endloop
  endfacet
  facet normal 1.000000 0.000000 -0.000000
    outer loop
      vertex -0.000000 7.500000 15.000000
      vertex -0.000000 -0.000000 11.000000
      vertex -0.000000 7.500000 11.000000
    endloop
  endfacet
  facet normal 1.000000 0.000000 0.000000
    outer loop
      vertex 11.000000 -0.000000 0.000000
      vertex 11.000000 4.500000 4.000000
      vertex 11.000000 -0.000000 4.000000
    endloop
  endfacet
  facet normal 1.000000 0.000000 0.000000
    outer loop
      vertex 11.000000 4.500000 4.000000
      vertex 11.000000 -0.000000 0.000000
      vertex 11.000000 6.500000 4.000000
    endloop
  endfacet
  facet normal 1.000000 0.000000 0.000000
    outer loop
      vertex 11.000000 6.500000 4.000000
      vertex 11.000000 -0.000000 0.000000
      vertex 11.000000 7.500000 0.000000
    endloop
  endfacet
  facet normal -0.000000 1.000000 -0.000000
    outer loop
      vertex -0.000000 -0.000000 15.000000
      vertex 4.000000 -0.000000 11.000000
      vertex -0.000000 -0.000000 11.000000
    endloop
  endfacet
  facet normal 0.000000 1.000000 0.000000
    outer loop
      vertex 4.000000 -0.000000 11.000000
      vertex -0.000000 -0.000000 15.000000
      vertex 15.000000 -0.000000 15.000000
    endloop
  endfacet
  facet normal 0.000000 1.000000 0.000000
    outer loop
      vertex 4.000000 -0.000000 11.000000
      vertex 15.000000 -0.000000 15.000000
      vertex 4.000000 -0.000000 10.000000
    endloop
  endfacet
  facet normal 0.000000 1.000000 -0.000000
    outer loop
      vertex 4.000000 -0.000000 10.000000
      vertex 15.000000 -0.000000 15.000000
      vertex 8.000000 -0.000000 10.000000
    endloop
  endfacet
  facet normal -0.000000 1.000000 0.000000
    outer loop
      vertex 8.000000 -0.000000 10.000000
      vertex 15.000000 -0.000000 15.000000
      vertex 11.000000 -0.000000 4.000000
    endloop
  endfacet
  facet normal -0.000000 1.000000 -0.000000
    outer loop
      vertex 11.000000 -0.000000 4.000000
      vertex 15.000000 -0.000000 15.000000
      vertex 11.000000 -0.000000 0.000000
    endloop
  endfacet
  facet normal -0.000000 1.000000 0.000000
    outer loop
      vertex 11.000000 -0.000000 0.000000
      vertex 15.000000 -0.000000 15.000000
      vertex 15.000000 0.000000 -0.000000
    endloop
  endfacet
  facet normal 0.000000 1.000000 0.000000
    outer loop
      vertex 11.000000 -0.000000 4.000000
      vertex 8.000000 -0.000000 4.000000
      vertex 8.000000 -0.000000 10.000000
    endloop
  endfacet
  facet normal -1.000000 0.000000 -0.000000
    outer loop
      vertex -4.000000 -0.000000 -4.000000
      vertex -4.000000 6.500000 -8.000000
      vertex -4.000000 -0.000000 -8.000000
    endloop
  endfacet
  facet normal -1.000000 0.000000 -0.000000
    outer loop
      vertex -4.000000 6.500000 -8.000000
      vertex -4.000000 -0.000000 -4.000000
      vertex -4.000000 6.500000 -4.000000
    endloop
  endfacet
  facet normal 1.000000 -0.000000 -0.000000
    outer loop
      vertex -4.000000 6.500000 0.000000
      vertex -4.000000 6.500000 -4.000000
      vertex -4.000000 7.500000 0.000000
    endloop
  endfacet
  facet normal -0.242536 0.970143 -0.000000
    outer loop
      vertex -4.000000 6.500000 -8.000000
      vertex 0.000000 7.500000 0.000000
      vertex 0.000000 7.500000 -8.000000
    endloop
  endfacet
  facet normal -0.242536 0.970143 -0.000000
    outer loop
      vertex 0.000000 7.500000 0.000000
      vertex -4.000000 6.500000 -8.000000
      vertex -4.000000 6.500000 0.000000
    endloop
  endfacet
  facet normal 0.000000 1.000000 0.000000
    outer loop
      vertex -4.000000 6.500000 0.000000
      vertex -4.000000 6.500000 -8.000000
      vertex -4.000000 6.500000 -4.000000
    endloop
  endfacet
  facet normal -0.000000 0.970143 -0.242536
    outer loop
      vertex -4.000000 6.500000 -4.000000
      vertex -9.000000 7.500000 0.000000
      vertex -4.000000 7.500000 0.000000
    endloop
  endfacet
  facet normal -0.000000 0.970143 -0.242536
    outer loop
      vertex -9.000000 7.500000 0.000000
      vertex -4.000000 6.500000 -4.000000
      vertex -9.000000 6.500000 -4.000000
    endloop
  endfacet
  facet normal -0.000000 0.000000 -1.000000
    outer loop
      vertex -4.000000 6.500000 -8.000000
      vertex 0.000000 -0.000000 -8.000000
      vertex -4.000000 -0.000000 -8.000000
    endloop
  endfacet
  facet normal -0.000000 0.000000 -1.000000
    outer loop
      vertex 0.000000 -0.000000 -8.000000
      vertex -4.000000 6.500000 -8.000000
      vertex 0.000000 7.500000 -8.000000
    endloop
  endfacet
  facet normal -1.000000 0.000000 0.000000
    outer loop
      vertex 0.000000 -0.000000 -8.000000
      vertex -0.000000 7.500000 -15.000000
      vertex -0.000000 -0.000000 -15.000000
    endloop
  endfacet
  facet normal -1.000000 0.000000 0.000000
    outer loop
      vertex -0.000000 7.500000 -15.000000
      vertex 0.000000 -0.000000 -8.000000
      vertex 0.000000 7.500000 -8.000000
    endloop
  endfacet
  facet normal -1.000000 0.000000 -0.000000
    outer loop
      vertex -9.000000 -0.000000 0.000000
      vertex -9.000000 6.500000 -4.000000
      vertex -9.000000 -0.000000 -4.000000
    endloop
  endfacet
  facet normal -1.000000 0.000000 -0.000000
    outer loop
      vertex -9.000000 6.500000 -4.000000
      vertex -9.000000 -0.000000 0.000000
      vertex -9.000000 7.500000 0.000000
    endloop
  endfacet
  facet normal 0.000000 1.000000 0.000000
    outer loop
      vertex -0.000000 -0.000000 -15.000000
      vertex -4.000000 -0.000000 -8.000000
      vertex 0.000000 -0.000000 -8.000000
    endloop
  endfacet
  facet normal -0.000000 1.000000 -0.000000
    outer loop
      vertex -4.000000 -0.000000 -8.000000
      vertex -0.000000 -0.000000 -15.000000
      vertex -15.000000 -0.000000 -15.000000
    endloop
  endfacet
  facet normal -0.000000 1.000000 -0.000000
    outer loop
      vertex -4.000000 -0.000000 -8.000000
      vertex -15.000000 -0.000000 -15.000000
      vertex -4.000000 -0.000000 -4.000000
    endloop
  endfacet
  facet normal -0.000000 1.000000 0.000000
    outer loop
      vertex -4.000000 -0.000000 -4.000000
      vertex -15.000000 -0.000000 -15.000000
      vertex -9.000000 -0.000000 -4.000000
    endloop
  endfacet
  facet normal 0.000000 1.000000 0.000000
    outer loop
      vertex -9.000000 -0.000000 -4.000000
      vertex -15.000000 -0.000000 -15.000000
      vertex -9.000000 -0.000000 0.000000
    endloop
  endfacet
  facet normal 0.000000 1.000000 -0.000000
    outer loop
      vertex -9.000000 -0.000000 0.000000
      vertex -15.000000 -0.000000 -15.000000
      vertex -15.000000 0.000000 0.000000
    endloop
  endfacet
  facet normal 0.000000 -0.000000 -1.000000
    outer loop
      vertex -9.000000 -0.000000 -4.000000
      vertex -7.606640 4.397346 -4.000000
      vertex -4.000000 -0.000000 -4.000000
    endloop
  endfacet
  facet normal -0.000000 0.000000 -1.000000
    outer loop
      vertex -7.606640 4.397346 -4.000000
      vertex -9.000000 -0.000000 -4.000000
      vertex -9.000000 6.500000 -4.000000
    endloop
  endfacet
  facet normal -0.000000 0.000000 -1.000000
    outer loop
      vertex -7.606640 4.397346 -4.000000
      vertex -9.000000 6.500000 -4.000000
      vertex -7.606640 5.756494 -4.000000
    endloop
  endfacet
  facet normal -0.000000 0.000000 -1.000000
    outer loop
      vertex -7.606640 5.756494 -4.000000
      vertex -9.000000 6.500000 -4.000000
      vertex -6.766640 5.756494 -4.000000
    endloop
  endfacet
  facet normal 0.000000 0.000000 -1.000000
    outer loop
      vertex -6.766640 5.756494 -4.000000
      vertex -9.000000 6.500000 -4.000000
      vertex -5.836640 5.756494 -4.000000
    endloop
  endfacet
  facet normal -0.000000 0.000000 -1.000000
    outer loop
      vertex -5.836640 5.756494 -4.000000
      vertex -9.000000 6.500000 -4.000000
      vertex -4.996640 5.756494 -4.000000
    endloop
  endfacet
  facet normal 0.000000 -0.000000 -1.000000
    outer loop
      vertex -4.000000 -0.000000 -4.000000
      vertex -4.996640 4.397346 -4.000000
      vertex -4.000000 6.500000 -4.000000
    endloop
  endfacet
  facet normal 0.000000 -0.000000 -1.000000
    outer loop
      vertex -4.996640 4.397346 -4.000000
      vertex -4.000000 -0.000000 -4.000000
      vertex -7.606640 4.397346 -4.000000
    endloop
  endfacet
  facet normal 0.000000 -1.000000 -0.000000
    outer loop
      vertex -4.996640 4.397346 -4.000000
      vertex -7.606640 4.397346 -4.000000
      vertex -6.766640 4.397346 -4.000000
    endloop
  endfacet
  facet normal 0.000000 1.000000 -0.000000
    outer loop
      vertex -4.996640 4.397346 -4.000000
      vertex -6.766640 4.397346 -4.000000
      vertex -5.836640 4.397346 -4.000000
    endloop
  endfacet
  facet normal -0.000000 0.000000 -1.000000
    outer loop
      vertex -4.000000 6.500000 -4.000000
      vertex -4.996640 4.397346 -4.000000
      vertex -4.996640 5.756494 -4.000000
    endloop
  endfacet
  facet normal -0.000000 -0.000000 -1.000000
    outer loop
      vertex -4.000000 6.500000 -4.000000
      vertex -4.996640 5.756494 -4.000000
      vertex -9.000000 6.500000 -4.000000
    endloop
  endfacet
  facet normal 0.000000 0.000000 -1.000000
    outer loop
      vertex -6.766640 5.756494 -4.000000
      vertex -5.836640 4.397346 -4.000000
      vertex -6.766640 4.397346 -4.000000
    endloop
  endfacet
  facet normal 0.000000 -0.000000 -1.000000
    outer loop
      vertex -5.836640 4.397346 -4.000000
      vertex -6.766640 5.756494 -4.000000
      vertex -5.836640 5.756494 -4.000000
    endloop
  endfacet
  facet normal 0.000000 0.000000 -1.000000
    outer loop
      vertex -5.836640 5.756494 -3.700000
      vertex -4.996640 4.397346 -3.700000
      vertex -5.836640 4.397346 -3.700000
    endloop
  endfacet
  facet normal 0.000000 -0.000000 -1.000000
    outer loop
      vertex -4.996640 4.397346 -3.700000
      vertex -5.836640 5.756494 -3.700000
      vertex -4.996640 5.756494 -3.700000
    endloop
  endfacet
  facet normal 0.000000 -1.000000 -0.000000
    outer loop
      vertex -5.836640 5.756494 -3.700000
      vertex -4.996640 5.756494 -4.000000
      vertex -4.996640 5.756494 -3.700000
    endloop
  endfacet
  facet normal -0.000000 -1.000000 -0.000000
    outer loop
      vertex -4.996640 5.756494 -4.000000
      vertex -5.836640 5.756494 -3.700000
      vertex -5.836640 5.756494 -4.000000
    endloop
  endfacet
  facet normal -1.000000 0.000000 -0.000000
    outer loop
      vertex -4.996640 4.397346 -3.700000
      vertex -4.996640 5.756494 -4.000000
      vertex -4.996640 4.397346 -4.000000
    endloop
  endfacet
  facet normal -1.000000 0.000000 0.000000
    outer loop
      vertex -4.996640 5.756494 -4.000000
      vertex -4.996640 4.397346 -3.700000
      vertex -4.996640 5.756494 -3.700000
    endloop
  endfacet
  facet normal -0.000000 1.000000 -0.000000
    outer loop
      vertex -5.836640 4.397346 -4.000000
      vertex -4.996640 4.397346 -3.700000
      vertex -4.996640 4.397346 -4.000000
    endloop
  endfacet
  facet normal 0.000000 1.000000 -0.000000
    outer loop
      vertex -4.996640 4.397346 -3.700000
      vertex -5.836640 4.397346 -4.000000
      vertex -5.836640 4.397346 -3.700000
    endloop
  endfacet
  facet normal 1.000000 0.000000 0.000000
    outer loop
      vertex -5.836640 5.756494 -3.700000
      vertex -5.836640 4.397346 -4.000000
      vertex -5.836640 5.756494 -4.000000
    endloop
  endfacet
  facet normal 1.000000 0.000000 -0.000000
    outer loop
      vertex -5.836640 4.397346 -4.000000
      vertex -5.836640 5.756494 -3.700000
      vertex -5.836640 4.397346 -3.700000
    endloop
  endfacet
  facet normal -1.000000 0.000000 -0.000000
    outer loop
      vertex -6.766640 4.397346 -3.700000
      vertex -6.766640 5.756494 -4.000000
      vertex -6.766640 4.397346 -4.000000
    endloop
  endfacet
  facet normal -1.000000 0.000000 0.000000
    outer loop
      vertex -6.766640 5.756494 -4.000000
      vertex -6.766640 4.397346 -3.700000
      vertex -6.766640 5.756494 -3.700000
    endloop
  endfacet
  facet normal -0.000000 1.000000 -0.000000
    outer loop
      vertex -7.606640 4.397346 -4.000000
      vertex -6.766640 4.397346 -3.700000
      vertex -6.766640 4.397346 -4.000000
    endloop
  endfacet
  facet normal 0.000000 1.000000 -0.000000
    outer loop
      vertex -6.766640 4.397346 -3.700000
      vertex -7.606640 4.397346 -4.000000
      vertex -7.606640 4.397346 -3.700000
    endloop
  endfacet
  facet normal 1.000000 0.000000 0.000000
    outer loop
      vertex -7.606640 5.756494 -3.700000
      vertex -7.606640 4.397346 -4.000000
      vertex -7.606640 5.756494 -4.000000
    endloop
  endfacet
  facet normal 1.000000 0.000000 -0.000000
    outer loop
      vertex -7.606640 4.397346 -4.000000
      vertex -7.606640 5.756494 -3.700000
      vertex -7.606640 4.397346 -3.700000
    endloop
  endfacet
  facet normal -0.000000 0.000000 -1.000000
    outer loop
      vertex -7.606640 5.756494 -3.700000
      vertex -6.766640 4.397346 -3.700000
      vertex -7.606640 4.397346 -3.700000
    endloop
  endfacet
  facet normal -0.000000 0.000000 -1.000000
    outer loop
      vertex -6.766640 4.397346 -3.700000
      vertex -7.606640 5.756494 -3.700000
      vertex -6.766640 5.756494 -3.700000
    endloop
  endfacet
  facet normal 0.000000 -1.000000 -0.000000
    outer loop
      vertex -7.606640 5.756494 -3.700000
      vertex -6.766640 5.756494 -4.000000
      vertex -6.766640 5.756494 -3.700000
    endloop
  endfacet
  facet normal 0.000000 -1.000000 -0.000000
    outer loop
      vertex -6.766640 5.756494 -4.000000
      vertex -7.606640 5.756494 -3.700000
      vertex -7.606640 5.756494 -4.000000
    endloop
  endfacet
endsolid w2w2
