mtllib materials.mtl
o wrwr

v 0.000000 -0.300000 -0.000000
v -15.000000 -0.300000 -15.000000
v -15.000000 -0.300000 -0.000000
v -15.000000 -0.300000 -15.000000
v 0.000000 -0.300000 -0.000000
v 0.000000 -0.300000 -15.000000
v -15.000000 -0.300000 -15.000000
v -15.000000 0.000000 -0.000000
v -15.000000 -0.300000 -0.000000
v -15.000000 0.000000 -0.000000
v -15.000000 -0.300000 -15.000000
v -15.000000 0.000000 -15.000000
v 0.000000 0.000000 -15.000000
v -15.000000 -0.300000 -15.000000
v 0.000000 -0.300000 -15.000000
v -15.000000 -0.300000 -15.000000
v 0.000000 0.000000 -15.000000
v -15.000000 0.000000 -15.000000
v 15.000000 -0.300000 15.000000
v 0.000000 -0.300000 -0.000000
v 0.000000 -0.300000 15.000000
v 0.000000 -0.300000 -0.000000
v 15.000000 -0.300000 15.000000
v 15.000000 -0.300000 -0.000000
v 15.000000 0.000000 -0.000000
v 15.000000 -0.300000 15.000000
v 15.000000 0.000000 15.000000
v 15.000000 -0.300000 15.000000
v 15.000000 0.000000 -0.000000
v 15.000000 -0.300000 -0.000000
v 0.000000 0.000000 15.000000
v 15.000000 -0.300000 15.000000
v 0.000000 -0.300000 15.000000
v 15.000000 -0.300000 15.000000
v 0.000000 0.000000 15.000000
v 15.000000 0.000000 15.000000
v 6.515992 2.221011 -7.371895
v 6.231468 2.127182 -8.163588
v 6.351543 2.083396 -7.829479
v 6.231468 2.127182 -8.163588
v 6.515992 2.221011 -7.371895
v 6.034642 2.239776 -8.711261
v 6.034642 2.239776 -8.711261
v 6.515992 2.221011 -7.371895
v 6.529044 2.427433 -7.335579
v 6.034642 2.239776 -8.711261
v 6.529044 2.427433 -7.335579
v 5.949442 2.239776 -8.948333
v 5.949442 2.239776 -8.948333
v 6.529044 2.427433 -7.335579
v 5.863414 2.239776 -9.187706
v 5.724746 2.131506 -9.573553
v 5.315249 2.521262 -10.712987
v 5.612824 2.095906 -9.884977
v 5.315249 2.521262 -10.712987
v 5.724746 2.131506 -9.573553
v 5.863414 2.239776 -9.187706
v 5.315249 2.521262 -10.712987
v 5.863414 2.239776 -9.187706
v 6.529044 2.427433 -7.335579
v 5.315249 2.521262 -10.712987
v 6.529044 2.427433 -7.335579
v 6.609964 2.696408 -7.110418
v 5.315249 2.521262 -10.712987
v 6.609964 2.696408 -7.110418
v 5.242160 2.540027 -10.916358
v 5.242160 2.540027 -10.916358
v 6.609964 2.696408 -7.110418
v 5.095983 3.034190 -11.323100
v 5.095983 3.034190 -11.323100
v 6.609964 2.696408 -7.110418
v 6.596912 2.965383 -7.146734
v 5.095983 3.034190 -11.323100
v 6.596912 2.965383 -7.146734
v 6.748310 3.284399 -6.725466
v 5.095983 3.034190 -11.323100
v 6.748310 3.284399 -6.725466
v 5.142968 3.396993 -11.192361
v 5.142968 3.396993 -11.192361
v 6.748310 3.284399 -6.725466
v 6.813568 3.615926 -6.543885
v 5.142968 3.396993 -11.192361
v 6.813568 3.615926 -6.543885
v 5.109034 3.553374 -11.286784
v 5.109034 3.553374 -11.286784
v 5.038556 4.341533 -11.482891
v 5.056828 3.522098 -11.432048
v 5.038556 4.341533 -11.482891
v 5.109034 3.553374 -11.286784
v 6.813568 3.615926 -6.543885
v 5.038556 4.341533 -11.482891
v 6.813568 3.615926 -6.543885
v 6.839671 4.041282 -6.471252
v 5.038556 4.341533 -11.482891
v 6.839671 4.041282 -6.471252
v 6.808347 4.410340 -6.558411
v 5.038556 4.341533 -11.482891
v 6.808347 4.410340 -6.558411
v 5.011244 4.779221 -11.558887
v 5.011244 4.779221 -11.558887
v 6.808347 4.410340 -6.558411
v 6.891877 4.597997 -6.325988
v 5.011244 4.779221 -11.558887
v 6.891877 4.597997 -6.325988
v 6.920591 4.960800 -6.246092
v 5.011244 4.779221 -11.558887
v 6.920591 4.960800 -6.246092
v 4.996791 5.010842 -11.599103
v 4.996791 5.010842 -11.599103
v 6.920591 4.960800 -6.246092
v 6.847502 5.580068 -6.449463
v 4.996791 5.010842 -11.599103
v 6.847502 5.580068 -6.449463
v 5.129917 5.261051 -11.228678
v 5.129917 5.261051 -11.228678
v 6.847502 5.580068 -6.449463
v 5.122086 5.686407 -11.250467
v 5.122086 5.686407 -11.250467
v 6.847502 5.580068 -6.449463
v 6.828314 5.744538 -6.502853
v 5.122086 5.686407 -11.250467
v 6.828314 5.744538 -6.502853
v 5.129917 6.005423 -11.228678
v 5.129917 6.005423 -11.228678
v 6.828314 5.744538 -6.502853
v 6.779634 6.161804 -6.638307
v 5.129917 6.005423 -11.228678
v 6.779634 6.161804 -6.638307
v 5.077710 6.180570 -11.373942
v 5.077710 6.180570 -11.373942
v 6.779634 6.161804 -6.638307
v 6.750921 6.768561 -6.718203
v 5.077710 6.180570 -11.373942
v 6.750921 6.768561 -6.718203
v 5.038556 6.261887 -11.482891
v 5.038556 6.261887 -11.482891
v 6.750921 6.768561 -6.718203
v 5.129917 6.574649 -11.228678
v 5.129917 6.574649 -11.228678
v 6.750921 6.768561 -6.718203
v 5.276094 7.775652 -10.821936
v 5.276094 7.775652 -10.821936
v 6.750921 6.768561 -6.718203
v 6.722207 7.162640 -6.798098
v 5.276094 7.775652 -10.821936
v 6.722207 7.162640 -6.798098
v 6.529809 7.723047 -7.333450
v 5.276094 7.775652 -10.821936
v 6.529809 7.723047 -7.333450
v 6.403749 8.175987 -7.684214
v 5.276094 7.775652 -10.821936
v 6.403749 8.175987 -7.684214
v 5.289146 8.313602 -10.785620
v 5.289146 8.313602 -10.785620
v 6.403749 8.175987 -7.684214
v 6.356763 8.444962 -7.814953
v 5.289146 8.313602 -10.785620
v 6.356763 8.444962 -7.814953
v 5.440544 8.382409 -10.364351
v 5.440544 8.382409 -10.364351
v 6.356763 8.444962 -7.814953
v 5.565839 8.648148 -10.015716
v 5.565839 8.648148 -10.015716
v 6.356763 8.444962 -7.814953
v 6.252351 8.745213 -8.105482
v 5.565839 8.648148 -10.015716
v 6.252351 8.745213 -8.105482
v 5.829480 8.920359 -9.282128
v 5.829480 8.920359 -9.282128
v 6.252351 8.745213 -8.105482
v 6.043526 8.995422 -8.686542
v 5.367455 8.426196 -10.567722
v 5.289146 8.313602 -10.785620
v 5.440544 8.382409 -10.364351
v 5.129917 5.261051 -11.228678
v 5.004622 5.311093 -11.577313
v 4.996791 5.010842 -11.599103
v 5.004622 5.311093 -11.577313
v 5.129917 5.261051 -11.228678
v 5.064659 5.404921 -11.410259
v 6.000546 0.599488 -8.806135
v 5.949442 -0.300000 -8.948333
v 5.980908 -0.300000 -8.860778
v 5.949442 -0.300000 -8.948333
v 6.000546 0.599488 -8.806135
v 5.917976 -0.300000 -9.035888
v 5.917976 -0.300000 -9.035888
v 6.000546 0.599488 -8.806135
v 5.855043 -0.300000 -9.210999
v 5.855043 -0.300000 -9.210999
v 6.000546 0.599488 -8.806135
v 5.898874 0.834269 -9.089039
v 5.898874 0.834269 -9.089039
v 6.000546 0.599488 -8.806135
v 5.980908 1.459125 -8.860778
v 5.898874 0.834269 -9.089039
v 5.980908 1.459125 -8.860778
v 5.885438 1.706213 -9.126425
v 5.885438 1.706213 -9.126425
v 5.980908 1.459125 -8.860778
v 5.949442 2.211278 -8.948333
v 5.885438 1.706213 -9.126425
v 5.949442 2.211278 -8.948333
v 5.877216 2.239776 -9.149303
v 5.877216 2.239776 -9.149303
v 5.949442 2.211278 -8.948333
v 5.949442 2.239776 -8.948333
v 5.883136 1.820711 -9.132830
v 5.819872 1.842206 -9.308863
v 5.885438 1.706213 -9.126425
v 5.819872 1.842206 -9.308863
v 5.883136 1.820711 -9.132830
v 5.810672 1.945128 -9.334462
v 5.819872 1.842206 -9.308863
v 5.810672 1.945128 -9.334462
v 5.760794 2.133077 -9.473248
v 6.020973 0.977644 -8.749295
v 5.980908 -0.300000 -8.860778
v 6.032558 -0.300000 -8.717061
v 5.980908 -0.300000 -8.860778
v 6.020973 0.977644 -8.749295
v 6.000546 0.599488 -8.806135
v 6.000546 0.599488 -8.806135
v 6.020973 0.977644 -8.749295
v 5.980908 1.459125 -8.860778
v 5.980908 1.459125 -8.860778
v 6.020973 0.977644 -8.749295
v 6.020973 2.239776 -8.749295
v 5.980908 1.459125 -8.860778
v 6.020973 2.239776 -8.749295
v 5.949442 2.211278 -8.948333
v 5.949442 2.211278 -8.948333
v 6.020973 2.239776 -8.749295
v 5.949442 2.239776 -8.948333
v 10.000000 0.000000 -15.000000
v 10.042776 -0.300000 -14.347369
v 10.042776 0.000000 -14.347369
v 10.042776 -0.300000 -14.347369
v 10.000000 0.000000 -15.000000
v 10.000000 -0.300000 -15.000000
v 11.033233 0.000000 -11.956193
v 11.464466 -0.300000 -11.464466
v 11.464466 0.000000 -11.464466
v 11.464466 -0.300000 -11.464466
v 11.033233 0.000000 -11.956193
v 11.033233 -0.300000 -11.956193
v 14.347369 0.000000 -10.042776
v 13.705905 -0.300000 -10.170371
v 14.347369 -0.300000 -10.042776
v 13.705905 -0.300000 -10.170371
v 14.347369 0.000000 -10.042776
v 13.705905 0.000000 -10.170371
v 12.500000 0.000000 -10.669873
v 11.956193 -0.300000 -11.033233
v 12.500000 -0.300000 -10.669873
v 11.956193 -0.300000 -11.033233
v 12.500000 0.000000 -10.669873
v 11.956193 0.000000 -11.033233
v 10.042776 0.000000 -14.347369
v 15.000000 0.000000 -15.000000
v 10.000000 0.000000 -15.000000
v 15.000000 0.000000 -15.000000
v 10.042776 0.000000 -14.347369
v 10.170371 0.000000 -13.705905
v 15.000000 0.000000 -15.000000
v 10.170371 0.000000 -13.705905
v 10.380602 0.000000 -13.086583
v 15.000000 0.000000 -15.000000
v 10.380602 0.000000 -13.086583
v 10.669873 0.000000 -12.500000
v 15.000000 0.000000 -15.000000
v 10.669873 0.000000 -12.500000
v 11.033233 0.000000 -11.956193
v 15.000000 0.000000 -15.000000
v 11.033233 0.000000 -11.956193
v 11.464466 0.000000 -11.464466
v 15.000000 0.000000 -15.000000
v 11.464466 0.000000 -11.464466
v 11.956193 0.000000 -11.033233
v 15.000000 0.000000 -15.000000
v 11.956193 0.000000 -11.033233
v 12.500000 0.000000 -10.669873
v 15.000000 0.000000 -15.000000
v 12.500000 0.000000 -10.669873
v 13.086583 0.000000 -10.380602
v 15.000000 0.000000 -15.000000
v 13.086583 0.000000 -10.380602
v 13.705905 0.000000 -10.170371
v 15.000000 0.000000 -15.000000
v 13.705905 0.000000 -10.170371
v 14.347369 0.000000 -10.042776
v 15.000000 0.000000 -15.000000
v 14.347369 0.000000 -10.042776
v 15.000000 0.000000 -10.000000
v 10.380602 0.000000 -13.086583
v 10.669873 -0.300000 -12.500000
v 10.669873 0.000000 -12.500000
v 10.669873 -0.300000 -12.500000
v 10.380602 0.000000 -13.086583
v 10.380602 -0.300000 -13.086583
v 10.042776 0.000000 -14.347369
v 10.170371 -0.300000 -13.705905
v 10.170371 0.000000 -13.705905
v 10.170371 -0.300000 -13.705905
v 10.042776 0.000000 -14.347369
v 10.042776 -0.300000 -14.347369
v 15.000000 0.000000 -10.000000
v 14.347369 -0.300000 -10.042776
v 15.000000 -0.300000 -10.000000
v 14.347369 -0.300000 -10.042776
v 15.000000 0.000000 -10.000000
v 14.347369 0.000000 -10.042776
v 13.705905 0.000000 -10.170371
v 13.086583 -0.300000 -10.380602
v 13.705905 -0.300000 -10.170371
v 13.086583 -0.300000 -10.380602
v 13.705905 0.000000 -10.170371
v 13.086583 0.000000 -10.380602
v 10.170371 0.000000 -13.705905
v 10.380602 -0.300000 -13.086583
v 10.380602 0.000000 -13.086583
v 10.380602 -0.300000 -13.086583
v 10.170371 0.000000 -13.705905
v 10.170371 -0.300000 -13.705905
v 13.086583 0.000000 -10.380602
v 12.500000 -0.300000 -10.669873
v 13.086583 -0.300000 -10.380602
v 12.500000 -0.300000 -10.669873
v 13.086583 0.000000 -10.380602
v 12.500000 0.000000 -10.669873
v 11.956193 0.000000 -11.033233
v 11.464466 -0.300000 -11.464466
v 11.956193 -0.300000 -11.033233
v 11.464466 -0.300000 -11.464466
v 11.956193 0.000000 -11.033233
v 11.464466 0.000000 -11.464466
v 10.669873 0.000000 -12.500000
v 11.033233 -0.300000 -11.956193
v 11.033233 0.000000 -11.956193
v 11.033233 -0.300000 -11.956193
v 10.669873 0.000000 -12.500000
v 10.669873 -0.300000 -12.500000
v 10.000000 0.000000 -15.000000
v 0.000000 -0.300000 -15.000000
v 10.000000 -0.300000 -15.000000
v 0.000000 -0.300000 -15.000000
v 10.000000 0.000000 -15.000000
v 0.000000 0.000000 -15.000000
v -10.000000 0.000000 15.000000
v -10.042776 -0.300000 14.347369
v -10.042776 0.000000 14.347369
v -10.042776 -0.300000 14.347369
v -10.000000 0.000000 15.000000
v -10.000000 -0.300000 15.000000
v -11.033233 0.000000 11.956193
v -11.464466 -0.300000 11.464466
v -11.464466 0.000000 11.464466
v -11.464466 -0.300000 11.464466
v -11.033233 0.000000 11.956193
v -11.033233 -0.300000 11.956193
v -14.347369 0.000000 10.042776
v -13.705905 -0.300000 10.170371
v -14.347369 -0.300000 10.042776
v -13.705905 -0.300000 10.170371
v -14.347369 0.000000 10.042776
v -13.705905 0.000000 10.170371
v -12.500000 0.000000 10.669873
v -11.956193 -0.300000 11.033233
v -12.500000 -0.300000 10.669873
v -11.956193 -0.300000 11.033233
v -12.500000 0.000000 10.669873
v -11.956193 0.000000 11.033233
v -10.042776 0.000000 14.347369
v -15.000000 0.000000 15.000000
v -10.000000 0.000000 15.000000
v -15.000000 0.000000 15.000000
v -10.042776 0.000000 14.347369
v -10.170371 0.000000 13.705905
v -15.000000 0.000000 15.000000
v -10.170371 0.000000 13.705905
v -10.380602 0.000000 13.086583
v -15.000000 0.000000 15.000000
v -10.380602 0.000000 13.086583
v -10.669873 0.000000 12.500000
v -15.000000 0.000000 15.000000
v -10.669873 0.000000 12.500000
v -11.033233 0.000000 11.956193
v -15.000000 0.000000 15.000000
v -11.033233 0.000000 11.956193
v -11.464466 0.000000 11.464466
v -15.000000 0.000000 15.000000
v -11.464466 0.000000 11.464466
v -11.956193 0.000000 11.033233
v -15.000000 0.000000 15.000000
v -11.956193 0.000000 11.033233
v -12.500000 0.000000 10.669873
v -15.000000 0.000000 15.000000
v -12.500000 0.000000 10.669873
v -13.086583 0.000000 10.380602
v -15.000000 0.000000 15.000000
v -13.086583 0.000000 10.380602
v -13.705905 0.000000 10.170371
v -15.000000 0.000000 15.000000
v -13.705905 0.000000 10.170371
v -14.347369 0.000000 10.042776
v -15.000000 0.000000 15.000000
v -14.347369 0.000000 10.042776
v -15.000000 0.000000 10.000000
v -10.380602 0.000000 13.086583
v -10.669873 -0.300000 12.500000
v -10.669873 0.000000 12.500000
v -10.669873 -0.300000 12.500000
v -10.380602 0.000000 13.086583
v -10.380602 -0.300000 13.086583
v -10.042776 0.000000 14.347369
v -10.170371 -0.300000 13.705905
v -10.170371 0.000000 13.705905
v -10.170371 -0.300000 13.705905
v -10.042776 0.000000 14.347369
v -10.042776 -0.300000 14.347369
v -15.000000 0.000000 10.000000
v -14.347369 -0.300000 10.042776
v -15.000000 -0.300000 10.000000
v -14.347369 -0.300000 10.042776
v -15.000000 0.000000 10.000000
v -14.347369 0.000000 10.042776
v -13.705905 0.000000 10.170371
v -13.086583 -0.300000 10.380602
v -13.705905 -0.300000 10.170371
v -13.086583 -0.300000 10.380602
v -13.705905 0.000000 10.170371
v -13.086583 0.000000 10.380602
v -10.170371 0.000000 13.705905
v -10.380602 -0.300000 13.086583
v -10.380602 0.000000 13.086583
v -10.380602 -0.300000 13.086583
v -10.170371 0.000000 13.705905
v -10.170371 -0.300000 13.705905
v -13.086583 0.000000 10.380602
v -12.500000 -0.300000 10.669873
v -13.086583 -0.300000 10.380602
v -12.500000 -0.300000 10.669873
v -13.086583 0.000000 10.380602
v -12.500000 0.000000 10.669873
v -11.956193 0.000000 11.033233
v -11.464466 -0.300000 11.464466
v -11.956193 -0.300000 11.033233
v -11.464466 -0.300000 11.464466
v -11.956193 0.000000 11.033233
v -11.464466 0.000000 11.464466
v -10.669873 0.000000 12.500000
v -11.033233 -0.300000 11.956193
v -11.033233 0.000000 11.956193
v -11.033233 -0.300000 11.956193
v -10.669873 0.000000 12.500000
v -10.669873 -0.300000 12.500000
v -10.000000 0.000000 15.000000
v 0.000000 -0.300000 15.000000
v -10.000000 -0.300000 15.000000
v 0.000000 -0.300000 15.000000
v -10.000000 0.000000 15.000000
v 0.000000 0.000000 15.000000
vn 0.000000 1.000000 -0.000000
vn -0.000000 1.000000 -0.000000
vn 1.000000 0.000000 -0.000000
vn 1.000000 0.000000 0.000000
vn 0.000000 -0.000000 1.000000
vn 0.000000 0.000000 1.000000
vn 0.000000 1.000000 -0.000000
vn -0.000000 1.000000 -0.000000
vn -1.000000 0.000000 0.000000
vn -1.000000 0.000000 -0.000000
vn 0.000000 0.000000 -1.000000
vn 0.000000 -0.000000 -1.000000
vn -0.941071 -0.000000 0.338208
vn -0.941071 0.000000 0.338208
vn -0.941071 -0.000000 0.338208
vn -0.941071 -0.000000 0.338208
vn -0.941071 0.000000 0.338208
vn -0.941071 -0.000000 0.338208
vn -0.941071 0.000000 0.338208
vn -0.941071 -0.000000 0.338208
vn -0.941071 0.000000 0.338208
vn -0.941071 0.000000 0.338208
vn -0.941071 -0.000000 0.338208
vn -0.941071 0.000000 0.338208
vn -0.941071 -0.000000 0.338208
vn -0.941071 0.000000 0.338208
vn -0.941071 0.000000 0.338208
vn -0.941071 0.000000 0.338208
vn -0.941071 0.000000 0.338208
vn -0.941071 -0.000000 0.338208
vn -0.941071 -0.000000 0.338208
vn -0.941071 -0.000000 0.338208
vn -0.941071 0.000000 0.338208
vn -0.941071 0.000000 0.338208
vn -0.941071 -0.000000 0.338208
vn -0.941071 -0.000000 0.338208
vn -0.941071 0.000000 0.338208
vn -0.941071 -0.000000 0.338208
vn -0.941071 0.000000 0.338208
vn -0.941071 0.000000 0.338208
vn -0.941071 0.000000 0.338208
vn -0.941071 -0.000000 0.338208
vn -0.941071 0.000000 0.338208
vn -0.941071 -0.000000 0.338208
vn -0.941071 -0.000000 0.338208
vn -0.941071 0.000000 0.338208
vn -0.941071 -0.000000 0.338208
vn -0.941071 0.000000 0.338208
vn -0.941071 -0.000000 0.338208
vn -0.941071 0.000000 0.338208
vn -0.941071 0.000000 0.338208
vn -0.941071 -0.000000 0.338208
vn -0.941071 -0.000000 0.338208
vn -0.941071 0.000000 0.338208
vn -0.941071 0.000000 0.338208
vn -0.941071 -0.000000 0.338208
vn -0.941071 0.000000 0.338208
vn -0.941071 -0.000000 0.338208
vn -0.941071 0.000000 0.338208
vn -0.941071 0.000000 0.338208
vn -0.941071 -0.000000 0.338208
vn -0.941071 -0.000000 0.338208
vn -0.941071 -0.000000 0.338208
vn -0.941071 0.000000 0.338208
vn -0.941071 0.000000 0.338208
vn -0.941071 -0.000000 0.338208
vn -0.941071 0.000000 0.338208
vn -0.941071 0.000000 0.338208
vn -0.941071 0.000000 0.338208
vn -0.941071 -0.000000 0.338208
vn -0.941071 0.000000 0.338208
vn -0.941071 0.000000 0.338208
vn -0.941071 0.000000 0.338208
vn -0.941071 -0.000000 0.338208
vn -0.941071 0.000000 0.338208
vn -0.941071 0.000000 0.338208
vn -0.941071 0.000000 0.338208
vn -0.941071 0.000000 0.338208
vn -0.997859 0.000000 0.065403
vn -0.997859 0.000000 0.065403
vn -0.751840 0.000000 0.659346
vn -0.751840 0.000000 0.659346
vn -0.195090 -0.000000 0.980785
vn -0.195090 0.000000 0.980785
vn -0.555570 -0.000000 0.831470
vn -0.555570 0.000000 0.831470
vn 0.000000 1.000000 0.000000
vn 0.000000 1.000000 -0.000000
vn 0.000000 1.000000 -0.000000
vn 0.000000 1.000000 -0.000000
vn 0.000000 1.000000 -0.000000
vn 0.000000 1.000000 -0.000000
vn 0.000000 1.000000 -0.000000
vn 0.000000 1.000000 -0.000000
vn 0.000000 1.000000 -0.000000
vn 0.000000 1.000000 -0.000000
vn 0.000000 1.000000 -0.000000
vn 0.000000 1.000000 -0.000000
vn -0.896873 0.000000 0.442289
vn -0.896873 0.000000 0.442289
vn -0.980785 0.000000 0.195090
vn -0.980785 0.000000 0.195090
vn -0.065403 -0.000000 0.997859
vn -0.065403 0.000000 0.997859
vn -0.321439 -0.000000 0.946930
vn -0.321439 0.000000 0.946930
vn -0.946930 0.000000 0.321439
vn -0.946930 0.000000 0.321439
vn -0.442289 -0.000000 0.896873
vn -0.442289 0.000000 0.896873
vn -0.659346 -0.000000 0.751840
vn -0.659346 0.000000 0.751840
vn -0.831470 0.000000 0.555570
vn -0.831470 0.000000 0.555570
vn 0.000000 -0.000000 1.000000
vn 0.000000 0.000000 1.000000
vn 0.997859 0.000000 -0.065403
vn 0.997859 0.000000 -0.065403
vn 0.751840 0.000000 -0.659346
vn 0.751840 0.000000 -0.659346
vn 0.195090 0.000000 -0.980785
vn 0.195090 -0.000000 -0.980785
vn 0.555570 0.000000 -0.831470
vn 0.555570 -0.000000 -0.831470
vn 0.000000 1.000000 -0.000000
vn 0.000000 1.000000 -0.000000
vn 0.000000 1.000000 -0.000000
vn 0.000000 1.000000 -0.000000
vn 0.000000 1.000000 -0.000000
vn 0.000000 1.000000 -0.000000
vn 0.000000 1.000000 -0.000000
vn 0.000000 1.000000 -0.000000
vn 0.000000 1.000000 -0.000000
vn 0.000000 1.000000 -0.000000
vn 0.000000 1.000000 -0.000000
vn 0.000000 1.000000 0.000000
vn 0.896873 0.000000 -0.442289
vn 0.896873 0.000000 -0.442289
vn 0.980785 0.000000 -0.195090
vn 0.980785 0.000000 -0.195090
vn 0.065403 0.000000 -0.997859
vn 0.065403 -0.000000 -0.997859
vn 0.321439 0.000000 -0.946930
vn 0.321439 -0.000000 -0.946930
vn 0.946930 0.000000 -0.321439
vn 0.946930 0.000000 -0.321439
vn 0.442289 0.000000 -0.896873
vn 0.442289 -0.000000 -0.896873
vn 0.659346 0.000000 -0.751840
vn 0.659346 -0.000000 -0.751840
vn 0.831470 0.000000 -0.555570
vn 0.831470 0.000000 -0.555570
vn 0.000000 0.000000 -1.000000
vn 0.000000 -0.000000 -1.000000

usemtl _default
f 1//1 2//1 3//1
f 4//2 5//2 6//2
f 7//3 8//3 9//3
f 10//4 11//4 12//4
f 13//5 14//5 15//5
f 16//6 17//6 18//6
f 19//7 20//7 21//7
f 22//8 23//8 24//8
f 25//9 26//9 27//9
f 28//10 29//10 30//10
f 31//11 32//11 33//11
f 34//12 35//12 36//12
f 37//13 38//13 39//13
f 40//14 41//14 42//14
f 43//15 44//15 45//15
f 46//16 47//16 48//16
f 49//17 50//17 51//17
f 52//18 53//18 54//18
f 55//19 56//19 57//19
f 58//20 59//20 60//20
f 61//21 62//21 63//21
f 64//22 65//22 66//22
f 67//23 68//23 69//23
f 70//24 71//24 72//24
f 73//25 74//25 75//25
f 76//26 77//26 78//26
f 79//27 80//27 81//27
f 82//28 83//28 84//28
f 85//29 86//29 87//29
f 88//30 89//30 90//30
f 91//31 92//31 93//31
f 94//32 95//32 96//32
f 97//33 98//33 99//33
f 100//34 101//34 102//34
f 103//35 104//35 105//35
f 106//36 107//36 108//36
f 109//37 110//37 111//37
f 112//38 113//38 114//38
f 115//39 116//39 117//39
f 118//40 119//40 120//40
f 121//41 122//41 123//41
f 124//42 125//42 126//42
f 127//43 128//43 129//43
f 130//44 131//44 132//44
f 133//45 134//45 135//45
f 136//46 137//46 138//46
f 139//47 140//47 141//47
f 142//48 143//48 144//48
f 145//49 146//49 147//49
f 148//50 149//50 150//50
f 151//51 152//51 153//51
f 154//52 155//52 156//52
f 157//53 158//53 159//53
f 160//54 161//54 162//54
f 163//55 164//55 165//55
f 166//56 167//56 168//56
f 169//57 170//57 171//57
f 172//58 173//58 174//58
f 175//59 176//59 177//59
f 178//60 179//60 180//60
f 181//61 182//61 183//61
f 184//62 185//62 186//62
f 187//63 188//63 189//63
f 190//64 191//64 192//64
f 193//65 194//65 195//65
f 196//66 197//66 198//66
f 199//67 200//67 201//67
f 202//68 203//68 204//68
f 205//69 206//69 207//69
f 208//70 209//70 210//70
f 211//71 212//71 213//71
f 214//72 215//72 216//72
f 217//73 218//73 219//73
f 220//74 221//74 222//74
f 223//75 224//75 225//75
f 226//76 227//76 228//76
f 229//77 230//77 231//77
f 232//78 233//78 234//78
usemtl road
f 235//79 236//79 237//79
f 238//80 239//80 240//80
f 241//81 242//81 243//81
f 244//82 245//82 246//82
f 247//83 248//83 249//83
f 250//84 251//84 252//84
f 253//85 254//85 255//85
f 256//86 257//86 258//86
f 259//87 260//87 261//87
f 262//88 263//88 264//88
f 265//89 266//89 267//89
f 268//90 269//90 270//90
f 271//91 272//91 273//91
f 274//92 275//92 276//92
f 277//93 278//93 279//93
f 280//94 281//94 282//94
f 283//95 284//95 285//95
f 286//96 287//96 288//96
f 289//97 290//97 291//97
f 292//98 293//98 294//98
f 295//99 296//99 297//99
f 298//100 299//100 300//100
f 301//101 302//101 303//101
f 304//102 305//102 306//102
f 307//103 308//103 309//103
f 310//104 311//104 312//104
f 313//105 314//105 315//105
f 316//106 317//106 318//106
f 319//107 320//107 321//107
f 322//108 323//108 324//108
f 325//109 326//109 327//109
f 328//110 329//110 330//110
f 331//111 332//111 333//111
f 334//112 335//112 336//112
f 337//113 338//113 339//113
f 340//114 341//114 342//114
f 343//115 344//115 345//115
f 346//116 347//116 348//116
f 349//117 350//117 351//117
f 352//118 353//118 354//118
f 355//119 356//119 357//119
f 358//120 359//120 360//120
f 361//121 362//121 363//121
f 364//122 365//122 366//122
f 367//123 368//123 369//123
f 370//124 371//124 372//124
f 373//125 374//125 375//125
f 376//126 377//126 378//126
f 379//127 380//127 381//127
f 382//128 383//128 384//128
f 385//129 386//129 387//129
f 388//130 389//130 390//130
f 391//131 392//131 393//131
f 394//132 395//132 396//132
f 397//133 398//133 399//133
f 400//134 401//134 402//134
f 403//135 404//135 405//135
f 406//136 407//136 408//136
f 409//137 410//137 411//137
f 412//138 413//138 414//138
f 415//139 416//139 417//139
f 418//140 419//140 420//140
f 421//141 422//141 423//141
f 424//142 425//142 426//142
f 427//143 428//143 429//143
f 430//144 431//144 432//144
f 433//145 434//145 435//145
f 436//146 437//146 438//146
f 439//147 440//147 441//147
f 442//148 443//148 444//148
f 445//149 446//149 447//149
f 448//150 449//150 450//150
f 451//151 452//151 453//151
f 454//152 455//152 456//152
f 457//153 458//153 459//153
f 460//154 461//154 462//154
