solid ww2w
  facet normal 0.000000 1.000000 -0.000000
    outer loop
      vertex 15.000000 0.000000 15.000000
      vertex -15.000000 0.000000 -15.000000
      vertex -15.000000 0.000000 15.000000
    endloop
  endfacet
  facet normal -0.000000 1.000000 -0.000000
    outer loop
      vertex -15.000000 0.000000 -15.000000
      vertex 15.000000 0.000000 15.000000
      vertex 15.000000 0.000000 -15.000000
    endloop
  endfacet
  facet normal -0.000000 1.000000 -0.000000
    outer loop
      vertex 4.000000 0.000000 4.000000
      vertex 11.000000 0.000000 11.000000
      vertex 11.000000 0.000000 4.000000
    endloop
  endfacet
  facet normal 0.000000 1.000000 -0.000000
    outer loop
      vertex 11.000000 0.000000 11.000000
      vertex 4.000000 0.000000 4.000000
      vertex 4.000000 0.000000 11.000000
    endloop
  endfacet
  facet normal -0.000000 1.000000 -0.000000
    outer loop
      vertex 0.000000 0.000000 -0.000000
      vertex 11.000000 0.000000 4.000000
      vertex 15.000000 0.000000 -0.000000
    endloop
  endfacet
  facet normal 0.000000 1.000000 -0.000000
    outer loop
      vertex 11.000000 0.000000 4.000000
      vertex 0.000000 0.000000 -0.000000
      vertex 4.000000 0.000000 4.000000
    endloop
  endfacet
  facet normal -0.000000 1.000000 -0.000000
    outer loop
      vertex 4.000000 0.000000 4.000000
      vertex 0.000000 0.000000 -0.000000
      vertex 4.000000 0.000000 11.000000
    endloop
  endfacet
  facet normal -0.000000 1.000000 0.000000
    outer loop
      vertex 4.000000 0.000000 11.000000
      vertex 0.000000 0.000000 -0.000000
      vertex 0.000000 0.000000 15.000000
    endloop
  endfacet
  facet normal -0.000000 1.000000 0.000000
    outer loop
      vertex 15.000000 0.000000 15.000000
      vertex 11.000000 0.000000 11.000000
      vertex 0.000000 0.000000 15.000000
    endloop
  endfacet
  facet normal 0.000000 1.000000 -0.000000
    outer loop
      vertex 11.000000 0.000000 11.000000
      vertex 15.000000 0.000000 15.000000
      vertex 15.000000 0.000000 -0.000000
    endloop
  endfacet
  facet normal 0.000000 1.000000 0.000000
    outer loop
      vertex 11.000000 0.000000 11.000000
      vertex 15.000000 0.000000 -0.000000
      vertex 11.000000 0.000000 4.000000
    endloop
  endfacet
  facet normal -0.000000 1.000000 0.000000
    outer loop
      vertex 0.000000 0.000000 15.000000
      vertex 11.000000 0.000000 11.000000
      vertex 4.000000 0.000000 11.000000
    endloop
  endfacet
  facet normal 0.000000 0.970143 0.242536
    outer loop
      vertex 0.000000 7.500000 -0.000000
      vertex 11.000000 6.500000 4.000000
      vertex 15.000000 7.500000 -0.000000
    endloop
  endfacet
  facet normal 0.000000 0.970143 0.242536
    outer loop
      vertex 11.000000 6.500000 4.000000
      vertex 0.000000 7.500000 -0.000000
      vertex 6.000000 6.500000 4.000000
    endloop
  endfacet
  facet normal -0.000000 0.970143 0.242536
    outer loop
      vertex 6.000000 6.500000 4.000000
      vertex 0.000000 7.500000 -0.000000
      vertex 4.000000 6.500000 4.000000
    endloop
  endfacet
  facet normal 0.000000 -0.000000 1.000000
    outer loop
      vertex 11.000000 6.500000 4.000000
      vertex 4.000000 0.000000 4.000000
      vertex 11.000000 0.000000 4.000000
    endloop
  endfacet
  facet normal 0.000000 0.000000 1.000000
    outer loop
      vertex 4.000000 0.000000 4.000000
      vertex 11.000000 6.500000 4.000000
      vertex 4.000000 6.500000 4.000000
    endloop
  endfacet
  facet normal 0.000000 -1.000000 -0.000000
    outer loop
      vertex 4.000000 6.500000 4.000000
      vertex 11.000000 6.500000 4.000000
      vertex 6.000000 6.500000 4.000000
    endloop
  endfacet
  facet normal -0.000000 0.000000 -1.000000
    outer loop
      vertex 0.000000 7.500000 -0.000000
      vertex 15.000000 0.000000 -0.000000
      vertex 0.000000 0.000000 -0.000000
    endloop
  endfacet
  facet normal -0.000000 0.000000 -1.000000
    outer loop
      vertex 15.000000 0.000000 -0.000000
      vertex 0.000000 7.500000 -0.000000
      vertex 15.000000 6.500000 -0.000000
    endloop
  endfacet
  facet normal -0.000000 0.000000 -1.000000
    outer loop
      vertex 15.000000 6.500000 -0.000000
      vertex 0.000000 7.500000 -0.000000
      vertex 15.000000 7.500000 -0.000000
    endloop
  endfacet
  facet normal -0.242536 0.970143 -0.000000
    outer loop
      vertex 11.000000 6.500000 4.000000
      vertex 15.000000 7.500000 15.000000
      vertex 15.000000 7.500000 -0.000000
    endloop
  endfacet
  facet normal -0.242536 0.970143 -0.000000
    outer loop
      vertex 15.000000 7.500000 15.000000
      vertex 11.000000 6.500000 4.000000
      vertex 11.000000 6.500000 11.000000
    endloop
  endfacet
  facet normal 0.000000 0.000000 -1.000000
    outer loop
      vertex 4.000000 6.500000 11.000000
      vertex 11.000000 0.000000 11.000000
      vertex 4.000000 0.000000 11.000000
    endloop
  endfacet
  facet normal -0.000000 -0.000000 -1.000000
    outer loop
      vertex 11.000000 0.000000 11.000000
      vertex 4.000000 6.500000 11.000000
      vertex 11.000000 6.500000 11.000000
    endloop
  endfacet
  facet normal -1.000000 0.000000 -0.000000
    outer loop
      vertex 11.000000 0.000000 11.000000
      vertex 11.000000 6.500000 4.000000
      vertex 11.000000 0.000000 4.000000
    endloop
  endfacet
  facet normal -1.000000 0.000000 -0.000000
    outer loop
      vertex 11.000000 6.500000 4.000000
      vertex 11.000000 0.000000 11.000000
      vertex 11.000000 6.500000 11.000000
    endloop
  endfacet
  facet normal 1.000000 0.000000 -0.000000
    outer loop
      vertex 15.000000 7.500000 15.000000
      vertex 15.000000 6.500000 -0.000000
      vertex 15.000000 7.500000 -0.000000
    endloop
  endfacet
  facet normal 1.000000 0.000000 -0.000000
    outer loop
      vertex 15.000000 6.500000 -0.000000
      vertex 15.000000 7.500000 15.000000
      vertex 15.000000 0.000000 -0.000000
    endloop
  endfacet
  facet normal 1.000000 0.000000 -0.000000
    outer loop
      vertex 15.000000 0.000000 -0.000000
      vertex 15.000000 7.500000 15.000000
      vertex 15.000000 0.000000 15.000000
    endloop
  endfacet
  facet normal -0.000000 0.970143 -0.242536
    outer loop
      vertex 11.000000 6.500000 11.000000
      vertex 0.000000 7.500000 15.000000
      vertex 15.000000 7.500000 15.000000
    endloop
  endfacet
  facet normal -0.000000 0.970143 -0.242536
    outer loop
      vertex 0.000000 7.500000 15.000000
      vertex 11.000000 6.500000 11.000000
      vertex 4.000000 6.500000 11.000000
    endloop
  endfacet
  facet normal 0.000000 0.000000 1.000000
    outer loop
      vertex 15.000000 0.000000 15.000000
      vertex 0.000000 6.500000 15.000000
      vertex 0.000000 0.000000 15.000000
    endloop
  endfacet
  facet normal 0.000000 0.000000 1.000000
    outer loop
      vertex 0.000000 6.500000 15.000000
      vertex 15.000000 0.000000 15.000000
      vertex 15.000000 7.500000 15.000000
    endloop
  endfacet
  facet normal 0.000000 0.000000 1.000000
    outer loop
      vertex 0.000000 6.500000 15.000000
      vertex 15.000000 7.500000 15.000000
      vertex 0.000000 7.500000 15.000000
    endloop
  endfacet
  facet normal -1.000000 0.000000 0.000000
    outer loop
      vertex 0.000000 0.000000 15.000000
      vertex 0.000000 7.500000 -0.000000
      vertex 0.000000 0.000000 -0.000000
    endloop
  endfacet
  facet normal -1.000000 0.000000 0.000000
    outer loop
      vertex 0.000000 7.500000 -0.000000
      vertex 0.000000 0.000000 15.000000
      vertex 0.000000 7.500000 15.000000
    endloop
  endfacet
  facet normal 0.000000 1.000000 -0.000000
    outer loop
      vertex 0.000000 7.500000 15.000000
      vertex 0.000000 0.000000 15.000000
      vertex 0.000000 6.500000 15.000000
    endloop
  endfacet
  facet normal 0.000000 1.000000 -0.000000
    outer loop
      vertex 4.000000 6.500000 4.000000
      vertex 4.000000 6.500000 11.000000
      vertex 4.000000 6.500000 6.000000
    endloop
  endfacet
  facet normal 0.242536 0.970143 0.000000
    outer loop
      vertex 4.000000 6.500000 11.000000
      vertex 4.000000 6.500000 4.000000
      vertex 0.000000 7.500000 -0.000000
    endloop
  endfacet
  facet normal 0.242536 0.970143 -0.000000
    outer loop
      vertex 4.000000 6.500000 11.000000
      vertex 0.000000 7.500000 -0.000000
      vertex 0.000000 7.500000 15.000000
    endloop
  endfacet
  facet normal 1.000000 0.000000 -0.000000
    outer loop
      vertex 4.000000 6.500000 6.000000
      vertex 4.000000 0.000000 4.000000
      vertex 4.000000 6.500000 4.000000
    endloop
  endfacet
  facet normal 1.000000 -0.000000 -0.000000
    outer loop
      vertex 4.000000 0.000000 4.000000
      vertex 4.000000 6.500000 6.000000
      vertex 4.000000 0.000000 11.000000
    endloop
  endfacet
  facet normal 1.000000 -0.000000 0.000000
    outer loop
      vertex 4.000000 0.000000 11.000000
      vertex 4.000000 6.500000 6.000000
      vertex 4.000000 6.500000 11.000000
    endloop
  endfacet
  facet normal -0.941071 0.000000 0.338208
    outer loop
      vertex 2.515545 2.521011 -2.717191
      vertex 2.231021 2.427182 -3.508885
      vertex 2.351096 2.383396 -3.174775
    endloop
  endfacet
  facet normal -0.941071 -0.000000 0.338208
    outer loop
      vertex 2.231021 2.427182 -3.508885
      vertex 2.515545 2.521011 -2.717191
      vertex 2.034195 2.539776 -4.056557
    endloop
  endfacet
  facet normal -0.941071 -0.000000 0.338208
    outer loop
      vertex 2.034195 2.539776 -4.056557
      vertex 2.515545 2.521011 -2.717191
      vertex 2.528597 2.727433 -2.680875
    endloop
  endfacet
  facet normal -0.941071 -0.000000 0.338208
    outer loop
      vertex 2.034195 2.539776 -4.056557
      vertex 2.528597 2.727433 -2.680875
      vertex 1.948995 2.539776 -4.293629
    endloop
  endfacet
  facet normal -0.941071 -0.000000 0.338208
    outer loop
      vertex 1.948995 2.539776 -4.293629
      vertex 2.528597 2.727433 -2.680875
      vertex 1.862967 2.539776 -4.533002
    endloop
  endfacet
  facet normal -0.941071 0.000000 0.338208
    outer loop
      vertex 1.724299 2.431506 -4.918849
      vertex 1.314802 2.821262 -6.058283
      vertex 1.612377 2.395906 -5.230274
    endloop
  endfacet
  facet normal -0.941071 -0.000000 0.338208
    outer loop
      vertex 1.314802 2.821262 -6.058283
      vertex 1.724299 2.431506 -4.918849
      vertex 1.862967 2.539776 -4.533002
    endloop
  endfacet
  facet normal -0.941071 -0.000000 0.338208
    outer loop
      vertex 1.314802 2.821262 -6.058283
      vertex 1.862967 2.539776 -4.533002
      vertex 2.528597 2.727433 -2.680875
    endloop
  endfacet
  facet normal -0.941071 0.000000 0.338208
    outer loop
      vertex 1.314802 2.821262 -6.058283
      vertex 2.528597 2.727433 -2.680875
      vertex 2.609517 2.996408 -2.455714
    endloop
  endfacet
  facet normal -0.941071 0.000000 0.338208
    outer loop
      vertex 1.314802 2.821262 -6.058283
      vertex 2.609517 2.996408 -2.455714
      vertex 1.241713 2.840027 -6.261654
    endloop
  endfacet
  facet normal -0.941071 0.000000 0.338208
    outer loop
      vertex 1.241713 2.840027 -6.261654
      vertex 2.609517 2.996408 -2.455714
      vertex 1.095536 3.334190 -6.668396
    endloop
  endfacet
  facet normal -0.941071 0.000000 0.338208
    outer loop
      vertex 1.095536 3.334190 -6.668396
      vertex 2.609517 2.996408 -2.455714
      vertex 2.596465 3.265383 -2.492030
    endloop
  endfacet
  facet normal -0.941071 0.000000 0.338208
    outer loop
      vertex 1.095536 3.334190 -6.668396
      vertex 2.596465 3.265383 -2.492030
      vertex 2.747863 3.584399 -2.070762
    endloop
  endfacet
  facet normal -0.941071 -0.000000 0.338208
    outer loop
      vertex 1.095536 3.334190 -6.668396
      vertex 2.747863 3.584399 -2.070762
      vertex 1.142521 3.696993 -6.537658
    endloop
  endfacet
  facet normal -0.941071 -0.000000 0.338208
    outer loop
      vertex 1.142521 3.696993 -6.537658
      vertex 2.747863 3.584399 -2.070762
      vertex 2.813121 3.915926 -1.889181
    endloop
  endfacet
  facet normal -0.941071 0.000000 0.338208
    outer loop
      vertex 1.142521 3.696993 -6.537658
      vertex 2.813121 3.915926 -1.889181
      vertex 1.108587 3.853374 -6.632080
    endloop
  endfacet
  facet normal -0.941071 0.000000 0.338208
    outer loop
      vertex 1.108587 3.853374 -6.632080
      vertex 1.038109 4.641533 -6.828187
      vertex 1.056381 3.822098 -6.777345
    endloop
  endfacet
  facet normal -0.941071 0.000000 0.338208
    outer loop
      vertex 1.038109 4.641533 -6.828187
      vertex 1.108587 3.853374 -6.632080
      vertex 2.813121 3.915926 -1.889181
    endloop
  endfacet
  facet normal -0.941071 0.000000 0.338208
    outer loop
      vertex 1.038109 4.641533 -6.828187
      vertex 2.813121 3.915926 -1.889181
      vertex 2.839224 4.341282 -1.816549
    endloop
  endfacet
  facet normal -0.941071 -0.000000 0.338208
    outer loop
      vertex 1.038109 4.641533 -6.828187
      vertex 2.839224 4.341282 -1.816549
      vertex 2.807900 4.710340 -1.903708
    endloop
  endfacet
  facet normal -0.941071 -0.000000 0.338208
    outer loop
      vertex 1.038109 4.641533 -6.828187
      vertex 2.807900 4.710340 -1.903708
      vertex 1.010797 5.079221 -6.904183
    endloop
  endfacet
  facet normal -0.941071 0.000000 0.338208
    outer loop
      vertex 1.010797 5.079221 -6.904183
      vertex 2.807900 4.710340 -1.903708
      vertex 2.891430 4.897997 -1.671284
    endloop
  endfacet
  facet normal -0.941071 -0.000000 0.338208
    outer loop
      vertex 1.010797 5.079221 -6.904183
      vertex 2.891430 4.897997 -1.671284
      vertex 2.920144 5.260800 -1.591388
    endloop
  endfacet
  facet normal -0.941071 0.000000 0.338208
    outer loop
      vertex 1.010797 5.079221 -6.904183
      vertex 2.920144 5.260800 -1.591388
      vertex 0.996344 5.310842 -6.944399
    endloop
  endfacet
  facet normal -0.941071 -0.000000 0.338208
    outer loop
      vertex 0.996344 5.310842 -6.944399
      vertex 2.920144 5.260800 -1.591388
      vertex 2.847055 5.880068 -1.794759
    endloop
  endfacet
  facet normal -0.941071 0.000000 0.338208
    outer loop
      vertex 0.996344 5.310842 -6.944399
      vertex 2.847055 5.880068 -1.794759
      vertex 1.129470 5.561051 -6.573974
    endloop
  endfacet
  facet normal -0.941071 -0.000000 0.338208
    outer loop
      vertex 1.129470 5.561051 -6.573974
      vertex 2.847055 5.880068 -1.794759
      vertex 1.121639 5.986407 -6.595763
    endloop
  endfacet
  facet normal -0.941071 0.000000 0.338208
    outer loop
      vertex 1.121639 5.986407 -6.595763
      vertex 2.847055 5.880068 -1.794759
      vertex 2.827867 6.044538 -1.848149
    endloop
  endfacet
  facet normal -0.941071 0.000000 0.338208
    outer loop
      vertex 1.121639 5.986407 -6.595763
      vertex 2.827867 6.044538 -1.848149
      vertex 1.129470 6.305423 -6.573974
    endloop
  endfacet
  facet normal -0.941071 0.000000 0.338208
    outer loop
      vertex 1.129470 6.305423 -6.573974
      vertex 2.827867 6.044538 -1.848149
      vertex 2.779187 6.461804 -1.983603
    endloop
  endfacet
  facet normal -0.941071 -0.000000 0.338208
    outer loop
      vertex 1.129470 6.305423 -6.573974
      vertex 2.779187 6.461804 -1.983603
      vertex 1.077263 6.480570 -6.719239
    endloop
  endfacet
  facet normal -0.941071 -0.000000 0.338208
    outer loop
      vertex 1.077263 6.480570 -6.719239
      vertex 2.779187 6.461804 -1.983603
      vertex 2.750473 7.068561 -2.063499
    endloop
  endfacet
  facet normal -0.941071 0.000000 0.338208
    outer loop
      vertex 1.077263 6.480570 -6.719239
      vertex 2.750473 7.068561 -2.063499
      vertex 1.038109 6.561887 -6.828187
    endloop
  endfacet
  facet normal -0.941071 -0.000000 0.338208
    outer loop
      vertex 1.038109 6.561887 -6.828187
      vertex 2.750473 7.068561 -2.063499
      vertex 1.129470 6.874649 -6.573974
    endloop
  endfacet
  facet normal -0.941071 0.000000 0.338208
    outer loop
      vertex 1.129470 6.874649 -6.573974
      vertex 2.750473 7.068561 -2.063499
      vertex 1.275647 8.075652 -6.167232
    endloop
  endfacet
  facet normal -0.941071 0.000000 0.338208
    outer loop
      vertex 1.275647 8.075652 -6.167232
      vertex 2.750473 7.068561 -2.063499
      vertex 2.721760 7.462640 -2.143395
    endloop
  endfacet
  facet normal -0.941071 -0.000000 0.338208
    outer loop
      vertex 1.275647 8.075652 -6.167232
      vertex 2.721760 7.462640 -2.143395
      vertex 2.529362 8.023047 -2.678746
    endloop
  endfacet
  facet normal -0.941071 0.000000 0.338208
    outer loop
      vertex 1.275647 8.075652 -6.167232
      vertex 2.529362 8.023047 -2.678746
      vertex 2.403302 8.475987 -3.029510
    endloop
  endfacet
  facet normal -0.941071 -0.000000 0.338208
    outer loop
      vertex 1.275647 8.075652 -6.167232
      vertex 2.403302 8.475987 -3.029510
      vertex 1.288699 8.613602 -6.130916
    endloop
  endfacet
  facet normal -0.941071 0.000000 0.338208
    outer loop
      vertex 1.288699 8.613602 -6.130916
      vertex 2.403302 8.475987 -3.029510
      vertex 2.356316 8.744962 -3.160249
    endloop
  endfacet
  facet normal -0.941071 0.000000 0.338208
    outer loop
      vertex 1.288699 8.613602 -6.130916
      vertex 2.356316 8.744962 -3.160249
      vertex 1.440097 8.682409 -5.709648
    endloop
  endfacet
  facet normal -0.941071 0.000000 0.338208
    outer loop
      vertex 1.440097 8.682409 -5.709648
      vertex 2.356316 8.744962 -3.160249
      vertex 1.565392 8.948148 -5.361012
    endloop
  endfacet
  facet normal -0.941071 0.000000 0.338208
    outer loop
      vertex 1.565392 8.948148 -5.361012
      vertex 2.356316 8.744962 -3.160249
      vertex 2.251904 9.045213 -3.450779
    endloop
  endfacet
  facet normal -0.941071 0.000000 0.338208
    outer loop
      vertex 1.565392 8.948148 -5.361012
      vertex 2.251904 9.045213 -3.450779
      vertex 1.829033 9.220359 -4.627424
    endloop
  endfacet
  facet normal -0.941071 0.000000 0.338208
    outer loop
      vertex 1.829033 9.220359 -4.627424
      vertex 2.251904 9.045213 -3.450779
      vertex 2.043079 9.295422 -4.031838
    endloop
  endfacet
  facet normal -0.941071 -0.000000 0.338208
    outer loop
      vertex 1.367008 8.726196 -5.913019
      vertex 1.288699 8.613602 -6.130916
      vertex 1.440097 8.682409 -5.709648
    endloop
  endfacet
  facet normal -0.941071 0.000000 0.338208
    outer loop
      vertex 1.129470 5.561051 -6.573974
      vertex 1.004175 5.611093 -6.922609
      vertex 0.996344 5.310842 -6.944399
    endloop
  endfacet
  facet normal -0.941071 -0.000000 0.338208
    outer loop
      vertex 1.004175 5.611093 -6.922609
      vertex 1.129470 5.561051 -6.573974
      vertex 1.064212 5.704921 -6.755555
    endloop
  endfacet
  facet normal -0.941071 -0.000000 0.338208
    outer loop
      vertex 2.000099 0.899488 -4.151431
      vertex 1.948995 0.000000 -4.293629
      vertex 1.980461 0.000000 -4.206074
    endloop
  endfacet
  facet normal -0.941071 -0.000000 0.338208
    outer loop
      vertex 1.948995 0.000000 -4.293629
      vertex 2.000099 0.899488 -4.151431
      vertex 1.917529 0.000000 -4.381184
    endloop
  endfacet
  facet normal -0.941071 0.000000 0.338208
    outer loop
      vertex 1.917529 0.000000 -4.381184
      vertex 2.000099 0.899488 -4.151431
      vertex 1.854596 0.000000 -4.556295
    endloop
  endfacet
  facet normal -0.941071 -0.000000 0.338208
    outer loop
      vertex 1.854596 0.000000 -4.556295
      vertex 2.000099 0.899488 -4.151431
      vertex 1.898427 1.134269 -4.434335
    endloop
  endfacet
  facet normal -0.941071 0.000000 0.338208
    outer loop
      vertex 1.898427 1.134269 -4.434335
      vertex 2.000099 0.899488 -4.151431
      vertex 1.980461 1.759125 -4.206074
    endloop
  endfacet
  facet normal -0.941071 0.000000 0.338208
    outer loop
      vertex 1.898427 1.134269 -4.434335
      vertex 1.980461 1.759125 -4.206074
      vertex 1.884991 2.006213 -4.471721
    endloop
  endfacet
  facet normal -0.941071 0.000000 0.338208
    outer loop
      vertex 1.884991 2.006213 -4.471721
      vertex 1.980461 1.759125 -4.206074
      vertex 1.948995 2.511278 -4.293629
    endloop
  endfacet
  facet normal -0.941071 0.000000 0.338208
    outer loop
      vertex 1.884991 2.006213 -4.471721
      vertex 1.948995 2.511278 -4.293629
      vertex 1.876769 2.539776 -4.494599
    endloop
  endfacet
  facet normal -0.941071 0.000000 0.338208
    outer loop
      vertex 1.876769 2.539776 -4.494599
      vertex 1.948995 2.511278 -4.293629
      vertex 1.948995 2.539776 -4.293629
    endloop
  endfacet
  facet normal -0.941071 0.000000 0.338208
    outer loop
      vertex 1.882689 2.120711 -4.478126
      vertex 1.819425 2.142206 -4.654159
      vertex 1.884991 2.006213 -4.471721
    endloop
  endfacet
  facet normal -0.941071 0.000000 0.338208
    outer loop
      vertex 1.819425 2.142206 -4.654159
      vertex 1.882689 2.120711 -4.478126
      vertex 1.810225 2.245128 -4.679758
    endloop
  endfacet
  facet normal -0.941071 0.000000 0.338208
    outer loop
      vertex 1.819425 2.142206 -4.654159
      vertex 1.810225 2.245128 -4.679758
      vertex 1.760347 2.433077 -4.818544
    endloop
  endfacet
  facet normal -0.941071 -0.000000 0.338208
    outer loop
      vertex 2.020526 1.277644 -4.094591
      vertex 1.980461 0.000000 -4.206074
      vertex 2.032111 0.000000 -4.062358
    endloop
  endfacet
  facet normal -0.941071 -0.000000 0.338208
    outer loop
      vertex 1.980461 0.000000 -4.206074
      vertex 2.020526 1.277644 -4.094591
      vertex 2.000099 0.899488 -4.151431
    endloop
  endfacet
  facet normal -0.941071 0.000000 0.338208
    outer loop
      vertex 2.000099 0.899488 -4.151431
      vertex 2.020526 1.277644 -4.094591
      vertex 1.980461 1.759125 -4.206074
    endloop
  endfacet
  facet normal -0.941071 0.000000 0.338208
    outer loop
      vertex 1.980461 1.759125 -4.206074
      vertex 2.020526 1.277644 -4.094591
      vertex 2.020526 2.539776 -4.094591
    endloop
  endfacet
  facet normal -0.941071 -0.000000 0.338208
    outer loop
      vertex 1.980461 1.759125 -4.206074
      vertex 2.020526 2.539776 -4.094591
      vertex 1.948995 2.511278 -4.293629
    endloop
  endfacet
  facet normal -0.941071 0.000000 0.338208
    outer loop
      vertex 1.948995 2.511278 -4.293629
      vertex 2.020526 2.539776 -4.094591
      vertex 1.948995 2.539776 -4.293629
    endloop
  endfacet
  facet normal -0.941071 0.000000 0.338208
    outer loop
      vertex -2.070434 2.521011 4.714743
      vertex -2.354959 2.427182 3.923050
      vertex -2.234884 2.383396 4.257159
    endloop
  endfacet
  facet normal -0.941071 -0.000000 0.338208
    outer loop
      vertex -2.354959 2.427182 3.923050
      vertex -2.070434 2.521011 4.714743
      vertex -2.551785 2.539776 3.375377
    endloop
  endfacet
  facet normal -0.941071 -0.000000 0.338208
    outer loop
      vertex -2.551785 2.539776 3.375377
      vertex -2.070434 2.521011 4.714743
      vertex -2.057383 2.727433 4.751060
    endloop
  endfacet
  facet normal -0.941071 -0.000000 0.338208
    outer loop
      vertex -2.551785 2.539776 3.375377
      vertex -2.057383 2.727433 4.751060
      vertex -2.636985 2.539776 3.138305
    endloop
  endfacet
  facet normal -0.941071 -0.000000 0.338208
    outer loop
      vertex -2.636985 2.539776 3.138305
      vertex -2.057383 2.727433 4.751060
      vertex -2.723013 2.539776 2.898932
    endloop
  endfacet
  facet normal -0.941071 0.000000 0.338208
    outer loop
      vertex -2.861681 2.431506 2.513085
      vertex -3.271178 2.821262 1.373651
      vertex -2.973603 2.395906 2.201661
    endloop
  endfacet
  facet normal -0.941071 -0.000000 0.338208
    outer loop
      vertex -3.271178 2.821262 1.373651
      vertex -2.861681 2.431506 2.513085
      vertex -2.723013 2.539776 2.898932
    endloop
  endfacet
  facet normal -0.941071 -0.000000 0.338208
    outer loop
      vertex -3.271178 2.821262 1.373651
      vertex -2.723013 2.539776 2.898932
      vertex -2.057383 2.727433 4.751060
    endloop
  endfacet
  facet normal -0.941071 0.000000 0.338208
    outer loop
      vertex -3.271178 2.821262 1.373651
      vertex -2.057383 2.727433 4.751060
      vertex -1.976463 2.996408 4.976220
    endloop
  endfacet
  facet normal -0.941071 0.000000 0.338208
    outer loop
      vertex -3.271178 2.821262 1.373651
      vertex -1.976463 2.996408 4.976220
      vertex -3.344267 2.840027 1.170280
    endloop
  endfacet
  facet normal -0.941071 0.000000 0.338208
    outer loop
      vertex -3.344267 2.840027 1.170280
      vertex -1.976463 2.996408 4.976220
      vertex -3.490444 3.334190 0.763538
    endloop
  endfacet
  facet normal -0.941071 0.000000 0.338208
    outer loop
      vertex -3.490444 3.334190 0.763538
      vertex -1.976463 2.996408 4.976220
      vertex -1.989515 3.265383 4.939904
    endloop
  endfacet
  facet normal -0.941071 0.000000 0.338208
    outer loop
      vertex -3.490444 3.334190 0.763538
      vertex -1.989515 3.265383 4.939904
      vertex -1.838117 3.584399 5.361172
    endloop
  endfacet
  facet normal -0.941071 -0.000000 0.338208
    outer loop
      vertex -3.490444 3.334190 0.763538
      vertex -1.838117 3.584399 5.361172
      vertex -3.443459 3.696993 0.894277
    endloop
  endfacet
  facet normal -0.941071 -0.000000 0.338208
    outer loop
      vertex -3.443459 3.696993 0.894277
      vertex -1.838117 3.584399 5.361172
      vertex -1.772859 3.915926 5.542753
    endloop
  endfacet
  facet normal -0.941071 0.000000 0.338208
    outer loop
      vertex -3.443459 3.696993 0.894277
      vertex -1.772859 3.915926 5.542753
      vertex -3.477393 3.853374 0.799855
    endloop
  endfacet
  facet normal -0.941071 0.000000 0.338208
    outer loop
      vertex -3.477393 3.853374 0.799855
      vertex -3.547871 4.641533 0.603747
      vertex -3.529599 3.822098 0.654590
    endloop
  endfacet
  facet normal -0.941071 0.000000 0.338208
    outer loop
      vertex -3.547871 4.641533 0.603747
      vertex -3.477393 3.853374 0.799855
      vertex -1.772859 3.915926 5.542753
    endloop
  endfacet
  facet normal -0.941071 0.000000 0.338208
    outer loop
      vertex -3.547871 4.641533 0.603747
      vertex -1.772859 3.915926 5.542753
      vertex -1.746756 4.341282 5.615386
    endloop
  endfacet
  facet normal -0.941071 -0.000000 0.338208
    outer loop
      vertex -3.547871 4.641533 0.603747
      vertex -1.746756 4.341282 5.615386
      vertex -1.778080 4.710340 5.528227
    endloop
  endfacet
  facet normal -0.941071 -0.000000 0.338208
    outer loop
      vertex -3.547871 4.641533 0.603747
      vertex -1.778080 4.710340 5.528227
      vertex -3.575183 5.079221 0.527751
    endloop
  endfacet
  facet normal -0.941071 0.000000 0.338208
    outer loop
      vertex -3.575183 5.079221 0.527751
      vertex -1.778080 4.710340 5.528227
      vertex -1.694550 4.897997 5.760651
    endloop
  endfacet
  facet normal -0.941071 -0.000000 0.338208
    outer loop
      vertex -3.575183 5.079221 0.527751
      vertex -1.694550 4.897997 5.760651
      vertex -1.665836 5.260800 5.840546
    endloop
  endfacet
  facet normal -0.941071 0.000000 0.338208
    outer loop
      vertex -3.575183 5.079221 0.527751
      vertex -1.665836 5.260800 5.840546
      vertex -3.589636 5.310842 0.487535
    endloop
  endfacet
  facet normal -0.941071 -0.000000 0.338208
    outer loop
      vertex -3.589636 5.310842 0.487535
      vertex -1.665836 5.260800 5.840546
      vertex -1.738925 5.880068 5.637175
    endloop
  endfacet
  facet normal -0.941071 0.000000 0.338208
    outer loop
      vertex -3.589636 5.310842 0.487535
      vertex -1.738925 5.880068 5.637175
      vertex -3.456510 5.561051 0.857961
    endloop
  endfacet
  facet normal -0.941071 -0.000000 0.338208
    outer loop
      vertex -3.456510 5.561051 0.857961
      vertex -1.738925 5.880068 5.637175
      vertex -3.464341 5.986407 0.836171
    endloop
  endfacet
  facet normal -0.941071 0.000000 0.338208
    outer loop
      vertex -3.464341 5.986407 0.836171
      vertex -1.738925 5.880068 5.637175
      vertex -1.758113 6.044538 5.583785
    endloop
  endfacet
  facet normal -0.941071 0.000000 0.338208
    outer loop
      vertex -3.464341 5.986407 0.836171
      vertex -1.758113 6.044538 5.583785
      vertex -3.456510 6.305423 0.857961
    endloop
  endfacet
  facet normal -0.941071 0.000000 0.338208
    outer loop
      vertex -3.456510 6.305423 0.857961
      vertex -1.758113 6.044538 5.583785
      vertex -1.806793 6.461804 5.448331
    endloop
  endfacet
  facet normal -0.941071 -0.000000 0.338208
    outer loop
      vertex -3.456510 6.305423 0.857961
      vertex -1.806793 6.461804 5.448331
      vertex -3.508717 6.480570 0.712696
    endloop
  endfacet
  facet normal -0.941071 -0.000000 0.338208
    outer loop
      vertex -3.508717 6.480570 0.712696
      vertex -1.806793 6.461804 5.448331
      vertex -1.835506 7.068561 5.368435
    endloop
  endfacet
  facet normal -0.941071 0.000000 0.338208
    outer loop
      vertex -3.508717 6.480570 0.712696
      vertex -1.835506 7.068561 5.368435
      vertex -3.547871 6.561887 0.603747
    endloop
  endfacet
  facet normal -0.941071 -0.000000 0.338208
    outer loop
      vertex -3.547871 6.561887 0.603747
      vertex -1.835506 7.068561 5.368435
      vertex -3.456510 6.874649 0.857961
    endloop
  endfacet
  facet normal -0.941071 0.000000 0.338208
    outer loop
      vertex -3.456510 6.874649 0.857961
      vertex -1.835506 7.068561 5.368435
      vertex -3.310333 8.075652 1.264702
    endloop
  endfacet
  facet normal -0.941071 0.000000 0.338208
    outer loop
      vertex -3.310333 8.075652 1.264702
      vertex -1.835506 7.068561 5.368435
      vertex -1.864220 7.462640 5.288540
    endloop
  endfacet
  facet normal -0.941071 -0.000000 0.338208
    outer loop
      vertex -3.310333 8.075652 1.264702
      vertex -1.864220 7.462640 5.288540
      vertex -2.056618 8.023047 4.753188
    endloop
  endfacet
  facet normal -0.941071 0.000000 0.338208
    outer loop
      vertex -3.310333 8.075652 1.264702
      vertex -2.056618 8.023047 4.753188
      vertex -2.182678 8.475987 4.402424
    endloop
  endfacet
  facet normal -0.941071 -0.000000 0.338208
    outer loop
      vertex -3.310333 8.075652 1.264702
      vertex -2.182678 8.475987 4.402424
      vertex -3.297281 8.613602 1.301018
    endloop
  endfacet
  facet normal -0.941071 0.000000 0.338208
    outer loop
      vertex -3.297281 8.613602 1.301018
      vertex -2.182678 8.475987 4.402424
      vertex -2.229664 8.744962 4.271685
    endloop
  endfacet
  facet normal -0.941071 0.000000 0.338208
    outer loop
      vertex -3.297281 8.613602 1.301018
      vertex -2.229664 8.744962 4.271685
      vertex -3.145883 8.682409 1.722287
    endloop
  endfacet
  facet normal -0.941071 0.000000 0.338208
    outer loop
      vertex -3.145883 8.682409 1.722287
      vertex -2.229664 8.744962 4.271685
      vertex -3.020588 8.948148 2.070922
    endloop
  endfacet
  facet normal -0.941071 0.000000 0.338208
    outer loop
      vertex -3.020588 8.948148 2.070922
      vertex -2.229664 8.744962 4.271685
      vertex -2.334076 9.045213 3.981156
    endloop
  endfacet
  facet normal -0.941071 0.000000 0.338208
    outer loop
      vertex -3.020588 8.948148 2.070922
      vertex -2.334076 9.045213 3.981156
      vertex -2.756947 9.220359 2.804510
    endloop
  endfacet
  facet normal -0.941071 0.000000 0.338208
    outer loop
      vertex -2.756947 9.220359 2.804510
      vertex -2.334076 9.045213 3.981156
      vertex -2.542901 9.295422 3.400096
    endloop
  endfacet
  facet normal -0.941071 -0.000000 0.338208
    outer loop
      vertex -3.218972 8.726196 1.518916
      vertex -3.297281 8.613602 1.301018
      vertex -3.145883 8.682409 1.722287
    endloop
  endfacet
  facet normal -0.941071 0.000000 0.338208
    outer loop
      vertex -3.456510 5.561051 0.857961
      vertex -3.581805 5.611093 0.509325
      vertex -3.589636 5.310842 0.487535
    endloop
  endfacet
  facet normal -0.941071 -0.000000 0.338208
    outer loop
      vertex -3.581805 5.611093 0.509325
      vertex -3.456510 5.561051 0.857961
      vertex -3.521768 5.704921 0.676379
    endloop
  endfacet
  facet normal -0.941071 -0.000000 0.338208
    outer loop
      vertex -2.585881 0.899488 3.280503
      vertex -2.636985 0.000000 3.138305
      vertex -2.605519 0.000000 3.225860
    endloop
  endfacet
  facet normal -0.941071 -0.000000 0.338208
    outer loop
      vertex -2.636985 0.000000 3.138305
      vertex -2.585881 0.899488 3.280503
      vertex -2.668451 0.000000 3.050750
    endloop
  endfacet
  facet normal -0.941071 0.000000 0.338208
    outer loop
      vertex -2.668451 0.000000 3.050750
      vertex -2.585881 0.899488 3.280503
      vertex -2.731384 0.000000 2.875639
    endloop
  endfacet
  facet normal -0.941071 -0.000000 0.338208
    outer loop
      vertex -2.731384 0.000000 2.875639
      vertex -2.585881 0.899488 3.280503
      vertex -2.687553 1.134269 2.997599
    endloop
  endfacet
  facet normal -0.941071 0.000000 0.338208
    outer loop
      vertex -2.687553 1.134269 2.997599
      vertex -2.585881 0.899488 3.280503
      vertex -2.605519 1.759125 3.225860
    endloop
  endfacet
  facet normal -0.941071 0.000000 0.338208
    outer loop
      vertex -2.687553 1.134269 2.997599
      vertex -2.605519 1.759125 3.225860
      vertex -2.700989 2.006213 2.960213
    endloop
  endfacet
  facet normal -0.941071 0.000000 0.338208
    outer loop
      vertex -2.700989 2.006213 2.960213
      vertex -2.605519 1.759125 3.225860
      vertex -2.636985 2.511278 3.138305
    endloop
  endfacet
  facet normal -0.941071 0.000000 0.338208
    outer loop
      vertex -2.700989 2.006213 2.960213
      vertex -2.636985 2.511278 3.138305
      vertex -2.709211 2.539776 2.937335
    endloop
  endfacet
  facet normal -0.941071 0.000000 0.338208
    outer loop
      vertex -2.709211 2.539776 2.937335
      vertex -2.636985 2.511278 3.138305
      vertex -2.636985 2.539776 3.138305
    endloop
  endfacet
  facet normal -0.941071 0.000000 0.338208
    outer loop
      vertex -2.703291 2.120711 2.953808
      vertex -2.766555 2.142206 2.777775
      vertex -2.700989 2.006213 2.960213
    endloop
  endfacet
  facet normal -0.941071 0.000000 0.338208
    outer loop
      vertex -2.766555 2.142206 2.777775
      vertex -2.703291 2.120711 2.953808
      vertex -2.775755 2.245128 2.752176
    endloop
  endfacet
  facet normal -0.941071 0.000000 0.338208
    outer loop
      vertex -2.766555 2.142206 2.777775
      vertex -2.775755 2.245128 2.752176
      vertex -2.825633 2.433077 2.613390
    endloop
  endfacet
  facet normal -0.941071 -0.000000 0.338208
    outer loop
      vertex -2.565453 1.277644 3.337343
      vertex -2.605519 0.000000 3.225860
      vertex -2.553869 0.000000 3.369577
    endloop
  endfacet
  facet normal -0.941071 -0.000000 0.338208
    outer loop
      vertex -2.605519 0.000000 3.225860
      vertex -2.565453 1.277644 3.337343
      vertex -2.585881 0.899488 3.280503
    endloop
  endfacet
  facet normal -0.941071 0.000000 0.338208
    outer loop
      vertex -2.585881 0.899488 3.280503
      vertex -2.565453 1.277644 3.337343
      vertex -2.605519 1.759125 3.225860
    endloop
  endfacet
  facet normal -0.941071 0.000000 0.338208
    outer loop
      vertex -2.605519 1.759125 3.225860
      vertex -2.565453 1.277644 3.337343
      vertex -2.565453 2.539776 3.337343
    endloop
  endfacet
  facet normal -0.941071 -0.000000 0.338208
    outer loop
      vertex -2.605519 1.759125 3.225860
      vertex -2.565453 2.539776 3.337343
      vertex -2.636985 2.511278 3.138305
    endloop
  endfacet
  facet normal -0.941071 0.000000 0.338208
    outer loop
      vertex -2.636985 2.511278 3.138305
      vertex -2.565453 2.539776 3.337343
      vertex -2.636985 2.539776 3.138305
    endloop
  endfacet
endsolid ww2w
