mtllib materials.mtl
o wwrr

v 15.000000 0.000000 15.000000
v -15.000000 0.000000 10.000000
v -15.000000 0.000000 15.000000
v -15.000000 0.000000 10.000000
v 15.000000 0.000000 15.000000
v 15.000000 0.000000 10.000000
v 15.000000 -0.300000 10.000000
v -15.000000 -0.300000 -15.000000
v -15.000000 -0.300000 10.000000
v -15.000000 -0.300000 -15.000000
v 15.000000 -0.300000 10.000000
v 15.000000 -0.300000 -15.000000
v -15.000000 -0.300000 -15.000000
v -15.000000 0.000000 10.000000
v -15.000000 -0.300000 10.000000
v -15.000000 0.000000 10.000000
v -15.000000 -0.300000 -15.000000
v -15.000000 0.000000 -15.000000
v -15.000000 0.000000 10.000000
v 15.000000 -0.300000 10.000000
v -15.000000 -0.300000 10.000000
v 15.000000 -0.300000 10.000000
v -15.000000 0.000000 10.000000
v 15.000000 0.000000 10.000000
v 15.000000 0.000000 -15.000000
v 15.000000 -0.300000 10.000000
v 15.000000 0.000000 10.000000
v 15.000000 -0.300000 10.000000
v 15.000000 0.000000 -15.000000
v 15.000000 -0.300000 -15.000000
v 15.000000 0.000000 -15.000000
v -15.000000 -0.300000 -15.000000
v 15.000000 -0.300000 -15.000000
v -15.000000 -0.300000 -15.000000
v 15.000000 0.000000 -15.000000
v -15.000000 0.000000 -15.000000
v -4.812475 2.221011 9.156569
v -5.096999 2.127182 8.364876
v -4.976924 2.083396 8.698985
v -5.096999 2.127182 8.364876
v -4.812475 2.221011 9.156569
v -5.293825 2.239776 7.817203
v -5.293825 2.239776 7.817203
v -4.812475 2.221011 9.156569
v -4.799423 2.427433 9.192885
v -5.293825 2.239776 7.817203
v -4.799423 2.427433 9.192885
v -5.379025 2.239776 7.580131
v -5.379025 2.239776 7.580131
v -4.799423 2.427433 9.192885
v -5.465053 2.239776 7.340758
v -5.603721 2.131506 6.954911
v -6.013218 2.521262 5.815477
v -5.715643 2.095906 6.643487
v -6.013218 2.521262 5.815477
v -5.603721 2.131506 6.954911
v -5.465053 2.239776 7.340758
v -6.013218 2.521262 5.815477
v -5.465053 2.239776 7.340758
v -4.799423 2.427433 9.192885
v -6.013218 2.521262 5.815477
v -4.799423 2.427433 9.192885
v -4.718504 2.696408 9.418046
v -6.013218 2.521262 5.815477
v -4.718504 2.696408 9.418046
v -6.086307 2.540027 5.612106
v -6.086307 2.540027 5.612106
v -4.718504 2.696408 9.418046
v -6.232485 3.034190 5.205364
v -6.232485 3.034190 5.205364
v -4.718504 2.696408 9.418046
v -4.731555 2.965383 9.381730
v -6.232485 3.034190 5.205364
v -4.731555 2.965383 9.381730
v -4.580157 3.284399 9.802998
v -6.232485 3.034190 5.205364
v -4.580157 3.284399 9.802998
v -6.185499 3.396993 5.336103
v -6.185499 3.396993 5.336103
v -4.580157 3.284399 9.802998
v -4.514899 3.615926 9.984579
v -6.185499 3.396993 5.336103
v -4.514899 3.615926 9.984579
v -6.219433 3.553374 5.241680
v -6.219433 3.553374 5.241680
v -6.289911 4.341533 5.045573
v -6.271639 3.522098 5.096416
v -6.289911 4.341533 5.045573
v -6.219433 3.553374 5.241680
v -4.514899 3.615926 9.984579
v -6.289911 4.341533 5.045573
v -4.514899 3.615926 9.984579
v -4.488796 4.041282 10.057212
v -6.289911 4.341533 5.045573
v -4.488796 4.041282 10.057212
v -4.520120 4.410340 9.970053
v -6.289911 4.341533 5.045573
v -4.520120 4.410340 9.970053
v -6.317223 4.779221 4.969577
v -6.317223 4.779221 4.969577
v -4.520120 4.410340 9.970053
v -4.436590 4.597997 10.202476
v -6.317223 4.779221 4.969577
v -4.436590 4.597997 10.202476
v -4.407876 4.960800 10.282372
v -6.317223 4.779221 4.969577
v -4.407876 4.960800 10.282372
v -6.331676 5.010842 4.929361
v -6.331676 5.010842 4.929361
v -4.407876 4.960800 10.282372
v -4.480965 5.580068 10.079001
v -6.331676 5.010842 4.929361
v -4.480965 5.580068 10.079001
v -6.198551 5.261051 5.299786
v -6.198551 5.261051 5.299786
v -4.480965 5.580068 10.079001
v -6.206381 5.686407 5.277997
v -6.206381 5.686407 5.277997
v -4.480965 5.580068 10.079001
v -4.500153 5.744538 10.025611
v -6.206381 5.686407 5.277997
v -4.500153 5.744538 10.025611
v -6.198551 6.005423 5.299786
v -6.198551 6.005423 5.299786
v -4.500153 5.744538 10.025611
v -4.548833 6.161804 9.890157
v -6.198551 6.005423 5.299786
v -4.548833 6.161804 9.890157
v -6.250757 6.180570 5.154522
v -6.250757 6.180570 5.154522
v -4.548833 6.161804 9.890157
v -4.577547 6.768561 9.810261
v -6.250757 6.180570 5.154522
v -4.577547 6.768561 9.810261
v -6.289911 6.261887 5.045573
v -6.289911 6.261887 5.045573
v -4.577547 6.768561 9.810261
v -6.198551 6.574649 5.299786
v -6.198551 6.574649 5.299786
v -4.577547 6.768561 9.810261
v -6.052373 7.775652 5.706528
v -6.052373 7.775652 5.706528
v -4.577547 6.768561 9.810261
v -4.606260 7.162640 9.730366
v -6.052373 7.775652 5.706528
v -4.606260 7.162640 9.730366
v -4.798658 7.723047 9.195014
v -6.052373 7.775652 5.706528
v -4.798658 7.723047 9.195014
v -4.924718 8.175987 8.844250
v -6.052373 7.775652 5.706528
v -4.924718 8.175987 8.844250
v -6.039321 8.313602 5.742844
v -6.039321 8.313602 5.742844
v -4.924718 8.175987 8.844250
v -4.971704 8.444962 8.713511
v -6.039321 8.313602 5.742844
v -4.971704 8.444962 8.713511
v -5.887923 8.382409 6.164113
v -5.887923 8.382409 6.164113
v -4.971704 8.444962 8.713511
v -5.762628 8.648148 6.512748
v -5.762628 8.648148 6.512748
v -4.971704 8.444962 8.713511
v -5.076116 8.745213 8.422982
v -5.762628 8.648148 6.512748
v -5.076116 8.745213 8.422982
v -5.498987 8.920359 7.246336
v -5.498987 8.920359 7.246336
v -5.076116 8.745213 8.422982
v -5.284941 8.995422 7.841922
v -5.961012 8.426196 5.960742
v -6.039321 8.313602 5.742844
v -5.887923 8.382409 6.164113
v -6.198551 5.261051 5.299786
v -6.323846 5.311093 4.951151
v -6.331676 5.010842 4.929361
v -6.323846 5.311093 4.951151
v -6.198551 5.261051 5.299786
v -6.263808 5.404921 5.118205
v -5.327921 0.599488 7.722329
v -5.379025 -0.300000 7.580131
v -5.347559 -0.300000 7.667686
v -5.379025 -0.300000 7.580131
v -5.327921 0.599488 7.722329
v -5.410492 -0.300000 7.492576
v -5.410492 -0.300000 7.492576
v -5.327921 0.599488 7.722329
v -5.473424 -0.300000 7.317465
v -5.473424 -0.300000 7.317465
v -5.327921 0.599488 7.722329
v -5.429593 0.834269 7.439425
v -5.429593 0.834269 7.439425
v -5.327921 0.599488 7.722329
v -5.347559 1.459125 7.667686
v -5.429593 0.834269 7.439425
v -5.347559 1.459125 7.667686
v -5.443029 1.706213 7.402039
v -5.443029 1.706213 7.402039
v -5.347559 1.459125 7.667686
v -5.379025 2.211278 7.580131
v -5.443029 1.706213 7.402039
v -5.379025 2.211278 7.580131
v -5.451251 2.239776 7.379161
v -5.451251 2.239776 7.379161
v -5.379025 2.211278 7.580131
v -5.379025 2.239776 7.580131
v -5.445331 1.820711 7.395634
v -5.508595 1.842206 7.219601
v -5.443029 1.706213 7.402039
v -5.508595 1.842206 7.219601
v -5.445331 1.820711 7.395634
v -5.517795 1.945128 7.194002
v -5.508595 1.842206 7.219601
v -5.517795 1.945128 7.194002
v -5.567673 2.133077 7.055216
v -5.307494 0.977644 7.779169
v -5.347559 -0.300000 7.667686
v -5.295910 -0.300000 7.811403
v -5.347559 -0.300000 7.667686
v -5.307494 0.977644 7.779169
v -5.327921 0.599488 7.722329
v -5.327921 0.599488 7.722329
v -5.307494 0.977644 7.779169
v -5.347559 1.459125 7.667686
v -5.347559 1.459125 7.667686
v -5.307494 0.977644 7.779169
v -5.307494 2.239776 7.779169
v -5.347559 1.459125 7.667686
v -5.307494 2.239776 7.779169
v -5.379025 2.211278 7.580131
v -5.379025 2.211278 7.580131
v -5.307494 2.239776 7.779169
v -5.379025 2.239776 7.580131
vn 0.000000 1.000000 -0.000000
vn -0.000000 1.000000 -0.000000
vn 0.000000 1.000000 -0.000000
vn -0.000000 1.000000 -0.000000
vn 1.000000 0.000000 -0.000000
vn 1.000000 0.000000 0.000000
vn 0.000000 0.000000 -1.000000
vn 0.000000 -0.000000 -1.000000
vn -1.000000 0.000000 0.000000
vn -1.000000 0.000000 -0.000000
vn 0.000000 -0.000000 1.000000
vn 0.000000 0.000000 1.000000
vn -0.941071 -0.000000 0.338208
vn -0.941071 0.000000 0.338208
vn -0.941071 -0.000000 0.338208
vn -0.941071 -0.000000 0.338208
vn -0.941071 0.000000 0.338208
vn -0.941071 -0.000000 0.338208
vn -0.941071 0.000000 0.338208
vn -0.941071 0.000000 0.338208
vn -0.941071 0.000000 0.338208
vn -0.941071 -0.000000 0.338208
vn -0.941071 0.000000 0.338208
vn -0.941071 -0.000000 0.338208
vn -0.941071 -0.000000 0.338208
vn -0.941071 0.000000 0.338208
vn -0.941071 -0.000000 0.338208
vn -0.941071 -0.000000 0.338208
vn -0.941071 -0.000000 0.338208
vn -0.941071 0.000000 0.338208
vn -0.941071 0.000000 0.338208
vn -0.941071 0.000000 0.338208
vn -0.941071 0.000000 0.338208
vn -0.941071 0.000000 0.338208
vn -0.941071 0.000000 0.338208
vn -0.941071 -0.000000 0.338208
vn -0.941071 0.000000 0.338208
vn -0.941071 0.000000 0.338208
vn -0.941071 -0.000000 0.338208
vn -0.941071 0.000000 0.338208
vn -0.941071 0.000000 0.338208
vn -0.941071 -0.000000 0.338208
vn -0.941071 -0.000000 0.338208
vn -0.941071 -0.000000 0.338208
vn -0.941071 -0.000000 0.338208
vn -0.941071 0.000000 0.338208
vn -0.941071 -0.000000 0.338208
vn -0.941071 0.000000 0.338208
vn -0.941071 -0.000000 0.338208
vn -0.941071 0.000000 0.338208
vn -0.941071 -0.000000 0.338208
vn -0.941071 -0.000000 0.338208
vn -0.941071 -0.000000 0.338208
vn -0.941071 0.000000 0.338208
vn -0.941071 -0.000000 0.338208
vn -0.941071 0.000000 0.338208
vn -0.941071 -0.000000 0.338208
vn -0.941071 -0.000000 0.338208
vn -0.941071 -0.000000 0.338208
vn -0.941071 0.000000 0.338208
vn -0.941071 -0.000000 0.338208
vn -0.941071 -0.000000 0.338208
vn -0.941071 -0.000000 0.338208
vn -0.941071 0.000000 0.338208
vn -0.941071 -0.000000 0.338208
vn -0.941071 -0.000000 0.338208
vn -0.941071 0.000000 0.338208
vn -0.941071 0.000000 0.338208
vn -0.941071 0.000000 0.338208
vn -0.941071 0.000000 0.338208
vn -0.941071 -0.000000 0.338208
vn -0.941071 0.000000 0.338208
vn -0.941071 -0.000000 0.338208
vn -0.941071 -0.000000 0.338208
vn -0.941071 0.000000 0.338208
vn -0.941071 0.000000 0.338208
vn -0.941071 0.000000 0.338208
vn -0.941071 0.000000 0.338208

usemtl road
f 1//1 2//1 3//1
f 4//2 5//2 6//2
usemtl _default
f 7//3 8//3 9//3
f 10//4 11//4 12//4
f 13//5 14//5 15//5
f 16//6 17//6 18//6
f 19//7 20//7 21//7
f 22//8 23//8 24//8
f 25//9 26//9 27//9
f 28//10 29//10 30//10
f 31//11 32//11 33//11
f 34//12 35//12 36//12
f 37//13 38//13 39//13
f 40//14 41//14 42//14
f 43//15 44//15 45//15
f 46//16 47//16 48//16
f 49//17 50//17 51//17
f 52//18 53//18 54//18
f 55//19 56//19 57//19
f 58//20 59//20 60//20
f 61//21 62//21 63//21
f 64//22 65//22 66//22
f 67//23 68//23 69//23
f 70//24 71//24 72//24
f 73//25 74//25 75//25
f 76//26 77//26 78//26
f 79//27 80//27 81//27
f 82//28 83//28 84//28
f 85//29 86//29 87//29
f 88//30 89//30 90//30
f 91//31 92//31 93//31
f 94//32 95//32 96//32
f 97//33 98//33 99//33
f 100//34 101//34 102//34
f 103//35 104//35 105//35
f 106//36 107//36 108//36
f 109//37 110//37 111//37
f 112//38 113//38 114//38
f 115//39 116//39 117//39
f 118//40 119//40 120//40
f 121//41 122//41 123//41
f 124//42 125//42 126//42
f 127//43 128//43 129//43
f 130//44 131//44 132//44
f 133//45 134//45 135//45
f 136//46 137//46 138//46
f 139//47 140//47 141//47
f 142//48 143//48 144//48
f 145//49 146//49 147//49
f 148//50 149//50 150//50
f 151//51 152//51 153//51
f 154//52 155//52 156//52
f 157//53 158//53 159//53
f 160//54 161//54 162//54
f 163//55 164//55 165//55
f 166//56 167//56 168//56
f 169//57 170//57 171//57
f 172//58 173//58 174//58
f 175//59 176//59 177//59
f 178//60 179//60 180//60
f 181//61 182//61 183//61
f 184//62 185//62 186//62
f 187//63 188//63 189//63
f 190//64 191//64 192//64
f 193//65 194//65 195//65
f 196//66 197//66 198//66
f 199//67 200//67 201//67
f 202//68 203//68 204//68
f 205//69 206//69 207//69
f 208//70 209//70 210//70
f 211//71 212//71 213//71
f 214//72 215//72 216//72
f 217//73 218//73 219//73
f 220//74 221//74 222//74
f 223//75 224//75 225//75
f 226//76 227//76 228//76
f 229//77 230//77 231//77
f 232//78 233//78 234//78
