mtllib materials.mtl
o wwrw

v 15.000000 0.000000 10.000000
v 14.347369 -0.300000 10.042776
v 14.347369 0.000000 10.042776
v 14.347369 -0.300000 10.042776
v 15.000000 0.000000 10.000000
v 15.000000 -0.300000 10.000000
v 11.956193 0.000000 11.033233
v 11.464466 -0.300000 11.464466
v 11.464466 0.000000 11.464466
v 11.464466 -0.300000 11.464466
v 11.956193 0.000000 11.033233
v 11.956193 -0.300000 11.033233
v 10.042776 0.000000 14.347369
v 10.170371 -0.300000 13.705905
v 10.042776 -0.300000 14.347369
v 10.170371 -0.300000 13.705905
v 10.042776 0.000000 14.347369
v 10.170371 0.000000 13.705905
v 10.669873 0.000000 12.500000
v 11.033233 -0.300000 11.956193
v 10.669873 -0.300000 12.500000
v 11.033233 -0.300000 11.956193
v 10.669873 0.000000 12.500000
v 11.033233 0.000000 11.956193
v 14.347369 0.000000 10.042776
v 15.000000 0.000000 15.000000
v 15.000000 0.000000 10.000000
v 15.000000 0.000000 15.000000
v 14.347369 0.000000 10.042776
v 13.705905 0.000000 10.170371
v 15.000000 0.000000 15.000000
v 13.705905 0.000000 10.170371
v 13.086583 0.000000 10.380602
v 15.000000 0.000000 15.000000
v 13.086583 0.000000 10.380602
v 12.500000 0.000000 10.669873
v 15.000000 0.000000 15.000000
v 12.500000 0.000000 10.669873
v 11.956193 0.000000 11.033233
v 15.000000 0.000000 15.000000
v 11.956193 0.000000 11.033233
v 11.464466 0.000000 11.464466
v 15.000000 0.000000 15.000000
v 11.464466 0.000000 11.464466
v 11.033233 0.000000 11.956193
v 15.000000 0.000000 15.000000
v 11.033233 0.000000 11.956193
v 10.669873 0.000000 12.500000
v 15.000000 0.000000 15.000000
v 10.669873 0.000000 12.500000
v 10.380602 0.000000 13.086583
v 15.000000 0.000000 15.000000
v 10.380602 0.000000 13.086583
v 10.170371 0.000000 13.705905
v 15.000000 0.000000 15.000000
v 10.170371 0.000000 13.705905
v 10.042776 0.000000 14.347369
v 15.000000 0.000000 15.000000
v 10.042776 0.000000 14.347369
v 10.000000 0.000000 15.000000
v 13.086583 0.000000 10.380602
v 12.500000 -0.300000 10.669873
v 12.500000 0.000000 10.669873
v 12.500000 -0.300000 10.669873
v 13.086583 0.000000 10.380602
v 13.086583 -0.300000 10.380602
v 14.347369 0.000000 10.042776
v 13.705905 -0.300000 10.170371
v 13.705905 0.000000 10.170371
v 13.705905 -0.300000 10.170371
v 14.347369 0.000000 10.042776
v 14.347369 -0.300000 10.042776
v 10.000000 0.000000 15.000000
v 10.042776 -0.300000 14.347369
v 10.000000 -0.300000 15.000000
v 10.042776 -0.300000 14.347369
v 10.000000 0.000000 15.000000
v 10.042776 0.000000 14.347369
v 10.170371 0.000000 13.705905
v 10.380602 -0.300000 13.086583
v 10.170371 -0.300000 13.705905
v 10.380602 -0.300000 13.086583
v 10.170371 0.000000 13.705905
v 10.380602 0.000000 13.086583
v 13.705905 0.000000 10.170371
v 13.086583 -0.300000 10.380602
v 13.086583 0.000000 10.380602
v 13.086583 -0.300000 10.380602
v 13.705905 0.000000 10.170371
v 13.705905 -0.300000 10.170371
v 10.380602 0.000000 13.086583
v 10.669873 -0.300000 12.500000
v 10.380602 -0.300000 13.086583
v 10.669873 -0.300000 12.500000
v 10.380602 0.000000 13.086583
v 10.669873 0.000000 12.500000
v 11.033233 0.000000 11.956193
v 11.464466 -0.300000 11.464466
v 11.033233 -0.300000 11.956193
v 11.464466 -0.300000 11.464466
v 11.033233 0.000000 11.956193
v 11.464466 0.000000 11.464466
v 12.500000 0.000000 10.669873
v 11.956193 -0.300000 11.033233
v 11.956193 0.000000 11.033233
v 11.956193 -0.300000 11.033233
v 12.500000 0.000000 10.669873
v 12.500000 -0.300000 10.669873
v 15.000000 0.000000 10.000000
v 15.000000 -0.300000 -0.000000
v 15.000000 -0.300000 10.000000
v 15.000000 -0.300000 -0.000000
v 15.000000 0.000000 10.000000
v 15.000000 0.000000 -0.000000
v 15.000000 0.000000 15.000000
v -15.000000 -0.300000 15.000000
v 15.000000 -0.300000 15.000000
v -15.000000 -0.300000 15.000000
v 15.000000 0.000000 15.000000
v -15.000000 0.000000 15.000000
v 15.000000 -0.300000 -15.000000
v 15.000000 0.000000 15.000000
v 15.000000 -0.300000 15.000000
v 15.000000 0.000000 15.000000
v 15.000000 -0.300000 -15.000000
v 15.000000 0.000000 -15.000000
v -15.000000 0.000000 -15.000000
v 15.000000 -0.300000 -15.000000
v -15.000000 -0.300000 -15.000000
v 15.000000 -0.300000 -15.000000
v -15.000000 0.000000 -15.000000
v 15.000000 0.000000 -15.000000
v -15.000000 0.000000 -15.000000
v -15.000000 -0.300000 15.000000
v -15.000000 0.000000 15.000000
v -15.000000 -0.300000 15.000000
v -15.000000 0.000000 -15.000000
v -15.000000 -0.300000 -15.000000
v 8.287741 2.221011 9.300315
v 8.003217 2.127182 8.508621
v 8.123291 2.083396 8.842730
v 8.003217 2.127182 8.508621
v 8.287741 2.221011 9.300315
v 7.806390 2.239776 7.960949
v 7.806390 2.239776 7.960949
v 8.287741 2.221011 9.300315
v 8.300792 2.427433 9.336631
v 7.806390 2.239776 7.960949
v 8.300792 2.427433 9.336631
v 7.721190 2.239776 7.723876
v 7.721190 2.239776 7.723876
v 8.300792 2.427433 9.336631
v 7.635163 2.239776 7.484504
v 7.496494 2.131506 7.098657
v 7.086997 2.521262 5.959222
v 7.384573 2.095906 6.787232
v 7.086997 2.521262 5.959222
v 7.496494 2.131506 7.098657
v 7.635163 2.239776 7.484504
v 7.086997 2.521262 5.959222
v 7.635163 2.239776 7.484504
v 8.300792 2.427433 9.336631
v 7.086997 2.521262 5.959222
v 8.300792 2.427433 9.336631
v 8.381712 2.696408 9.561792
v 7.086997 2.521262 5.959222
v 8.381712 2.696408 9.561792
v 7.013908 2.540027 5.755851
v 7.013908 2.540027 5.755851
v 8.381712 2.696408 9.561792
v 6.867731 3.034190 5.349110
v 6.867731 3.034190 5.349110
v 8.381712 2.696408 9.561792
v 8.368660 2.965383 9.525475
v 6.867731 3.034190 5.349110
v 8.368660 2.965383 9.525475
v 8.520058 3.284399 9.946743
v 6.867731 3.034190 5.349110
v 8.520058 3.284399 9.946743
v 6.914716 3.396993 5.479848
v 6.914716 3.396993 5.479848
v 8.520058 3.284399 9.946743
v 8.585316 3.615926 10.128325
v 6.914716 3.396993 5.479848
v 8.585316 3.615926 10.128325
v 6.880782 3.553374 5.385426
v 6.880782 3.553374 5.385426
v 6.810304 4.341533 5.189318
v 6.828576 3.522098 5.240161
v 6.810304 4.341533 5.189318
v 6.880782 3.553374 5.385426
v 8.585316 3.615926 10.128325
v 6.810304 4.341533 5.189318
v 8.585316 3.615926 10.128325
v 8.611419 4.041282 10.200957
v 6.810304 4.341533 5.189318
v 8.611419 4.041282 10.200957
v 8.580096 4.410340 10.113798
v 6.810304 4.341533 5.189318
v 8.580096 4.410340 10.113798
v 6.782992 4.779221 5.113323
v 6.782992 4.779221 5.113323
v 8.580096 4.410340 10.113798
v 8.663626 4.597997 10.346222
v 6.782992 4.779221 5.113323
v 8.663626 4.597997 10.346222
v 8.692339 4.960800 10.426118
v 6.782992 4.779221 5.113323
v 8.692339 4.960800 10.426118
v 6.768539 5.010842 5.073106
v 6.768539 5.010842 5.073106
v 8.692339 4.960800 10.426118
v 8.619250 5.580068 10.222747
v 6.768539 5.010842 5.073106
v 8.619250 5.580068 10.222747
v 6.901665 5.261051 5.443532
v 6.901665 5.261051 5.443532
v 8.619250 5.580068 10.222747
v 6.893834 5.686407 5.421742
v 6.893834 5.686407 5.421742
v 8.619250 5.580068 10.222747
v 8.600062 5.744538 10.169356
v 6.893834 5.686407 5.421742
v 8.600062 5.744538 10.169356
v 6.901665 6.005423 5.443532
v 6.901665 6.005423 5.443532
v 8.600062 5.744538 10.169356
v 8.551382 6.161804 10.033902
v 6.901665 6.005423 5.443532
v 8.551382 6.161804 10.033902
v 6.849459 6.180570 5.298267
v 6.849459 6.180570 5.298267
v 8.551382 6.161804 10.033902
v 8.522669 6.768561 9.954007
v 6.849459 6.180570 5.298267
v 8.522669 6.768561 9.954007
v 6.810304 6.261887 5.189318
v 6.810304 6.261887 5.189318
v 8.522669 6.768561 9.954007
v 6.901665 6.574649 5.443532
v 6.901665 6.574649 5.443532
v 8.522669 6.768561 9.954007
v 7.047842 7.775652 5.850274
v 7.047842 7.775652 5.850274
v 8.522669 6.768561 9.954007
v 8.493955 7.162640 9.874111
v 7.047842 7.775652 5.850274
v 8.493955 7.162640 9.874111
v 8.301557 7.723047 9.338760
v 7.047842 7.775652 5.850274
v 8.301557 7.723047 9.338760
v 8.175497 8.175987 8.987995
v 7.047842 7.775652 5.850274
v 8.175497 8.175987 8.987995
v 7.060894 8.313602 5.886590
v 7.060894 8.313602 5.886590
v 8.175497 8.175987 8.987995
v 8.128512 8.444962 8.857257
v 7.060894 8.313602 5.886590
v 8.128512 8.444962 8.857257
v 7.212292 8.382409 6.307858
v 7.212292 8.382409 6.307858
v 8.128512 8.444962 8.857257
v 7.337587 8.648148 6.656494
v 7.337587 8.648148 6.656494
v 8.128512 8.444962 8.857257
v 8.024099 8.745213 8.566727
v 7.337587 8.648148 6.656494
v 8.024099 8.745213 8.566727
v 7.601228 8.920359 7.390081
v 7.601228 8.920359 7.390081
v 8.024099 8.745213 8.566727
v 7.815274 8.995422 7.985667
v 7.139203 8.426196 6.104487
v 7.060894 8.313602 5.886590
v 7.212292 8.382409 6.307858
v 6.901665 5.261051 5.443532
v 6.776370 5.311093 5.094896
v 6.768539 5.010842 5.073106
v 6.776370 5.311093 5.094896
v 6.901665 5.261051 5.443532
v 6.836407 5.404921 5.261951
v 7.772294 0.599488 7.866075
v 7.721190 -0.300000 7.723876
v 7.752656 -0.300000 7.811432
v 7.721190 -0.300000 7.723876
v 7.772294 0.599488 7.866075
v 7.689724 -0.300000 7.636321
v 7.689724 -0.300000 7.636321
v 7.772294 0.599488 7.866075
v 7.626791 -0.300000 7.461211
v 7.626791 -0.300000 7.461211
v 7.772294 0.599488 7.866075
v 7.670622 0.834269 7.583171
v 7.670622 0.834269 7.583171
v 7.772294 0.599488 7.866075
v 7.752656 1.459125 7.811432
v 7.670622 0.834269 7.583171
v 7.752656 1.459125 7.811432
v 7.657186 1.706213 7.545784
v 7.657186 1.706213 7.545784
v 7.752656 1.459125 7.811432
v 7.721190 2.211278 7.723876
v 7.657186 1.706213 7.545784
v 7.721190 2.211278 7.723876
v 7.648964 2.239776 7.522907
v 7.648964 2.239776 7.522907
v 7.721190 2.211278 7.723876
v 7.721190 2.239776 7.723876
v 7.654884 1.820711 7.539380
v 7.591620 1.842206 7.363347
v 7.657186 1.706213 7.545784
v 7.591620 1.842206 7.363347
v 7.654884 1.820711 7.539380
v 7.582420 1.945128 7.337747
v 7.591620 1.842206 7.363347
v 7.582420 1.945128 7.337747
v 7.532543 2.133077 7.198962
v 7.792722 0.977644 7.922915
v 7.752656 -0.300000 7.811432
v 7.804306 -0.300000 7.955148
v 7.752656 -0.300000 7.811432
v 7.792722 0.977644 7.922915
v 7.772294 0.599488 7.866075
v 7.772294 0.599488 7.866075
v 7.792722 0.977644 7.922915
v 7.752656 1.459125 7.811432
v 7.752656 1.459125 7.811432
v 7.792722 0.977644 7.922915
v 7.792722 2.239776 7.922915
v 7.752656 1.459125 7.811432
v 7.792722 2.239776 7.922915
v 7.721190 2.211278 7.723876
v 7.721190 2.211278 7.723876
v 7.792722 2.239776 7.922915
v 7.721190 2.239776 7.723876
vn -0.065403 0.000000 -0.997859
vn -0.065403 0.000000 -0.997859
vn -0.659346 0.000000 -0.751840
vn -0.659346 0.000000 -0.751840
vn -0.980785 0.000000 -0.195090
vn -0.980785 0.000000 -0.195090
vn -0.831470 0.000000 -0.555570
vn -0.831470 0.000000 -0.555570
vn -0.000000 1.000000 -0.000000
vn 0.000000 1.000000 -0.000000
vn 0.000000 1.000000 -0.000000
vn 0.000000 1.000000 -0.000000
vn 0.000000 1.000000 -0.000000
vn 0.000000 1.000000 -0.000000
vn 0.000000 1.000000 -0.000000
vn 0.000000 1.000000 -0.000000
vn 0.000000 1.000000 -0.000000
vn 0.000000 1.000000 -0.000000
vn 0.000000 1.000000 -0.000000
vn 0.000000 1.000000 -0.000000
vn -0.442289 0.000000 -0.896873
vn -0.442289 0.000000 -0.896873
vn -0.195090 0.000000 -0.980785
vn -0.195090 0.000000 -0.980785
vn -0.997859 0.000000 -0.065403
vn -0.997859 0.000000 -0.065403
vn -0.946930 0.000000 -0.321439
vn -0.946930 0.000000 -0.321439
vn -0.321439 0.000000 -0.946930
vn -0.321439 0.000000 -0.946930
vn -0.896873 0.000000 -0.442289
vn -0.896873 0.000000 -0.442289
vn -0.751840 0.000000 -0.659346
vn -0.751840 0.000000 -0.659346
vn -0.555570 0.000000 -0.831470
vn -0.555570 0.000000 -0.831470
vn -1.000000 0.000000 -0.000000
vn -1.000000 0.000000 -0.000000
vn 0.000000 -0.000000 1.000000
vn 0.000000 0.000000 1.000000
vn 1.000000 0.000000 -0.000000
vn 1.000000 0.000000 0.000000
vn 0.000000 0.000000 -1.000000
vn 0.000000 -0.000000 -1.000000
vn -1.000000 0.000000 0.000000
vn -1.000000 0.000000 -0.000000
vn -0.941071 0.000000 0.338208
vn -0.941071 -0.000000 0.338208
vn -0.941071 -0.000000 0.338208
vn -0.941071 -0.000000 0.338208
vn -0.941071 -0.000000 0.338208
vn -0.941071 -0.000000 0.338208
vn -0.941071 -0.000000 0.338208
vn -0.941071 0.000000 0.338208
vn -0.941071 0.000000 0.338208
vn -0.941071 0.000000 0.338208
vn -0.941071 0.000000 0.338208
vn -0.941071 0.000000 0.338208
vn -0.941071 0.000000 0.338208
vn -0.941071 -0.000000 0.338208
vn -0.941071 -0.000000 0.338208
vn -0.941071 0.000000 0.338208
vn -0.941071 0.000000 0.338208
vn -0.941071 0.000000 0.338208
vn -0.941071 0.000000 0.338208
vn -0.941071 -0.000000 0.338208
vn -0.941071 -0.000000 0.338208
vn -0.941071 -0.000000 0.338208
vn -0.941071 0.000000 0.338208
vn -0.941071 0.000000 0.338208
vn -0.941071 -0.000000 0.338208
vn -0.941071 0.000000 0.338208
vn -0.941071 -0.000000 0.338208
vn -0.941071 0.000000 0.338208
vn -0.941071 0.000000 0.338208
vn -0.941071 -0.000000 0.338208
vn -0.941071 -0.000000 0.338208
vn -0.941071 0.000000 0.338208
vn -0.941071 0.000000 0.338208
vn -0.941071 -0.000000 0.338208
vn -0.941071 -0.000000 0.338208
vn -0.941071 -0.000000 0.338208
vn -0.941071 -0.000000 0.338208
vn -0.941071 0.000000 0.338208
vn -0.941071 0.000000 0.338208
vn -0.941071 -0.000000 0.338208
vn -0.941071 -0.000000 0.338208
vn -0.941071 0.000000 0.338208
vn -0.941071 0.000000 0.338208
vn -0.941071 0.000000 0.338208
vn -0.941071 0.000000 0.338208
vn -0.941071 0.000000 0.338208
vn -0.941071 -0.000000 0.338208
vn -0.941071 -0.000000 0.338208
vn -0.941071 0.000000 0.338208
vn -0.941071 -0.000000 0.338208
vn -0.941071 0.000000 0.338208
vn -0.941071 -0.000000 0.338208
vn -0.941071 -0.000000 0.338208
vn -0.941071 -0.000000 0.338208
vn -0.941071 0.000000 0.338208
vn -0.941071 0.000000 0.338208
vn -0.941071 0.000000 0.338208
vn -0.941071 0.000000 0.338208
vn -0.941071 0.000000 0.338208
vn -0.941071 0.000000 0.338208
vn -0.941071 0.000000 0.338208
vn -0.941071 0.000000 0.338208
vn -0.941071 -0.000000 0.338208
vn -0.941071 0.000000 0.338208
vn -0.941071 0.000000 0.338208
vn -0.941071 0.000000 0.338208

usemtl road
f 1//1 2//1 3//1
f 4//2 5//2 6//2
f 7//3 8//3 9//3
f 10//4 11//4 12//4
f 13//5 14//5 15//5
f 16//6 17//6 18//6
f 19//7 20//7 21//7
f 22//8 23//8 24//8
f 25//9 26//9 27//9
f 28//10 29//10 30//10
f 31//11 32//11 33//11
f 34//12 35//12 36//12
f 37//13 38//13 39//13
f 40//14 41//14 42//14
f 43//15 44//15 45//15
f 46//16 47//16 48//16
f 49//17 50//17 51//17
f 52//18 53//18 54//18
f 55//19 56//19 57//19
f 58//20 59//20 60//20
f 61//21 62//21 63//21
f 64//22 65//22 66//22
f 67//23 68//23 69//23
f 70//24 71//24 72//24
f 73//25 74//25 75//25
f 76//26 77//26 78//26
f 79//27 80//27 81//27
f 82//28 83//28 84//28
f 85//29 86//29 87//29
f 88//30 89//30 90//30
f 91//31 92//31 93//31
f 94//32 95//32 96//32
f 97//33 98//33 99//33
f 100//34 101//34 102//34
f 103//35 104//35 105//35
f 106//36 107//36 108//36
f 109//37 110//37 111//37
f 112//38 113//38 114//38
usemtl _default
f 115//39 116//39 117//39
f 118//40 119//40 120//40
f 121//41 122//41 123//41
f 124//42 125//42 126//42
f 127//43 128//43 129//43
f 130//44 131//44 132//44
f 133//45 134//45 135//45
f 136//46 137//46 138//46
f 139//47 140//47 141//47
f 142//48 143//48 144//48
f 145//49 146//49 147//49
f 148//50 149//50 150//50
f 151//51 152//51 153//51
f 154//52 155//52 156//52
f 157//53 158//53 159//53
f 160//54 161//54 162//54
f 163//55 164//55 165//55
f 166//56 167//56 168//56
f 169//57 170//57 171//57
f 172//58 173//58 174//58
f 175//59 176//59 177//59
f 178//60 179//60 180//60
f 181//61 182//61 183//61
f 184//62 185//62 186//62
f 187//63 188//63 189//63
f 190//64 191//64 192//64
f 193//65 194//65 195//65
f 196//66 197//66 198//66
f 199//67 200//67 201//67
f 202//68 203//68 204//68
f 205//69 206//69 207//69
f 208//70 209//70 210//70
f 211//71 212//71 213//71
f 214//72 215//72 216//72
f 217//73 218//73 219//73
f 220//74 221//74 222//74
f 223//75 224//75 225//75
f 226//76 227//76 228//76
f 229//77 230//77 231//77
f 232//78 233//78 234//78
f 235//79 236//79 237//79
f 238//80 239//80 240//80
f 241//81 242//81 243//81
f 244//82 245//82 246//82
f 247//83 248//83 249//83
f 250//84 251//84 252//84
f 253//85 254//85 255//85
f 256//86 257//86 258//86
f 259//87 260//87 261//87
f 262//88 263//88 264//88
f 265//89 266//89 267//89
f 268//90 269//90 270//90
f 271//91 272//91 273//91
f 274//92 275//92 276//92
f 277//93 278//93 279//93
f 280//94 281//94 282//94
f 283//95 284//95 285//95
f 286//96 287//96 288//96
f 289//97 290//97 291//97
f 292//98 293//98 294//98
f 295//99 296//99 297//99
f 298//100 299//100 300//100
f 301//101 302//101 303//101
f 304//102 305//102 306//102
f 307//103 308//103 309//103
f 310//104 311//104 312//104
f 313//105 314//105 315//105
f 316//106 317//106 318//106
f 319//107 320//107 321//107
f 322//108 323//108 324//108
f 325//109 326//109 327//109
f 328//110 329//110 330//110
f 331//111 332//111 333//111
f 334//112 335//112 336//112
